<svg width="167" height="36" viewBox="0 0 167 36" fill="none" xmlns="http://www.w3.org/2000/svg">
<path d="M48.6055 22.5861L52.547 10H56L50.2265 27H46.7402L41 10H44.5307L48.6055 22.5861Z" fill="white"/>
<path d="M64.3093 27H61V10H64.3093V27Z" fill="white"/>
<path d="M78.1034 10C79.9904 10 81.5402 10.3967 82.75 11.19C83.957 11.9777 84.7475 13.1847 85.1187 14.8167L81.8094 15.44C81.56 14.5872 81.101 13.9412 80.438 13.502C79.7722 13.0657 79.0015 12.8447 78.126 12.8447C77.242 12.8447 76.46 13.0147 75.78 13.3547C75.1057 13.689 74.5702 14.1764 74.1707 14.8167C73.6409 15.678 73.3774 16.8454 73.3774 18.3187C73.3774 20.0499 73.7655 21.4552 74.5447 22.5347C75.321 23.617 76.4997 24.1554 78.0807 24.1554C78.7522 24.1554 79.4237 24.0307 80.098 23.7814C80.778 23.5264 81.4014 23.1807 81.968 22.75V20.6874H78.1714V17.8994H85.3227V24.45C84.4982 25.2207 83.4357 25.8412 82.138 26.3087C80.846 26.7677 79.5654 27 78.296 27C76.4515 27 74.9074 26.6204 73.6607 25.8554C72.414 25.0932 71.479 24.0647 70.8614 22.7727C70.2494 21.475 69.9434 20.0357 69.9434 18.4547C69.9434 16.9219 70.2409 15.5165 70.8387 14.2387C71.4422 12.9552 72.3574 11.9267 73.5814 11.156C74.8054 10.3854 76.3127 10 78.1034 10Z" fill="white"/>
<path d="M94.3093 27H91V10H94.3093V27Z" fill="white"/>
<path d="M102.187 25.0096H110.302V27H100V10H102.187V25.0096Z" fill="white"/>
<path d="M127.911 11.9904H118.187V17.2121H127.288V19.2142H118.187V25.0096H128.274V27H116V10H127.911V11.9904Z" fill="white"/>
<path d="M143.869 23.3471V10H145.965V27H143.733L135.097 13.6529V27H133V10H135.233L143.869 23.3471Z" fill="white"/>
<path d="M157.415 10C159.279 10 160.758 10.4392 161.846 11.3147C162.934 12.1845 163.518 13.3858 163.603 14.9187L161.506 15.0547C161.384 13.9978 160.999 13.2158 160.35 12.7087C159.707 12.2043 158.758 11.9493 157.505 11.9493C156.31 11.9493 155.386 12.1703 154.729 12.6067C154.071 13.0458 153.743 13.638 153.743 14.386C153.743 14.879 153.884 15.2983 154.173 15.644C154.468 15.984 154.882 16.2305 155.42 16.3807C155.539 16.4118 155.99 16.5478 156.769 16.7887C157.554 17.0238 158.551 17.2732 159.761 17.5367C161.203 17.854 162.282 18.4292 163.002 19.2593C163.719 20.0838 164.079 21.0245 164.079 22.0813C164.079 22.9738 163.835 23.7983 163.353 24.552C162.869 25.3 162.166 25.8978 161.245 26.3427C160.33 26.779 159.245 27 157.993 27C156.548 27 155.307 26.7733 154.264 26.32C153.221 25.861 152.422 25.215 151.873 24.382C151.32 23.5433 151.028 22.5658 151 21.4467L153.074 21.254C153.165 22.563 153.675 23.5207 154.604 24.1327C155.539 24.7447 156.647 25.0507 157.925 25.0507C159.194 25.0507 160.191 24.79 160.917 24.2687C161.648 23.7473 162.016 23.0418 162.016 22.1493C162.016 20.9423 161.041 20.098 159.092 19.622L157.811 19.3047C157.01 19.1233 156.089 18.8797 155.046 18.568C153.986 18.2677 153.159 17.752 152.564 17.0267C151.966 16.2957 151.669 15.4598 151.669 14.522C151.669 13.6692 151.898 12.8985 152.36 12.21C152.819 11.5158 153.482 10.9747 154.343 10.5893C155.21 10.1983 156.236 10 157.415 10Z" fill="white"/>
<g filter="url(#filter0_i_48_514)">
<path d="M31.8827 20.8525C33.172 18.7517 34.0513 16.3785 34.4621 13.8669C32.9716 8.17042 28.4254 3.83047 22.7988 2.47464C30.2543 7.76956 31.678 16.4452 31.8827 20.8525Z" fill="white"/>
<mask id="mask0_48_514" style="mask-type:luminance" maskUnits="userSpaceOnUse" x="5" y="2" width="21" height="8">
<path d="M5.27051 2H25.2862V9.60005H5.27051V2Z" fill="white"/>
</mask>
<g mask="url(#mask0_48_514)">
<path d="M25.2322 6.88625C23.4695 4.78474 21.3684 3.15718 18.789 2.00568C13.2967 2.07308 8.27786 4.9231 5.35938 9.59792C11.1956 5.46302 18.5885 5.12388 25.2322 6.88625Z" fill="white"/>
</g>
<path d="M7.12695 24.0424C7.26058 26.1432 7.80504 28.244 8.68855 30.2114C12.6242 33.5347 17.9778 34.8238 23.1353 33.468C15.06 32.6514 9.56779 27.0932 7.12695 24.0424Z" fill="white"/>
<path d="M6.0437 27.3656C4.14306 19.3625 7.73892 12.2435 9.97861 8.92453C7.67211 9.87454 5.63784 11.2311 3.80828 12.9927C2.24668 17.6676 2.92477 23.0916 6.0437 27.3656Z" fill="white"/>
<mask id="mask1_48_514" style="mask-type:luminance" maskUnits="userSpaceOnUse" x="20" y="17" width="15" height="16">
<path d="M20.5557 17.955H35.0003V32.122H20.5557V17.955Z" fill="white"/>
</mask>
<g mask="url(#mask1_48_514)">
<path d="M20.6914 31.4341C22.7264 31.9066 24.7607 32.1116 26.9293 31.9066C31.8813 29.0608 35.0002 23.7702 35.0002 18.0737C32.0156 26.2101 24.5552 29.9392 20.6914 31.4341Z" fill="white"/>
</g>
</g>
<defs>
<filter id="filter0_i_48_514" x="3" y="2.00568" width="32" height="31.9943" filterUnits="userSpaceOnUse" color-interpolation-filters="sRGB">
<feFlood flood-opacity="0" result="BackgroundImageFix"/>
<feBlend mode="normal" in="SourceGraphic" in2="BackgroundImageFix" result="shape"/>
<feColorMatrix in="SourceAlpha" type="matrix" values="0 0 0 0 0 0 0 0 0 0 0 0 0 0 0 0 0 0 127 0" result="hardAlpha"/>
<feOffset dy="-1"/>
<feComposite in2="hardAlpha" operator="arithmetic" k2="-1" k3="1"/>
<feColorMatrix type="matrix" values="0 0 0 0 0 0 0 0 0 0 0 0 0 0 0 0 0 0 0.05 0"/>
<feBlend mode="normal" in2="shape" result="effect1_innerShadow_48_514"/>
</filter>
</defs>
</svg>
