<svg width="40" height="40" viewBox="0 0 40 40" fill="none" xmlns="http://www.w3.org/2000/svg">
<g filter="url(#filter0_i_48_147)">
<path d="M32.8827 22.8525C34.172 20.7517 35.0513 18.3785 35.4621 15.8669C33.9716 10.1704 29.4254 5.83047 23.7988 4.47464C31.2543 9.76956 32.678 18.4452 32.8827 22.8525Z" fill="#3E66F3"/>
<mask id="mask0_48_147" style="mask-type:luminance" maskUnits="userSpaceOnUse" x="6" y="4" width="21" height="8">
<path d="M6.27051 4H26.2862V11.6H6.27051V4Z" fill="white"/>
</mask>
<g mask="url(#mask0_48_147)">
<path d="M26.2322 8.88625C24.4695 6.78474 22.3684 5.15718 19.789 4.00568C14.2967 4.07308 9.27786 6.9231 6.35938 11.5979C12.1956 7.46302 19.5885 7.12388 26.2322 8.88625Z" fill="#3E66F3"/>
</g>
<path d="M8.12695 26.0424C8.26058 28.1432 8.80504 30.244 9.68855 32.2114C13.6242 35.5347 18.9778 36.8238 24.1353 35.468C16.06 34.6514 10.5678 29.0932 8.12695 26.0424Z" fill="#3E66F3"/>
<path d="M7.0437 29.3656C5.14306 21.3625 8.73892 14.2435 10.9786 10.9245C8.67211 11.8745 6.63784 13.2311 4.80828 14.9927C3.24668 19.6676 3.92477 25.0916 7.0437 29.3656Z" fill="#3E66F3"/>
<mask id="mask1_48_147" style="mask-type:luminance" maskUnits="userSpaceOnUse" x="21" y="19" width="15" height="16">
<path d="M21.5557 19.955H36.0003V34.122H21.5557V19.955Z" fill="white"/>
</mask>
<g mask="url(#mask1_48_147)">
<path d="M21.6914 33.4341C23.7264 33.9066 25.7607 34.1116 27.9293 33.9066C32.8813 31.0608 36.0002 25.7702 36.0002 20.0737C33.0156 28.2101 25.5552 31.9392 21.6914 33.4341Z" fill="#3E66F3"/>
</g>
</g>
<defs>
<filter id="filter0_i_48_147" x="4" y="4.00568" width="32" height="31.9943" filterUnits="userSpaceOnUse" color-interpolation-filters="sRGB">
<feFlood flood-opacity="0" result="BackgroundImageFix"/>
<feBlend mode="normal" in="SourceGraphic" in2="BackgroundImageFix" result="shape"/>
<feColorMatrix in="SourceAlpha" type="matrix" values="0 0 0 0 0 0 0 0 0 0 0 0 0 0 0 0 0 0 127 0" result="hardAlpha"/>
<feOffset dy="-1"/>
<feComposite in2="hardAlpha" operator="arithmetic" k2="-1" k3="1"/>
<feColorMatrix type="matrix" values="0 0 0 0 0 0 0 0 0 0 0 0 0 0 0 0 0 0 0.1 0"/>
<feBlend mode="normal" in2="shape" result="effect1_innerShadow_48_147"/>
</filter>
</defs>
</svg>
