<svg xmlns="http://www.w3.org/2000/svg" enable-background="new 0 0 321.52 293.71" viewBox="0 0 321.52 293.71"><path fill="#60ad88" d="M241.12,189.177v5.466c-0.181,5.753-2.967,11.167-8.652,15.787
					c-20.452,16.534-70.576,16.534-111.956,0c-29.376-11.733-46.431-28.652-46.544-43.419v-3.405l1.359,0.091
					c1.336-3.374,3.76-6.545,7.316-9.421c20.452-16.535,70.575-16.535,111.933,0c23.85,9.535,39.568,22.468,44.71,34.902H241.12z"/><path fill="#9ed8bc" d="M194.579,146.12c-41.369-16.533-91.489-16.533-111.938,0
					c-20.449,16.533-3.488,43.341,37.88,59.873c41.369,16.533,91.489,16.533,111.938,0
					C252.909,189.46,235.948,162.652,194.579,146.12z"/><polygon fill="#edc3d2" points="147.125 151.058 93.35 119.808 93.444 152.965 147.219 184.216"/><polygon fill="#edc3d2" points="147.125 151.058 93.35 119.808 93.444 152.965 147.219 184.216"/><polygon fill="#3f528c" points="179.954 131.385 119.429 95.578 90.829 121.199 144.885 152.613"/><polygon fill="#edc3d2" points="175.383 179.185 229.158 147.935 229.064 181.093 175.289 212.343"/><polygon fill="#f7d7e1" points="157.815 145.574 175.383 179.185 175.289 212.343 140.037 191.99 140.131 155.651"/><polygon fill="#3f528c" points="156.338 143.872 210.394 112.458 231.679 149.326 177.623 180.74"/><polygon fill="#233163" points="134.926 156.089 188.982 124.674 210.394 112.458 156.338 143.872"/><polygon fill="#2d3a74" points="156.338 143.872 177.623 180.74 175.675 181.85 156.325 148.334 136.861 159.44 134.926 156.089"/><g><polygon fill="#fff" points="113.971 160.447 100.87 152.883 99.763 153.526 113.793 161.626 113.971 161.523"/><path fill="#e8e8e8" d="M100.035,131.792c-0.008-0.009-0.009-0.019-0.018-0.028l-0.227,0.132l-0.028,21.63
													l1.107-0.643l0.025-20.586C100.582,132.209,100.301,132.068,100.035,131.792z"/><path fill="#87c5d9" d="M112.16,138.784c-0.138-0.092-0.234-0.202-0.304-0.321
														c-5.105-2.305-6.823-4.189-11.707-6.76c-0.004-0.002-0.006-0.006-0.01-0.008l-0.348,0.202l14.03,8.1l0.173-0.101
														v-0.296C113.345,139.381,112.783,139.198,112.16,138.784z"/><polygon fill="#79b1c2" points="113.995 139.895 113.821 139.996 113.793 161.626 113.995 161.509"/><path fill="#2d3a74" d="M112.16,138.784c-0.136-0.091-0.232-0.2-0.303-0.317
															c-4.932-2.224-6.509-3.939-11.214-6.487l-0.026,21.052l13.377,7.723v-21.154
															C113.345,139.381,112.783,139.198,112.16,138.784z"/><path fill="#3f528c" d="M108.248,136.562l-7.63,16.149l-0.001,0.32l1.432,0.827l7.861-16.285
												C109.354,137.242,108.801,136.903,108.248,136.562z"/><path fill="#3f528c" d="M112.16,138.784c-0.145-0.096-0.241-0.215-0.312-0.341
												c-0.301-0.138-0.604-0.271-0.902-0.416l-7.986,16.357l3.393,1.959l7.641-16.155v-0.588
												C113.345,139.381,112.783,139.198,112.16,138.784z"/><g><path fill="#edc3d2" d="M99.321,131.082l14.973,8.644l-0.031,22.725l-14.973-8.644L99.321,131.082z
													 M113.793,161.626l0.028-21.63l-14.03-8.1l-0.028,21.63L113.793,161.626"/></g><g><polygon fill="#fff" points="132.14 170.937 119.039 163.373 117.932 164.016 131.962 172.116 132.14 172.013"/><path fill="#e8e8e8" d="M118.204,142.281c-0.008-0.009-0.009-0.019-0.018-0.028l-0.227,0.132l-0.028,21.63
													l1.107-0.643l0.025-20.586C118.751,142.699,118.469,142.558,118.204,142.281z"/><path fill="#87c5d9" d="M130.329,149.273c-0.138-0.092-0.234-0.202-0.304-0.321
														c-5.105-2.304-6.823-4.189-11.707-6.76c-0.004-0.002-0.006-0.006-0.01-0.008l-0.348,0.202l14.03,8.1l0.173-0.101
														v-0.296C131.513,149.871,130.952,149.688,130.329,149.273z"/><polygon fill="#79b1c2" points="132.163 150.385 131.99 150.486 131.962 172.116 132.163 171.999"/><path fill="#2d3a74" d="M130.329,149.273c-0.136-0.091-0.232-0.2-0.303-0.317
															c-4.932-2.224-6.509-3.939-11.214-6.487l-0.026,21.052l13.377,7.723v-21.155
															C131.513,149.871,130.952,149.688,130.329,149.273z"/><path fill="#3f528c" d="M126.417,147.051l-7.63,16.148l-0.001,0.32l1.432,0.827l7.861-16.285
												C127.523,147.731,126.97,147.393,126.417,147.051z"/><path fill="#3f528c" d="M130.329,149.273c-0.145-0.096-0.241-0.215-0.312-0.341
												c-0.301-0.138-0.604-0.271-0.902-0.416l-7.986,16.356l3.393,1.959l7.641-16.155v-0.588
												C131.513,149.871,130.952,149.688,130.329,149.273z"/><g><path fill="#edc3d2" d="M117.49,141.572l14.973,8.644l-0.031,22.725l-14.973-8.644L117.49,141.572z
													 M131.962,172.116l0.028-21.63l-14.03-8.1l-0.028,21.63L131.962,172.116"/></g></g></g><g><polygon fill="#e7b8b5" points="148.954 181.973 151.359 180.575 162.835 187.201 160.43 188.599"/><polygon fill="#d19f9f" points="148.998 167.775 151.403 169.068 151.359 180.575 148.954 181.973"/><polygon fill="#2d3a74" points="161.731 174.919 161.688 187.868 150.212 181.242 150.255 168.293"/><polygon fill="#3f528c" points="161.688 187.868 161.694 185.965 152.108 169.363 150.255 168.294 150.248 170.622 159.463 186.583"/><polygon fill="#3f528c" points="150.233 174.836 155.792 184.464 157.768 185.605 150.241 172.566"/><g><path fill="#c49494" d="M147.343,164.414l-0.101,31.759l15.674,9.026l0.076-31.759L147.343,164.414z
									 M160.955,188.365l-11.468-6.633l0.025-12.936l11.493,6.607L160.955,188.365z"/></g></g><g><polygon fill="#f7d7e1" points="191.929 197.023 191.023 196.496 179.602 203.09 180.144 203.827"/><polygon fill="#f7d7e1" points="191.906 178.44 191 178.336 191.023 196.496 191.929 197.023"/><polygon fill="#2d3a74" points="179.58 184.93 179.602 203.512 191.387 196.708 191.365 178.126"/><polygon fill="#3f528c" points="183.641 182.585 179.634 203.494 181.614 202.351 185.62 181.442"/><polygon fill="#3f528c" points="191.365 178.126 189.719 179.076 185.713 199.984 187.691 198.842 191.366 178.509"/><polygon fill="#3f528c" points="186.484 180.944 182.478 201.852 183.485 201.27 187.492 180.362"/><polygon fill="#3f528c" points="191.368 179.501 188.555 198.343 189.563 197.761 191.372 180.66"/><g><path fill="#edc3d2" d="M192.628,197.556l-13.18,7.61l-0.027-20.446l13.181-7.61L192.628,197.556z M180.144,203.827
										l11.785-6.804l-0.023-18.582l-11.785,6.804L180.144,203.827"/></g><g><polygon fill="#f7d7e1" points="207.7 187.857 206.794 187.331 195.373 193.925 195.915 194.661"/><polygon fill="#f7d7e1" points="207.677 169.275 206.771 169.171 206.794 187.331 207.7 187.857"/><polygon fill="#2d3a74" points="195.351 175.765 195.373 194.347 207.158 187.543 207.136 168.961"/><polygon fill="#3f528c" points="199.412 173.42 195.405 194.329 197.385 193.186 201.391 172.277"/><polygon fill="#3f528c" points="207.136 168.961 205.49 169.911 201.484 190.819 203.462 189.677 207.137 169.344"/><polygon fill="#3f528c" points="202.255 171.779 198.249 192.686 199.256 192.105 203.263 171.197"/><polygon fill="#3f528c" points="207.139 170.336 204.326 189.178 205.334 188.596 207.143 171.495"/><g><path fill="#edc3d2" d="M208.399,188.391l-13.18,7.61l-0.027-20.446l13.181-7.61L208.399,188.391z M195.915,194.661
										l11.785-6.804l-0.023-18.582l-11.785,6.804L195.915,194.661"/></g></g><g><polygon fill="#f7d7e1" points="223.471 178.692 222.565 178.166 211.144 184.76 211.686 185.496"/><polygon fill="#f7d7e1" points="223.448 160.11 222.542 160.006 222.565 178.166 223.471 178.692"/><polygon fill="#2d3a74" points="211.122 166.6 211.144 185.182 222.929 178.378 222.907 159.796"/><polygon fill="#3f528c" points="215.183 164.255 211.176 185.163 213.156 184.02 217.162 163.112"/><polygon fill="#3f528c" points="222.907 159.796 221.261 160.745 217.255 181.654 219.233 180.512 222.908 160.179"/><polygon fill="#3f528c" points="218.026 162.613 214.02 183.521 215.027 182.94 219.034 162.031"/><polygon fill="#3f528c" points="222.91 161.171 220.097 180.013 221.105 179.431 222.914 162.33"/><g><path fill="#edc3d2" d="M224.17,179.226l-13.18,7.61l-0.027-20.446l13.18-7.61L224.17,179.226z M211.686,185.496
										l11.785-6.804l-0.023-18.582l-11.785,6.804L211.686,185.496"/></g></g></g><g><path fill="#d19f9f" d="M182.524,55.661l11.596,6.695l-0.023,25.201l-11.596-6.695L182.524,55.661z"/><polygon fill="#c49494" points="194.12 62.356 196.911 60.735 196.887 85.935 194.097 87.557"/><polygon fill="#e7b8b5" points="182.524 55.661 185.315 54.04 196.911 60.735 194.12 62.356"/><g><polygon fill="#eaeffa" points="171.193 84.184 168.484 83.532 187.452 63.452 189.718 64.573"/><polygon fill="#d0d5dd" points="169.932 88.67 167.224 88.018 161.552 69.221 164.261 69.873"/><polygon fill="#a5acb7" points="166.243 67.775 171.193 84.184 189.718 64.573 189.718 78.565 169.932 88.67 164.261 69.873"/><g><polygon fill="#c49494" points="132.424 80.875 156.335 55.417 159.795 67.125 135.884 92.583"/><polygon fill="#e7b8b5" points="135.884 92.583 159.795 67.125 173.02 70.268 149.109 95.725"/><polygon fill="#2d3a74" points="147.113 82.459 150.573 94.167 137.347 91.024 133.888 79.316"/><path fill="#c49494" d="M147.017,84.343l3.461,11.71c0.1,0.364,0.055,0.663-0.122,0.85l23.912-25.458
										c0.177-0.187,0.224-0.479,0.122-0.85l-3.461-11.709c-0.085-0.285-0.255-0.569-0.474-0.823l-23.911,25.457
										C146.762,83.773,146.932,84.058,147.017,84.343z"/><path fill="#e7b8b5" d="M169.161,57.221l-13.225-3.14c-0.377-0.094-0.677-0.021-0.854,0.165l-23.911,25.458
										c0.177-0.187,0.477-0.259,0.854-0.166l13.225,3.141c0.467,0.108,0.943,0.434,1.293,0.84l23.911-25.457
										C170.105,57.658,169.629,57.334,169.161,57.221z"/><path fill="#d19f9f" d="M145.253,82.68c0.756,0.18,1.541,0.921,1.76,1.663l3.46,11.707
										c0.219,0.742-0.213,1.194-0.969,1.014l-13.225-3.143c-0.756-0.18-1.541-0.921-1.76-1.663l-3.46-11.707
										c-0.219-0.742,0.213-1.194,0.969-1.014L145.253,82.68z M149.109,95.725l-3.46-11.708l-13.225-3.143l3.46,11.708
										L149.109,95.725"/><path fill="#8294ed" d="M140.711,84.15c1.936,0.46,3.958,2.37,4.519,4.27c0.561,1.899-0.552,3.064-2.488,2.604
											c-1.932-0.459-3.958-2.37-4.519-4.269C137.662,84.855,138.779,83.691,140.711,84.15z"/><g><path fill="#fff" d="M142.163,85.665c0.676,0.161,1.383,0.828,1.579,1.492c0.196,0.663-0.193,1.071-0.869,0.91
											c-0.675-0.16-1.383-0.828-1.579-1.492C141.098,85.911,141.488,85.505,142.163,85.665z"/></g></g></g></g><g><path fill="#233163" d="M155.342,156.643l2.333,1.347l-0.005,5.071l-2.333-1.347L155.342,156.643z"/><polygon fill="#2d3a74" points="157.675 157.99 158.237 157.664 158.232 162.735 157.67 163.061"/><polygon fill="#4a5f93" points="155.342 156.643 155.903 156.317 158.237 157.664 157.675 157.99"/><g><polygon fill="#eaeffa" points="153.061 162.383 152.516 162.251 156.333 158.211 156.789 158.436"/><polygon fill="#d0d5dd" points="152.808 163.285 152.263 163.154 151.121 159.372 151.666 159.503"/><polygon fill="#a5acb7" points="152.065 159.081 153.061 162.383 156.789 158.436 156.789 161.252 152.808 163.285 151.666 159.503"/><g><polygon fill="#2d3a74" points="145.26 161.717 150.072 156.594 150.768 158.95 145.956 164.073"/><polygon fill="#4a5f93" points="145.956 164.073 150.768 158.95 153.429 159.582 148.617 164.705"/><polygon fill="#b7ceff" points="148.216 162.036 148.912 164.391 146.251 163.759 145.554 161.403"/><path fill="#2d3a74" d="M148.196,162.415l0.696,2.356c0.02,0.073,0.011,0.133-0.025,0.171l4.812-5.123
									c0.035-0.038,0.045-0.096,0.025-0.171l-0.696-2.356c-0.017-0.057-0.051-0.115-0.095-0.165l-4.812,5.123
									C148.145,162.3,148.179,162.357,148.196,162.415z"/><path fill="#4a5f93" d="M152.653,156.957l-2.661-0.632c-0.076-0.019-0.136-0.004-0.172,0.033l-4.812,5.123
									c0.036-0.038,0.096-0.052,0.172-0.033l2.661,0.632c0.094,0.022,0.19,0.087,0.26,0.169l4.812-5.123
									C152.842,157.045,152.747,156.98,152.653,156.957z"/><path fill="#3f528c" d="M147.842,162.08c0.152,0.036,0.31,0.185,0.354,0.335l0.696,2.356
									c0.044,0.149-0.043,0.24-0.195,0.204l-2.661-0.632c-0.152-0.036-0.31-0.185-0.354-0.335l-0.696-2.356
									c-0.044-0.149,0.043-0.24,0.195-0.204L147.842,162.08z M148.617,164.705l-0.696-2.356l-2.661-0.632l0.696,2.356
									L148.617,164.705"/><g><path fill="#3f528c" d="M146.927,162.376c0.39,0.093,0.797,0.477,0.909,0.859c0.113,0.382-0.111,0.617-0.501,0.524
										c-0.389-0.092-0.796-0.477-0.909-0.859C146.314,162.518,146.539,162.283,146.927,162.376z"/></g></g></g></g><g><path fill="#d0d5dd" d="M273.26,147.856l-0.125,43.278c0,0.551-0.2,0.952-0.514,1.14l-4.42,2.555
						c0.326-0.176,0.513-0.576,0.526-1.127l0.113-43.291c0.013-1.114-0.789-2.492-1.778-3.068l-23.166-13.374
						c-0.501-0.288-0.939-0.313-1.265-0.125l4.408-2.567c0.326-0.188,0.776-0.163,1.265,0.125l23.179,13.387
						C272.458,145.351,273.26,146.729,273.26,147.856z"/><path fill="#eaeffa" d="M267.068,147.347c0.983,0.568,1.78,1.948,1.777,3.069l-0.123,43.28
						c-0.003,1.13-0.805,1.578-1.789,1.01l-23.178-13.382c-0.983-0.568-1.772-1.934-1.769-3.064l0.123-43.28
						c0.003-1.121,0.797-1.583,1.781-1.015L267.068,147.347z"/><path fill="#d9dfe8" d="M250.26,179.426c0.264,0.152,0.479,0.525,0.478,0.828l-0.008,2.738
									c-0.001,0.303-0.217,0.427-0.481,0.274l-3.222-1.86c-0.264-0.152-0.479-0.525-0.478-0.828l0.008-2.738
									c0.001-0.303,0.217-0.427,0.481-0.274L250.26,179.426z"/><path fill="#d9dfe8" d="M250.273,174.575c0.264,0.152,0.479,0.525,0.478,0.828l-0.008,2.728
									c-0.001,0.303-0.217,0.427-0.481,0.274l-3.222-1.86c-0.264-0.152-0.479-0.525-0.478-0.828l0.008-2.728
									c0.001-0.303,0.217-0.427,0.481-0.274L250.273,174.575z"/><path fill="#d9dfe8" d="M250.287,169.715c0.264,0.152,0.479,0.525,0.478,0.828l-0.008,2.738
									c-0.001,0.303-0.217,0.427-0.481,0.274l-3.222-1.86c-0.264-0.152-0.479-0.525-0.478-0.828l0.008-2.738
									c0.001-0.303,0.217-0.427,0.481-0.274L250.287,169.715z"/><path fill="#d9dfe8" d="M250.301,164.855c0.264,0.152,0.479,0.525,0.478,0.828l-0.008,2.738
									c-0.001,0.303-0.217,0.427-0.481,0.274l-3.222-1.86c-0.264-0.152-0.479-0.525-0.478-0.828l0.008-2.738
									c0.001-0.303,0.217-0.427,0.481-0.274L250.301,164.855z"/><path fill="#d9dfe8" d="M255.361,182.371c0.264,0.152,0.479,0.525,0.478,0.828l-0.008,2.738
									c-0.001,0.303-0.217,0.427-0.481,0.274l-3.23-1.865c-0.264-0.152-0.479-0.525-0.478-0.828l0.008-2.738
									c0.001-0.303,0.217-0.427,0.481-0.274L255.361,182.371z"/><path fill="#d9dfe8" d="M255.374,177.52c0.264,0.152,0.479,0.525,0.478,0.828l-0.008,2.728
									c-0.001,0.303-0.217,0.427-0.481,0.274l-3.23-1.865c-0.264-0.152-0.479-0.525-0.478-0.828l0.008-2.728
									c0.001-0.303,0.217-0.427,0.481-0.274L255.374,177.52z"/><path fill="#d9dfe8" d="M255.388,172.66c0.264,0.152,0.479,0.525,0.478,0.828l-0.008,2.738
									c-0.001,0.303-0.217,0.427-0.481,0.274l-3.23-1.865c-0.264-0.152-0.479-0.525-0.478-0.828l0.008-2.738
									c0.001-0.303,0.217-0.427,0.481-0.274L255.388,172.66z"/><path fill="#d9dfe8" d="M255.402,167.8c0.264,0.152,0.479,0.525,0.478,0.828l-0.008,2.738
									c-0.001,0.303-0.217,0.427-0.481,0.274l-3.23-1.865c-0.264-0.152-0.479-0.525-0.478-0.828l0.008-2.738
									c0.001-0.303,0.217-0.427,0.481-0.274L255.402,167.8z"/><path fill="#d9dfe8" d="M260.453,185.311c0.272,0.157,0.479,0.525,0.478,0.828l-0.008,2.738
									c-0.001,0.303-0.21,0.431-0.481,0.274l-3.222-1.86c-0.264-0.152-0.479-0.525-0.478-0.828l0.008-2.738
									c0.001-0.303,0.217-0.427,0.481-0.274L260.453,185.311z"/><path fill="#d9dfe8" d="M260.467,180.461c0.272,0.157,0.479,0.525,0.478,0.828l-0.008,2.728
									c-0.001,0.303-0.21,0.431-0.481,0.274l-3.222-1.86c-0.264-0.152-0.479-0.525-0.478-0.828l0.008-2.728
									c0.001-0.303,0.217-0.427,0.481-0.274L260.467,180.461z"/><path fill="#d9dfe8" d="M260.481,175.6c0.272,0.157,0.479,0.525,0.478,0.828l-0.008,2.738
									c-0.001,0.303-0.209,0.431-0.481,0.274l-3.222-1.86c-0.264-0.152-0.479-0.525-0.478-0.828l0.008-2.738
									c0.001-0.303,0.217-0.427,0.481-0.274L260.481,175.6z"/><path fill="#a5acb7" d="M251.273,179.94l-0.013,2.742c0,0.15-0.05,0.263-0.138,0.313l-0.538,0.3
									c0.088-0.05,0.15-0.15,0.15-0.3v-2.742c0-0.301-0.213-0.676-0.476-0.827l-3.218-1.866c-0.138-0.075-0.25-0.075-0.338-0.024
									l0.526-0.313c0.088-0.05,0.2-0.038,0.338,0.037l3.218,1.853C251.048,179.276,251.273,179.639,251.273,179.94z"/><path fill="#a5acb7" d="M251.286,175.094l-0.012,2.73c0,0.15-0.05,0.263-0.138,0.313l-0.526,0.301
									c0.075-0.05,0.138-0.15,0.138-0.301v-2.729c0-0.301-0.213-0.676-0.476-0.827l-3.218-1.865
									c-0.138-0.075-0.251-0.088-0.338-0.038l0.526-0.3c0.088-0.05,0.213-0.05,0.338,0.025l3.218,1.866
									C251.073,174.418,251.286,174.793,251.286,175.094z"/><path fill="#a5acb7" d="M251.298,170.235l-0.013,2.742c0,0.15-0.05,0.25-0.138,0.3l-0.526,0.313
									c0.088-0.05,0.138-0.163,0.138-0.313v-2.73c0.012-0.313-0.213-0.676-0.476-0.839l-3.218-1.854
									c-0.138-0.075-0.25-0.087-0.338-0.037l0.526-0.3c0.088-0.05,0.213-0.05,0.338,0.024l3.231,1.866
									C251.085,169.559,251.298,169.935,251.298,170.235z"/><path fill="#a5acb7" d="M251.311,165.376l-0.013,2.742c0,0.15-0.05,0.251-0.138,0.301l-0.526,0.313
									c0.088-0.05,0.138-0.163,0.138-0.313l0.013-2.73c0-0.313-0.225-0.676-0.488-0.839l-3.218-1.853
									c-0.138-0.075-0.251-0.087-0.338-0.037l0.526-0.301c0.088-0.05,0.213-0.05,0.338,0.025l3.231,1.866
									C251.098,164.701,251.311,165.076,251.311,165.376z"/><path fill="#a5acb7" d="M256.37,182.895l-0.013,2.73c0,0.15-0.05,0.263-0.138,0.313l-0.526,0.3
									c0.088-0.05,0.138-0.15,0.138-0.3l0.013-2.743c0-0.3-0.225-0.676-0.488-0.826l-3.231-1.866
									c-0.125-0.075-0.25-0.075-0.338-0.025l0.539-0.313c0.088-0.05,0.2-0.05,0.338,0.038l3.231,1.866
									C256.157,182.219,256.37,182.582,256.37,182.895z"/><path fill="#a5acb7" d="M256.382,178.037l-0.013,2.73c0,0.15-0.05,0.263-0.138,0.313l-0.526,0.301
									c0.088-0.05,0.138-0.15,0.138-0.301l0.012-2.729c0-0.301-0.213-0.676-0.476-0.827l-3.231-1.865
									c-0.138-0.076-0.263-0.088-0.351-0.038l0.538-0.301c0.088-0.05,0.2-0.05,0.338,0.026l3.231,1.866
									C256.169,177.361,256.382,177.736,256.382,178.037z"/><path fill="#a5acb7" d="M261.466,185.826l-0.013,2.742c0,0.15-0.05,0.263-0.138,0.313l-0.526,0.301
									c0.075-0.05,0.138-0.15,0.138-0.301v-2.742c0-0.3-0.2-0.676-0.476-0.826l-3.218-1.866c-0.138-0.075-0.251-0.075-0.338-0.025
									l0.526-0.313c0.088-0.05,0.2-0.037,0.338,0.037l3.218,1.854C261.253,185.162,261.466,185.525,261.466,185.826z"/><path fill="#a5acb7" d="M261.479,180.98l-0.012,2.73c0,0.15-0.05,0.263-0.138,0.313l-0.526,0.301
									c0.088-0.05,0.138-0.15,0.138-0.301v-2.73c0-0.313-0.2-0.676-0.476-0.827l-3.218-1.866c-0.138-0.075-0.25-0.087-0.338-0.037
									l0.526-0.301c0.088-0.05,0.213-0.05,0.338,0.025l3.218,1.866C261.266,180.316,261.479,180.679,261.479,180.98z"/><path fill="#a5acb7" d="M256.407,168.319v2.742c0,0.15-0.063,0.251-0.15,0.301l-0.526,0.313
									c0.088-0.05,0.138-0.163,0.138-0.313l0.012-2.73c0-0.313-0.213-0.676-0.476-0.827l-3.231-1.866
									c-0.138-0.075-0.25-0.087-0.338-0.037l0.526-0.313c0.088-0.05,0.2-0.038,0.338,0.037l3.231,1.865
									C256.194,167.643,256.407,168.019,256.407,168.319z"/><path fill="#a5acb7" d="M261.491,176.121l-0.013,2.742c0,0.15-0.05,0.251-0.138,0.301l-0.526,0.313
									c0.088-0.05,0.138-0.163,0.138-0.313v-2.73c0.012-0.313-0.2-0.676-0.476-0.839l-3.218-1.853
									c-0.138-0.075-0.25-0.087-0.338-0.038l0.526-0.3c0.088-0.05,0.213-0.05,0.338,0.025l3.231,1.866
									C261.279,175.444,261.491,175.82,261.491,176.121z"/><path fill="#a5acb7" d="M261.504,171.262l-0.013,2.742c0,0.15-0.05,0.251-0.138,0.301l-0.526,0.313
									c0.088-0.05,0.138-0.163,0.138-0.313l0.013-2.73c0-0.313-0.213-0.676-0.488-0.839l-3.218-1.853
									c-0.125-0.075-0.251-0.088-0.338-0.038l0.526-0.3c0.088-0.05,0.213-0.05,0.338,0.025l3.231,1.865
									C261.291,170.586,261.504,170.962,261.504,171.262z"/><path fill="#a5acb7" d="M256.395,173.178l-0.012,2.743c0,0.15-0.05,0.25-0.138,0.3l-0.526,0.313
									c0.088-0.05,0.138-0.163,0.138-0.313l0.013-2.73c0-0.3-0.213-0.676-0.476-0.826l-3.231-1.866
									c-0.138-0.075-0.263-0.087-0.351-0.037l0.539-0.301c0.088-0.062,0.2-0.05,0.338,0.025l3.231,1.866
									C256.182,172.501,256.395,172.878,256.395,173.178z"/><g><path fill="#d9dfe8" d="M260.495,170.741c0.272,0.157,0.479,0.525,0.478,0.828l-0.008,2.738
									c-0.001,0.303-0.21,0.431-0.481,0.274l-3.222-1.86c-0.264-0.152-0.479-0.525-0.478-0.828l0.008-2.738
									c0.001-0.303,0.217-0.427,0.481-0.274L260.495,170.741z"/></g><g><polygon fill="#3f528c" points="248.851 179.512 248.809 180.196 249.321 180.106 249.504 180.57 248.952 180.564 249.502 181.204 249.317 181.466 248.807 180.766 248.845 181.506 248.477 181.294 248.519 180.6 248.006 180.7 247.823 180.235 248.376 180.232 247.825 179.601 248.01 179.34 248.521 180.03 248.483 179.3"/><polygon fill="#3f528c" points="249.384 174.796 249.383 175.145 248.53 176.612 248.163 176.4 248.992 174.928 248.28 174.517 248.279 174.82 247.975 174.645 247.977 173.984"/><polygon fill="#3f528c" points="249.094 169.77 248.363 170.718 248.843 170.995 248.844 170.573 249.164 170.757 249.162 171.18 249.402 171.318 249.401 171.668 249.161 171.529 249.16 172.117 248.84 171.932 248.842 171.345 247.978 170.846 247.979 170.506 248.719 169.553"/><polygon fill="#3f528c" points="249.076 164.891 249.07 167.197 248.75 167.013 248.755 165.056 248.348 164.82 248.349 164.471"/><path fill="#3f528c" d="M259.437,176.772c0.12,0.207,0.183,0.428,0.182,0.657c-0.001,0.23-0.065,0.377-0.202,0.436
								c-0.128,0.064-0.296,0.032-0.496-0.084c-0.32-0.185-0.543-0.479-0.662-0.88c-0.071-0.225-0.103-0.455-0.102-0.693
								c0.001-0.239,0.025-0.418,0.066-0.561c0.048-0.128,0.105-0.225,0.185-0.27c0.152-0.087,0.337-0.073,0.552,0.052
								c0.216,0.125,0.408,0.309,0.583,0.567l-0.169,0.197l-0.176-0.221l-0.192-0.166c-0.184-0.106-0.312-0.107-0.4-0.02
								c-0.08,0.091-0.121,0.252-0.13,0.486c0.048-0.037,0.12-0.05,0.208-0.054c0.088-0.005,0.192,0.028,0.296,0.088
								C259.166,176.413,259.318,176.565,259.437,176.772z M259.203,177.492c0.08-0.027,0.113-0.11,0.113-0.229
								c0-0.111-0.031-0.23-0.103-0.354c-0.064-0.12-0.159-0.221-0.271-0.286c-0.12-0.069-0.216-0.088-0.288-0.056
								c-0.08,0.027-0.12,0.105-0.121,0.225c0,0.11,0.039,0.234,0.111,0.368c0.072,0.124,0.168,0.217,0.28,0.281
								C259.035,177.506,259.131,177.524,259.203,177.492"/><path fill="#3f528c" d="M259.494,170.888l-0.001,0.312l-0.482,0.339c0.184,0.116,0.328,0.263,0.423,0.447
									c0.104,0.189,0.159,0.368,0.159,0.542c-0.001,0.239-0.073,0.381-0.209,0.44c-0.144,0.046-0.32,0.018-0.536-0.107
									c-0.216-0.125-0.431-0.332-0.639-0.618l0.145-0.229c0.16,0.23,0.335,0.396,0.511,0.498c0.12,0.069,0.216,0.088,0.296,0.079
									c0.072-0.023,0.112-0.092,0.113-0.211c0-0.12-0.047-0.239-0.127-0.359c-0.088-0.115-0.2-0.217-0.352-0.304l-0.216-0.088
									l0.001-0.294l0.466-0.357l-0.728-0.42l0.001-0.349L259.494,170.888z"/><path fill="#3f528c" d="M254.234,178.645c0.192,0.258,0.287,0.506,0.286,0.763c-0.001,0.202-0.065,0.331-0.201,0.381
								c-0.144,0.055-0.32,0.017-0.544-0.112c-0.224-0.129-0.408-0.3-0.543-0.516c-0.136-0.207-0.207-0.414-0.206-0.617
								c0.001-0.257,0.097-0.395,0.29-0.431c-0.144-0.212-0.215-0.409-0.215-0.593c0.001-0.174,0.065-0.285,0.193-0.33
								c0.136-0.032,0.296-0.004,0.488,0.107c0.192,0.111,0.352,0.268,0.479,0.451c0.128,0.193,0.191,0.377,0.191,0.552
								C254.451,178.485,254.379,178.6,254.234,178.645z M254.056,179.407c0.088-0.014,0.128-0.082,0.129-0.202
								c0-0.129-0.039-0.243-0.119-0.354c-0.088-0.116-0.184-0.207-0.288-0.267c-0.112-0.065-0.208-0.084-0.288-0.065
								c-0.088,0.014-0.128,0.082-0.129,0.211c0,0.12,0.047,0.239,0.135,0.354c0.088,0.115,0.176,0.203,0.28,0.263
								C253.872,179.402,253.968,179.421,254.056,179.407 M253.525,177.554c-0.072,0.023-0.104,0.087-0.105,0.188
								c0,0.101,0.031,0.202,0.103,0.308c0.072,0.106,0.16,0.193,0.256,0.248c0.096,0.055,0.184,0.07,0.256,0.047
								c0.072-0.023,0.104-0.087,0.105-0.188c0-0.101-0.031-0.202-0.103-0.308c-0.072-0.106-0.16-0.193-0.256-0.248
								C253.685,177.546,253.597,177.532,253.525,177.554"/><path fill="#3f528c" d="M254.355,172.789l-0.001,0.358l-0.848-0.489l-0.002,0.56c0.088,0.005,0.184,0.033,0.288,0.093
								c0.184,0.106,0.352,0.267,0.487,0.475c0.135,0.207,0.199,0.418,0.198,0.639c-0.001,0.221-0.073,0.363-0.21,0.431
								c-0.144,0.064-0.32,0.036-0.528-0.084c-0.272-0.157-0.479-0.378-0.647-0.686l0.185-0.169l0.064,0.092
								c0.024,0.041,0.08,0.11,0.16,0.193c0.08,0.083,0.168,0.161,0.264,0.217c0.096,0.055,0.184,0.07,0.256,0.047
								c0.08-0.018,0.12-0.096,0.121-0.225c0-0.12-0.039-0.243-0.127-0.358c-0.08-0.12-0.184-0.217-0.312-0.291
								c-0.128-0.074-0.248-0.106-0.36-0.097l-0.143-0.258l0.003-1.112L254.355,172.789z"/><path fill="#3f528c" d="M259.505,181.099c0.063,0.23,0.103,0.464,0.102,0.703c-0.001,0.239-0.025,0.418-0.074,0.555
								c-0.04,0.133-0.105,0.216-0.177,0.275c-0.152,0.087-0.336,0.072-0.552-0.052c-0.216-0.125-0.415-0.323-0.591-0.58
								l0.177-0.183l0.176,0.221l0.192,0.166c0.176,0.102,0.312,0.106,0.392,0.015c0.088-0.087,0.129-0.248,0.138-0.482
								c-0.048,0.037-0.12,0.05-0.208,0.055c-0.096-0.001-0.192-0.028-0.304-0.093c-0.176-0.102-0.328-0.263-0.447-0.461
								c-0.12-0.207-0.183-0.428-0.182-0.657c0.001-0.23,0.065-0.376,0.202-0.436c0.128-0.064,0.296-0.031,0.496,0.084
								C259.163,180.414,259.378,180.704,259.505,181.099z M259.112,181.442c0.08-0.027,0.12-0.105,0.121-0.224
								c0-0.111-0.039-0.234-0.111-0.368c-0.08-0.129-0.167-0.216-0.279-0.281c-0.112-0.065-0.208-0.084-0.28-0.051
								c-0.072,0.032-0.112,0.11-0.113,0.229c0,0.119,0.039,0.243,0.103,0.354c0.064,0.119,0.152,0.216,0.271,0.285
								C258.935,181.452,259.031,181.47,259.112,181.442"/><polygon fill="#3f528c" points="259.618 186.501 259.346 186.344 259.273 186.781 259.585 186.961 259.528 187.241 259.232 187.07 259.159 187.488 258.879 187.326 258.952 186.908 258.584 186.696 258.511 187.114 258.231 186.952 258.304 186.534 258.049 186.387 258.105 186.107 258.353 186.25 258.427 185.814 258.147 185.652 258.196 185.367 258.475 185.529 258.549 185.084 258.829 185.245 258.755 185.69 259.123 185.903 259.196 185.458 259.468 185.615 259.395 186.06 259.675 186.221"/><path fill="#3f528c" d="M253.809,167.596c0.168,0.097,0.32,0.249,0.439,0.438c0.128,0.193,0.191,0.395,0.19,0.607
								c0,0.12-0.025,0.225-0.081,0.294c-0.056,0.078-0.153,0.161-0.297,0.252l-0.473,0.269l0.911,0.526l-0.001,0.377l-1.375-0.794
								l0.001-0.33l0.618-0.343c0.136-0.087,0.233-0.151,0.289-0.211c0.056-0.059,0.089-0.133,0.089-0.225
								c0-0.092-0.032-0.184-0.095-0.285c-0.064-0.101-0.136-0.179-0.232-0.234c-0.168-0.097-0.304-0.075-0.408,0.058l-0.271-0.34
								c0.088-0.106,0.185-0.161,0.289-0.174C253.505,167.458,253.641,167.499,253.809,167.596z"/><path fill="#3f528c" d="M254.383,182.835c0.135,0.29,0.198,0.621,0.197,0.979c-0.001,0.367-0.066,0.615-0.202,0.757
								c-0.136,0.142-0.345,0.123-0.617-0.034c-0.272-0.157-0.479-0.378-0.615-0.677c-0.135-0.299-0.199-0.621-0.197-0.988
								c0.001-0.358,0.066-0.615,0.202-0.748c0.136-0.142,0.345-0.133,0.616,0.025C254.04,182.305,254.247,182.536,254.383,182.835z
								 M254.131,184.18c0.08-0.11,0.113-0.294,0.114-0.56c0.001-0.258-0.031-0.478-0.11-0.69c-0.079-0.202-0.199-0.345-0.367-0.442
								c-0.168-0.097-0.296-0.097-0.376,0.022c-0.08,0.11-0.121,0.289-0.122,0.546c-0.001,0.257,0.039,0.492,0.118,0.694
								s0.207,0.359,0.375,0.456C253.93,184.303,254.05,184.299,254.131,184.18"/><polygon fill="#3f528c" points="259.001 186.624 258.633 186.412 258.706 185.975 259.074 186.188"/></g><g><path fill="#8294ed" d="M255.462,145.765c1.999,1.154,3.616,3.947,3.61,6.253c-0.007,2.297-1.635,3.225-3.634,2.071
							c-2.007-1.159-3.624-3.961-3.618-6.258C251.827,145.525,253.455,144.606,255.462,145.765z M255.444,152.232
							c1.103,0.637,2.01,0.12,2.013-1.147c0.004-1.277-0.897-2.828-2-3.465c-1.111-0.642-2.018-0.134-2.021,1.143
							C253.432,150.031,254.332,151.591,255.444,152.232"/><path fill="#a5acb7" d="M251.171,159.354c0.264,0.152,0.471,0.512,0.47,0.815c-0.001,0.285-0.209,0.403-0.473,0.251
							c-0.248-0.143-0.455-0.502-0.454-0.786C250.715,159.33,250.923,159.211,251.171,159.354z"/><path fill="#a5acb7" d="M251.18,156.194c0.264,0.152,0.471,0.511,0.47,0.805c-0.001,0.303-0.209,0.413-0.473,0.26
							c-0.248-0.143-0.455-0.493-0.454-0.796C250.724,156.17,250.932,156.051,251.18,156.194z"/><path fill="#a5acb7" d="M251.176,157.774c0.264,0.152,0.471,0.511,0.47,0.815c-0.001,0.285-0.209,0.403-0.473,0.251
							c-0.248-0.143-0.455-0.502-0.454-0.786C250.719,157.75,250.928,157.631,251.176,157.774z"/><path fill="#a5acb7" d="M252.874,160.337c0.256,0.148,0.455,0.502,0.454,0.805c-0.001,0.285-0.201,0.408-0.457,0.26
							c-0.264-0.152-0.463-0.507-0.462-0.791C252.41,160.309,252.61,160.185,252.874,160.337z"/><path fill="#a5acb7" d="M252.883,157.177c0.256,0.148,0.455,0.502,0.454,0.796c-0.001,0.303-0.201,0.417-0.457,0.27
							c-0.264-0.152-0.463-0.497-0.462-0.8C252.419,157.148,252.619,157.025,252.883,157.177z"/><path fill="#a5acb7" d="M252.878,158.757c0.256,0.148,0.455,0.502,0.454,0.805c-0.001,0.285-0.201,0.408-0.457,0.26
							c-0.264-0.152-0.463-0.507-0.462-0.791C252.414,158.728,252.615,158.605,252.878,158.757z"/><path fill="#a5acb7" d="M249.493,155.22c0.248,0.143,0.463,0.507,0.462,0.801c-0.001,0.303-0.217,0.408-0.465,0.265
							c-0.256-0.148-0.471-0.502-0.47-0.805C249.021,155.186,249.237,155.072,249.493,155.22z"/><path fill="#a5acb7" d="M249.489,156.8c0.248,0.143,0.463,0.507,0.462,0.81c-0.001,0.285-0.217,0.399-0.465,0.256
							c-0.256-0.148-0.471-0.511-0.47-0.796C249.016,156.766,249.233,156.652,249.489,156.8z"/><path fill="#a5acb7" d="M249.484,158.38c0.248,0.143,0.463,0.507,0.462,0.81c-0.001,0.285-0.217,0.399-0.465,0.256
							c-0.256-0.148-0.471-0.511-0.47-0.796C249.012,158.347,249.228,158.232,249.484,158.38z"/><path fill="#a5acb7" d="M256.265,159.13c0.264,0.152,0.471,0.511,0.47,0.805c-0.001,0.303-0.209,0.413-0.473,0.26
							c-0.248-0.143-0.455-0.493-0.454-0.796C255.809,159.105,256.017,158.987,256.265,159.13z"/><path fill="#a5acb7" d="M254.578,158.156c0.248,0.143,0.455,0.502,0.454,0.796c-0.001,0.303-0.209,0.413-0.457,0.27
							c-0.256-0.148-0.471-0.502-0.47-0.805C254.106,158.122,254.322,158.008,254.578,158.156z"/><path fill="#a5acb7" d="M254.573,159.736c0.248,0.143,0.455,0.502,0.454,0.805c-0.001,0.285-0.209,0.403-0.457,0.26
								c-0.256-0.148-0.471-0.511-0.47-0.796C254.101,159.702,254.318,159.588,254.573,159.736z"/><path fill="#4a5f93" d="M255.469,143.358c3.15,1.819,5.7,6.236,5.69,9.865c-0.01,3.62-2.577,5.082-5.727,3.264
								c-3.158-1.823-5.708-6.24-5.698-9.86C249.744,142.997,252.311,141.534,255.469,143.358z M255.438,154.089
								c1.999,1.154,3.627,0.226,3.634-2.071c0.007-2.306-1.611-5.099-3.61-6.253c-2.007-1.159-3.635-0.24-3.642,2.066
								C251.814,150.128,253.432,152.93,255.438,154.089"/><path fill="#b7ceff" d="M255.457,147.62c1.103,0.637,2.004,2.188,2,3.465c-0.004,1.268-0.91,1.784-2.013,1.147
							c-1.111-0.642-2.012-2.201-2.008-3.469C253.439,147.486,254.345,146.979,255.457,147.62z"/><path fill="#a5acb7" d="M247.789,157.402c0.256,0.148,0.455,0.502,0.454,0.805c-0.001,0.285-0.201,0.408-0.457,0.26
							c-0.264-0.152-0.463-0.507-0.462-0.791C247.325,157.373,247.525,157.249,247.789,157.402z"/><path fill="#a5acb7" d="M247.798,154.241c0.256,0.148,0.455,0.502,0.454,0.796c-0.001,0.303-0.201,0.418-0.457,0.27
							c-0.264-0.152-0.463-0.498-0.462-0.801C247.334,154.212,247.534,154.089,247.798,154.241z"/><path fill="#a5acb7" d="M247.794,155.821c0.256,0.148,0.455,0.502,0.454,0.805c-0.001,0.285-0.201,0.408-0.457,0.26
							c-0.264-0.152-0.463-0.507-0.462-0.791C247.329,155.792,247.53,155.669,247.794,155.821z"/><path fill="#a5acb7" d="M259.663,161.092c0.248,0.143,0.455,0.502,0.454,0.796c-0.001,0.303-0.209,0.413-0.457,0.27
							c-0.264-0.152-0.471-0.502-0.47-0.805C259.19,161.058,259.399,160.939,259.663,161.092z"/><path fill="#a5acb7" d="M257.964,161.693c0.256,0.148,0.455,0.502,0.454,0.805c-0.001,0.285-0.201,0.408-0.457,0.26
							c-0.264-0.152-0.463-0.506-0.462-0.791C257.499,161.664,257.7,161.541,257.964,161.693z"/><path fill="#a5acb7" d="M257.968,160.113c0.256,0.148,0.455,0.502,0.454,0.796c-0.001,0.303-0.201,0.417-0.457,0.27
							c-0.264-0.152-0.463-0.497-0.462-0.801C257.503,160.084,257.704,159.961,257.968,160.113z"/><path fill="#a5acb7" d="M259.654,164.252c0.248,0.143,0.455,0.502,0.454,0.805c-0.001,0.285-0.209,0.403-0.457,0.26
							c-0.264-0.152-0.471-0.511-0.47-0.796C259.182,164.219,259.39,164.099,259.654,164.252z"/><path fill="#a5acb7" d="M254.569,161.316c0.248,0.143,0.455,0.502,0.454,0.805c-0.001,0.285-0.209,0.403-0.457,0.26
							c-0.256-0.148-0.471-0.511-0.47-0.796C254.097,161.283,254.313,161.168,254.569,161.316z"/><path fill="#a5acb7" d="M256.26,160.71c0.264,0.152,0.471,0.511,0.47,0.815c-0.001,0.285-0.209,0.403-0.473,0.251
							c-0.248-0.143-0.455-0.502-0.454-0.786C255.804,160.685,256.013,160.567,256.26,160.71z"/><path fill="#a5acb7" d="M261.35,162.066c0.256,0.148,0.471,0.511,0.47,0.805c-0.001,0.303-0.217,0.408-0.473,0.26
							c-0.248-0.143-0.455-0.493-0.454-0.796C260.893,162.041,261.102,161.923,261.35,162.066z"/><path fill="#a5acb7" d="M263.036,166.204c0.264,0.152,0.463,0.507,0.462,0.81c-0.001,0.285-0.201,0.408-0.465,0.256
							c-0.256-0.148-0.455-0.502-0.454-0.786C262.579,166.18,262.78,166.057,263.036,166.204z"/><path fill="#a5acb7" d="M263.04,164.624c0.264,0.152,0.463,0.506,0.462,0.81c-0.001,0.285-0.201,0.408-0.465,0.256
							c-0.256-0.148-0.455-0.502-0.454-0.786C262.584,164.6,262.784,164.477,263.04,164.624z"/><path fill="#a5acb7" d="M263.045,163.044c0.264,0.152,0.463,0.507,0.462,0.801c-0.001,0.303-0.201,0.417-0.465,0.265
							c-0.256-0.148-0.455-0.493-0.454-0.796C262.589,163.02,262.789,162.896,263.045,163.044z"/><path fill="#a5acb7" d="M261.341,165.226c0.256,0.148,0.471,0.512,0.47,0.815c-0.001,0.285-0.217,0.399-0.473,0.251
							c-0.248-0.143-0.455-0.502-0.454-0.786C260.884,165.202,261.093,165.083,261.341,165.226z"/><path fill="#a5acb7" d="M259.658,162.672c0.248,0.143,0.455,0.502,0.454,0.805c-0.001,0.285-0.209,0.403-0.457,0.26
							c-0.264-0.152-0.471-0.511-0.47-0.796C259.186,162.638,259.395,162.519,259.658,162.672z"/><path fill="#a5acb7" d="M261.345,163.646c0.256,0.148,0.471,0.511,0.47,0.815c-0.001,0.285-0.217,0.399-0.473,0.251
							c-0.248-0.143-0.455-0.502-0.454-0.786C260.889,163.621,261.098,163.503,261.345,163.646z"/><path fill="#a5acb7" d="M257.959,163.273c0.256,0.148,0.455,0.502,0.454,0.805c-0.001,0.285-0.201,0.408-0.457,0.26
							c-0.264-0.152-0.463-0.507-0.462-0.791C257.495,163.245,257.695,163.121,257.959,163.273z"/><g><path fill="#a5acb7" d="M256.256,162.29c0.264,0.152,0.471,0.512,0.47,0.815c-0.001,0.285-0.209,0.403-0.473,0.251
							c-0.248-0.143-0.455-0.502-0.454-0.786C255.8,162.266,256.008,162.147,256.256,162.29z"/></g></g></g><g><path fill="#bcc2cc" d="M248.565,108.751c-0.013,4.152-1.471,7.068-3.84,8.448l-5.506,3.202
								c2.369-1.38,3.827-4.295,3.84-8.461c0.026-8.356-5.857-18.548-13.133-22.752c-3.658-2.109-6.977-2.304-9.385-0.911
								l5.506-3.202c2.395-1.392,5.714-1.197,9.385,0.911C242.708,90.19,248.591,100.382,248.565,108.751z"/><path fill="#d9dfe8" d="M229.925,89.189c7.28,4.203,13.161,14.389,13.137,22.755
								c-0.024,8.365-5.943,11.739-13.223,7.535c-7.28-4.203-13.161-14.39-13.137-22.755
								C216.726,88.359,222.645,84.986,229.925,89.189z"/><path fill="#eaeffa" d="M237.402,110.683c-0.013,6.313-4.491,8.864-9.983,5.688c-5.493-3.176-9.931-10.869-9.918-17.182
						c0.026-6.3,4.491-8.851,9.984-5.675C232.977,96.678,237.415,104.37,237.402,110.683z"/><g><path fill="#a5acb7" d="M230.234,98.368c2.925,1.689,5.294,5.792,5.285,9.154c-0.009,3.352-2.394,4.711-5.319,3.022
						c-2.917-1.684-5.286-5.788-5.276-9.139C224.932,98.042,227.317,96.684,230.234,98.368z M230.059,110.128l0.003-0.965
						c-2.185-1.348-3.941-4.39-4.009-6.944l-0.839-0.485C225.279,104.824,227.408,108.511,230.059,110.128 M230.089,99.594
						l0.003-0.965c-2.651-1.445-4.794-0.224-4.877,2.78l0.839,0.485C226.136,99.416,227.903,98.419,230.089,99.594 M230.374,98.793
						l-0.003,0.965c2.194,1.353,3.941,4.38,4.009,6.944l0.839,0.484C235.154,104.097,233.025,100.409,230.374,98.793
						 M230.342,110.291c2.651,1.445,4.794,0.223,4.877-2.78l-0.839-0.485c-0.082,2.468-1.841,3.48-4.035,2.3L230.342,110.291
						 M230.371,100.073l-0.003,0.965c1.57,0.993,2.829,3.174,2.899,5.021l0.839,0.485
						C234.038,104.16,232.406,101.334,230.371,100.073 M230.085,100.874l0.003-0.965c-2.036-1.09-3.671-0.149-3.752,2.148
						l0.839,0.485C227.255,100.78,228.514,100.053,230.085,100.874 M230.348,108.037l-0.003,0.964
						c2.036,1.09,3.679,0.163,3.76-2.133l-0.839-0.485C233.186,108.145,231.919,108.858,230.348,108.037 M230.063,108.838
						l0.003-0.964c-1.57-0.993-2.821-3.16-2.891-5.007l-0.839-0.485C226.403,104.765,228.027,107.576,230.063,108.838
						 M230.367,101.362l-0.003,1.127c0.881,0.585,1.577,1.79,1.64,2.84l0.981,0.566
						C232.914,104.219,231.788,102.269,230.367,101.362 M230.352,106.595l-0.003,1.118c1.421,0.744,2.555,0.088,2.635-1.492
						l-0.981-0.566C231.934,106.628,231.233,107.027,230.352,106.595 M230.081,102.326l0.003-1.127
						c-1.413-0.73-2.555-0.089-2.626,1.506l0.972,0.561C228.5,102.292,229.2,101.893,230.081,102.326 M230.066,107.549l0.003-1.118
						c-0.881-0.585-1.577-1.79-1.64-2.84l-0.972-0.561C227.519,104.691,228.654,106.657,230.066,107.549"/></g></g><g><path fill="#2d3a74" d="M79.555,132.46l-0.01,3.116c-0.005,1.85-1.222,3.698-3.652,5.11
									c-4.884,2.838-12.833,2.841-17.753,0c-2.475-1.429-3.711-3.305-3.706-5.177l0.01-3.116c-0.005,1.872,1.23,3.748,3.706,5.177
									c4.921,2.841,12.869,2.838,17.753,0C78.333,136.158,79.55,134.311,79.555,132.46z"/><path fill="#4a5f93" d="M75.903,137.57c-4.88,2.841-12.829,2.841-17.752,0c-4.923-2.841-4.945-7.45-0.054-10.28
									c4.88-2.841,12.829-2.841,17.752,0C80.772,130.12,80.794,134.729,75.903,137.57z"/><path fill="#f283b5" d="M77.775,119.21v12.404h-0.004c0.029,1.613-1.016,3.228-3.124,4.452
							c-4.197,2.442-11.011,2.442-15.24,0c-2.123-1.228-3.192-2.84-3.192-4.452V119.21c0-5.953,4.835-10.772,10.788-10.772
							C72.956,108.438,77.775,113.256,77.775,119.21z"/><path fill="#fd93bf" d="M72.312,120.583c0,3.248-2.381,8.886-5.317,8.886c-2.937,0-5.317-5.638-5.317-8.886
					c0-3.248,2.381-5.881,5.317-5.881C69.932,114.702,72.312,117.335,72.312,120.583z"/><ellipse cx="66.995" cy="133.72" fill="#e576ad" rx="5.317" ry="1.467"/></g><g><path fill="#233163" d="M127.347,190.171l1.13-0.657c1.912-1.106,1.858-17.148-0.349-18.429l-24.455-14.228
													c-0.168-0.094-0.319-0.092-0.462-0.011l-1.128,0.646c0.143-0.082,0.298-0.076,0.459,0.022l24.458,14.217
													C129.212,173.019,129.266,189.061,127.347,190.171z"/><path fill="#3f528c" d="M126.889,190.154c2.374,1.381,2.485-17.038,0.111-18.419l-24.456-14.225
													c-2.374-1.381-2.485,17.038-0.111,18.418L126.889,190.154z"/><path fill="#233163" d="M127.233,179.2c-0.284-0.165-0.52-0.032-0.522,0.296l-0.057,2.993
								c-0.002,0.327,0.231,0.734,0.515,0.899c0.284,0.166,0.52,0.032,0.522-0.295l0.057-2.994
								C127.75,179.773,127.517,179.366,127.233,179.2z"/><g><path fill="#233163" d="M102.245,164.962c-0.121-0.07-0.221-0.014-0.222,0.126l-0.024,4.045
										c-0.001,0.139,0.098,0.312,0.219,0.382c0.121,0.07,0.221,0.014,0.222-0.126l0.024-4.045
										C102.465,165.206,102.366,165.033,102.245,164.962z"/></g><g><polygon fill="#eaeffa" points="103.459 175.755 125.593 188.629 125.694 171.597 103.561 158.724"/></g><g><path fill="#d9dfe8" d="M103.561,158.724c0,0,8.049,21.237,20.711,29.137l1.32,0.769l0.102-17.032L103.561,158.724z"/></g></g><g><path fill="#8ca8f7" d="M118.379,58.812l9.728,4.767c1.232,0.617,2.724,0.097,3.34-1.134l4.767-9.728
					c0.6-1.233,0.097-2.724-1.135-3.34l-9.728-4.767c-1.232-0.6-2.724-0.097-3.34,1.134l-4.767,9.728
					C116.628,56.704,117.146,58.196,118.379,58.812z"/><path fill="#f283b5" d="M107.199,59.431l4.488-9.141c0.571-1.162,1.981-1.644,3.143-1.073l9.141,4.488
					c1.162,0.571,1.644,1.981,1.073,3.143l-4.488,9.141c-0.571,1.162-1.981,1.644-3.143,1.073l-9.141-4.488
					C107.11,62.004,106.628,60.594,107.199,59.431z M113.943,51.024c-0.166-0.082-0.368-0.013-0.449,0.153l-4.488,9.141
					c-0.081,0.166-0.013,0.367,0.153,0.449l9.141,4.488c0.166,0.081,0.368,0.013,0.449-0.153l4.488-9.141
					c0.081-0.166,0.013-0.367-0.153-0.449L113.943,51.024z"/><path fill="#fd93bf" d="M232.734,247.832l-6.295-11.257c-0.8-1.432-0.287-3.247,1.144-4.048l11.256-6.294
					c1.431-0.8,3.247-0.287,4.048,1.144l6.294,11.257c0.801,1.432,0.287,3.247-1.144,4.048l-11.256,6.294
					C235.35,249.777,233.534,249.264,232.734,247.832z M228.828,234.753c-0.205,0.114-0.278,0.374-0.163,0.578l6.295,11.257
					c0.114,0.204,0.374,0.278,0.578,0.163l11.256-6.294c0.205-0.114,0.278-0.374,0.164-0.578l-6.295-11.257
					c-0.114-0.204-0.374-0.278-0.578-0.163L228.828,234.753z"/><path fill="#8294ed" d="M250.994,122.887l5.816,3.257c0.74,0.415,1.69,0.136,2.119-0.62l3.373-5.946
				c0.429-0.756,0.176-1.708-0.563-2.122l-5.816-3.257c-0.74-0.414-1.69-0.136-2.119,0.62l-3.373,5.946
				C250.002,121.521,250.255,122.473,250.994,122.887z M251.581,121.409l3.373-5.946c0.061-0.108,0.197-0.148,0.303-0.089
				l5.816,3.257c0.106,0.059,0.142,0.195,0.08,0.303l-3.373,5.946c-0.061,0.108-0.197,0.148-0.303,0.089l-5.816-3.257
				C251.555,121.653,251.519,121.517,251.581,121.409z"/><path fill="#8ca8f7" d="M48.764,160.405l5.836-6.682c0.742-0.85,2.037-0.937,2.887-0.195l6.681,5.836
					c0.85,0.742,0.937,2.037,0.195,2.887l-5.836,6.682c-0.742,0.85-2.037,0.937-2.887,0.195l-6.681-5.836
					C48.109,162.55,48.022,161.255,48.764,160.405z M56.333,154.85c-0.121-0.106-0.306-0.093-0.412,0.028l-5.836,6.682
					c-0.106,0.121-0.094,0.306,0.028,0.412l6.681,5.836c0.121,0.106,0.306,0.093,0.412-0.028l5.836-6.681
					c0.106-0.121,0.094-0.306-0.028-0.412L56.333,154.85z"/><path fill="#e576ad" d="M212.912,49.631c-0.961,4.333,2.815,8.108,7.148,7.148c2.183-0.484,3.945-2.246,4.429-4.429
				c0.96-4.333-2.815-8.108-7.148-7.148C215.158,45.686,213.396,47.447,212.912,49.631z"/><ellipse cx="96.502" cy="238.461" fill="#8ca8f7" rx="3.83" ry="3.857" transform="rotate(-44.936 96.506 238.47)"/><path fill="#8ccfb1" d="M215.065,68.054c-0.495,2.61,1.751,4.855,4.361,4.361c1.45-0.275,2.635-1.461,2.91-2.91
				c0.495-2.61-1.751-4.855-4.36-4.361C216.526,65.419,215.34,66.605,215.065,68.054z"/></g></svg>