<svg xmlns="http://www.w3.org/2000/svg" xmlns:xlink="http://www.w3.org/1999/xlink" enable-background="new 0 0 2500 2500" viewBox="0 0 2500 2500"><path fill="#dbdee4" d="M2030.48,2220.16c-0.67,0-1.32-0.35-1.69-0.97c-0.53-0.93-0.21-2.12,0.72-2.66l206.23-119.07
					c6.68-3.86,10.36-8.86,10.36-14.09c0.01-5.2-3.61-10.16-10.2-13.99l-305.07-177.29c-0.93-0.54-1.24-1.74-0.7-2.67
					c0.53-0.94,1.73-1.25,2.67-0.71L2237.87,2066c7.84,4.56,12.15,10.72,12.13,17.37c-0.01,6.68-4.38,12.88-12.31,17.46
					l-206.23,119.07C2031.15,2220.08,2030.81,2220.16,2030.48,2220.16z"/><path fill="#fff" d="M1987.96,2209.92c-15.11,8.72-15.2,22.88-0.18,31.6c15.01,8.72,39.45,8.72,54.56,0
						c15.11-8.72,15.18-22.87,0.17-31.6S2003.07,2201.2,1987.96,2209.92z"/><path fill="#dbdee4" d="M2015.01,2249.98c-10.23,0-20.45-2.26-28.22-6.77c-7.86-4.57-12.18-10.76-12.18-17.43
						c0.01-6.72,4.4-12.95,12.37-17.54l0,0c15.61-9.02,40.96-9.02,56.51,0c7.86,4.57,12.18,10.77,12.18,17.44
						c-0.01,6.71-4.4,12.94-12.36,17.53C2035.49,2247.73,2025.24,2249.98,2015.01,2249.98z M2015.26,2205.31
						c-9.53,0-19.06,2.1-26.33,6.3c-6.71,3.88-10.41,8.91-10.42,14.17c-0.01,5.22,3.63,10.22,10.24,14.06
						c14.45,8.41,38.06,8.4,52.6,0c6.7-3.87,10.4-8.9,10.41-14.16c0.01-5.22-3.62-10.22-10.24-14.06
						C2034.3,2207.41,2024.79,2205.31,2015.26,2205.31z M1987.96,2209.92h0.05H1987.96z"/><path fill="#1fb6ff" d="M2015.06,2235.69c5.89,0,11.59-1.34,15.64-3.68c3.25-1.88,5.12-4.18,5.12-6.33c0-2.12-1.83-4.4-5.02-6.25
						c-4.02-2.33-9.69-3.67-15.58-3.67c-5.89,0-11.58,1.34-15.63,3.68c-3.26,1.88-5.12,4.19-5.13,6.33c0,2.12,1.83,4.4,5.02,6.25
						C2003.5,2234.35,2009.17,2235.69,2015.06,2235.69z"/><circle cx="2111.09" cy="1994.48" r="11.7" fill="#373b42"/><path fill="#dbdee4" d="M1980.03,901.5c-0.34,0-0.67-0.08-0.97-0.26L1674.67,725.5c-0.93-0.54-1.25-1.73-0.72-2.66
				c0.55-0.94,1.74-1.25,2.67-0.71l304.39,175.74c0.93,0.54,1.25,1.73,0.72,2.66C1981.36,901.15,1980.7,901.5,1980.03,901.5z"/><circle cx="1821.49" cy="807.51" r="11.7" fill="#373b42"/><path d="M1332.29,2126.88l-200.7,115.87c-12.16,7.09-31.89,7.09-44.06,0l-196.57-114.31l-45.61,26.36
					c-12.16,7.02-31.97,7.02-44.05,0l-46.08-26.82c-12.16-7.1-12.09-18.48,0.08-25.58L956,1986.61c12.24-7.09,31.97-7.09,44.13,0
					l44.6,25.89l45.46-26.28c12.24-7.09,31.97-7.09,44.13,0l198.13,115.17C1344.61,2108.4,1344.53,2119.86,1332.29,2126.88z" opacity=".1"/><path d="M1015.27,1795.68c-9.16,5.29-9.16,13.88-0.06,19.17l635.09,369.08c9.1,5.29,23.89,5.29,33.05,0l405.88-234.33
					c9.21-5.32,9.26-13.88,0.16-19.17l-635.09-369.08c-9.1-5.29-23.94-5.32-33.15,0L1015.27,1795.68z" opacity=".1"/><path fill="#bec4cd" d="M1083.32,1579.12c-6.24-3.59-14.81-3.12-24.33,2.42l-202.73,117.04c-9.82,5.69-18.64,15.67-24.87,26.98
									c-5.61,10.29-9.12,21.6-9.12,31.89l1.48,326.86c0,10.76,3.74,18.32,9.9,21.83l-59.42-34.54c-6.08-3.51-9.9-11.07-9.9-21.83
									l-1.4-326.86c0-10.29,3.43-21.6,9.12-31.89c6.16-11.31,14.97-21.21,24.87-26.9l202.73-117.04c9.43-5.54,18.01-6,24.25-2.42
									L1083.32,1579.12z"/><path fill="#dbdee4" d="M844.03,1705.94c-4.75,5.4-8.94,11.27-12.56,17.56c-4.51,7.73-8.13,15.86-10.63,24.08l-57.9-33.34
								c2.58-8.21,6.2-16.35,10.63-24c3.7-6.28,7.89-12.32,12.64-17.72L844.03,1705.94z"/><path fill="#373b42" d="M833.65,2108.09c-0.33,0-0.66-0.08-0.97-0.26c-0.09-0.05-0.18-0.11-0.27-0.16l-59.16-34.39
									c-7.01-4.05-10.87-12.4-10.87-23.52l-1.4-326.86c0-10.27,3.33-21.93,9.37-32.84c6.61-12.13,15.71-21.96,25.6-27.65
									l202.73-117.03c9.7-5.7,19.01-6.55,26.2-2.42l59.42,34.47c0.94,0.54,1.25,1.73,0.72,2.66c-0.56,0.94-1.73,1.24-2.67,0.72
									c-5.91-3.41-13.87-2.54-22.37,2.41l-202.74,117.04c-9.16,5.31-17.73,14.62-24.15,26.23c-5.73,10.5-8.88,21.49-8.88,30.95
									l1.48,326.86c0,9.59,3.08,16.68,8.68,20.01l0.25,0.14c0.92,0.54,1.24,1.73,0.71,2.66
									C834.98,2107.74,834.32,2108.09,833.65,2108.09z M1014.91,1544.29c-4.36,0-9.21,1.5-14.26,4.46L797.9,1665.79
									c-9.28,5.34-17.86,14.63-24.13,26.15c-5.73,10.36-8.89,21.35-8.89,30.96l1.4,326.86c0,9.67,3.17,16.83,8.92,20.16
									l49.32,28.67c-1.79-3.95-2.73-8.77-2.73-14.27l-1.48-326.86c0-10.1,3.33-21.76,9.36-32.83
									c6.75-12.23,15.85-22.07,25.62-27.73l202.73-117.04c4.93-2.87,9.75-4.51,14.23-4.9l-49.32-28.61
									C1020.55,1544.97,1017.84,1544.29,1014.91,1544.29z"/><path fill="#fff" d="M1059.02,1581.53c18.84-10.88,34.13-2.16,34.19,19.49l1.4,326.91c0.06,21.59-15.13,47.91-33.97,58.79
									l-202.74,117.05c-18.84,10.88-34.13,2.16-34.19-19.44l-1.4-326.91c-0.06-21.65,15.13-47.96,33.97-58.84L1059.02,1581.53z"/><path fill="#373b42" d="M842.59,2110.41c-3.59,0-6.91-0.84-9.86-2.54c-7.04-4.05-10.93-12.41-10.96-23.54l-1.39-326.9
									c-0.06-22.22,15.61-49.38,34.94-60.54l202.74-117.05c9.76-5.65,19.04-6.5,26.14-2.42c7.04,4.05,10.94,12.43,10.97,23.59
									l1.39,326.9c0.06,22.19-15.61,49.33-34.94,60.49l-202.74,117.05C853.17,2108.74,847.63,2110.41,842.59,2110.41z
									 M1074.32,1578.79c-4.35,0-9.23,1.49-14.32,4.43l0,0l-202.74,117.05c-18.25,10.54-33.05,36.18-32.99,57.15l1.39,326.9
									c0.03,9.68,3.23,16.85,9.01,20.17c5.84,3.36,13.74,2.5,22.26-2.42l202.74-117.05c18.25-10.54,33.05-36.15,32.99-57.1
									l-1.39-326.9c-0.03-9.71-3.23-16.89-9.02-20.22C1079.91,1579.46,1077.23,1578.79,1074.32,1578.79z M1059.03,1581.53h0.05
									H1059.03z"/><path fill="#fff" d="M1510.54,1908.09l-0.16,58.32c-0.08,14.04-4.91,24.72-13.65,29.63l-39.3,22.85
										c8.73-4.91,13.65-15.59,13.65-29.71l0.23-58.25c0-6.47-2.42-13.57-6.16-19.88c-3.51-5.93-8.34-11.15-13.65-14.19
										l-410.22-236.88c-5.54-3.12-10.53-3.43-14.04-1.4l39.3-22.85c3.51-2.03,8.5-1.72,13.96,1.4l410.3,236.88
										c5.3,3.04,10.06,8.26,13.65,14.19C1508.2,1894.52,1510.54,1901.61,1510.54,1908.09z"/><path fill="#373b42" d="M1457.44,2020.83c-0.68,0-1.33-0.35-1.69-0.98c-0.53-0.93-0.21-2.11,0.71-2.65l0.54-0.31
										c7.84-4.71,12.14-14.52,12.14-27.71l0.24-58.25c0-5.78-2.09-12.48-5.89-18.88c-3.51-5.93-8.11-10.72-12.94-13.5
										l-410.23-236.89c-4.65-2.62-9.07-3.14-12.08-1.4c-0.91,0.53-2.12,0.22-2.67-0.71c-0.53-0.93-0.22-2.12,0.71-2.67
										l39.3-22.84c4.26-2.46,10.06-1.95,15.91,1.39l410.3,236.89c5.27,3.02,10.36,8.3,14.34,14.87
										c4.11,6.93,6.37,14.34,6.37,20.89v0l-0.16,58.32c-0.08,14.94-5.28,26.06-14.64,31.33l-38.74,22.52
										c-0.18,0.11-0.37,0.22-0.56,0.33C1458.09,2020.75,1457.76,2020.83,1457.44,2020.83z M1035.98,1655.76
										c2.01,0.46,4.12,1.31,6.27,2.52l410.24,236.89c5.4,3.1,10.5,8.39,14.35,14.89c4.15,6.99,6.43,14.4,6.43,20.88l-0.24,58.25
										c0,8.26-1.68,15.49-4.8,21.17l27.52-16c8.11-4.56,12.6-14.49,12.68-27.96l0.16-58.31c0-5.86-2.06-12.57-5.81-18.89
										c-3.62-5.99-8.22-10.79-12.94-13.49l-410.3-236.89c-4.61-2.63-8.99-3.14-12.01-1.4L1035.98,1655.76z M1510.54,1908.09h0.05
										H1510.54z"/><path fill="#373b42" d="M1451.53,1896.84c10.91,6.3,19.77,21.58,19.74,34.12l-0.17,58.24c-0.04,14.03-4.94,24.72-13.62,29.66
										l-144.83,82.47c-8.63,4.98-20.38,3.79-32.65-3.29l-239.57-138.32c-10.91-6.3-19.71-21.55-19.68-34.08l0.72-254.37
										c0.04-12.53,8.9-17.59,19.81-11.29L1451.53,1896.84z"/><path fill="#373b42" d="M1300.71,2106.35c-6.68,0-14.06-2.22-21.69-6.62l-239.58-138.32c-11.42-6.59-20.68-22.64-20.65-35.77
										l0.72-254.38c0.02-6.77,2.42-11.88,6.77-14.37c4.37-2.51,10.04-2.01,15.96,1.4l410.26,236.86l0,0
										c11.46,6.62,20.75,22.69,20.71,35.82l-0.17,58.24c-0.04,14.66-5.36,26.09-14.6,31.35l-144.83,82.47
										C1309.77,2105.24,1305.41,2106.35,1300.71,2106.35z M1032.41,1659.21c-1.55,0-2.95,0.35-4.19,1.06
										c-3.08,1.77-4.8,5.68-4.81,11l-0.72,254.37c-0.03,11.89,8.36,26.41,18.7,32.39l239.58,138.32
										c11.57,6.67,22.75,7.88,30.7,3.29l144.84-82.47c8-4.55,12.6-14.75,12.64-27.97l0.17-58.24
										c0.04-11.88-8.38-26.43-18.76-32.43l-410.26-236.86C1037.47,1660.03,1034.78,1659.21,1032.41,1659.21z"/><polygon fill="#fff" points="1434.61 1929.71 1434.31 1986.5 1339.58 2041.55 1339.88 1984.77"/><path fill="#373b42" d="M1339.58,2043.5c-0.34,0-0.68-0.09-0.97-0.26c-0.61-0.35-0.97-1-0.97-1.7l0.3-56.78
												c0-0.69,0.37-1.33,0.97-1.68l94.74-55.06c0.61-0.35,1.36-0.35,1.96,0c0.61,0.35,0.97,1,0.97,1.7l-0.3,56.79
												c0,0.69-0.37,1.33-0.97,1.68l-94.73,55.05C1340.26,2043.42,1339.91,2043.5,1339.58,2043.5z M1341.82,1985.9l-0.27,52.26
												l90.83-52.78l0.28-52.26L1341.82,1985.9z"/><polygon fill="#fff" points="1339.88 1984.77 1339.58 2041.55 1244.26 1986.52 1244.56 1929.74"/><path fill="#373b42" d="M1339.58,2043.5c-0.34,0-0.67-0.09-0.97-0.26l-95.32-55.03c-0.61-0.35-0.97-1-0.97-1.7l0.3-56.79
												c0-0.69,0.37-1.33,0.98-1.68c0.59-0.34,1.33-0.35,1.94,0l95.32,55.03c0.61,0.35,0.97,1,0.97,1.7l-0.3,56.78
												c0,0.69-0.37,1.33-0.98,1.68C1340.25,2043.42,1339.91,2043.5,1339.58,2043.5z M1246.22,1985.4l91.43,52.79l0.27-52.29
												l-91.43-52.79L1246.22,1985.4z"/><polygon fill="#fff" points="1434.61 1929.71 1339.88 1984.77 1244.56 1929.74 1339.3 1874.68"/><path fill="#373b42" d="M1339.87,1986.72c-0.34,0-0.67-0.09-0.97-0.26l-95.32-55.03c-0.6-0.35-0.97-0.99-0.97-1.68
												c0-0.7,0.37-1.34,0.97-1.69l94.74-55.05c0.61-0.35,1.35-0.35,1.96,0l95.32,55.03c0.6,0.35,0.97,0.99,0.97,1.68
												c0,0.7-0.37,1.34-0.97,1.69l-94.74,55.06C1340.55,1986.63,1340.21,1986.72,1339.87,1986.72z M1248.45,1929.73
												l91.43,52.78l90.85-52.8l-91.43-52.78L1248.45,1929.73z"/><g><path fill="#fff" d="M1350.15,2000.72l-0.16,58.32c-0.08,14.03-4.91,24.72-13.65,29.63l-39.3,22.85
									c8.73-4.91,13.65-15.59,13.65-29.71l0.16-58.25c0-6.32-2.18-13.26-5.77-19.49c-3.59-6.08-8.5-11.46-13.96-14.58
									l-410.3-236.88c-5.46-3.2-10.45-3.43-13.96-1.4l39.22-22.85c3.59-2.03,8.58-1.79,14.04,1.4l410.22,236.88
									c5.46,3.12,10.45,8.5,13.96,14.66C1347.96,1987.46,1350.15,1994.4,1350.15,2000.72z"/><path fill="#373b42" d="M1297.05,2113.47c-0.68,0-1.33-0.35-1.69-0.98c-0.53-0.93-0.21-2.11,0.71-2.65l0.53-0.3
									c7.84-4.71,12.15-14.52,12.15-27.72l0.15-58.25c0-5.76-1.96-12.33-5.51-18.52c-3.61-6.11-8.32-11.04-13.23-13.86
									l-410.3-236.89c-4.56-2.67-8.92-3.18-11.99-1.41l-0.01,0c0,0,0,0-0.01,0c-0.91,0.54-2.12,0.23-2.66-0.71
									c-0.54-0.93-0.23-2.12,0.7-2.66l39.22-22.85c4.42-2.49,10.23-1.97,16.01,1.4l410.2,236.88c5.65,3.22,10.87,8.69,14.67,15.38
									c3.93,6.61,6.11,13.85,6.11,20.38v0l-0.15,58.32c-0.09,14.94-5.28,26.06-14.64,31.32l-38.72,22.51
									c-0.19,0.11-0.39,0.22-0.58,0.34C1297.71,2113.39,1297.38,2113.47,1297.05,2113.47z M875.6,1748.38
									c2.03,0.47,4.12,1.32,6.21,2.55l410.28,236.88c5.5,3.14,10.71,8.57,14.66,15.28c3.91,6.78,6.05,14.05,6.05,20.48
									l-0.15,58.25c0,8.33-1.61,15.49-4.69,21.11l27.41-15.94c8.1-4.56,12.59-14.48,12.68-27.95l0.15-58.31
									c0-5.83-1.98-12.37-5.57-18.42c-3.44-6.04-8.26-11.11-13.25-13.96l-410.23-236.89c-4.55-2.67-8.97-3.17-12.1-1.39
									L875.6,1748.38z M1350.15,2000.72h0.05H1350.15z"/></g><g><path fill="#fff" d="M1291.11,1989.45c10.91,6.3,19.77,21.58,19.74,34.12l-0.17,58.24c-0.04,14.03-4.94,24.72-13.62,29.66
										l-144.83,82.47c-8.63,4.98-20.38,3.79-32.65-3.29l-239.57-138.32c-10.91-6.3-19.71-21.55-19.68-34.08l0.72-254.37
										c0.04-12.53,8.9-17.59,19.81-11.29L1291.11,1989.45z"/><path fill="#373b42" d="M1140.36,2198.9c-6.74,0-14.21-2.21-21.75-6.56l-239.58-138.32c-11.43-6.6-20.69-22.65-20.65-35.78
										l0.72-254.37c0.02-6.77,2.42-11.87,6.76-14.37c4.37-2.52,10.05-2.02,15.97,1.4l410.25,236.86
										c11.46,6.61,20.75,22.68,20.71,35.81l-0.16,58.24c-0.04,14.66-5.36,26.09-14.6,31.35l-144.83,82.47
										C1149.43,2197.82,1145.07,2198.9,1140.36,2198.9z M872,1751.82c-1.55,0-2.96,0.35-4.19,1.06c-3.09,1.78-4.8,5.68-4.81,11
										l-0.72,254.37c-0.04,11.88,8.35,26.41,18.7,32.39l239.58,138.31c11.57,6.68,22.74,7.88,30.7,3.3l144.84-82.48
										c8-4.55,12.6-14.75,12.64-27.97l0.16-58.24c0.04-11.89-8.38-26.43-18.76-32.43l0,0l-410.25-236.86
										C877.06,1752.65,874.37,1751.82,872,1751.82z"/></g><g><path fill="#373b42" d="M915.27,1812.96c11.29,6.52,20.41,22.32,20.38,35.3c-0.04,12.97-9.22,18.21-20.51,11.69
							c-11.29-6.52-20.39-22.31-20.35-35.28C894.82,1811.69,903.98,1806.44,915.27,1812.96z"/><path fill="#373b42" d="M924.31,1864.71c-3.16,0-6.61-1.03-10.15-3.08c-11.8-6.81-21.37-23.4-21.33-36.98
							c0.02-6.98,2.5-12.25,6.97-14.83c4.5-2.59,10.33-2.07,16.43,1.44l0,0c11.81,6.81,21.39,23.41,21.36,36.99
							c-0.02,6.98-2.5,12.24-6.98,14.82C928.72,1864.17,926.59,1864.71,924.31,1864.71z M906.11,1812.1c-1.61,0-3.08,0.37-4.36,1.1
							c-3.23,1.85-5.01,5.92-5.03,11.46c-0.04,12.33,8.66,27.4,19.38,33.59c4.84,2.79,9.3,3.3,12.56,1.44
							c3.22-1.86,5.01-5.92,5.03-11.45c0.03-12.34-8.68-27.41-19.41-33.6c0,0,0,0,0,0C911.36,1812.96,908.58,1812.1,906.11,1812.1z"/></g><g><path fill="#373b42" d="M1255.56,2009.43c11.29,6.52,20.41,22.32,20.38,35.3c-0.04,12.97-9.22,18.21-20.51,11.69
							c-11.29-6.52-20.39-22.31-20.35-35.28C1235.11,2008.16,1244.27,2002.92,1255.56,2009.43z"/><path fill="#373b42" d="M1264.6,2061.18c-3.15,0-6.61-1.03-10.15-3.08c-11.8-6.82-21.37-23.4-21.33-36.98
							c0.02-6.98,2.5-12.25,6.97-14.83c4.49-2.59,10.33-2.09,16.44,1.44l0,0c11.81,6.82,21.39,23.41,21.35,36.99
							c-0.02,6.97-2.5,12.24-6.97,14.81C1269.02,2060.64,1266.89,2061.18,1264.6,2061.18z M1246.41,2008.57
							c-1.61,0-3.08,0.37-4.36,1.1c-3.23,1.86-5.01,5.93-5.03,11.46c-0.04,12.32,8.66,27.39,19.38,33.59
							c4.84,2.79,9.31,3.31,12.56,1.44c3.23-1.85,5.01-5.92,5.03-11.44c0.04-12.33-8.67-27.4-19.4-33.61v0
							C1251.66,2009.43,1248.88,2008.57,1246.41,2008.57z"/></g><g><path fill="#fff" d="M1074.23,1720.35c11.29,6.52,20.41,22.32,20.38,35.3c-0.04,12.97-9.22,18.21-20.51,11.69
							c-11.29-6.52-20.39-22.31-20.35-35.28C1053.78,1719.08,1062.94,1713.83,1074.23,1720.35z"/><path fill="#373b42" d="M1083.28,1772.1c-3.16,0-6.61-1.03-10.15-3.08c-11.8-6.81-21.37-23.4-21.33-36.97
							c0.02-6.99,2.49-12.25,6.97-14.83c4.5-2.58,10.34-2.08,16.43,1.45l0,0c11.81,6.82,21.39,23.41,21.35,36.99
							c-0.02,6.98-2.5,12.24-6.98,14.82C1087.69,1771.56,1085.56,1772.1,1083.28,1772.1z M1065.09,1719.49
							c-1.61,0-3.08,0.37-4.37,1.1c-3.22,1.85-5,5.92-5.02,11.46c-0.04,12.34,8.66,27.4,19.38,33.59c4.85,2.79,9.3,3.3,12.56,1.44
							c3.23-1.85,5.01-5.92,5.03-11.45c0.04-12.34-8.67-27.41-19.4-33.61l0,0C1070.33,1720.34,1067.55,1719.49,1065.09,1719.49z"/></g><g><path fill="#fff" d="M1362.23,1711.76l-0.24,213.67c-0.01,3.32-2.19,6.64-6.54,9.17c-8.8,5.11-23.03,5.1-31.87,0
									c-4.46-2.57-6.68-5.94-6.67-9.29l0.24-213.67c-0.01,3.36,2.22,6.72,6.67,9.29c8.83,5.1,23.07,5.11,31.87,0
									C1360.04,1718.4,1362.23,1715.09,1362.23,1711.76z"/><path fill="#373b42" d="M1339.54,1940.41c-6.08,0-12.17-1.37-16.93-4.12c-4.94-2.85-7.65-6.75-7.65-10.98l0.24-213.65
									c0-0.01,0-0.02,0-0.02c0-1.08,0.88-1.95,1.95-1.95l0,0c1.08,0,1.95,0.88,1.95,1.95l0,0c-0.01,2.78,2.02,5.47,5.7,7.6
									c8.28,4.78,21.71,4.77,29.91,0c3.59-2.08,5.57-4.74,5.57-7.49c0-1.08,0.88-1.95,1.95-1.95l0,0c1.08,0,1.95,0.88,1.95,1.95
									l0,0l0,0l-0.24,213.67c-0.01,4.19-2.68,8.04-7.51,10.85C1351.71,1939.03,1345.62,1940.41,1339.54,1940.41z M1319.09,1719.86
									l-0.23,205.45c-0.01,2.78,2.02,5.47,5.7,7.6c8.28,4.77,21.71,4.77,29.91,0c3.59-2.08,5.57-4.74,5.57-7.49l0.23-205.46
									c-1.02,0.96-2.22,1.84-3.6,2.65c-9.46,5.49-24.31,5.49-33.82,0C1321.4,1721.78,1320.15,1720.86,1319.09,1719.86z"/><g><path fill="#fff" d="M1355.59,1702.47c8.83,5.1,8.86,13.37,0.1,18.46c-8.8,5.11-23.03,5.1-31.87,0
									c-8.85-5.11-8.9-13.35-0.1-18.46C1332.48,1697.39,1346.73,1697.36,1355.59,1702.47z"/><path fill="#373b42" d="M1339.78,1726.74c-6.08,0-12.17-1.37-16.93-4.12c-4.92-2.84-7.64-6.73-7.64-10.95
									c-0.01-4.19,2.67-8.06,7.53-10.89c9.46-5.49,24.31-5.5,33.82,0l0,0c4.91,2.83,7.61,6.72,7.62,10.94
									c0.01,4.2-2.67,8.07-7.52,10.89C1351.94,1725.36,1345.86,1726.74,1339.78,1726.74z M1339.63,1700.58
									c-5.41,0-10.82,1.19-14.92,3.58c-3.62,2.1-5.6,4.76-5.6,7.51c0,2.76,2.02,5.46,5.69,7.58c8.28,4.78,21.71,4.77,29.91,0
									c3.6-2.09,5.58-4.76,5.58-7.51c-0.01-2.78-2.02-5.46-5.67-7.57l0,0C1350.47,1701.77,1345.05,1700.58,1339.63,1700.58z"/></g></g><g><path fill="#fff" d="M1386.04,1684.16l-0.49,145.68c-0.02,6.81-4.49,13.61-13.42,18.8c-18.04,10.48-47.23,10.46-65.34,0
									c-9.14-5.27-13.7-12.17-13.68-19.06l0.49-145.68c-0.02,6.89,4.54,13.78,13.68,19.06c18.11,10.46,47.31,10.48,65.34,0
									C1381.54,1697.77,1386.02,1690.97,1386.04,1684.16z"/><path fill="#373b42" d="M1339.51,1858.38c-12.19,0-24.39-2.69-33.69-8.06c-9.46-5.46-14.67-12.83-14.65-20.75l0.49-145.68
									c0-1.07,0.88-1.94,1.95-1.94h0.01c1.07,0,1.94,0.88,1.94,1.96l0,0c-0.02,6.45,4.49,12.62,12.7,17.36
									c17.55,10.12,45.99,10.12,63.39,0c8.01-4.65,12.43-10.73,12.45-17.12c0-1.07,0.88-1.94,1.95-1.94h0.01
									c1.07,0,1.94,0.88,1.94,1.96l-0.49,145.68c-0.02,7.83-5.13,15.1-14.38,20.48
									C1363.87,1855.69,1351.69,1858.38,1339.51,1858.38z M1295.51,1695.32l-0.45,134.26c-0.02,6.45,4.5,12.62,12.7,17.36
									c17.55,10.12,45.99,10.12,63.39,0c8.01-4.65,12.43-10.73,12.45-17.12l0.45-134.23c-2.43,3.36-5.95,6.42-10.45,9.04
									c-18.51,10.74-48.7,10.74-67.31,0C1301.63,1701.95,1297.99,1698.78,1295.51,1695.32z"/><g><path fill="#fff" d="M1372.41,1665.11c18.11,10.46,18.16,27.42,0.21,37.85c-18.04,10.48-47.23,10.46-65.34,0
									c-18.16-10.48-18.25-27.37-0.21-37.85C1325.01,1654.68,1354.25,1654.62,1372.41,1665.11z"/><path fill="#373b42" d="M1340,1712.7c-12.19,0-24.39-2.69-33.69-8.06c-9.43-5.45-14.64-12.79-14.65-20.67
									c-0.02-7.84,5.12-15.13,14.43-20.55c18.5-10.74,48.69-10.76,67.31,0l0,0c9.4,5.43,14.59,12.77,14.6,20.67
									c0.01,7.85-5.1,15.15-14.38,20.55C1364.36,1710.01,1352.18,1712.7,1340,1712.7z M1339.69,1659.2
									c-11.48,0-22.94,2.53-31.65,7.6c-8.07,4.69-12.5,10.79-12.5,17.17c0.01,6.43,4.52,12.58,12.7,17.3
									c17.55,10.12,45.99,10.12,63.39,0c8.03-4.67,12.46-10.77,12.45-17.17c-0.02-6.45-4.51-12.6-12.66-17.31
									C1362.67,1661.73,1351.17,1659.2,1339.69,1659.2z"/></g></g><g><path fill="#373b42" d="M2214.64,1629.35l-644.49-374.66c-1.96-1.13-3.19-3.5-3.19-7l-0.21-71.75c0-3.4-1.24-5.87-3.29-7.1
									l644.59,374.66c2.06,1.13,3.29,3.71,3.29,7.1l0.21,71.75C2211.55,1625.84,2212.68,1628.21,2214.64,1629.35z"/><path fill="#373b42" d="M2214.64,1631.3c-0.33,0-0.67-0.08-0.97-0.26h-0.01l-644.49-374.66c-2.68-1.55-4.16-4.64-4.16-8.69
									l-0.21-71.74c0-2.6-0.84-4.53-2.35-5.44c-0.91-0.55-1.22-1.74-0.67-2.66c0.53-0.93,1.72-1.24,2.66-0.7l644.6,374.66
									c2.7,1.49,4.26,4.7,4.26,8.79l0.21,71.74c0,1.87,0.37,4.31,2.11,5.32h0.01c0.93,0.54,1.24,1.74,0.7,2.67
									C2215.96,1630.95,2215.31,1631.3,2214.64,1631.3z M1568.59,1174.07c0.08,0.6,0.11,1.22,0.11,1.87l0.21,71.74
									c0,2.6,0.78,4.49,2.22,5.32l638.59,371.23c-0.07-0.58-0.11-1.21-0.11-1.88l-0.21-71.74c0-2.59-0.85-4.61-2.29-5.4
									L1568.59,1174.07z"/><path fill="#373b42" d="M2124.71,1495.74c-3.91-2.26-9.47-1.96-15.54,1.55l-329.21,190.03
											c-12.15,7.1-21.93,24.09-21.93,37.98l0.51,233.43c0,6.69,2.37,11.73,6.49,14.1l-572.12-332.55
											c-4.01-2.27-6.38-7.31-6.38-14l-0.52-233.54c0-13.9,9.68-30.88,21.82-37.88l329.31-190.03c6.07-3.5,11.53-3.81,15.54-1.55
											L2124.71,1495.74z"/><path fill="#373b42" d="M1765.03,1974.78c-0.34,0-0.66-0.08-0.97-0.26c0,0,0,0-0.01,0l0,0c-0.03-0.02-0.05-0.03-0.08-0.05
											l-572.05-332.51c-4.66-2.63-7.35-8.36-7.35-15.69l-0.52-233.54c0-14.58,10.23-32.33,22.81-39.57l329.31-190.03
											c6.46-3.73,12.66-4.27,17.48-1.56l572.05,332.47c0.93,0.54,1.24,1.73,0.7,2.67c-0.54,0.93-1.75,1.24-2.66,0.71h-0.01l0,0
											c-3.46-2.01-8.42-1.44-13.58,1.55L1780.93,1689c-11.55,6.75-20.96,23.04-20.96,36.3l0.52,233.43
											c0,5.84,1.98,10.34,5.43,12.37l0.09,0.05c0.93,0.54,1.24,1.73,0.71,2.66C1766.36,1974.43,1765.7,1974.78,1765.03,1974.78z
											 M1546.95,1163.79c-2.67,0-5.69,0.92-8.83,2.73l-329.31,190.03c-11.5,6.62-20.86,22.86-20.86,36.19l0.52,233.54
											c0,5.89,1.96,10.37,5.39,12.31l563.88,327.77c-0.75-2.26-1.15-4.82-1.15-7.61l-0.52-233.43
											c0-14.49,10.27-32.29,22.9-39.67l329.22-190.03c2.51-1.45,5.01-2.42,7.41-2.9l-563.9-327.73
											C1550.3,1164.18,1548.7,1163.79,1546.95,1163.79z"/><path fill="#fff" d="M2109.13,1497.29c12.09-6.98,21.98-1.34,22.02,12.55l0.48,233.46c0.02,8.23-3.5,17.98-9.34,26.12
											l-32.46,44.76c-3.67,5.07-8.01,9.09-12.47,11.67l-264.28,152.58c-4.47,2.58-8.81,3.58-12.5,2.75l-32.61-7.2
											c-5.86-1.38-9.43-7.03-9.46-15.27l-0.48-233.46c-0.04-13.9,9.72-30.88,21.88-37.9L2109.13,1497.29z"/><path fill="#373b42" d="M1803.22,1983.41c-1.06,0-2.08-0.11-3.07-0.33l-32.6-7.2c-6.87-1.61-10.96-8.03-10.99-17.16
											l-0.48-233.46c-0.04-14.53,10.21-32.29,22.86-39.59l329.22-190.07c6.49-3.74,12.71-4.29,17.51-1.53
											c4.77,2.74,7.41,8.34,7.43,15.77l0.48,233.46c0.02,8.56-3.61,18.75-9.71,27.26l-32.47,44.78
											c-3.79,5.23-8.32,9.46-13.07,12.21l-264.28,152.58C1810.28,1982.3,1806.59,1983.41,1803.22,1983.41z M2118.94,1496.23
											c-2.67,0-5.68,0.92-8.83,2.74l0,0l-329.22,190.07c-11.57,6.68-20.95,22.92-20.91,36.21l0.48,233.46
											c0.02,7.2,2.99,12.2,7.96,13.37l32.58,7.19c3.21,0.73,7.02-0.17,11.11-2.54l264.28-152.58
											c4.29-2.48,8.39-6.32,11.87-11.12l32.46-44.77c5.63-7.86,8.99-17.19,8.97-24.97l-0.48-233.46
											c-0.02-5.97-1.96-10.37-5.47-12.4C2122.33,1496.63,2120.71,1496.23,2118.94,1496.23z M2109.14,1497.29h0.05H2109.14z"/><g><path fill="#1fb6ff" d="M1945.06,1816.91c38.02-21.95,68.69-75.07,68.57-118.76s-30.99-61.28-69.01-39.33
										c-38.02,21.95-68.69,75.07-68.57,118.76C1876.17,1821.27,1907.04,1838.86,1945.06,1816.91"/><path fill="#373b42" d="M1914.16,1828.34c-6.89,0-13.27-1.61-18.91-4.86c-13.58-7.81-21.09-24.11-21.15-45.9
										c-0.12-44.21,31.07-98.25,69.54-120.45c19.08-11.02,37.14-12.74,50.79-4.88c13.58,7.82,21.09,24.12,21.15,45.9
										c0.12,44.21-31.08,98.24-69.54,120.45l0,0C1934.82,1825.07,1923.97,1828.34,1914.16,1828.34z M1975.5,1651.29
										c-9.13,0-19.32,3.1-29.92,9.21c-37.39,21.59-67.71,74.1-67.59,117.07c0.05,20.33,6.88,35.43,19.2,42.53
										c12.41,7.14,29.06,5.41,46.89-4.88l0,0c37.4-21.59,67.72-74.11,67.59-117.07c-0.05-20.33-6.88-35.43-19.2-42.52
										C1987.45,1652.73,1981.72,1651.29,1975.5,1651.29z"/></g><g><path fill="#373b42" d="M2013.64,1698.14c0.09,43.69-30.51,96.82-68.56,118.75c-19.16,11.1-36.49,12.14-48.97,4.85
													l-18.12-10.57c12.48,7.28,29.82,6.24,48.89-4.85c38.05-21.93,68.74-75.06,68.65-118.75
													c-0.09-21.67-7.71-36.93-20.11-44.12l18.2,10.57C2005.92,1661.21,2013.55,1676.47,2013.64,1698.14z"/><path fill="#373b42" d="M1914.13,1828.37c-6.94,0-13.36-1.64-19.01-4.94l-18.11-10.58c-0.93-0.54-1.24-1.74-0.7-2.67
													c0.53-0.93,1.72-1.25,2.67-0.7c12.43,7.26,29.1,5.52,46.92-4.85c37.41-21.56,67.77-74.07,67.69-117.06
													c-0.08-20.22-6.86-35.29-19.09-42.41l-0.05-0.03c-0.93-0.54-1.24-1.74-0.7-2.67c0.53-0.94,1.72-1.25,2.67-0.71
													l18.2,10.58c13.45,7.86,20.91,24.13,20.99,45.8v0c0.08,44.27-31.11,98.3-69.54,120.45
													C1934.81,1825.08,1923.95,1828.37,1914.13,1828.37z M1893.04,1817.7l4.04,2.36c12.41,7.23,29.1,5.51,47.02-4.86
													c37.35-21.53,67.67-74.04,67.59-117.06v0c-0.08-20.24-6.85-35.31-19.06-42.44l-4.07-2.37
													c5.76,8.65,8.86,20.32,8.92,34.22c0.08,44.24-31.15,98.27-69.63,120.45C1915.51,1815.18,1903.61,1818.45,1893.04,1817.7
													z"/><g><path fill="#fff" d="M1944.5,1617.48c57.83-33.39,104.92-6.56,105.1,59.9c0.19,66.52-46.59,147.48-104.42,180.87
													c-57.89,33.42-104.92,6.62-105.1-59.9C1839.89,1731.89,1886.61,1650.9,1944.5,1617.48z M1945.06,1816.91
													c38.02-21.95,68.69-75.07,68.57-118.76s-30.99-61.28-69.01-39.33c-38.02,21.95-68.69,75.07-68.57,118.76
													C1876.17,1821.27,1907.04,1838.86,1945.06,1816.91"/><path fill="#373b42" d="M1898.14,1874.62c-10.33,0-19.87-2.41-28.3-7.26c-20.36-11.71-31.62-36.22-31.71-69.01
													c-0.19-67,47.09-148.9,105.39-182.56l0,0c28.7-16.57,55.79-19.19,76.3-7.39c20.37,11.72,31.64,36.21,31.73,68.97
													c0.19,67-47.09,148.9-105.39,182.56C1929.25,1869.69,1912.9,1874.62,1898.14,1874.62z M1945.47,1619.17
													c-57.23,33.04-103.63,113.42-103.44,179.17c0.08,31.33,10.65,54.65,29.75,65.64c19.21,11.06,44.95,8.44,72.43-7.42
													c57.23-33.04,103.63-113.42,103.44-179.17c-0.09-31.3-10.67-54.6-29.78-65.6
													C1998.64,1600.71,1972.91,1603.33,1945.47,1619.17L1945.47,1619.17z M1944.49,1617.48h0.05H1944.49z M1914.16,1828.34
													c-6.89,0-13.27-1.61-18.91-4.86c-13.58-7.81-21.09-24.11-21.15-45.9c-0.12-44.21,31.07-98.25,69.54-120.45
													c19.08-11.02,37.14-12.74,50.79-4.88c13.58,7.82,21.09,24.12,21.15,45.9c0.12,44.21-31.08,98.24-69.54,120.45l0,0
													C1934.82,1825.07,1923.97,1828.34,1914.16,1828.34z M1975.5,1651.29c-9.13,0-19.32,3.1-29.92,9.21
													c-37.39,21.59-67.71,74.1-67.59,117.07c0.05,20.33,6.88,35.43,19.2,42.53c12.41,7.14,29.06,5.41,46.89-4.88l0,0
													c37.4-21.59,67.72-74.11,67.59-117.07c-0.05-20.33-6.88-35.43-19.2-42.52
													C1987.45,1652.73,1981.72,1651.29,1975.5,1651.29z"/></g></g><g><path fill="#fff" d="M2233.99,1499.12l-11.63-6.8l11.43,6.59C2233.89,1499.02,2233.99,1499.02,2233.99,1499.12z"/><path fill="#373b42" d="M2233.99,1501.07c-0.34,0-0.68-0.09-0.98-0.27l-11.64-6.8c-0.93-0.54-1.24-1.73-0.7-2.66
									c0.53-0.94,1.74-1.24,2.66-0.71l11.43,6.59c0.14,0.09,0.28,0.19,0.4,0.31c0.59,0.35,0.78,0.9,0.78,1.58
									c0,0.7-0.37,1.34-0.98,1.69C2234.66,1500.99,2234.33,1501.07,2233.99,1501.07z"/></g><g><path fill="#fff" d="M2168.06,1483.98c12.69-7.32,24.6-8.53,33.63-3.45l32.05,18.41c9.03,5.07,14.07,15.86,14.11,30.51
									l0.2,71.82c0.02,6.95-4.89,15.38-10.94,18.87l-14.59,8.42c-6.05,3.49-10.99,0.75-11.01-6.2l-0.2-71.82
									c-0.01-3.32-1.2-5.89-3.25-7.05l-32.18-18.34c-2.04-1.16-4.81-0.93-7.77,0.78l-314.76,181.72
									c-2.96,1.71-5.71,4.66-7.75,8.18l-31.97,55.37c-2.03,3.52-3.21,7.45-3.2,10.77l0.2,71.82c0.02,6.95-4.89,15.38-10.94,18.87
									l-14.59,8.42c-6.05,3.49-10.93,0.71-10.95-6.24l-0.2-71.82c-0.04-14.65,4.85-31.17,13.76-46.6l31.9-55.33
									c8.98-15.47,20.86-28,33.61-35.37L2168.06,1483.98z"/><path fill="#373b42" d="M1780.2,1884.57c-1.38,0-2.66-0.33-3.81-0.99c-2.68-1.54-4.16-4.63-4.17-8.71l-0.21-71.82
									c-0.04-14.95,4.94-31.85,14.02-47.58l31.91-55.33c9.15-15.77,21.33-28.58,34.32-36.08l314.82-181.76
									c13.27-7.66,25.91-8.9,35.55-3.46l32.07,18.42c9.67,5.43,15.04,16.87,15.08,32.19l0.21,71.82
									c0.02,7.66-5.22,16.69-11.92,20.56l-14.59,8.43c-3.59,2.07-7.05,2.35-9.77,0.79c-2.67-1.54-4.16-4.62-4.17-8.67l-0.21-71.82
									c-0.01-2.55-0.85-4.56-2.26-5.36l-32.18-18.34c-1.45-0.84-3.53-0.56-5.83,0.77l-314.76,181.73
									c-2.64,1.52-5.13,4.18-7.03,7.46l-31.97,55.38c-1.88,3.24-2.95,6.81-2.93,9.79l0.2,71.83c0.02,7.66-5.21,16.69-11.91,20.56
									l-14.6,8.42C1784.06,1883.97,1782.05,1884.57,1780.2,1884.57z M2189.41,1479.4c-6.21,0-13.15,2.11-20.37,6.27l0,0
									l-314.82,181.76c-12.4,7.17-24.09,19.47-32.9,34.66l-31.9,55.33c-8.74,15.15-13.54,31.35-13.5,45.62l0.21,71.82
									c0.01,2.62,0.79,4.52,2.22,5.33c1.4,0.82,3.53,0.53,5.8-0.78l14.6-8.42c5.42-3.13,9.98-11,9.96-17.18l-0.2-71.83
									c-0.02-3.64,1.24-7.93,3.45-11.75l31.97-55.37c2.23-3.87,5.24-7.03,8.46-8.89l314.76-181.73c3.54-2.05,6.98-2.33,9.7-0.78
									l32.19,18.34c2.67,1.53,4.22,4.71,4.23,8.74l0.21,71.82c0.01,2.6,0.79,4.48,2.22,5.3c1.45,0.83,3.58,0.54,5.87-0.78
									l14.59-8.43c5.41-3.13,9.98-11,9.97-17.18l-0.21-71.82c-0.05-13.85-4.7-24.09-13.11-28.82l-32.07-18.42
									C2197.37,1480.33,2193.54,1479.4,2189.41,1479.4z M2168.07,1483.98h0.05H2168.07z"/></g><g><path fill="#dbdee4" d="M2222.35,1492.32l-20.71-11.85c-8.94-4.99-20.86-3.8-33.52,3.5l-314.89,181.84
									c-7.6,4.32-14.9,10.5-21.45,18.1c-4.39,5.14-8.49,10.95-12.14,17.21l-31.88,55.35c-5.36,9.24-9.24,18.85-11.47,28.23
									c-1.56,6.26-2.31,12.44-2.31,18.33l0.15,71.81c0,3.5,1.27,5.89,3.2,7l-644.55-374.64c-2.01-1.12-3.2-3.5-3.2-7l-0.22-71.74
									c0-5.89,0.75-12.14,2.31-18.4c2.24-9.39,6.11-19,11.47-28.23l31.96-55.42c3.58-6.18,7.67-11.99,12.07-17.06
									c6.63-7.67,13.86-13.86,21.46-18.25l314.89-181.77c12.66-7.3,24.58-8.57,33.6-3.43L2222.35,1492.32z"/><path fill="#373b42" d="M1777.32,1883.8c-0.34,0-0.66-0.08-0.97-0.26c-0.02-0.01-0.04-0.03-0.06-0.04l-644.5-374.61
									c-2.67-1.49-4.17-4.58-4.17-8.69l-0.23-71.73c0-6.25,0.8-12.6,2.38-18.88c2.3-9.68,6.23-19.36,11.67-28.74l31.95-55.42
									c3.69-6.38,7.83-12.22,12.29-17.36c6.84-7.91,14.22-14.19,21.95-18.66l314.89-181.76c13.33-7.69,25.96-8.9,35.54-3.43
									l665.27,386.42c0.93,0.54,1.24,1.73,0.71,2.66c-0.55,0.93-1.73,1.25-2.66,0.72l-20.71-11.84
									c-8.36-4.66-19.58-3.43-31.59,3.5l-314.89,181.84c-7.42,4.22-14.47,10.17-20.96,17.69c-4.32,5.05-8.33,10.74-11.93,16.92
									l-31.88,55.34c-5.25,9.05-9.04,18.37-11.26,27.71c-1.5,6-2.26,12-2.26,17.88l0.15,71.81c0,2.59,0.78,4.47,2.21,5.3
									l0.03,0.02c-0.02-0.01-0.02,0-0.01,0l0.01,0c0.93,0.54,1.24,1.73,0.71,2.66C1778.65,1883.45,1777.99,1883.8,1777.32,1883.8z
									 M1544.83,1104.74c-6.19,0-13.12,2.11-20.35,6.28l-314.89,181.76c-7.35,4.25-14.4,10.26-20.96,17.84
									c-4.3,4.96-8.29,10.6-11.86,16.76l-31.96,55.42c-5.25,9.05-9.05,18.38-11.26,27.71c-1.5,6-2.26,12.03-2.26,17.95l0.23,71.73
									c0,1.87,0.38,4.3,2.2,5.31l638.55,371.15c-0.07-0.58-0.11-1.18-0.11-1.81l-0.15-71.81c0-6.2,0.8-12.52,2.38-18.8
									c2.3-9.69,6.23-19.36,11.67-28.74l31.88-55.34c3.72-6.38,7.87-12.27,12.34-17.5c6.78-7.86,14.18-14.09,21.98-18.53
									l314.88-181.84c7.84-4.52,15.43-6.8,22.33-6.8c0.01,0,0.02,0,0.02,0l-633.38-367.9
									C1552.79,1105.69,1548.97,1104.74,1544.83,1104.74z"/><g><path fill="#f0f2f5" d="M1831.78,1683.92c-4.39,5.14-8.49,10.95-12.14,17.21l-31.88,55.35c-5.36,9.24-9.24,18.85-11.47,28.23
									l-644.62-374.64c2.24-9.39,6.11-19,11.47-28.23l31.96-55.42c3.58-6.18,7.67-11.99,12.07-17.06L1831.78,1683.92z"/><path fill="#373b42" d="M1776.28,1786.66c-0.34,0-0.68-0.09-0.98-0.26l-644.62-374.64c-0.74-0.43-1.11-1.3-0.91-2.14
									c2.31-9.71,6.24-19.38,11.68-28.76l31.95-55.42c3.69-6.38,7.83-12.22,12.29-17.36c0.62-0.71,1.62-0.88,2.45-0.41
									l644.62,374.57c0.49,0.29,0.85,0.79,0.94,1.36c0.1,0.57-0.06,1.15-0.43,1.6c-4.33,5.06-8.34,10.75-11.94,16.92l-31.88,55.34
									c-5.25,9.05-9.04,18.37-11.26,27.71c-0.14,0.6-0.56,1.1-1.13,1.34C1776.81,1786.61,1776.54,1786.66,1776.28,1786.66z
									 M1133.9,1409.12l641.12,372.61c2.36-8.86,6.07-17.67,11.04-26.23l31.88-55.34c3.3-5.67,6.94-10.94,10.85-15.71
									l-641.22-372.6c-3.9,4.66-7.53,9.88-10.81,15.53l-31.96,55.42C1139.82,1391.41,1136.16,1400.25,1133.9,1409.12z"/></g></g><g><path fill="#373b42" d="M2079.03,1785.67c10.3-5.95,18.61-20.34,18.58-32.18c-0.03-11.84-8.4-16.6-18.7-10.66
						s-18.61,20.34-18.58,32.18C2060.36,1786.86,2068.73,1791.62,2079.03,1785.67"/><path fill="#373b42" d="M2070.65,1790.2c-2.12,0-4.08-0.5-5.83-1.51c-4.13-2.38-6.43-7.24-6.44-13.67
						c-0.03-12.43,8.74-27.63,19.55-33.87c5.63-3.26,11.01-3.73,15.18-1.32c4.14,2.38,6.43,7.23,6.45,13.66
						c0.03,12.44-8.74,27.63-19.55,33.87C2076.74,1789.24,2073.56,1790.2,2070.65,1790.2z M2087.27,1742.22
						c-2.22,0-4.74,0.77-7.39,2.3c-9.74,5.62-17.64,19.3-17.6,30.49c0.02,4.98,1.61,8.64,4.49,10.29c2.93,1.68,6.93,1.2,11.29-1.32
						l0,0c9.74-5.62,17.64-19.3,17.6-30.49c-0.02-4.98-1.61-8.63-4.49-10.29C2090.02,1742.55,2088.71,1742.22,2087.27,1742.22z"/></g></g><g opacity=".1"><path d="M651.4,1287.33c-10.12,5.85-10.18,15.31-0.12,21.16l174.18,101.36c10.06,5.85,26.4,5.85,36.53,0l276.18-159.45
				c10.12-5.85,10.18-15.31,0.12-21.16L964.1,1127.88c-10.06-5.85-26.4-5.85-36.53,0L651.4,1287.33z"/></g><g><path fill="#f0f2f5" d="M1145.79,1201.58c0,6.47-2.27,11.02-5.99,13.16l-271.62,157.85c3.72-2.14,5.92-6.68,5.99-13.08
				c0-13.02-9.16-28.93-20.45-35.4l-149.75-86.52c-1.51-0.9-2.82-2-3.86-3.17c-2.27-2.62-3.44-5.58-4.06-7.51
				c-0.83-2.55-1.58-6.82,0.96-9.02l272.1-158.19c-3.03,2.14-2.2,6.61-1.38,9.37c0.55,1.86,1.65,4.82,3.99,7.44
				c1.03,1.24,2.34,2.34,3.93,3.24l149.68,86.45C1136.7,1172.66,1145.86,1188.64,1145.79,1201.58z"/><path fill="#373b42" d="M868.18,1374.54c-0.67,0-1.32-0.35-1.69-0.97c-0.53-0.93-0.22-2.12,0.71-2.66l0.08-0.04
				c3.13-1.84,4.88-5.87,4.94-11.38c0-12.41-8.73-27.53-19.47-33.69l-149.76-86.52c-1.65-0.97-3.14-2.2-4.35-3.57
				c-1.93-2.22-3.42-4.97-4.45-8.2c-0.91-2.84-1.94-8.07,1.55-11.09l272.39-158.41c0.91-0.52,2.06-0.24,2.63,0.64
				c0.56,0.88,0.33,2.04-0.53,2.65c-1.9,1.34-1.39,4.66-0.63,7.21c0.81,2.72,1.99,4.91,3.59,6.69c0.96,1.15,2.1,2.09,3.43,2.85
				l149.69,86.46c11.89,6.77,21.51,23.41,21.44,37.09c0,6.99-2.47,12.26-6.97,14.84l-271.54,157.8c-0.02,0.02-0.05,0.03-0.07,0.04v0
				c-0.01,0-0.01,0-0.01,0C868.84,1374.45,868.52,1374.54,868.18,1374.54z M965.03,1064.33L698,1219.58
				c-1.61,1.44-0.49,5.52-0.09,6.74c0.87,2.72,2.11,5.02,3.68,6.83c0.92,1.05,2.09,2.01,3.37,2.77l149.73,86.51
				c11.81,6.77,21.43,23.41,21.43,37.09c-0.03,2.5-0.36,4.78-0.98,6.79l263.69-153.24c3.24-1.86,5.03-5.94,5.03-11.47
				c0,0,0-0.01,0-0.01c0.06-12.21-8.86-27.64-19.48-33.69l-149.69-86.46c-1.73-0.98-3.23-2.22-4.45-3.68
				c-1.91-2.13-3.4-4.88-4.36-8.12C965.25,1067.54,965,1065.79,965.03,1064.33z"/></g><g><path fill="#dbdee4" d="M1125.34,1166.18c11.36,6.47,20.52,22.45,20.45,35.4c0,6.47-2.27,11.02-5.99,13.16l-271.62,157.85
				c3.72-2.14,5.92-6.68,5.99-13.08c0-13.02-9.16-28.93-20.45-35.4"/><path fill="#373b42" d="M868.18,1374.54c-0.67,0-1.32-0.35-1.69-0.97c-0.53-0.93-0.22-2.12,0.71-2.66l0.08-0.05
				c3.12-1.84,4.87-5.87,4.93-11.37c0-12.41-8.73-27.53-19.47-33.69c-0.94-0.54-1.26-1.72-0.72-2.66c0.53-0.94,1.73-1.25,2.66-0.72
				c11.82,6.78,21.44,23.41,21.44,37.09c-0.03,2.5-0.36,4.78-0.98,6.79l263.69-153.24c3.24-1.86,5.03-5.94,5.03-11.47
				c0.06-12.23-8.86-27.66-19.48-33.7c-0.94-0.53-1.26-1.72-0.72-2.66c0.53-0.94,1.71-1.26,2.66-0.73
				c11.89,6.77,21.52,23.42,21.44,37.1c0,6.98-2.47,12.25-6.97,14.84l-271.53,157.79c-0.03,0.02-0.06,0.04-0.09,0.06
				C868.84,1374.45,868.52,1374.54,868.18,1374.54z"/></g><g><path fill="#373b42" d="M717.02,1025.16c11.36,6.56,20.48,22.4,20.44,35.41l-0.28,97.37c-0.07,23.75-8.17,41.5-22.86,49.82
				l-16.38,9.38c-3.58,2.04-2.77,6.94-1.88,9.77c0.81,2.78,2.94,7.83,7.94,10.72l149.71,86.43c11.28,6.51,20.48,22.44,20.44,35.41
				c-0.04,13.05-9.29,18.24-20.57,11.72l-149.71-86.43c-20.14-11.63-38.15-35.86-45.8-61.75c-7.65-25.85-3.32-47.8,10.92-56.01
				l16.42-9.26c6.91-3.94,10.72-12.27,10.75-23.49l0.28-97.37C696.48,1023.88,705.74,1018.65,717.02,1025.16z"/><path fill="#373b42" d="M862.78,1375.97c-3.17,0-6.62-1.04-10.17-3.08l-149.71-86.43c-20.59-11.89-38.92-36.57-46.7-62.89
				c-7.89-26.69-3.25-49.56,11.83-58.25l16.43-9.27c6.26-3.57,9.72-11.31,9.75-21.79l0.28-97.38c0.02-6.99,2.51-12.26,7.01-14.84
				c4.53-2.61,10.39-2.09,16.49,1.44l0,0c11.85,6.84,21.45,23.48,21.41,37.1l-0.27,97.37c-0.07,24.54-8.54,42.84-23.85,51.51
				l-16.37,9.38c-2.57,1.47-1.55,5.73-0.98,7.49c0.73,2.52,2.6,7.05,7.05,9.62l149.71,86.43c11.85,6.83,21.46,23.48,21.42,37.1
				c-0.02,6.99-2.51,12.27-7,14.85C867.22,1375.42,865.08,1375.97,862.78,1375.97z M707.85,1024.3c-1.63,0-3.11,0.37-4.41,1.12
				c-3.24,1.87-5.03,5.94-5.05,11.48l-0.28,97.37c-0.03,11.94-4.2,20.89-11.73,25.18l-16.42,9.27
				c-13.45,7.75-17.38,28.85-10.02,53.76c7.52,25.41,25.14,49.21,44.91,60.62l149.71,86.43c4.87,2.81,9.34,3.32,12.61,1.44
				c3.24-1.86,5.03-5.94,5.04-11.48c0.04-12.16-8.88-27.6-19.47-33.71l-149.71-86.43c-5.63-3.25-7.95-8.83-8.83-11.86
				c-1.77-5.59-0.77-9.99,2.78-12.01l16.38-9.38c14.04-7.96,21.81-25.06,21.88-48.14l0.27-97.38c0.04-12.37-8.7-27.5-19.46-33.71
				C713.11,1025.16,710.32,1024.3,707.85,1024.3z"/></g><g><path fill="#fff" d="M986,1049.89c14.65-8.35,22.81-26.08,22.87-49.85l0.26-97.33c0-13.04-9.06-28.84-20.43-35.4
				c-5.72-3.34-10.86-3.6-14.58-1.41l-271.68,157.84c3.73-2.18,8.93-1.86,14.58,1.41c11.37,6.55,20.49,22.42,20.43,35.4l-0.26,97.39
				c-0.06,22.16-7.13,39.06-19.98,47.92c-0.06,0.13-0.13,0.19-0.19,0.19l-19.08,11.05c-0.32,0.19-0.64,0.39-0.9,0.77l272.06-158.16
				L986,1049.89z"/><path fill="#373b42" d="M697.04,1219.83c-0.53,0-1.04-0.21-1.42-0.62c-0.62-0.66-0.7-1.67-0.19-2.42c0.49-0.74,1.1-1.11,1.5-1.35
				l18.89-10.93c0.08-0.09,0.18-0.18,0.29-0.25c12.28-8.47,19.07-24.92,19.14-46.32l0.26-97.39c0.06-12.37-8.67-27.49-19.46-33.7
				c-4.78-2.77-9.34-3.3-12.56-1.45l-0.05,0.03c0,0,0,0,0,0l-0.01,0c-0.94,0.54-2.12,0.22-2.67-0.7c-0.54-0.93-0.23-2.12,0.69-2.67
				c0.03-0.02,0.06-0.03,0.08-0.05l271.6-157.8c4.55-2.67,10.42-2.16,16.55,1.42c11.99,6.91,21.4,23.2,21.4,37.08l-0.26,97.33
				c-0.07,24.5-8.54,42.8-23.85,51.54l-288.95,167.99C697.71,1219.75,697.37,1219.83,697.04,1219.83z M711.37,1020.81
				c2.15,0.47,4.39,1.36,6.62,2.66c11.86,6.84,21.47,23.48,21.4,37.09l-0.26,97.39c-0.05,16.11-3.78,29.63-10.71,39.43
				l256.58-149.17c0.01,0,0.02,0,0.02-0.01c14.05-8.01,21.82-25.12,21.89-48.16l0.26-97.33c0-12.4-8.73-27.52-19.46-33.7
				c-4.87-2.85-9.37-3.34-12.62-1.42L711.37,1020.81z"/></g><g><path fill="#1fb6ff" d="M1285.18,938.19l-677.87,391.33c-17.03,9.85-38.29,0.08-47.27-21.8L326.47,742.68
						c-9.06-21.96-2.58-47.67,14.53-57.51l677.87-391.33c17.11-9.92,38.29-0.16,47.35,21.72l233.56,565.03
						C1308.77,902.48,1302.29,928.27,1285.18,938.19z"/><path fill="#373b42" d="M593.19,1335.29c-3.36,0-6.75-0.56-10.08-1.7c-10.76-3.67-19.83-12.83-24.88-25.14L324.66,743.43
						c-9.4-22.78-2.51-49.67,15.37-59.95l677.87-391.32c7.71-4.48,16.66-5.35,25.17-2.46c10.75,3.64,19.84,12.8,24.95,25.13
						l233.56,565.04c9.34,22.74,2.42,49.67-15.44,60.02l0,0L608.28,1331.2C603.59,1333.92,598.44,1335.29,593.19,1335.29z
						 M1033.03,291.89c-4.55,0-9.01,1.22-13.18,3.64L341.98,686.86c-16.24,9.35-22.39,34.06-13.71,55.08l233.56,565.03
						c4.62,11.27,12.84,19.63,22.54,22.94c7.45,2.53,15.25,1.8,21.96-2.07L1284.2,936.5c16.23-9.42,22.42-34.16,13.78-55.16
						l-233.56-565.03c-4.68-11.3-12.91-19.65-22.59-22.93C1038.89,292.39,1035.94,291.89,1033.03,291.89z M1285.17,938.19h0.05
						H1285.17z"/><g><polygon fill="#373b42" points="1276.59 893.17 1241.89 898.1 1008.9 334.42 1043.6 329.49"/><path fill="#373b42" d="M1241.88,900.04c-0.78,0-1.5-0.47-1.8-1.2L1007.1,335.17c-0.23-0.56-0.19-1.19,0.11-1.71
								c0.3-0.52,0.82-0.88,1.42-0.96l34.7-4.93c0.88-0.08,1.74,0.37,2.08,1.18l232.99,563.68c0.23,0.56,0.19,1.19-0.11,1.71
								c-0.3,0.52-0.82,0.88-1.42,0.96l-34.71,4.92C1242.07,900.04,1241.97,900.04,1241.88,900.04z M1011.66,336l231.44,559.96
								l30.72-4.36l-231.45-559.96L1011.66,336z"/><polygon fill="#373b42" points="582.58 1293.86 547.88 1298.78 1241.89 898.1 1276.59 893.17"/><path fill="#373b42" d="M547.88,1300.73c-0.82,0-1.57-0.52-1.84-1.31c-0.3-0.88,0.06-1.86,0.87-2.32l694.01-400.69
								c0.21-0.13,0.46-0.21,0.7-0.24l34.71-4.92c0.93-0.12,1.81,0.41,2.12,1.29s-0.06,1.86-0.87,2.32l-694.02,400.69
								c-0.21,0.13-0.46,0.21-0.7,0.24l-34.7,4.92C548.06,1300.72,547.97,1300.73,547.88,1300.73z M1242.53,899.97l-684.96,395.47
								l24.36-3.46l684.98-395.47L1242.53,899.97z M582.57,1293.86h0.05H582.57z"/><g><path fill="#373b42" d="M291.02,737.65l250.55,606.22c7.85,18.91,24.14,29.38,39.85,27.25l-34.71,4.85
								c-15.71,2.23-32-8.24-39.85-27.25L256.31,742.6c-9.7-23.56-2.72-51.1,15.61-61.77l727.16-419.76
								c3.59-2.13,7.37-3.39,11.05-3.88l34.71-4.94c-3.78,0.58-7.47,1.84-11.05,3.88L306.63,675.99
								C288.31,686.55,281.33,714.09,291.02,737.65z"/><path fill="#373b42" d="M542.44,1378.22c-15.43,0-30.07-11.06-37.38-28.76L254.5,743.35c-10-24.31-2.62-53.1,16.44-64.2
								L998.1,259.38c3.68-2.19,7.65-3.58,11.78-4.12l34.69-4.94c1.02-0.15,2.04,0.59,2.2,1.64c0.16,1.06-0.57,2.05-1.63,2.21
								c-3.61,0.56-7.1,1.78-10.39,3.64L307.6,677.67c-17.44,10.07-24.08,36.64-14.78,59.24l250.56,606.22
								c7.33,17.66,22.52,28.14,37.78,26.06c1.05-0.16,2.05,0.61,2.19,1.66c0.14,1.07-0.6,2.05-1.67,2.2h-0.01c0,0,0,0,0,0
								l-34.7,4.84C545.47,1378.11,543.95,1378.22,542.44,1378.22z M1029.38,256.42l-18.97,2.7c-3.62,0.48-7.09,1.69-10.33,3.62
								L272.9,682.52c-17.44,10.15-24.08,36.77-14.79,59.34l250.56,606.11c7.33,17.75,22.48,28.27,37.78,26.06l19.43-2.71
								c-10.99-3.95-20.61-13.47-26.1-26.7L289.22,738.4c0,0,0,0,0,0c-10.01-24.34-2.63-53.1,16.44-64.1L1029.38,256.42z"/></g><g><path fill="#fff" d="M1033.82,256.1c18.39-10.62,41.11-0.17,50.84,23.37l250.55,606.17c9.7,23.46,2.74,51.15-15.65,61.76
								l-727.19,419.85c-18.32,10.58-41.08,0.05-50.78-23.41L291.04,737.67c-9.73-23.54-2.74-51.15,15.59-61.73L1033.82,256.1z
								 M1276.59,893.17L1043.6,329.49L349.59,730.18l232.98,563.68L1276.59,893.17"/><path fill="#373b42" d="M577.2,1373.3c-3.57,0-7.18-0.59-10.72-1.8c-11.51-3.91-21.24-13.72-26.7-26.91L289.23,738.42
								c-10.06-24.34-2.7-53.12,16.42-64.16l727.2-419.84c8.25-4.77,17.84-5.7,26.95-2.6c11.49,3.9,21.21,13.71,26.67,26.92
								l250.55,606.17c10.05,24.35,2.66,53.15-16.49,64.19l-727.19,419.84C588.32,1371.84,582.8,1373.3,577.2,1373.3z
								 M1049.09,253.92c-4.96,0-9.84,1.3-14.29,3.87l0,0L307.6,677.63c-17.48,10.1-24.1,36.69-14.76,59.29l250.55,606.17
								c5.02,12.16,13.89,21.16,24.34,24.72c8.03,2.73,16.42,1.93,23.66-2.25l727.19-419.84c17.51-10.11,24.17-36.73,14.83-59.33
								l-250.55-606.16c-5.03-12.17-13.89-21.18-24.31-24.72C1055.42,254.44,1052.24,253.92,1049.09,253.92z M1033.82,256.1h0.05
								H1033.82z M582.57,1295.81c-0.21,0-0.43-0.03-0.62-0.1c-0.53-0.18-0.96-0.58-1.18-1.1L347.79,730.93
								c-0.37-0.91-0.02-1.95,0.83-2.43l694.01-400.69c0.49-0.29,1.09-0.34,1.6-0.16c0.53,0.18,0.96,0.58,1.18,1.1l232.99,563.68
								c0.37,0.91,0.02,1.95-0.83,2.43l-694.02,400.69C583.25,1295.72,582.91,1295.81,582.57,1295.81z M352.04,731.02l231.48,560.04
								l690.61-398.72l-231.49-560.04L352.04,731.02z"/></g></g></g><g><path fill="#373b42" d="M606.2,775.2c-0.75,0-1.48-0.45-1.8-1.19L558.07,665.1c-0.38-0.91-0.03-1.96,0.82-2.45l85.21-49.19
						c0.91-0.54,2.12-0.23,2.67,0.71c0.53,0.93,0.21,2.12-0.72,2.66l-83.71,48.33L608,772.49c0.42,0.99-0.05,2.13-1.04,2.55
						C606.72,775.15,606.46,775.2,606.2,775.2z"/><path fill="#373b42" d="M1103.24,916.05c-0.67,0-1.32-0.35-1.69-0.97c-0.53-0.93-0.21-2.12,0.72-2.66l83.71-48.33l-45.66-107.32
						c-0.42-0.99,0.05-2.13,1.04-2.55c0.94-0.41,2.13,0.03,2.56,1.03l46.33,108.91c0.38,0.91,0.03,1.96-0.82,2.45l-85.21,49.19
						C1103.91,915.97,1103.58,916.05,1103.24,916.05z"/><path fill="#373b42" d="M1042.32,523.41c-0.75,0-1.48-0.45-1.8-1.19l-45.47-106.88l-83.3,48.09c-0.92,0.54-2.12,0.22-2.67-0.71
						c-0.53-0.93-0.21-2.12,0.72-2.66l85.21-49.2c0.48-0.28,1.07-0.34,1.59-0.16c0.53,0.18,0.96,0.57,1.18,1.09l46.34,108.91
						c0.42,0.99-0.05,2.13-1.04,2.55C1042.84,523.36,1042.58,523.41,1042.32,523.41z"/><path fill="#373b42" d="M752.33,1118.65c-0.21,0-0.42-0.03-0.62-0.1c-0.53-0.18-0.96-0.57-1.18-1.09l-46.33-108.91
						c-0.42-0.99,0.05-2.13,1.04-2.55c0.94-0.42,2.13,0.04,2.56,1.03l45.47,106.88l83.31-48.09c0.91-0.54,2.11-0.22,2.67,0.71
						c0.53,0.93,0.21,2.12-0.72,2.66l-85.21,49.2C753.01,1118.56,752.67,1118.65,752.33,1118.65z"/><path fill="#373b42" d="M880.48,872.8c-7.87,0-15.83-1.29-23.65-3.91c-25.76-8.61-47.7-30.37-60.19-59.72
						c-23.1-54.29-7.23-118.46,35.35-143.04l0,0c18.13-10.47,39.25-12.51,59.43-5.77c25.78,8.62,47.74,30.43,60.25,59.85
						c23.07,54.22,7.21,118.33-35.35,142.91C905.2,869.54,892.95,872.8,880.48,872.8z M833.94,669.5
						c-40.94,23.64-56.06,85.61-33.7,138.14c12.05,28.31,33.12,49.29,57.83,57.55c19.16,6.4,39.14,4.47,56.31-5.44
						c40.92-23.63,56.04-85.54,33.71-138.01c-12.08-28.39-33.18-49.42-57.9-57.68C871.08,657.68,851.1,659.6,833.94,669.5
						L833.94,669.5z"/><path fill="#373b42" d="M848.55,704.45c26-15.01,58.51-0.22,72.67,33.04c14.12,33.2,4.54,72.29-21.46,87.3
						c-26,15.01-58.54,0.24-72.67-32.96C812.94,758.58,822.55,719.46,848.55,704.45z"/><path fill="#373b42" d="M878.09,832.6c-4.97,0-10-0.82-14.94-2.47c-16.21-5.41-30.01-19.09-37.85-37.53
						c-14.5-34.07-4.5-74.37,22.28-89.84l0,0c11.46-6.61,24.79-7.91,37.55-3.64c16.22,5.42,30.02,19.13,37.89,37.61
						c14.48,34.03,4.48,74.3-22.28,89.75C893.71,830.54,885.96,832.6,878.09,832.6z M849.53,706.14
						c-25.14,14.51-34.4,52.62-20.64,84.94c7.4,17.4,20.34,30.29,35.5,35.35c11.7,3.92,23.91,2.73,34.4-3.32
						c25.12-14.5,34.38-52.57,20.64-84.85c-7.42-17.45-20.37-30.37-35.53-35.44C872.21,698.91,860,700.1,849.53,706.14
						L849.53,706.14z"/></g><g><path fill="#fff" d="M506.42,687.94c3.04-1.75,6.77,0,8.29,3.9l25.54,65.64c1.54,3.96,0.27,8.53-2.77,10.28l-15.43,8.91
						c-3.04,1.75-6.74,0.06-8.29-3.9l-25.54-65.64c-1.52-3.9-0.27-8.53,2.77-10.28L506.42,687.94z"/><path fill="#fff" d="M465.5,711.56c3.09-1.78,6.77,0.01,8.29,3.9l25.54,65.64c1.54,3.96,0.32,8.5-2.77,10.28l-15.43,8.91
						c-3.04,1.75-6.74,0.06-8.29-3.9l-25.54-65.64c-1.52-3.9-0.27-8.53,2.77-10.28L465.5,711.56z"/><path fill="#fff" d="M424.58,735.19c3.09-1.78,6.82-0.02,8.34,3.87l25.54,65.64c1.54,3.96,0.27,8.53-2.82,10.31l-15.43,8.91
						c-3.04,1.75-6.74,0.06-8.29-3.9l-25.54-65.64c-1.52-3.9-0.27-8.53,2.77-10.28L424.58,735.19z"/></g><g><polygon fill="#fff" points="708.52 1140.99 603.52 1201.61 583.44 1154.35 688.44 1093.73"/></g><g><path d="M1915.44,956.69c-61.05,35.25-61.37,92.42-0.69,127.68c60.68,35.26,159.35,35.25,220.4,0
						c61.08-35.26,61.45-92.43,0.78-127.7C2075.24,921.41,1976.51,921.42,1915.44,956.69z" opacity=".1"/><path fill="#bec4cd" d="M2206.42,998.8c0.05,23.27-15.32,46.55-46.04,64.3c-25.11,14.53-56.53,23.04-89.1,25.62
						c-13.34,1.06-26.91,1.1-40.29,0.14c-33.3-2.35-65.5-10.9-91.03-25.76c-30.13-17.53-45.22-40.43-45.31-63.39l-0.09-58.23
						c0.05,22.95,15.13,45.86,45.31,63.38c25.53,14.81,57.77,23.41,91.12,25.76c13.38,0.97,26.91,0.92,40.29-0.18
						c32.52-2.58,63.89-11.13,88.96-25.58c30.73-17.71,46.09-40.94,46.09-64.21L2206.42,998.8z"/><path fill="#dbdee4" d="M2071.28,1030.45v58.28c-13.34,1.06-26.91,1.1-40.29,0.14v-58.23
					C2044.38,1031.6,2057.9,1031.55,2071.28,1030.45z"/><path fill="#373b42" d="M2050.02,1091.43c-40.27,0-80.48-8.87-111.04-26.63c-29.77-17.3-46.2-40.42-46.27-65.09l-0.11-58.24l0,0v0
						c0-1.08,0.87-1.95,1.94-1.95c0.01,0,0.01,0,0.01,0c1.07,0,1.95,0.87,1.95,1.94c0.07,23.23,15.82,45.15,44.34,61.73
						c60.03,34.89,158.02,34.87,218.44,0c29.1-16.8,45.1-39.01,45.08-62.55v-0.08c0,0,0,0,0-0.01l0,0c0-1.08,0.87-1.95,1.94-1.95
						c0.01,0,0.01,0,0.01,0c1.07,0,1.95,0.87,1.95,1.95c0,0.03,0,0.07,0,0.1l0.1,58.14c0.08,25.03-16.62,48.47-47.02,66.01
						C2130.6,1082.55,2090.28,1091.43,2050.02,1091.43z M1896.55,961.98l0.07,37.73c0.06,23.22,15.81,45.15,44.33,61.72
						c60.03,34.89,158.03,34.88,218.45,0c29.13-16.82,45.14-39.06,45.07-62.63l-0.06-37.58c-6.56,17.09-21.34,32.75-43.17,45.35
						c-61.52,35.51-161.25,35.49-222.35,0C1917.55,994.16,1903.07,978.78,1896.55,961.98z"/><path fill="#373b42" d="M1940.56,877.2c-61.05,35.25-61.37,92.42-0.69,127.68c60.68,35.26,159.35,35.25,220.4,0
					c61.08-35.26,61.45-92.43,0.78-127.7C2100.36,841.92,2001.63,841.93,1940.56,877.2z"/><path fill="#373b42" d="M2049.91,1033.2c-40.27,0-80.47-8.88-111.03-26.63c-29.87-17.37-46.31-40.57-46.27-65.33
					c0.04-24.92,16.72-48.26,46.97-65.73c61.53-35.53,161.31-35.53,222.44-0.02c29.85,17.35,46.27,40.53,46.24,65.28
					c-0.03,24.94-16.73,48.3-47.02,65.79C2130.49,1024.32,2090.17,1033.19,2049.91,1033.2z M2050.97,852.7
					c-39.58,0-79.21,8.73-109.44,26.18l0,0c-29,16.74-44.99,38.89-45.02,62.36c-0.03,23.31,15.72,45.31,44.34,61.95
					c60.03,34.89,158.02,34.87,218.44,0c29.03-16.76,45.04-38.93,45.07-62.42c0.04-23.3-15.7-45.28-44.3-61.9
					C2130.05,861.42,2090.53,852.7,2050.97,852.7z M1940.56,877.2h0.05H1940.56z"/><path fill="#fff" d="M2049.92,1025.99c-40.7,0-78.84-9.13-107.38-25.72c-27.53-16-42.68-36.96-42.65-59.02
					c0.03-22.22,15.42-43.33,43.33-59.44c28.75-16.6,67.02-25.74,107.75-25.74c40.71,0,78.85,9.13,107.39,25.72
					c27.51,15.99,42.65,36.94,42.62,58.98c-0.03,22.23-15.44,43.36-43.38,59.49C2128.87,1016.85,2090.62,1025.99,2049.92,1025.99
					L2049.92,1025.99z"/><path fill="#373b42" d="M2049.92,1027.94c-41.04,0-79.53-9.23-108.36-25.98c-28.16-16.37-43.65-37.92-43.62-60.71
					c0.03-22.94,15.77-44.64,44.31-61.12c29.03-16.77,67.65-26,108.72-26c41.06,0,79.54,9.23,108.38,25.98
					c28.14,16.36,43.62,37.91,43.59,60.67c-0.03,22.95-15.78,44.67-44.35,61.18C2129.54,1018.71,2090.96,1027.94,2049.92,1027.94z
					 M2050.97,858.02c-40.4,0-78.32,9.05-106.77,25.48c-27.28,15.75-42.33,36.27-42.36,57.76c-0.03,21.33,14.77,41.69,41.68,57.33
					c28.25,16.42,66.03,25.46,106.4,25.46c40.36,0,78.26-9.04,106.71-25.46c27.31-15.78,42.38-36.31,42.41-57.81
					c0.03-21.32-14.76-41.67-41.65-57.29C2129.14,867.06,2091.35,858.02,2050.97,858.02z"/><path fill="#fff" d="M2050.14,989.08c-23.02,0-44.58-5.17-60.72-14.54c-15.57-9.05-24.14-20.9-24.12-33.38
					c0.02-12.56,8.72-24.5,24.5-33.61c16.26-9.39,37.9-14.56,60.94-14.56c23.02,0,44.59,5.17,60.73,14.54
					c15.56,9.04,24.12,20.89,24.1,33.35c-0.02,12.57-8.73,24.52-24.53,33.64C2094.79,983.91,2073.16,989.08,2050.14,989.08
					L2050.14,989.08z"/><path fill="#373b42" d="M2050.14,991.02c-23.35,0-45.27-5.26-61.7-14.81c-16.2-9.42-25.11-21.87-25.09-35.07
					c0.02-13.29,9.07-25.82,25.48-35.3c16.55-9.56,38.54-14.82,61.91-14.82c23.36,0,45.28,5.26,61.72,14.81
					c16.18,9.41,25.08,21.85,25.07,35.04c-0.02,13.3-9.08,25.85-25.51,35.33C2095.48,985.77,2073.5,991.02,2050.14,991.02z
					 M2050.74,894.94c-22.7,0-44,5.08-59.96,14.29c-15.15,8.75-23.51,20.09-23.53,31.93c-0.02,11.75,8.21,23,23.16,31.68
					c15.84,9.21,37.06,14.28,59.74,14.28c22.68,0,43.97-5.08,59.93-14.28c15.17-8.76,23.54-20.11,23.56-31.96
					c0.02-11.74-8.2-22.98-23.13-31.66C2094.65,900.01,2073.43,894.94,2050.74,894.94z"/><g><path fill="#fff" d="M2050.36,957.97c-5.64,0-10.92-1.26-14.87-3.56c-3.81-2.22-5.91-5.12-5.91-8.17c0-3.08,2.14-6,6-8.23
					c3.98-2.3,9.28-3.56,14.92-3.56c5.64,0,10.92,1.26,14.87,3.56c3.81,2.21,5.91,5.12,5.9,8.17c0,3.08-2.14,6-6.01,8.24
					C2061.3,956.7,2056,957.97,2050.36,957.97L2050.36,957.97z"/><path fill="#373b42" d="M2050.37,959.91c-5.98,0-11.6-1.36-15.85-3.82c-4.43-2.58-6.88-6.08-6.88-9.86
					c0.01-3.8,2.49-7.33,6.97-9.92c8.54-4.93,23.25-4.93,31.75,0c4.43,2.58,6.87,6.08,6.87,9.85c-0.01,3.81-2.49,7.34-6.98,9.93
					C2061.98,958.56,2056.34,959.91,2050.37,959.91z M2050.51,936.39c-5.31,0-10.26,1.17-13.95,3.3c-3.24,1.87-5.02,4.2-5.03,6.55
					c0,2.33,1.75,4.63,4.94,6.48c7.31,4.26,20.45,4.25,27.82,0c3.24-1.87,5.03-4.2,5.03-6.56c0-2.33-1.75-4.63-4.93-6.48
					C2060.75,937.55,2055.81,936.39,2050.51,936.39z"/></g><g><path fill="#373b42" d="M2135.61,940.9c0,3.77-0.84,7.54-2.35,11.15c-3.61-8.3-10.98-15.85-21.8-22.13
					c-16.1-9.39-37.73-14.59-60.7-14.59c-23.05,0-44.68,5.2-60.95,14.59c-11.07,6.37-18.61,14.17-22.22,22.47
					c-1.51-3.6-2.35-7.38-2.35-11.23c0.08-12.58,8.72-24.48,24.56-33.62c16.26-9.39,37.89-14.59,60.95-14.59
					c22.97,0,44.6,5.2,60.7,14.59C2127.06,916.59,2135.61,928.41,2135.61,940.9z"/><path fill="#373b42" d="M1967.61,954.33c-0.72,0.07-1.5-0.47-1.8-1.2c-1.66-3.96-2.5-8-2.5-11.99
					c0.09-13.33,9.16-25.86,25.54-35.31c16.58-9.58,38.58-14.85,61.92-14.85c23.35,0,45.26,5.28,61.68,14.86
					c16.2,9.4,25.11,21.84,25.11,35.05c0,3.94-0.84,7.94-2.5,11.91c-0.3,0.73-1.1,1.39-1.8,1.2c-0.78,0-1.48-0.46-1.79-1.17
					c-3.48-8.01-10.55-15.15-20.99-21.22c-15.84-9.24-37.04-14.33-59.71-14.33c-22.67,0-43.97,5.09-59.97,14.33
					c-10.5,6.05-17.9,13.5-21.4,21.56C1969.08,953.87,1968.38,954.33,1967.61,954.33z M2050.77,894.89
					c-22.68,0-43.97,5.09-59.97,14.33c-15.13,8.73-23.51,20.07-23.59,31.94c0,2.06,0.26,4.15,0.78,6.24
					c4.32-7.19,11.44-13.75,20.86-19.17c16.59-9.58,38.58-14.85,61.92-14.85c23.35,0,45.25,5.28,61.68,14.86
					c9.36,5.44,16.21,11.75,20.44,18.82c0.52-2.07,0.78-4.13,0.78-6.16c0-11.75-8.23-23-23.17-31.68
					C2094.65,899.98,2073.45,894.89,2050.77,894.89z"/></g></g><g><path fill="#dbdee4" d="M2050.65,947.03c-1.07,0-1.95-0.87-1.95-1.95V726.36c0-1.08,0.88-1.95,1.95-1.95
						c1.07,0,1.95,0.87,1.95,1.95v218.72C2052.6,946.16,2051.72,947.03,2050.65,947.03z"/></g><g><path fill="#373b42" d="M2114.55,709.6c0,15.4-5.46,26.25-14.26,31.34l-31,18.02c8.72-5.08,14.19-15.93,14.26-31.33
					c0.08-31.03-21.78-68.82-48.79-84.45c-13.58-7.82-25.87-8.57-34.75-3.42l31.08-18.02c8.88-5.16,21.17-4.4,34.75,3.41
					C2092.85,640.71,2114.7,678.57,2114.55,709.6z"/><path fill="#1fb6ff" d="M2034.78,643.19c27,15.59,48.83,53.4,48.74,84.42c-0.09,31.02-22.06,43.55-49.06,27.96
					c-27-15.59-48.77-53.36-48.68-84.39C1985.86,640.16,2007.78,627.6,2034.78,643.19z"/><path fill="#373b42" d="M2153.01,656.64l-31.08,18.03c6.22-3.64,6.3-15.17,0.08-25.95c-23.9-41.43-55.39-73.45-86.95-91.65
					c-31.56-18.21-63.2-22.69-87.33-8.95l31.08-18.1c24.13-13.66,55.77-9.18,87.33,9.03c31.49,18.21,63.05,50.15,86.95,91.65
					C2159.31,641.39,2159.24,653,2153.01,656.64z"/><path fill="#1fb6ff" d="M2035.04,557.06c31.55,18.22,63.06,50.21,87,91.65c6.17,10.75,6.14,22.35-0.07,25.95
					c-3.11,1.77-7.18,1.2-11.25-1.15c-4.13-2.38-8.19-6.51-11.28-11.86c-17.74-30.73-41.1-54.46-64.49-67.96
					c-23.39-13.5-46.81-16.78-64.67-6.6c-3.13,1.79-7.22,1.22-11.31-1.13s-8.16-6.51-11.28-11.91c-6.17-10.75-6.14-22.35,0.07-25.95
					C1971.89,534.41,2003.49,538.84,2035.04,557.06z"/><path fill="#373b42" d="M2198.24,630.85l-31.08,18.03c6.22-3.57,6.22-15.1,0.08-25.87c-36.27-62.9-84.14-111.46-131.94-139.08
					c-47.88-27.62-95.83-34.37-132.4-13.5l31.08-18.1c36.57-20.79,84.45-14.11,132.32,13.58c47.88,27.62,95.68,76.18,132.02,139.08
					C2204.46,615.75,2204.46,627.28,2198.24,630.85z"/><path fill="#1fb6ff" d="M2035.26,483.91c47.87,27.64,95.68,76.21,131.99,139.1c6.17,10.75,6.14,22.28-0.07,25.89
					c-3.16,1.8-7.24,1.17-11.31-1.18c-4.07-2.35-8.14-6.41-11.28-11.86c-30.11-52.16-69.76-92.44-109.46-115.36
					s-79.45-28.48-109.76-11.21c-3.13,1.75-7.21,1.18-11.28-1.17c-4.07-2.35-8.14-6.48-11.25-11.84
					c-6.17-10.75-6.14-22.28,0.07-25.89C1939.46,449.57,1987.39,456.27,2035.26,483.91z"/><path fill="#373b42" d="M2243.38,605.13l-31.08,18.02c6.22-3.57,6.3-15.17,0.08-25.95c-23.52-40.74-51.06-77.69-80.96-109.26
					c-30.05-31.64-62.44-57.81-95.98-77.16c-67-38.69-129.97-45.14-177.47-18.21l31.08-18.03c47.42-26.94,110.39-20.49,177.47,18.21
					c33.54,19.35,65.93,45.52,95.9,77.16c29.97,31.56,57.51,68.44,81.03,109.26C2249.6,589.95,2249.6,601.48,2243.38,605.13z"/><path fill="#1fb6ff" d="M2035.44,410.79c33.54,19.36,65.96,45.54,95.96,77.18c29.94,31.54,57.46,68.47,81,109.25
					c6.17,10.75,6.14,22.35-0.07,25.95c-3.11,1.77-7.18,1.2-11.25-1.15c-4.07-2.35-8.19-6.51-11.28-11.86
					c-41.08-71.23-95.99-129.05-154.46-162.81s-113.52-39.42-154.88-15.78c-3.11,1.74-7.18,1.15-11.26-1.21
					c-4.08-2.35-8.16-6.47-11.27-11.8c-6.17-10.75-6.14-22.35,0.07-25.95C1905.45,365.63,1968.42,372.1,2035.44,410.79z"/></g><g><path fill="#fff" d="M1549.54,670.51c-36.53,21.09-36.72,55.27-0.37,76.4c36.29,21.09,95.3,21.09,131.83,0
								c36.47-21.06,36.66-55.23,0.37-76.32C1645.02,649.45,1586.01,649.45,1549.54,670.51z"/><path fill="#373b42" d="M1615,764.61c-24.22,0-48.41-5.34-66.8-16.02c-18.15-10.55-28.14-24.68-28.11-39.79
								c0.02-15.19,10.13-29.39,28.49-39.98l0,0c36.97-21.35,96.99-21.31,133.79,0.07c18.12,10.53,28.09,24.65,28.07,39.75
								c-0.02,15.19-10.13,29.37-28.45,39.95C1663.48,759.27,1639.22,764.61,1615,764.61z M1550.52,672.19
								c-17.09,9.87-26.52,22.87-26.54,36.61c-0.02,13.66,9.27,26.59,26.18,36.41c35.69,20.74,93.95,20.74,129.87,0
								c17.07-9.85,26.48-22.84,26.5-36.58c0.02-13.65-9.26-26.57-26.13-36.37C1644.67,651.5,1586.4,651.47,1550.52,672.19
								L1550.52,672.19z"/><path fill="#fff" d="M1554.86,518.06l0.71,184.37c0.03,8.85,5.85,17.69,17.48,24.45c23.37,13.58,61.38,13.58,84.91,0
										c11.81-6.82,17.72-15.78,17.69-24.73l-0.71-184.37c0.03,8.95-5.88,17.91-17.69,24.73c-23.53,13.58-61.53,13.58-84.91,0
										C1560.7,535.75,1554.88,526.91,1554.86,518.06z"/><path fill="#dbdee4" d="M1572.34,542.51c11.61,6.75,26.83,10.13,42.1,10.17v184.33c-15.02-0.15-29.96-3.49-41.39-10.13
										c-11.64-6.76-17.46-15.6-17.48-24.45l-0.71-184.37C1554.88,526.91,1560.7,535.75,1572.34,542.51z"/><path fill="#373b42" d="M1615.44,738.97c-15.72,0-31.43-3.47-43.37-10.41c-11.87-6.9-18.43-16.18-18.45-26.13l-0.71-184.33
										c0-0.01,0-0.02,0-0.03v-0.01v0c0-1.07,0.87-1.95,1.94-1.95h0.01c1.07,0,1.94,0.87,1.95,1.94v0.05
										c0.05,8.49,5.91,16.56,16.52,22.72c22.79,13.25,60,13.25,82.95,0c10.81-6.24,16.74-14.41,16.72-23.03v0c0,0,0,0,0,0
										c0-1.07,0.87-1.95,1.94-1.95h0.01c1.07,0,1.94,0.87,1.95,1.94l0.71,184.37c0.02,10.08-6.6,19.46-18.67,26.42
										C1646.91,735.5,1631.16,738.97,1615.44,738.97z M1556.86,531.03l0.65,171.4c0.02,8.51,5.89,16.59,16.52,22.77
										c22.79,13.25,60,13.25,82.95,0c10.81-6.24,16.74-14.42,16.72-23.04l-0.65-171.43c-3.14,5.04-8.16,9.62-14.83,13.47
										c-24.03,13.87-62.98,13.87-86.86,0C1564.87,540.42,1559.97,535.94,1556.86,531.03z"/><path fill="#fff" d="M1572.58,493.31c-23.53,13.58-23.65,35.6-0.24,49.2c23.37,13.58,61.38,13.58,84.91,0
										c23.49-13.56,23.61-35.57,0.24-49.16C1634.07,479.75,1596.06,479.75,1572.58,493.31z"/><path fill="#373b42" d="M1614.73,554.6c-15.72,0-31.43-3.47-43.37-10.41c-11.91-6.92-18.47-16.23-18.45-26.22
										c0.01-10.04,6.65-19.4,18.69-26.35l0,0c24.02-13.86,62.98-13.83,86.86,0.05c11.89,6.91,18.44,16.22,18.43,26.21
										c-0.02,10.04-6.65,19.39-18.67,26.32C1646.2,551.13,1630.45,554.6,1614.73,554.6z M1572.58,493.31l0.97,1.69
										c-10.79,6.23-16.74,14.39-16.74,22.98c-0.02,8.54,5.85,16.65,16.52,22.84c22.79,13.25,60,13.25,82.95,0
										c10.77-6.22,16.71-14.37,16.72-22.95c0.01-8.54-5.85-16.65-16.49-22.83c-22.81-13.27-60.03-13.28-82.95-0.05
										L1572.58,493.31z"/><g><path fill="#fff" d="M1575.09,389.97l0.47,122.56c0.02,5.88,3.89,11.76,11.63,16.26c15.54,9.03,40.82,9.03,56.46,0
										c7.86-4.54,11.78-10.49,11.77-16.45l-0.47-122.56c0.02,5.95-3.91,11.91-11.77,16.45c-15.65,9.03-40.92,9.03-56.46,0
										C1578.97,401.74,1575.1,395.86,1575.09,389.97z"/><path fill="#dbdee4" d="M1586.71,406.23c7.65,4.45,17.67,6.68,27.72,6.75v122.53c-9.9-0.14-19.72-2.34-27.25-6.72
										c-7.74-4.5-11.61-10.37-11.63-16.26l-0.47-122.56C1575.1,395.86,1578.97,401.73,1586.71,406.23z"/><path fill="#373b42" d="M1615.38,537.47c-10.58,0-21.15-2.33-29.18-7c-8.09-4.71-12.57-11.08-12.59-17.94L1573.14,390
										c0,0,0-0.01,0-0.01v-0.01c0,0,0,0,0,0c0-1.07,0.87-1.95,1.94-1.95h0.01c1.07,0,1.94,0.87,1.95,1.94V390
										c0.03,5.41,3.81,10.57,10.66,14.55c14.98,8.71,39.44,8.7,54.51,0c6.97-4.02,10.81-9.26,10.79-14.76
										c0-1.07,0.87-1.95,1.94-1.95h0.01c1.07,0,1.94,0.87,1.95,1.94l0.47,122.56c0.02,6.95-4.51,13.39-12.74,18.14
										C1636.55,535.14,1625.95,537.47,1615.38,537.47z M1577.08,400.66l0.43,111.86c0.02,5.42,3.81,10.6,10.66,14.58
										c14.98,8.71,39.44,8.7,54.51,0c6.97-4.02,10.81-9.26,10.79-14.76l-0.43-111.88c-2.13,2.76-5.12,5.28-8.88,7.45
										c-16.16,9.34-42.37,9.33-58.42,0C1582.09,405.8,1579.18,403.35,1577.08,400.66z"/><path fill="#1fb6ff" d="M1586.87,373.51c-15.65,9.03-15.73,23.67-0.16,32.72c15.54,9.03,40.82,9.03,56.46,0
										c15.62-9.02,15.7-23.66,0.16-32.69C1627.77,364.49,1602.49,364.49,1586.87,373.51z"/><path fill="#373b42" d="M1614.91,414.92c-10.58,0-21.15-2.33-29.17-7c-8.13-4.72-12.6-11.12-12.59-18
										c0.01-6.92,4.54-13.34,12.75-18.09l0,0c16.14-9.32,42.34-9.31,58.43,0.03c8.12,4.72,12.58,11.11,12.57,17.99
										c-0.01,6.92-4.53,13.34-12.74,18.07C1636.07,412.59,1625.48,414.92,1614.91,414.92z M1587.84,375.2
										c-6.96,4.02-10.8,9.25-10.81,14.72c-0.01,5.44,3.78,10.63,10.66,14.63c14.98,8.71,39.44,8.7,54.51,0
										c6.95-4.01,10.78-9.24,10.79-14.7c0.01-5.43-3.77-10.62-10.64-14.61C1627.38,366.51,1602.91,366.5,1587.84,375.2
										L1587.84,375.2z"/><g><defs><path id="a" d="M1652.6,251.95v137.58c-0.19,5.43-3.88,10.76-10.95,14.92c-14.82,8.53-38.66,8.53-53.38,0
												c-7.07-4.17-10.66-9.49-10.85-14.92V251.95H1652.6z"/></defs><clipPath id="b"><use overflow="visible" xlink:href="#a"/></clipPath><rect width="75.18" height=".34" x="1577.41" y="412.63" fill="#1fb6ff" clip-path="url(#b)"/><rect width="75.18" height=".7" x="1577.41" y="411.93" fill="#1fb6ff" clip-path="url(#b)"/><rect width="75.18" height=".7" x="1577.41" y="411.23" fill="#20b6ff" clip-path="url(#b)"/><rect width="75.18" height=".7" x="1577.41" y="410.52" fill="#20b6ff" clip-path="url(#b)"/><rect width="75.18" height=".7" x="1577.41" y="409.82" fill="#20b6ff" clip-path="url(#b)"/><rect width="75.18" height=".7" x="1577.41" y="409.12" fill="#20b6ff" clip-path="url(#b)"/><rect width="75.18" height=".7" x="1577.41" y="408.41" fill="#20b6ff" clip-path="url(#b)"/><rect width="75.18" height=".7" x="1577.41" y="407.71" fill="#21b6ff" clip-path="url(#b)"/><rect width="75.18" height=".7" x="1577.41" y="407.01" fill="#21b7ff" clip-path="url(#b)"/><rect width="75.18" height=".7" x="1577.41" y="406.3" fill="#21b7ff" clip-path="url(#b)"/><rect width="75.18" height=".7" x="1577.41" y="405.6" fill="#21b7ff" clip-path="url(#b)"/><rect width="75.18" height=".7" x="1577.41" y="404.9" fill="#21b7ff" clip-path="url(#b)"/><rect width="75.18" height=".7" x="1577.41" y="404.19" fill="#22b7ff" clip-path="url(#b)"/><rect width="75.18" height=".7" x="1577.41" y="403.49" fill="#22b7ff" clip-path="url(#b)"/><rect width="75.18" height=".7" x="1577.41" y="402.78" fill="#22b7ff" clip-path="url(#b)"/><rect width="75.18" height=".7" x="1577.41" y="402.08" fill="#23b7ff" clip-path="url(#b)"/><rect width="75.18" height=".7" x="1577.41" y="401.38" fill="#23b7ff" clip-path="url(#b)"/><rect width="75.18" height=".7" x="1577.41" y="400.67" fill="#23b7ff" clip-path="url(#b)"/><rect width="75.18" height=".7" x="1577.41" y="399.97" fill="#24b8ff" clip-path="url(#b)"/><rect width="75.18" height=".7" x="1577.41" y="399.27" fill="#24b8ff" clip-path="url(#b)"/><rect width="75.18" height=".7" x="1577.41" y="398.56" fill="#24b8ff" clip-path="url(#b)"/><rect width="75.18" height=".7" x="1577.41" y="397.86" fill="#25b8ff" clip-path="url(#b)"/><rect width="75.18" height=".7" x="1577.41" y="397.16" fill="#25b8ff" clip-path="url(#b)"/><rect width="75.18" height=".7" x="1577.41" y="396.45" fill="#25b8ff" clip-path="url(#b)"/><rect width="75.18" height=".7" x="1577.41" y="395.75" fill="#26b8ff" clip-path="url(#b)"/><rect width="75.18" height=".7" x="1577.41" y="395.05" fill="#26b8ff" clip-path="url(#b)"/><rect width="75.18" height=".7" x="1577.41" y="394.34" fill="#27b9ff" clip-path="url(#b)"/><rect width="75.18" height=".7" x="1577.41" y="393.64" fill="#27b9ff" clip-path="url(#b)"/><rect width="75.18" height=".7" x="1577.41" y="392.94" fill="#28b9ff" clip-path="url(#b)"/><rect width="75.18" height=".7" x="1577.41" y="392.23" fill="#28b9ff" clip-path="url(#b)"/><rect width="75.18" height=".7" x="1577.41" y="391.53" fill="#28b9ff" clip-path="url(#b)"/><rect width="75.18" height=".7" x="1577.41" y="390.82" fill="#29b9ff" clip-path="url(#b)"/><rect width="75.18" height=".7" x="1577.41" y="390.12" fill="#29b9ff" clip-path="url(#b)"/><rect width="75.18" height=".7" x="1577.41" y="389.42" fill="#2abaff" clip-path="url(#b)"/><rect width="75.18" height=".7" x="1577.41" y="388.71" fill="#2abaff" clip-path="url(#b)"/><rect width="75.18" height=".7" x="1577.41" y="388.01" fill="#2bbaff" clip-path="url(#b)"/><rect width="75.18" height=".7" x="1577.41" y="387.31" fill="#2bbaff" clip-path="url(#b)"/><rect width="75.18" height=".7" x="1577.41" y="386.6" fill="#2cbaff" clip-path="url(#b)"/><rect width="75.18" height=".7" x="1577.41" y="385.9" fill="#2cbaff" clip-path="url(#b)"/><rect width="75.18" height=".7" x="1577.41" y="385.2" fill="#2dbbff" clip-path="url(#b)"/><rect width="75.18" height=".7" x="1577.41" y="384.49" fill="#2ebbff" clip-path="url(#b)"/><rect width="75.18" height=".7" x="1577.41" y="383.79" fill="#2ebbff" clip-path="url(#b)"/><rect width="75.18" height=".7" x="1577.41" y="383.09" fill="#2fbbff" clip-path="url(#b)"/><rect width="75.18" height=".7" x="1577.41" y="382.38" fill="#2fbbff" clip-path="url(#b)"/><rect width="75.18" height=".7" x="1577.41" y="381.68" fill="#30bbff" clip-path="url(#b)"/><rect width="75.18" height=".7" x="1577.41" y="380.97" fill="#30bcff" clip-path="url(#b)"/><rect width="75.18" height=".7" x="1577.41" y="380.27" fill="#31bcff" clip-path="url(#b)"/><rect width="75.18" height=".7" x="1577.41" y="379.57" fill="#32bcff" clip-path="url(#b)"/><rect width="75.18" height=".7" x="1577.41" y="378.86" fill="#32bcff" clip-path="url(#b)"/><rect width="75.18" height=".7" x="1577.41" y="378.16" fill="#33bcff" clip-path="url(#b)"/><rect width="75.18" height=".7" x="1577.41" y="377.46" fill="#33bdff" clip-path="url(#b)"/><rect width="75.18" height=".7" x="1577.41" y="376.75" fill="#34bdff" clip-path="url(#b)"/><rect width="75.18" height=".7" x="1577.41" y="376.05" fill="#35bdff" clip-path="url(#b)"/><rect width="75.18" height=".7" x="1577.41" y="375.35" fill="#35bdff" clip-path="url(#b)"/><rect width="75.18" height=".7" x="1577.41" y="374.64" fill="#36beff" clip-path="url(#b)"/><rect width="75.18" height=".7" x="1577.41" y="373.94" fill="#37beff" clip-path="url(#b)"/><rect width="75.18" height=".7" x="1577.41" y="373.24" fill="#37beff" clip-path="url(#b)"/><rect width="75.18" height=".7" x="1577.41" y="372.53" fill="#38beff" clip-path="url(#b)"/><rect width="75.18" height=".7" x="1577.41" y="371.83" fill="#39beff" clip-path="url(#b)"/><rect width="75.18" height=".7" x="1577.41" y="371.12" fill="#3abfff" clip-path="url(#b)"/><rect width="75.18" height=".7" x="1577.41" y="370.42" fill="#3abfff" clip-path="url(#b)"/><rect width="75.18" height=".7" x="1577.41" y="369.72" fill="#3bbfff" clip-path="url(#b)"/><rect width="75.18" height=".7" x="1577.41" y="369.01" fill="#3cbfff" clip-path="url(#b)"/><rect width="75.18" height=".7" x="1577.41" y="368.31" fill="#3cc0ff" clip-path="url(#b)"/><rect width="75.18" height=".7" x="1577.41" y="367.61" fill="#3dc0ff" clip-path="url(#b)"/><rect width="75.18" height=".7" x="1577.41" y="366.9" fill="#3ec0ff" clip-path="url(#b)"/><rect width="75.18" height=".7" x="1577.41" y="366.2" fill="#3fc0ff" clip-path="url(#b)"/><rect width="75.18" height=".7" x="1577.41" y="365.5" fill="#3fc1ff" clip-path="url(#b)"/><rect width="75.18" height=".7" x="1577.41" y="364.79" fill="#40c1ff" clip-path="url(#b)"/><rect width="75.18" height=".7" x="1577.41" y="364.09" fill="#41c1ff" clip-path="url(#b)"/><rect width="75.18" height=".7" x="1577.41" y="363.39" fill="#42c1ff" clip-path="url(#b)"/><rect width="75.18" height=".7" x="1577.41" y="362.68" fill="#43c2ff" clip-path="url(#b)"/><rect width="75.18" height=".7" x="1577.41" y="361.98" fill="#43c2ff" clip-path="url(#b)"/><rect width="75.18" height=".7" x="1577.41" y="361.28" fill="#44c2ff" clip-path="url(#b)"/><rect width="75.18" height=".7" x="1577.41" y="360.57" fill="#45c2ff" clip-path="url(#b)"/><rect width="75.18" height=".7" x="1577.41" y="359.87" fill="#46c3ff" clip-path="url(#b)"/><rect width="75.18" height=".7" x="1577.41" y="359.16" fill="#47c3ff" clip-path="url(#b)"/><rect width="75.18" height=".7" x="1577.41" y="358.46" fill="#48c3ff" clip-path="url(#b)"/><rect width="75.18" height=".7" x="1577.41" y="357.76" fill="#48c3ff" clip-path="url(#b)"/><rect width="75.18" height=".7" x="1577.41" y="357.05" fill="#49c4ff" clip-path="url(#b)"/><rect width="75.18" height=".7" x="1577.41" y="356.35" fill="#4ac4ff" clip-path="url(#b)"/><rect width="75.18" height=".7" x="1577.41" y="355.65" fill="#4bc4ff" clip-path="url(#b)"/><rect width="75.18" height=".7" x="1577.41" y="354.94" fill="#4cc5ff" clip-path="url(#b)"/><rect width="75.18" height=".7" x="1577.41" y="354.24" fill="#4dc5ff" clip-path="url(#b)"/><rect width="75.18" height=".7" x="1577.41" y="353.54" fill="#4ec5ff" clip-path="url(#b)"/><rect width="75.18" height=".7" x="1577.41" y="352.83" fill="#4ec5ff" clip-path="url(#b)"/><rect width="75.18" height=".7" x="1577.41" y="352.13" fill="#4fc6ff" clip-path="url(#b)"/><rect width="75.18" height=".7" x="1577.41" y="351.43" fill="#50c6ff" clip-path="url(#b)"/><rect width="75.18" height=".7" x="1577.41" y="350.72" fill="#51c6ff" clip-path="url(#b)"/><rect width="75.18" height=".7" x="1577.41" y="350.02" fill="#52c7ff" clip-path="url(#b)"/><rect width="75.18" height=".7" x="1577.41" y="349.31" fill="#53c7ff" clip-path="url(#b)"/><rect width="75.18" height=".7" x="1577.41" y="348.61" fill="#54c7ff" clip-path="url(#b)"/><rect width="75.18" height=".7" x="1577.41" y="347.91" fill="#55c8ff" clip-path="url(#b)"/><rect width="75.18" height=".7" x="1577.41" y="347.2" fill="#56c8ff" clip-path="url(#b)"/><rect width="75.18" height=".7" x="1577.41" y="346.5" fill="#57c8ff" clip-path="url(#b)"/><rect width="75.18" height=".7" x="1577.41" y="345.8" fill="#58c9ff" clip-path="url(#b)"/><rect width="75.18" height=".7" x="1577.41" y="345.09" fill="#59c9ff" clip-path="url(#b)"/><rect width="75.18" height=".7" x="1577.41" y="344.39" fill="#5ac9ff" clip-path="url(#b)"/><rect width="75.18" height=".7" x="1577.41" y="343.69" fill="#5bc9ff" clip-path="url(#b)"/><rect width="75.18" height=".7" x="1577.41" y="342.98" fill="#5ccaff" clip-path="url(#b)"/><rect width="75.18" height=".7" x="1577.41" y="342.28" fill="#5dcaff" clip-path="url(#b)"/><rect width="75.18" height=".7" x="1577.41" y="341.58" fill="#5ecaff" clip-path="url(#b)"/><rect width="75.18" height=".7" x="1577.41" y="340.87" fill="#5fcbff" clip-path="url(#b)"/><rect width="75.18" height=".7" x="1577.41" y="340.17" fill="#60cbff" clip-path="url(#b)"/><rect width="75.18" height=".7" x="1577.41" y="339.46" fill="#61cbff" clip-path="url(#b)"/><rect width="75.18" height=".7" x="1577.41" y="338.76" fill="#62ccff" clip-path="url(#b)"/><rect width="75.18" height=".7" x="1577.41" y="338.06" fill="#63ccff" clip-path="url(#b)"/><rect width="75.18" height=".7" x="1577.41" y="337.35" fill="#64ccff" clip-path="url(#b)"/><rect width="75.18" height=".7" x="1577.41" y="336.65" fill="#65cdff" clip-path="url(#b)"/><rect width="75.18" height=".7" x="1577.41" y="335.95" fill="#66cdff" clip-path="url(#b)"/><rect width="75.18" height=".7" x="1577.41" y="335.24" fill="#67ceff" clip-path="url(#b)"/><rect width="75.18" height=".7" x="1577.41" y="334.54" fill="#68ceff" clip-path="url(#b)"/><rect width="75.18" height=".7" x="1577.41" y="333.84" fill="#69ceff" clip-path="url(#b)"/><rect width="75.18" height=".7" x="1577.41" y="333.13" fill="#6acfff" clip-path="url(#b)"/><rect width="75.18" height=".7" x="1577.41" y="332.43" fill="#6ccfff" clip-path="url(#b)"/><rect width="75.18" height=".7" x="1577.41" y="331.73" fill="#6dcfff" clip-path="url(#b)"/><rect width="75.18" height=".7" x="1577.41" y="331.02" fill="#6ed0ff" clip-path="url(#b)"/><rect width="75.18" height=".7" x="1577.41" y="330.32" fill="#6fd0ff" clip-path="url(#b)"/><rect width="75.18" height=".7" x="1577.41" y="329.62" fill="#70d0ff" clip-path="url(#b)"/><rect width="75.18" height=".7" x="1577.41" y="328.91" fill="#71d1ff" clip-path="url(#b)"/><rect width="75.18" height=".7" x="1577.41" y="328.21" fill="#72d1ff" clip-path="url(#b)"/><rect width="75.18" height=".7" x="1577.41" y="327.5" fill="#73d2ff" clip-path="url(#b)"/><rect width="75.18" height=".7" x="1577.41" y="326.8" fill="#75d2ff" clip-path="url(#b)"/><rect width="75.18" height=".7" x="1577.41" y="326.1" fill="#76d2ff" clip-path="url(#b)"/><rect width="75.18" height=".7" x="1577.41" y="325.39" fill="#77d3ff" clip-path="url(#b)"/><rect width="75.18" height=".7" x="1577.41" y="324.69" fill="#78d3ff" clip-path="url(#b)"/><rect width="75.18" height=".7" x="1577.41" y="323.99" fill="#79d3ff" clip-path="url(#b)"/><rect width="75.18" height=".7" x="1577.41" y="323.28" fill="#7ad4ff" clip-path="url(#b)"/><rect width="75.18" height=".7" x="1577.41" y="322.58" fill="#7cd4ff" clip-path="url(#b)"/><rect width="75.18" height=".7" x="1577.41" y="321.88" fill="#7dd5ff" clip-path="url(#b)"/><rect width="75.18" height=".7" x="1577.41" y="321.17" fill="#7ed5ff" clip-path="url(#b)"/><rect width="75.18" height=".7" x="1577.41" y="320.47" fill="#7fd5ff" clip-path="url(#b)"/><rect width="75.18" height=".7" x="1577.41" y="319.77" fill="#80d6ff" clip-path="url(#b)"/><rect width="75.18" height=".7" x="1577.41" y="319.06" fill="#82d6ff" clip-path="url(#b)"/><rect width="75.18" height=".7" x="1577.41" y="318.36" fill="#83d7ff" clip-path="url(#b)"/><rect width="75.18" height=".7" x="1577.41" y="317.65" fill="#84d7ff" clip-path="url(#b)"/><rect width="75.18" height=".7" x="1577.41" y="316.95" fill="#85d7ff" clip-path="url(#b)"/><rect width="75.18" height=".7" x="1577.41" y="316.25" fill="#87d8ff" clip-path="url(#b)"/><rect width="75.18" height=".7" x="1577.41" y="315.54" fill="#88d8ff" clip-path="url(#b)"/><rect width="75.18" height=".7" x="1577.41" y="314.84" fill="#89d9ff" clip-path="url(#b)"/><rect width="75.18" height=".7" x="1577.41" y="314.14" fill="#8ad9ff" clip-path="url(#b)"/><rect width="75.18" height=".7" x="1577.41" y="313.43" fill="#8cd9ff" clip-path="url(#b)"/><rect width="75.18" height=".7" x="1577.41" y="312.73" fill="#8ddaff" clip-path="url(#b)"/><rect width="75.18" height=".7" x="1577.41" y="312.03" fill="#8edaff" clip-path="url(#b)"/><rect width="75.18" height=".7" x="1577.41" y="311.32" fill="#8fdbff" clip-path="url(#b)"/><rect width="75.18" height=".7" x="1577.41" y="310.62" fill="#91dbff" clip-path="url(#b)"/><rect width="75.18" height=".7" x="1577.41" y="309.92" fill="#92dbff" clip-path="url(#b)"/><rect width="75.18" height=".7" x="1577.41" y="309.21" fill="#93dcff" clip-path="url(#b)"/><rect width="75.18" height=".7" x="1577.41" y="308.51" fill="#95dcff" clip-path="url(#b)"/><rect width="75.18" height=".7" x="1577.41" y="307.8" fill="#96ddff" clip-path="url(#b)"/><rect width="75.18" height=".7" x="1577.41" y="307.1" fill="#97ddff" clip-path="url(#b)"/><rect width="75.18" height=".7" x="1577.41" y="306.4" fill="#99deff" clip-path="url(#b)"/><rect width="75.18" height=".7" x="1577.41" y="305.69" fill="#9adeff" clip-path="url(#b)"/><rect width="75.18" height=".7" x="1577.41" y="304.99" fill="#9bdfff" clip-path="url(#b)"/><rect width="75.18" height=".7" x="1577.41" y="304.29" fill="#9ddfff" clip-path="url(#b)"/><rect width="75.18" height=".7" x="1577.41" y="303.58" fill="#9edfff" clip-path="url(#b)"/><rect width="75.18" height=".7" x="1577.41" y="302.88" fill="#9fe0ff" clip-path="url(#b)"/><rect width="75.18" height=".7" x="1577.41" y="302.18" fill="#a1e0ff" clip-path="url(#b)"/><rect width="75.18" height=".7" x="1577.41" y="301.47" fill="#a2e1ff" clip-path="url(#b)"/><rect width="75.18" height=".7" x="1577.41" y="300.77" fill="#a3e1ff" clip-path="url(#b)"/><rect width="75.18" height=".7" x="1577.41" y="300.07" fill="#a5e2ff" clip-path="url(#b)"/><rect width="75.18" height=".7" x="1577.41" y="299.36" fill="#a6e2ff" clip-path="url(#b)"/><rect width="75.18" height=".7" x="1577.41" y="298.66" fill="#a8e3ff" clip-path="url(#b)"/><rect width="75.18" height=".7" x="1577.41" y="297.96" fill="#a9e3ff" clip-path="url(#b)"/><rect width="75.18" height=".7" x="1577.41" y="297.25" fill="#aae3ff" clip-path="url(#b)"/><rect width="75.18" height=".7" x="1577.41" y="296.55" fill="#ace4ff" clip-path="url(#b)"/><rect width="75.18" height=".7" x="1577.41" y="295.84" fill="#ade4ff" clip-path="url(#b)"/><rect width="75.18" height=".7" x="1577.41" y="295.14" fill="#afe5ff" clip-path="url(#b)"/><rect width="75.18" height=".7" x="1577.41" y="294.44" fill="#b0e5ff" clip-path="url(#b)"/><rect width="75.18" height=".7" x="1577.41" y="293.73" fill="#b2e6ff" clip-path="url(#b)"/><rect width="75.18" height=".7" x="1577.41" y="293.03" fill="#b3e6ff" clip-path="url(#b)"/><rect width="75.18" height=".7" x="1577.41" y="292.33" fill="#b4e7ff" clip-path="url(#b)"/><rect width="75.18" height=".7" x="1577.41" y="291.62" fill="#b6e7ff" clip-path="url(#b)"/><rect width="75.18" height=".7" x="1577.41" y="290.92" fill="#b7e8ff" clip-path="url(#b)"/><rect width="75.18" height=".7" x="1577.41" y="290.22" fill="#b9e8ff" clip-path="url(#b)"/><rect width="75.18" height=".7" x="1577.41" y="289.51" fill="#bae9ff" clip-path="url(#b)"/><rect width="75.18" height=".7" x="1577.41" y="288.81" fill="#bce9ff" clip-path="url(#b)"/><rect width="75.18" height=".7" x="1577.41" y="288.11" fill="#bdeaff" clip-path="url(#b)"/><rect width="75.18" height=".7" x="1577.41" y="287.4" fill="#bfeaff" clip-path="url(#b)"/><rect width="75.18" height=".7" x="1577.41" y="286.7" fill="#c0ebff" clip-path="url(#b)"/><rect width="75.18" height=".7" x="1577.41" y="285.99" fill="#c2ebff" clip-path="url(#b)"/><rect width="75.18" height=".7" x="1577.41" y="285.29" fill="#c3ecff" clip-path="url(#b)"/><rect width="75.18" height=".7" x="1577.41" y="284.59" fill="#c5ecff" clip-path="url(#b)"/><rect width="75.18" height=".7" x="1577.41" y="283.88" fill="#c6edff" clip-path="url(#b)"/><rect width="75.18" height=".7" x="1577.41" y="283.18" fill="#c8edff" clip-path="url(#b)"/><rect width="75.18" height=".7" x="1577.41" y="282.48" fill="#c9eeff" clip-path="url(#b)"/><rect width="75.18" height=".7" x="1577.41" y="281.77" fill="#cbeeff" clip-path="url(#b)"/><rect width="75.18" height=".7" x="1577.41" y="281.07" fill="#ccefff" clip-path="url(#b)"/><rect width="75.18" height=".7" x="1577.41" y="280.37" fill="#ceefff" clip-path="url(#b)"/><rect width="75.18" height=".7" x="1577.41" y="279.66" fill="#d0f0ff" clip-path="url(#b)"/><rect width="75.18" height=".7" x="1577.41" y="278.96" fill="#d1f0ff" clip-path="url(#b)"/><rect width="75.18" height=".7" x="1577.41" y="278.26" fill="#d3f1ff" clip-path="url(#b)"/><rect width="75.18" height=".7" x="1577.41" y="277.55" fill="#d4f1ff" clip-path="url(#b)"/><rect width="75.18" height=".7" x="1577.41" y="276.85" fill="#d6f2ff" clip-path="url(#b)"/><rect width="75.18" height=".7" x="1577.41" y="276.14" fill="#d7f2ff" clip-path="url(#b)"/><rect width="75.18" height=".7" x="1577.41" y="275.44" fill="#d9f3ff" clip-path="url(#b)"/><rect width="75.18" height=".7" x="1577.41" y="274.74" fill="#dbf3ff" clip-path="url(#b)"/><rect width="75.18" height=".7" x="1577.41" y="274.03" fill="#dcf4ff" clip-path="url(#b)"/><rect width="75.18" height=".7" x="1577.41" y="273.33" fill="#def4ff" clip-path="url(#b)"/><rect width="75.18" height=".7" x="1577.41" y="272.63" fill="#dff5ff" clip-path="url(#b)"/><rect width="75.18" height=".7" x="1577.41" y="271.92" fill="#e1f5ff" clip-path="url(#b)"/><rect width="75.18" height=".7" x="1577.41" y="271.22" fill="#e3f6ff" clip-path="url(#b)"/><rect width="75.18" height=".7" x="1577.41" y="270.52" fill="#e4f6ff" clip-path="url(#b)"/><rect width="75.18" height=".7" x="1577.41" y="269.81" fill="#e6f7ff" clip-path="url(#b)"/><rect width="75.18" height=".7" x="1577.41" y="269.11" fill="#e7f7ff" clip-path="url(#b)"/><rect width="75.18" height=".7" x="1577.41" y="268.41" fill="#e9f8ff" clip-path="url(#b)"/><rect width="75.18" height=".7" x="1577.41" y="267.7" fill="#ebf8ff" clip-path="url(#b)"/><rect width="75.18" height=".7" x="1577.41" y="267" fill="#ecf9ff" clip-path="url(#b)"/><rect width="75.18" height=".7" x="1577.41" y="266.29" fill="#eef9ff" clip-path="url(#b)"/><rect width="75.18" height=".7" x="1577.41" y="265.59" fill="#f0faff" clip-path="url(#b)"/><rect width="75.18" height=".7" x="1577.41" y="264.89" fill="#f1fbff" clip-path="url(#b)"/><rect width="75.18" height=".7" x="1577.41" y="264.18" fill="#f3fbff" clip-path="url(#b)"/><rect width="75.18" height=".7" x="1577.41" y="263.48" fill="#f5fcff" clip-path="url(#b)"/><rect width="75.18" height=".7" x="1577.41" y="262.78" fill="#f6fcff" clip-path="url(#b)"/><rect width="75.18" height=".7" x="1577.41" y="262.07" fill="#f8fdff" clip-path="url(#b)"/><rect width="75.18" height=".7" x="1577.41" y="261.37" fill="#fafdff" clip-path="url(#b)"/><rect width="75.18" height=".7" x="1577.41" y="260.67" fill="#fcfeff" clip-path="url(#b)"/><rect width="75.18" height=".7" x="1577.41" y="259.96" fill="#fdfeff" clip-path="url(#b)"/><rect width="75.18" height=".7" x="1577.41" y="259.26" fill="#fff" clip-path="url(#b)"/><rect width="75.18" height="7.31" x="1577.41" y="251.95" fill="#fff" clip-path="url(#b)"/></g></g></g><g><path fill="#dbdee4" d="M440.6,2068.92c-8.39,0-16.79-1.85-23.19-5.55l-157.18-90.75c-6.59-3.81-10.23-8.99-10.23-14.59
						c-0.01-5.56,3.57-10.71,10.08-14.49l156.16-90.75c12.74-7.4,33.52-7.41,46.33,0l157.19,90.75c6.59,3.8,10.23,8.98,10.23,14.58
						c0.01,5.57-3.57,10.71-10.08,14.5l-156.17,90.75C457.38,2067.07,448.99,2068.92,440.6,2068.92z M439.38,1851.09
						c-7.68,0-15.36,1.69-21.18,5.08l-156.16,90.75c-5.26,3.05-8.16,7-8.15,11.12c0,4.15,2.95,8.13,8.28,11.22L419.36,2060
						c11.74,6.77,30.77,6.78,42.42,0l156.17-90.75c5.26-3.05,8.16-7,8.15-11.12c-0.01-4.15-2.95-8.13-8.28-11.21l0,0l-157.19-90.75
						C454.76,1852.78,447.06,1851.09,439.38,1851.09z"/><path fill="#fff" d="M377.05,1921.48c-34.99,20.2-35.18,52.94-0.35,73.18c34.76,20.2,91.29,20.2,126.28,0
						c34.93-20.17,35.12-52.91,0.35-73.11C468.51,1901.31,411.98,1901.31,377.05,1921.48z"/><path fill="#373b42" d="M439.75,2011.7c-23.22,0-46.41-5.12-64.04-15.36c-17.41-10.12-26.99-23.68-26.97-38.18
						c0.02-14.58,9.73-28.21,27.34-38.37l0,0c35.45-20.47,92.97-20.43,128.24,0.07c17.38,10.1,26.95,23.65,26.93,38.15
						c-0.02,14.57-9.72,28.19-27.29,38.34C486.22,2006.58,462.97,2011.7,439.75,2011.7z M440.17,1908.31
						c-22.49,0-44.98,4.95-62.14,14.86l0,0c-16.35,9.44-25.36,21.87-25.39,35c-0.02,13.05,8.87,25.41,25.04,34.8
						c34.17,19.85,89.94,19.85,124.32,0c16.33-9.43,25.32-21.85,25.34-34.97c0.02-13.05-8.86-25.39-24.99-34.77
						C485.24,1913.29,462.71,1908.31,440.17,1908.31z M377.05,1921.48h0.05H377.05z"/><path fill="#fff" d="M382.14,1752.97l0.68,199.08c0.02,8.48,5.6,16.94,16.75,23.42c22.39,13.01,58.79,13.01,81.33,0
								c11.32-6.53,16.97-15.12,16.95-23.69l-0.68-199.08c0.02,8.57-5.63,17.16-16.95,23.69c-22.54,13.01-58.94,13.01-81.33,0
								C387.74,1769.92,382.16,1761.45,382.14,1752.97z"/><path fill="#dbdee4" d="M398.89,1776.39c11.12,6.46,25.71,9.7,40.33,9.74v199.05c-14.39-0.14-28.7-3.34-39.65-9.71
								c-11.15-6.48-16.72-14.95-16.75-23.42l-0.68-199.08C382.16,1761.45,387.74,1769.92,398.89,1776.39z"/><path fill="#373b42" d="M440.17,1987.14c-15.08,0-30.15-3.33-41.59-9.98c-11.4-6.63-17.7-15.55-17.72-25.11l-0.68-199.08
								c0,0,0,0,0,0c0-1.07,0.87-1.95,1.94-1.95h0.01c1.07,0,1.95,0.87,1.95,1.94v0.03c0.04,8.11,5.64,15.82,15.79,21.71
								c21.82,12.68,57.42,12.67,79.37,0c10.32-5.96,15.99-13.77,15.97-21.99l0,0c0,0,0,0,0,0c0-1.07,0.87-1.95,1.94-1.95h0.01
								c1.07,0,1.95,0.87,1.95,1.94l0.68,199.08c0.04,9.68-6.33,18.7-17.92,25.39C470.35,1983.82,455.25,1987.14,440.17,1987.14z
								 M384.13,1765.66l0.63,186.39c0.02,8.12,5.63,15.84,15.79,21.74c21.82,12.68,57.42,12.67,79.37,0
								c10.33-5.96,16-13.77,15.97-22l-0.63-186.39c-3.02,4.74-7.77,9.05-14.06,12.68c-23.04,13.31-60.4,13.29-83.29,0
								C391.78,1774.52,387.12,1770.29,384.13,1765.66z"/><path fill="#fff" d="M399.11,1729.26c-22.54,13.01-22.66,34.1-0.23,47.13c22.39,13.01,58.79,13.01,81.33,0
								c22.5-12.99,22.62-34.08,0.23-47.09C458.02,1716.27,421.61,1716.27,399.11,1729.26z"/><path fill="#373b42" d="M439.5,1788.06c-15.08,0-30.15-3.33-41.59-9.98c-11.44-6.65-17.73-15.59-17.72-25.19
								c0.02-9.65,6.39-18.64,17.95-25.31l0,0c23.01-13.29,60.38-13.27,83.29,0.05c11.42,6.64,17.7,15.58,17.69,25.17
								c-0.01,9.65-6.37,18.63-17.92,25.3C469.67,1784.73,454.57,1788.06,439.5,1788.06z M400.08,1730.95
								c-10.3,5.95-15.98,13.75-16,21.95c-0.01,8.15,5.6,15.9,15.79,21.82c21.82,12.67,57.42,12.67,79.37,0
								c10.29-5.94,15.96-13.73,15.97-21.93c0.02-8.14-5.58-15.88-15.75-21.79C457.63,1718.3,422.03,1718.29,400.08,1730.95
								L400.08,1730.95z"/><g><path fill="#fff" d="M401.52,1632.86l0.45,114.81c0.02,5.64,3.73,11.27,11.14,15.58c14.89,8.65,39.1,8.65,54.09,0
								c7.53-4.35,11.29-10.05,11.27-15.75l-0.45-114.81c0.02,5.7-3.74,11.41-11.27,15.75c-14.99,8.65-39.2,8.65-54.09,0
								C405.24,1644.13,401.53,1638.5,401.52,1632.86z"/><path fill="#dbdee4" d="M412.65,1648.44c7.33,4.26,16.92,6.4,26.56,6.47v114.79c-9.48-0.13-18.89-2.25-26.11-6.44
								c-7.41-4.31-11.12-9.94-11.14-15.58l-0.45-114.81C401.53,1638.5,405.24,1644.13,412.65,1648.44z"/><path fill="#373b42" d="M440.11,1771.65c-10.15,0-20.29-2.23-27.99-6.71c-7.79-4.53-12.09-10.66-12.11-17.26l-0.45-114.74
								c0-0.02,0-0.05,0-0.07c0-1.07,0.87-1.95,1.94-1.95h0.01c1.07,0,1.94,0.87,1.95,1.94v0.03c0.03,5.15,3.64,10.07,10.17,13.86
								c14.31,8.33,37.7,8.33,52.13,0c6.65-3.84,10.31-8.83,10.29-14.05v0c0,0,0,0,0,0c0-1.07,0.87-1.95,1.94-1.95h0.01
								c1.07,0,1.94,0.87,1.95,1.94l0.45,114.81c0.03,6.68-4.33,12.88-12.24,17.45C460.41,1769.41,450.26,1771.65,440.11,1771.65z
								 M403.5,1643.34l0.41,104.33c0.02,5.16,3.62,10.09,10.17,13.9c14.31,8.33,37.7,8.33,52.13,0
								c6.66-3.84,10.32-8.84,10.29-14.06l-0.41-104.36c-2.04,2.59-4.86,4.94-8.38,6.98c-15.51,8.95-40.64,8.95-56.04,0
								C408.26,1648.14,405.51,1645.84,403.5,1643.34z"/><path fill="#1fb6ff" d="M412.81,1617.09c-14.99,8.65-15.07,22.68-0.15,31.34c14.89,8.65,39.1,8.65,54.09,0
								c14.96-8.64,15.04-22.66,0.15-31.32C451.98,1608.45,427.77,1608.45,412.81,1617.09z"/><path fill="#373b42" d="M439.66,1656.83c-10.15,0-20.29-2.23-27.99-6.71c-7.81-4.54-12.11-10.69-12.11-17.32
								c0.01-6.66,4.36-12.84,12.27-17.4c15.48-8.94,40.62-8.92,56.04,0.03c7.8,4.54,12.09,10.68,12.08,17.31
								c-0.01,6.66-4.36,12.83-12.24,17.38C459.96,1654.6,449.81,1656.83,439.66,1656.83z M439.85,1612.55
								c-9.43,0-18.87,2.07-26.06,6.23l0,0c-6.65,3.84-10.31,8.82-10.32,14.03c-0.01,5.18,3.6,10.13,10.17,13.94
								c14.31,8.33,37.7,8.33,52.13,0c6.63-3.83,10.29-8.81,10.29-14.01c0.01-5.17-3.59-10.12-10.15-13.93
								C458.74,1614.64,449.29,1612.55,439.85,1612.55z M412.81,1617.09h0.05H412.81z"/><g><linearGradient id="c" x1="439.754" x2="439.754" y1="1659.372" y2="1488.522" gradientUnits="userSpaceOnUse"><stop offset="0" stop-color="#1fb6ff" stop-opacity=".9"/><stop offset="1" stop-color="#fff" stop-opacity="0"/></linearGradient><path fill="url(#c)" d="M475.76,1480.6v151.84c-0.19,5.2-3.71,10.3-10.49,14.29c-14.2,8.17-37.03,8.17-51.14,0
							c-6.77-3.99-10.21-9.1-10.39-14.29V1480.6H475.76z"/></g></g></g><g><path fill="#dbdee4" d="M469.52,2220.16c-0.34,0-0.67-0.08-0.97-0.26l-206.24-119.07c-7.93-4.58-12.31-10.78-12.31-17.46
						c-0.02-6.64,4.29-12.81,12.13-17.37l82.56-47.98c0.93-0.54,2.12-0.23,2.67,0.71c0.54,0.93,0.23,2.12-0.7,2.67l-82.56,47.98
						c-6.59,3.83-10.2,8.79-10.2,13.99c0.01,5.23,3.69,10.23,10.36,14.09l206.24,119.07c0.93,0.54,1.25,1.73,0.72,2.66
						C470.85,2219.81,470.19,2220.16,469.52,2220.16z"/><path fill="#fff" d="M512.04,2209.92c15.11,8.72,15.2,22.88,0.18,31.6c-15.01,8.72-39.45,8.72-54.56,0
							c-15.11-8.72-15.18-22.87-0.17-31.6C472.5,2201.2,496.92,2201.2,512.04,2209.92z"/><path fill="#dbdee4" d="M484.99,2249.98c-10.24,0-20.48-2.26-28.3-6.77c-7.96-4.6-12.34-10.82-12.36-17.54
							c-0.01-6.67,4.33-12.86,12.18-17.43c15.53-9.02,40.87-9.03,56.5,0c7.96,4.6,12.36,10.83,12.37,17.54
							c0.01,6.67-4.31,12.86-12.17,17.43C505.44,2247.73,495.21,2249.98,484.99,2249.98z M484.73,2205.31
							c-9.52,0-19.03,2.1-26.26,6.3c-6.62,3.84-10.25,8.83-10.25,14.06c0.01,5.26,3.71,10.29,10.41,14.17
							c14.55,8.41,38.15,8.41,52.61,0c6.61-3.84,10.24-8.83,10.23-14.05c-0.01-5.27-3.71-10.3-10.42-14.18
							C503.79,2207.41,494.25,2205.31,484.73,2205.31z"/><g><path fill="#1fb6ff" d="M484.94,2235.69c-5.89,0-11.59-1.34-15.64-3.68c-3.25-1.88-5.12-4.18-5.12-6.33
							c0-2.12,1.83-4.4,5.02-6.25c4.02-2.33,9.69-3.67,15.58-3.67c5.89,0,11.58,1.34,15.63,3.68c3.26,1.88,5.12,4.19,5.13,6.33
							c0,2.12-1.83,4.4-5.02,6.25C496.5,2234.35,490.82,2235.69,484.94,2235.69z"/></g></g><g><circle cx="360.05" cy="2154.51" r="11.7" fill="#373b42"/></g></svg>