<svg xmlns="http://www.w3.org/2000/svg" data-name="&lt;Layer&gt;" viewBox="0 0 2745 1830"><path fill="#a4cce0" d="M1283.11,154.75a5.34,5.34,0,0,0-5.33,5.34V1830h10.67V160.09A5.34,5.34,0,0,0,1283.11,154.75Z"/><path fill="#a4cce0" d="M1618.17,154.75H1284.65l-84-52.53a5.34,5.34,0,0,0-5.66,9l85.25,53.35a5.35,5.35,0,0,0,2.83.81h335.06a5.34,5.34,0,0,0,0-10.68Z"/><path fill="#5a677a" d="M2089.53,1188.59l-138.93-52.68c-4.69-1.78-9.64.63-10.74,5.26l-31.47,133c-1.07,4.49,2,8.74,6.86,9.41l146.63,20.55c3.47.48,6.93-2.1,7.8-5.81l24-101.22A7.26,7.26,0,0,0,2089.53,1188.59Z"/><path fill="#5a677a" d="M1924.33,1135.67,1894,1264c-3.17,18.63,16.75,18.4,17.9,18.41l153.75-102.86-118.49-51.93C1935.39,1123.92,1926,1128.76,1924.33,1135.67Z"/><path fill="#571519" d="M1941.79,1255.7a5.31,5.31,0,0,0-6,4.58c-.26,1.93-1.4,2.88-1.7,2.9s-1.15-1.3-.89-3.25a4.11,4.11,0,0,1,1.38-2.73,5.34,5.34,0,1,0-6.27-8.64,14.65,14.65,0,0,0-5.69,10c-1,7.52,3.5,14.36,10.05,15.24a10.81,10.81,0,0,0,1.39.09c6,0,11.37-5.16,12.31-12.15A5.33,5.33,0,0,0,1941.79,1255.7Z"/><path fill="#571519" d="M2091.42,1183.6l-138.92-52.68a13.77,13.77,0,0,0-11.35.62,12.84,12.84,0,0,0-6.48,8.4l-31.48,133a12.69,12.69,0,0,0,1.88,10.18,13.67,13.67,0,0,0,9.44,5.75l146.63,20.55h0a12.11,12.11,0,0,0,1.58.11,12.8,12.8,0,0,0,12.16-10l24-101.23A12.55,12.55,0,0,0,2091.42,1183.6Zm-3,12.27-24,101.23c-.28,1.18-1.25,1.86-1.87,1.74L1916,1278.3a3,3,0,0,1-2.11-1.2,2.07,2.07,0,0,1-.3-1.7l31.48-133a2.12,2.12,0,0,1,1.09-1.43,3.07,3.07,0,0,1,2.56-.06l138.93,52.67A2,2,0,0,1,2088.45,1195.87Z"/><path fill="#571519" d="M2067.75,1174.63l-118.49-51.92a5.2,5.2,0,0,0-.55-.21c-7.68-2.41-15.47-1.89-21.34,1.45a16.58,16.58,0,0,0-8.24,10.49l-30.37,128.3a3.4,3.4,0,0,1-.07.34c-1.16,6.88.11,12.58,3.78,17,5.81,6.89,15.43,7.67,19.3,7.68l.09-5.33,0-5.34c-3.83,0-8.78-1-11.17-3.89-1.56-1.85-2-4.51-1.45-8.12l30.33-128.13a6.06,6.06,0,0,1,3.13-3.67c3.24-1.85,7.82-2.07,12.61-.63l118.2,51.81a5.34,5.34,0,0,0,4.29-9.78Z"/><path fill="#571519" d="M898.45,95.44c-35.58,0-63.46,60.22-63.46,137.09s27.88,137.09,63.46,137.09,63.46-60.22,63.46-137.09S934,95.44,898.45,95.44Zm0,263.5c-28.61,0-52.79-57.89-52.79-126.41s24.18-126.41,52.79-126.41S951.24,164,951.24,232.53,927.07,358.94,898.45,358.94Z"/><path fill="#dbd1d2" d="M1061.92,221.23l-23.41,50.92,28.37,6.94,16.36-52C1083.24,219.1,1068.15,216.52,1061.92,221.23Z"/><path fill="#dbd1d2" d="M1090,164.14l-22.92,54.74,12.78,2.59,18.19-55.34C1099.2,159.18,1093.06,157.84,1090,164.14Z"/><path fill="#571519" d="M1080.88,215.88c-6.15-3.06-16.12-3.49-22.18,1.09a5.38,5.38,0,0,0-1.63,2l-23.41,50.92a5.33,5.33,0,0,0,9.69,4.46L1066.08,225a13.48,13.48,0,0,1,10,.48,4.39,4.39,0,0,1,1.65,1.27l-16,50.77a5.35,5.35,0,0,0,3.49,6.7,5.24,5.24,0,0,0,1.6.25,5.33,5.33,0,0,0,5.09-3.74l16.36-52a5.14,5.14,0,0,0,.25-1.6C1088.58,222.41,1085.77,218.32,1080.88,215.88Z"/><path fill="#571519" d="M1097.44,155.14c-3.88-1.24-9.17.35-12.36,6.94l-22.92,54.74a5.34,5.34,0,0,0,9.85,4.12l11.22-26.8-8.44,25.67a5.33,5.33,0,0,0,3.4,6.73,5.4,5.4,0,0,0,1.67.27,5.34,5.34,0,0,0,5.07-3.67l18.19-55.34a4.33,4.33,0,0,0,.19-.79C1104.4,160.45,1101.15,156.32,1097.44,155.14Z"/><path fill="#ffe4ce" d="M1781.52,1642.78l16.82-74.49c-.95,1.34-1.9,2.72-2.87,4.15C1784.22,1589.17,1781.52,1642.78,1781.52,1642.78Z"/><path fill="#ffe4ce" d="M2059.13,1221.35c-4.25-5.67-30-38.88-41.93-53.6a7.57,7.57,0,0,0-13.08,2.45c-2.07,6.32-1.68,13,1.06,22.59,5.81,20.34,28.41,47.15,28.41,47.15v26.8l-20.74,28.82-49.83,1-31.15-3.62c8.72,20.35,25.15,64.91,25.15,83.32s-12.76,37.66-62.32,93.17c-52.32,58.6-72,64.48-96.36,98.91l-16.82,74.49s2.7-53.61,14-70.34c1-1.43,1.92-2.81,2.87-4.15l0-.11c-16.85-15.79-46.38-61.75-46.38-61.75L1655.89,1613s93.65,94.44,105.91,103.5c26.7,19.73,64.45,32.42,80,26s48.47-65.43,66.55-98,84.21-170,104.55-206.38c8.17-14.58,33.31-68.66,43.34-84.23,13.9-21.56,10.75-71.51,10.34-85.6C2066,1250,2064.94,1229.1,2059.13,1221.35Z"/><path fill="#ffe4ce" d="M1201.09,402.6a37,37,0,0,0-17.73,5.66c-14.86,9.34-40.45,45.22-40.45,45.22s-10.42-111-26.93-83.09l-100.6,25.22c5.63,28.33-22.06,74-30.48,112.88s9.78,29.68-9.89,81.35C958.48,633.27,805.23,853.6,777.25,928.2c-11,29.25-26.86,70.89-20.66,86.46s34.69,45.17,68.23,73.2c73.92,61.77,186.25,131.88,186.25,131.88l59.37-157.44L917.67,969.66c46.42-65.82,91.5-276.41,153.71-384.73,25.92-45.12,81.14-75.9,96.84-93.59,14-15.75,22.17-49.49,39.65-77.09A7.57,7.57,0,0,0,1201.09,402.6Z"/><path fill="#571519" d="M1005.16,463.88c9.88-25.9,19.22-50.37,15.46-69.31a5.34,5.34,0,1,0-10.47,2.08c3.16,15.93-5.64,39-15,63.43-6,15.69-12.18,31.92-15.5,47.28-3.73,17.21-2.48,25.83-1.38,33.43,1.43,9.87,2.67,18.4-8.28,47.16-6.92,18.17-40.42,71.32-75.88,127.59C844.57,794.17,788.39,883.3,772.25,926.32l-.67,1.79c-14.65,39-26.27,72.65-20,88.53,7.49,18.81,41,51.24,69.77,75.31,73.35,61.3,185.72,131.62,186.85,132.32a5.33,5.33,0,1,0,5.65-9c-1.12-.7-112.88-70.64-185.66-131.46-34.41-28.76-61.21-57.32-66.69-71.07-5.31-13.34,10.55-55.59,20-80.83l.68-1.79c15.75-42,71.62-130.63,120.92-208.84C940.48,662,972.7,610.92,980,591.74c11.93-31.35,10.44-41.61,8.87-52.48-1-7-2.08-14.31,1.24-29.64C993.27,495.05,999.31,479.21,1005.16,463.88Z"/><path fill="#fff" d="M1201.5,299.82c-31.17-14.44-74,11.72-95.61,58.42s-13.9,96.26,17.27,110.7,74-11.72,95.6-58.42S1232.67,314.26,1201.5,299.82Z"/><path fill="#fff" d="M1183.29,303.18c-.07,0,9.19-16.4,9.12-16.4S1118.3,251,1050.07,261.59s-76.83,76.9-55.38,121.74,116.61,82.56,116.61,82.56l86.56-159.67h-.07Z"/><path fill="#75595c" d="M1179.64,323.28c-19.86-9.2-47.76,8.83-62.32,40.25s-10.26,64.37,9.6,73.56,47.75-8.82,62.31-40.25S1199.49,332.48,1179.64,323.28Z"/><path fill="#fff" d="M910.15,100.78c-32.11,0-58.13,59-58.13,131.75s26,131.75,58.13,131.75,58.12-59,58.12-131.75S942.25,100.78,910.15,100.78Z"/><path fill="#571519" d="M1048.75,1039.94c-.61-.24-61.89-25.2-123.65-74.52a5.34,5.34,0,1,0-6.67,8.34c63.05,50.35,125.72,75.83,126.34,76.09a5.34,5.34,0,0,0,4-9.91Z"/><path fill="#60474b" d="M1161.07,355.37c-8.17-3.78-19.64,3.63-25.63,16.56s-4.22,26.46,4,30.24,19.64-3.62,25.62-16.55S1169.23,359.16,1161.07,355.37Z"/><path fill="#fff" d="M1615.39,1226.79c-50.84-28.75-116-61.46-124.31-74.81l-129.29-152c-1.48,22.84-10.32,71.18-17.08,90.21s-66.12-22.37-111-31.3c-38.57-7.67-58.45-10.91-96.88-10.91-35.65,0-101-15.77-101-15.77,31.83,42.49-15.84,161.66-47.26,194.6,0,0,67.46,28.19,77.59,54l534.6,269.45L1646.4,1613s102.68-47.47,105.59-125.94c0,0-41.85-84.13-62.1-157.33C1680.92,1297.3,1669.65,1257.46,1615.39,1226.79Z"/><path fill="#ffe4ce" d="M1491.08,1148.81c-24.68-49.81-95.68-51.52-173.56-58.18,0,0,34,160.89,114.1,169,64.65,6.56,75.67-94.1,75.67-94.1C1506,1160.11,1493.37,1153.42,1491.08,1148.81Z"/><path fill="#fff" d="M1624.11,1370.81l-546.55-108C1104,1377,1107.45,1627.21,1097.11,1684c-7.23,39.8-23.54,90.38-31.63,146h505.1c-.71-25.34-.71-49.89-.71-77.5C1569.87,1686.62,1628,1440.56,1624.11,1370.81Z"/><path fill="#de9284" fill-rule="evenodd" d="M1640.27,801.05,1627,779s21.37-5.16,11.79-9.58c-8.84-3.69-39-20.63-45.67-25.79-32.42-25.05-56.73-49.36-84-50.83-21.36-1.47-43.46,11.79-59.67,14.73-8.11,2.21-33.16,2.21-41.26,3.69-12.52,2.94-8.84,7.36-26.52,18.41-15.47,9.58-26.52,31.68-51.57,41.26s-3.68,16.21-3.68,16.21l-6.64,31.68s-2.2,27.26,1.48,47.15c3,19.89,15.47,43.46,15.47,43.46l23.57,41.26,251.23-1.47s16.94,16.2,15.46,8.1c-1.47-7.37-2.94-19.16,3-36.84,8.11-25,25-53,25-53s3.68-33.89,0-40.52C1648.37,814.31,1640.27,801.05,1640.27,801.05Z"/><path fill="#ffe4ce" fill-rule="evenodd" d="M1560,916.71c-4.42,0,3-29.47,3-29.47s-12.52,17.68-28,28.73c-17,12.53-36.84,16.21-42.73,11.79-1.48-.74,11-18.42,17.68-32.42,6.63-15.47,8.1-27.25,8.1-27.25s-13.26,11-42.73,21.36-62.62,11.79-62.62,11.79-3.68,6.63-5.16,23.57c-.73,14.74.74,33.15-1.47,32.42-7.37-2.21-31.68-45.68-31.68-45.68l-11.79-5.15s-37.57-14.74-36.83,33.15c0,8.1,7.37,21.36,14.73,28.73a53,53,0,0,0,21.37,13.26s0,99.46-36.84,139.24c-18.42,19.89,158.32,54.51,158.32,54.51l14.07-57.46,24.32,2.21a121.46,121.46,0,0,0,38.3-28.73c13.26-15.47,26.53-39.78,36.1-60.41,11-24.31,11.79-49.36,13.26-71.46.74-13.26,7.37-44.2,7.37-44.2l1.48-14-27.26-19.16S1562.17,916.71,1560,916.71Z"/><path fill="#571519" d="M1619,897.44a5.32,5.32,0,0,0-6.08,4.46c-1.05,6.86-2.51,13.76-3.78,19.85-.48,2.28-.94,4.44-1.27,6.16-3.32,12.91-4.15,27.12-4.95,40.87-.86,14.75-1.67,28.68-5.31,40.69-12.23,40.53-44.12,92.17-74.22,104.88-19,7.63-58.24-11.91-85.16-35.2-19.44-16.66-27.27-31.13-37-51.3a5.34,5.34,0,1,0-9.62,4.63c10,20.73,18.67,36.8,39.63,54.76,20.23,17.49,55.67,39.42,82.37,39.42a37.1,37.1,0,0,0,13.82-2.44c36.9-15.58,69.22-74.68,80.38-111.66,4-13.22,4.89-28.44,5.75-43.16.77-13.24,1.57-26.93,4.69-39.12.4-2,.84-4.09,1.31-6.34,1.31-6.22,2.79-13.27,3.89-20.42A5.33,5.33,0,0,0,1619,897.44Z"/><path fill="#571519" d="M1380.73,907.71c-23-13.73-37.66-10-45.9-4.37-12.49,8.47-17.12,26.17-15.11,38.73,3.54,17.7,17.58,40.22,45.51,45.45a4.75,4.75,0,0,0,1,.1,5.34,5.34,0,0,0,1-10.59c-22.69-4.25-34.12-22.62-37-36.85-1.47-9.23,2.09-22.23,10.6-28,8.14-5.52,20-3.89,34.44,4.69a5.33,5.33,0,1,0,5.47-9.16Z"/><path fill="#571519" d="M1354.12,929.76a5.34,5.34,0,1,0-5.29,9.27c2.68,1.53,6.49,6.68,8.35,9.84a5.32,5.32,0,0,0,4.61,2.64,5.26,5.26,0,0,0,2.69-.73,5.33,5.33,0,0,0,1.92-7.29C1365.8,942.46,1360.34,933.31,1354.12,929.76Z"/><path fill="#571519" d="M1543.2,974.17c0-4,1.86-12.07,5.42-19.89a5.34,5.34,0,0,0-9.72-4.42c-3.87,8.52-6.37,18.06-6.37,24.31,0,10.25,4.62,15.68,7.68,19.27,2.22,2.59,2.76,3.4,2.65,4.56,0,.16,0,.32,0,.49,0,5.08-8.25,10.3-12.24,12a5.34,5.34,0,0,0,2.11,10.25,5.24,5.24,0,0,0,2.1-.44c1.9-.81,18.51-8.31,18.7-21.61.42-5.64-2.67-9.28-5.17-12.21C1545.58,983.28,1543.2,980.49,1543.2,974.17Z"/><path fill="#571519" fill-rule="evenodd" d="M1486.29,953.54c-6.63,0-11-9.57-11.79,0s4.43,17.69,11.79,17.69c6.63.73,11.79-6.64,12.53-16.21C1498.82,945.44,1492.92,953.54,1486.29,953.54Z"/><path fill="#571519" d="M1501.37,946.34c-10.36,3.88-24.54.93-33.32-3.46a5.34,5.34,0,0,0-4.77,9.55,62.93,62.93,0,0,0,27,6.43,42.26,42.26,0,0,0,14.88-2.53,5.33,5.33,0,1,0-3.74-10Z"/><path fill="#571519" d="M1516.36,903.69c-15.27-6.43-33.63-6.46-50.39-.07a5.34,5.34,0,1,0,3.81,10c14.21-5.41,29.67-5.44,42.44-.06a5.34,5.34,0,1,0,4.14-9.84Z"/><path fill="#571519" fill-rule="evenodd" d="M1578.38,959.44c-5.89-.74-9.58-9.58-10.31-.74-1.48,8.84,2.94,16.21,8.84,16.95s11.79-5.9,12.52-14.74C1590.17,952.81,1584.28,960.18,1578.38,959.44Z"/><path fill="#571519" d="M1591,949.78c-6.16,3.91-18.15,2.83-23.7.36a5.34,5.34,0,0,0-4.33,9.76,43.87,43.87,0,0,0,16.73,3.14c6,0,12.17-1.16,17-4.25a5.34,5.34,0,1,0-5.73-9Z"/><path fill="#571519" d="M1566.82,908.07a5.34,5.34,0,0,0,4,9.91c6.63-2.65,19.12-5.77,28.13,3.24a5.34,5.34,0,1,0,7.55-7.55C1596.73,903.93,1582.27,901.89,1566.82,908.07Z"/><path fill="#571519" d="M1436.44,858.85c-35.17,29.67-37.2,68-35.44,87.66-8.92-8-20.24-23.75-15.54-50.23a5.34,5.34,0,0,0-10.51-1.87c-8.72,49.14,30.59,68.2,31,68.39a5.34,5.34,0,0,0,7.41-6.26c-.59-2.13-13.87-52.53,30-89.53a5.34,5.34,0,0,0-6.88-8.16Z"/><path fill="#571519" d="M1328.54,809.36a5.33,5.33,0,1,0-10.12-3.37c-13.41,40.23-2.26,76.67,9,103.91a5.35,5.35,0,0,0,4.94,3.31,5.19,5.19,0,0,0,2-.41,5.33,5.33,0,0,0,2.91-7C1326.09,878.72,1316.32,846,1328.54,809.36Z"/><path fill="#571519" d="M1628.58,790.46a5.33,5.33,0,0,0-.37,7.54c36.61,40.38,21.89,68.75,6.31,98.78-4.31,8.32-8.77,16.92-11.83,25.57-4.68,13.72-5.16,23.85-4,31.08a21.06,21.06,0,0,1-4-4.84,5.34,5.34,0,0,0-9.15,5.49c7.79,13,22.19,15.67,22.8,15.77a5.2,5.2,0,0,0,1,.09,5.33,5.33,0,0,0,4.83-3,5.24,5.24,0,0,0-1.24-6.27c-.09-.09-8.85-9.1-.06-34.83,2.79-7.89,6.88-15.79,11.22-24.15,15.8-30.47,33.71-65-7.88-110.87A5.34,5.34,0,0,0,1628.58,790.46Z"/><path fill="#571519" d="M1643.49,765.51c-.14,0-14.63-1-35.91-14-11-6.38-19.36-14.07-28.23-22.21-9.06-8.31-18.43-16.91-31.22-24.8-29.37-19.06-64.51-18.58-87.42,1.17a5.34,5.34,0,1,0,7,8.09c19.29-16.63,49.28-16.76,74.74-.24,12,7.42,21,15.67,29.71,23.65,8.9,8.17,18.11,16.61,30,23.51a116.56,116.56,0,0,0,30.71,13.65c-5.18,1.62-13.47,2.25-23.46-2.41a5.34,5.34,0,1,0-4.51,9.67,47.22,47.22,0,0,0,20,4.66c10.56,0,18.74-4.07,22.16-8.51,2.6-3.37,2.73-7.42.33-10.3A5.41,5.41,0,0,0,1643.49,765.51Z"/><path fill="#571519" d="M1444.08,706c-41.32-10-62.46,12.31-84.84,35.92-2.57,2.72-5.2,5.49-7.91,8.27-18.21,18.72-30.27,21.55-35.43,22.76-2.45.57-6.93,1.62-7.31,6.12-.56,3.51,1.07,6.93,4.53,9.45,3.86,2.8,10,4.48,16.76,4.48a42.29,42.29,0,0,0,21.36-5.76,5.34,5.34,0,0,0-5.43-9.19,30.56,30.56,0,0,1-21.67,3.7c7.49-2.47,19.39-8.23,34.84-24.11,2.75-2.82,5.4-5.63,8-8.38,22.79-24,39.24-41.42,74.58-32.89a5.33,5.33,0,0,0,2.51-10.37Zm-124.84,73.71h0Z"/><path fill="#571519" d="M1569.82,855.39a5.32,5.32,0,0,0-5.61,5.06c0,.26-1.64,26.75-26.21,48.59-11.18,10-26.5,13.08-37,14,12.16-15.06,31.36-47.83,23.74-98.44a5.33,5.33,0,1,0-10.55,1.59c9.71,64.51-27.52,96.92-29.1,98.26a5.34,5.34,0,0,0,3,9.41c.33,0,2.42.2,5.71.2,10.78,0,34.44-1.89,51.37-17,27.87-24.78,29.71-54.76,29.78-56A5.35,5.35,0,0,0,1569.82,855.39Z"/><path fill="#571519" d="M1578.11,790.9a5.33,5.33,0,0,0-1,7.47c.19.26,19,25.85,9.34,71.6a69.32,69.32,0,0,1-19.57,36.17c2.65-8.64,5.09-19.47,5.09-29.95a5.34,5.34,0,1,0-10.67,0c0,19.89-10.45,42.45-10.55,42.68a5.34,5.34,0,0,0,7.17,7.06c1.27-.62,31.19-15.59,39-53.79,10.69-50.43-10.38-79-11.28-80.21A5.34,5.34,0,0,0,1578.11,790.9Z"/><path fill="#571519" d="M1515.19,864.07c-22,19.29-65.8,28.84-85,26.71a5.34,5.34,0,1,0-1.18,10.61,62.7,62.7,0,0,0,6.86.34c23.57,0,64.19-10.21,86.38-29.63a5.34,5.34,0,1,0-7-8Z"/><path fill="#571519" d="M1625.21,898.24c-30.71-6.76-28-30.3-27.56-33a5.34,5.34,0,0,0-10.54-1.73c-.06.36-5.51,36,35.8,45.13a5.09,5.09,0,0,0,1.16.13,5.34,5.34,0,0,0,1.14-10.55Z"/><path fill="#571519" d="M1500.51,1114.24a5.33,5.33,0,0,0-6.75,3.38c-6.72,20.16-10.4,49.16-10.55,50.38a5.34,5.34,0,0,0,4.63,6,5.12,5.12,0,0,0,.67,0,5.34,5.34,0,0,0,5.29-4.67c0-.29,3.69-29.17,10.08-48.34A5.34,5.34,0,0,0,1500.51,1114.24Z"/><path fill="#571519" d="M910.15,95.44c-35.59,0-63.47,60.22-63.47,137.09s27.88,137.09,63.47,137.09,63.46-60.22,63.46-137.09S945.73,95.44,910.15,95.44Zm0,263.5c-28.62,0-52.79-57.89-52.79-126.41s24.17-126.41,52.79-126.41S962.93,164,962.93,232.53,938.76,358.94,910.15,358.94Z"/><path fill="#571519" d="M1507.87,1160.24A5.31,5.31,0,0,0,1502,1165c-.11,1-11.28,95.32-69.83,89.38-75.35-7.64-109.09-163.24-109.42-164.81a5.34,5.34,0,0,0-10.45,2.2c1.42,6.73,35.72,164.8,118.79,173.23a63.81,63.81,0,0,0,6.53.34c63.37,0,74.87-98.15,75-99.17A5.33,5.33,0,0,0,1507.87,1160.24Z"/><path fill="#ffe4ce" d="M2012.85,1165.1c-6.79-2-13.67,8.55-8.93,22.72s29.67,52.12,29.67,52.12l3.1,31.29s-20.55-25.11-23.84-28-29.12-27-35.35-27-14.06,12.31-4.47,23.35,32.15,31.55,36.4,39.78,3.42,22,3.42,22-23.75-19.29-28.87-21.76-26.38-14.18-32.39-10.21-4,14.3,6.44,23,48.29,39.12,48.29,39.12l48.8-9.84,12-66.71s-8.86-34.84-15.52-43.43S2019.65,1167.11,2012.85,1165.1Z"/><path fill="#571519" d="M1090.21,1738.5c4.73-19.16,9.2-37.25,12.16-53.51,10.49-57.72,9.3-314.54-9.15-437.55a5.34,5.34,0,1,0-10.56,1.58c18.34,122.2,19.59,376.93,9.2,434.06-2.89,15.93-7.32,33.87-12,52.86-7.22,29.24-15,60.77-19.78,94.06h10.79C1075.6,1797.72,1083.16,1767,1090.21,1738.5Z"/><path fill="#571519" d="M1600.26,1583.2c15.39-85.72,31.31-174.35,29.18-212.69a5.39,5.39,0,0,0-5.62-5,5.34,5.34,0,0,0-5,5.62c2.07,37.1-13.74,125.1-29,210.21-13,72.23-25.22,140.46-25.22,171.19,0,27.74,0,52.27.7,77.5h10.69c-.71-25.24-.72-49.76-.72-77.5C1575.2,1722.72,1587.37,1655,1600.26,1583.2Z"/><path fill="#571519" d="M1362.13,994.63a5.31,5.31,0,0,0-5.67,5c-1.4,21.69-10,69.55-16.77,88.76a1.43,1.43,0,0,1-.88,1c-6.11,2.65-26.71-6.39-44.87-14.35-18.82-8.25-40.15-17.6-59.19-21.39-39.34-7.82-59.21-11-97.92-11-34.6,0-99.12-15.47-99.76-15.63a5.34,5.34,0,0,0-5.53,8.39c28.36,37.86-14.71,154-46.85,187.71a5.33,5.33,0,0,0,1.64,8.54c22.68,10.39,83.24,41.61,90.89,61.11a5.34,5.34,0,0,0,9.94-3.9c-9.25-23.57-69-53.89-90-63.9,28.42-35.77,69.14-135.33,49.07-184.89,20.58,4.54,63.51,13.24,90.58,13.24,37.75,0,57.23,3.13,95.84,10.81,17.9,3.56,38.66,12.66,57,20.69,27.48,12,43.5,18.64,53.4,14.37a12.06,12.06,0,0,0,6.69-7.22c7.08-19.92,15.93-69.32,17.37-91.65A5.34,5.34,0,0,0,1362.13,994.63Z"/><path fill="#571519" d="M1695,1328.31c-8.67-31.33-20.54-74.23-77-106.17-12.67-7.16-26.32-14.62-39.53-21.84-36.27-19.83-77.38-42.29-82.88-51.13a5.33,5.33,0,0,0-9.06,5.62c6.5,10.48,37.14,27.72,86.82,54.88,13.18,7.2,26.8,14.64,39.4,21.76,52.63,29.76,63.36,68.56,72,99.73,18.81,68,56.57,146.25,61.85,157-3.43,65-80.2,108.53-98.54,118l-43-59.13a5.34,5.34,0,1,0-8.63,6.28l45.65,62.78a5.34,5.34,0,0,0,6.55,1.7c4.32-2,105.7-49.77,108.69-130.58a5.25,5.25,0,0,0-.55-2.58C1756.35,1483.85,1714.91,1400.16,1695,1328.31Z"/><path fill="#571519" d="M2011,1292.67c-4.34-3.44-8.44-6.69-11.6-9.55-7.52-6.8-25.53-14.29-39.32-19.38a13,13,0,0,0-10.78.82,12.82,12.82,0,0,0-6.33,8.64c-1,5.13.12,13.32,11.58,23.24,8.54,7.4,21.83,17.57,24.85,19.87l16,21.43a5.34,5.34,0,0,0,8.55-6.39l-16.47-22a5.85,5.85,0,0,0-1-1.06c-.16-.11-15.7-11.89-24.92-19.87-5.72-5-8.75-9.84-8.1-13.05a2.14,2.14,0,0,1,1.06-1.44,2.28,2.28,0,0,1,1.9-.14c18,6.64,31,12.94,35.85,17.29,3.42,3.09,7.65,6.44,12.12,10,8.5,6.74,18.14,14.38,21.23,19.72a5.34,5.34,0,1,0,9.24-5.35C2030.71,1308.3,2020.68,1300.35,2011,1292.67Z"/><path fill="#571519" d="M1999.6,1326.89a5.35,5.35,0,0,0-7.28,2,68.52,68.52,0,0,0-5,48.72,5.34,5.34,0,0,0,10.3-2.83c-6.06-22.07,3.88-40.34,4-40.64A5.33,5.33,0,0,0,1999.6,1326.89Z"/><path fill="#571519" d="M2051,1281.81c-2.29-2.43-6.26-8.22-10.1-13.82-4.35-6.33-8.85-12.88-12.66-17.32-5.73-6.68-28.7-26.43-42.32-36.87a13.58,13.58,0,0,0-13-2.11,12.71,12.71,0,0,0-8,9.3c-2.08,9.42,0,17.88,5.9,24.46,8.82,9.77,28.54,32.44,32,36.45l11.84,26.87a5.34,5.34,0,1,0,9.77-4.31l-12.17-27.61a5.53,5.53,0,0,0-.85-1.34c-.23-.26-23-26.45-32.69-37.22-3.62-4-4.74-8.92-3.4-15a2,2,0,0,1,1.29-1.57,3,3,0,0,1,2.8.57c13.88,10.63,35.94,29.79,40.7,35.34,3.44,4,7.78,10.32,12,16.42,4.44,6.47,8.28,12.06,11.13,15.08,4,4.25,5.75,8.06,7.64,21a5.34,5.34,0,0,0,10.57-1.54C2059.37,1294.18,2057,1288.17,2051,1281.81Z"/><path fill="#571519" d="M1937.19,1292.46a5.34,5.34,0,0,0-10.64.87c1.45,17.76,10.35,39.8,17.49,57.5,3.59,8.88,7.65,18.94,7.65,21.67,0,15.44-10.2,36.44-61,93.34a672.12,672.12,0,0,1-57.28,57.2c-16.49,14.88-28.4,25.62-42.39,46.41-11.74,17.47-14.55,67.43-14.83,73.07a5.34,5.34,0,0,0,5.06,5.6h.27a5.34,5.34,0,0,0,5.33-5.07c.72-14.51,4.49-54.94,13-67.65,13.25-19.7,24.76-30.08,40.68-44.44a679.46,679.46,0,0,0,58.09-58c47.62-53.36,63.69-78.71,63.69-100.45,0-4.59-2.88-12-8.42-25.66C1947.43,1330.7,1938.5,1308.6,1937.19,1292.46Z"/><path fill="#571519" d="M1756.48,1503.55a5.34,5.34,0,0,0-9,5.77c1.22,1.9,30.09,46.69,47.21,62.76a5.34,5.34,0,0,0,7.31-7.79C1785.85,1549.13,1756.77,1504,1756.48,1503.55Z"/><path fill="#571519" d="M916,191.06c-16.85,0-29.56,25.89-29.56,60.23s12.71,60.23,29.56,60.23,29.55-25.89,29.55-60.23S932.83,191.06,916,191.06Zm0,109.79c-8.92,0-18.88-21.2-18.88-49.56s10-49.56,18.88-49.56,18.88,21.2,18.88,49.56S924.89,300.85,916,300.85Z"/><polygon fill="#fff" points="907.24 289.21 981.83 329.41 1000.73 286.78 926.13 246.57 907.24 289.21"/><path fill="#571519" d="M1003.25,282.08l-74.59-40.2a5.33,5.33,0,1,0-5.06,9.39l74.59,40.21a5.34,5.34,0,1,0,5.06-9.4Z"/><path fill="#571519" d="M984.36,324.71l-74.59-40.2a5.34,5.34,0,0,0-5.07,9.4l74.6,40.2a5.34,5.34,0,1,0,5.06-9.4Z"/><path fill="#dbd1d2" d="M968.27,329.41,982.15,342q4.67-38.52,30-63l-18.21-6.9C976.34,279.19,961.49,315,968.27,329.41Z"/><path fill="#571519" d="M1194.58,281.9l-.46-.2c-81.95-36.56-134.27-31.07-163.73-20-39.84,14.93-59.63,62.08-46,109.67,18.82,65.91,116.81,98.27,121,99.61a5.28,5.28,0,0,0,1.65.27,5.34,5.34,0,0,0,1.64-10.42c-1-.31-96.75-32-114-92.39-13.72-48.07,10.12-85.72,39.53-96.75,27.59-10.34,77-15.31,155.63,19.78l.46.2c14.67,6.54,18.7,16,18.91,16.51a5.34,5.34,0,0,0,10-3.83C1218.89,303.76,1213.63,290.4,1194.58,281.9Z"/><path fill="#571519" d="M1197.37,308.73c-27.33-12.67-65.3,11-84.62,52.68-9.18,19.82-12.93,40.8-10.54,59.08,2.5,19.17,11.4,33.21,25.08,39.54a37.38,37.38,0,0,0,15.88,3.42c24.71,0,52.95-22,68.74-56.1,9.18-19.82,12.92-40.8,10.54-59.08C1220,329.1,1211,315.06,1197.37,308.73Zm4.85,94.13c-16.85,36.37-48.45,57.68-70.45,47.49-10.23-4.74-17-15.84-19-31.24-2.12-16.3,1.3-35.2,9.64-53.21,14-30.22,38.18-50,58.58-50a28.13,28.13,0,0,1,11.88,2.54c10.22,4.74,17,15.83,19,31.24C1214,366,1210.57,384.85,1202.22,402.86Z"/><path fill="#571519" d="M1181.88,318.44c-22.87-10.59-53.36,8.22-69.4,42.85s-10.68,70,12.2,80.65a32.09,32.09,0,0,0,13.58,2.94c20.26,0,42.8-17.69,55.82-45.79C1210.11,364.46,1204.76,329,1181.88,318.44Zm7.35,78.4h0Zm-4.84-2.24c-13.07,28.22-38.37,45.46-55.23,37.65s-20.06-38.25-7-66.47c10.93-23.61,30.42-39.54,46.37-39.54a21,21,0,0,1,8.86,1.88C1194.26,335.94,1197.46,366.38,1184.39,394.6Z"/><path fill="#571519" d="M1137.91,289.19c-45.08,16.47-78.67,87.21-66.56,140.16a5.34,5.34,0,0,0,5.2,4.15,5.42,5.42,0,0,0,1.19-.13,5.35,5.35,0,0,0,4-6.4c-10.87-47.49,19.88-113.16,59.81-127.76a5.33,5.33,0,0,0-3.66-10Z"/><path fill="#dbd1d2" d="M910.48,304.76,930,306.19c-12.63-12,5.73-54.42,17.36-54.9l-21.27-12.95C899.49,244.64,894.16,294.2,910.48,304.76Z"/><path fill="#571519" d="M950.18,246.73l-21.27-12.95a5.36,5.36,0,0,0-4-.63c-16.73,3.95-25.46,21.38-28,36.36-2.53,14.68-.2,32.66,10.73,39.73a5.51,5.51,0,0,0,2.51.84l19.56,1.43H930a5.34,5.34,0,0,0,3.67-9.21c-3.46-3.29-3.44-12.76.06-23.56,4.46-13.72,11.5-21.81,13.86-22.13a5.34,5.34,0,0,0,2.55-9.89Zm-25.37,25.32c-1.75,4.67-6,17.57-3.7,28.13l-8.69-.63c-5-4.38-7.14-16.12-5-28.22,1.89-10.95,7.59-23.48,18-27.21l11.69,7.12C930.38,258,925.92,269.1,924.81,272.05Z"/><path fill="#571519" d="M1014.05,274.06l-18.21-6.91a5.35,5.35,0,0,0-3.88,0c-12,4.78-21.27,19.36-26,31.4-2.48,6.3-7.69,22.14-2.52,33.1a5.35,5.35,0,0,0,1.24,1.67L978.56,346a5.34,5.34,0,0,0,7.18-7.9l-13-11.82c-1.79-5.07-.6-14.22,3.15-23.76,4.46-11.33,11.61-20.87,18.28-24.56l16.09,6.1a5.34,5.34,0,0,0,3.79-10Z"/><path fill="#571519" d="M1514.72,1048.65c-7.41.44-12.75.77-17.88-5.7a5.34,5.34,0,1,0-8.37,6.63c8.6,10.83,18.74,10.21,26.89,9.72,6.65-.39,10.92-.47,14.76,3a5.34,5.34,0,0,0,7.18-7.9C1529.94,1047.73,1521.49,1048.23,1514.72,1048.65Z"/><path fill="#571519" d="M990,1221.67c-10-2.93-8-23-7.94-23.33a5.34,5.34,0,0,0-10.6-1.29c-.15,1.2-3.36,29.34,15.55,34.86a5.18,5.18,0,0,0,1.5.21,5.33,5.33,0,0,0,1.49-10.45Z"/><path fill="#571519" d="M1037,1027c-10.55-2.43-15.43,3.2-16.53,6.52a5.34,5.34,0,0,0,3.38,6.75,5.53,5.53,0,0,0,1.69.27,5.32,5.32,0,0,0,4.86-3.15c.29-.2,1.51-.61,4.21,0A5.34,5.34,0,1,0,1037,1027Zm-6.41,9.9Zm0,0Zm0,0h0Z"/><path fill="#dbd1d2" d="M1182.66,358c-3.1-.63-3.89,5.34-5.43,12.83s-2.1,13.66,1,14.3,7.8-5.37,9.34-12.86S1185.76,358.61,1182.66,358Z"/><path fill="#571519" d="M1204.57,293.18c-33.78-15.65-80.23,12.53-103.52,62.82s-14.75,103.93,19,119.58a47.34,47.34,0,0,0,20.07,4.32c30.29,0,64.52-26.27,83.45-67.14C1246.9,362.48,1238.36,308.84,1204.57,293.18Zm14.19,117.34h0Zm-4.84-2.24c-20.82,44.94-60.89,70.79-89.35,57.61s-34.65-60.46-13.83-105.41c17.14-37,47.32-61.05,73.33-61.05a37.73,37.73,0,0,1,16,3.44C1228.53,316.05,1234.74,363.33,1213.92,408.28Z"/><path fill="#dbd1d2" d="M1179.86,337.57c-2.3.15-4,2.59-3.82,5.45s2.2,5.05,4.51,4.9,4-2.59,3.82-5.45S1182.17,337.41,1179.86,337.57Z"/><path fill="#ffe4ce" d="M1201.09,402.6a37,37,0,0,0-17.73,5.66c-14.86,9.34-40.45,45.22-40.45,45.22s-48.3,9-64.81,36.88L884.38,1012.45c15.74-9.92,44.07-41.17,44.07-41.17,31.26-80.23,80.72-278,142.93-386.35,25.92-45.12,81.14-75.9,96.84-93.59,14-15.75,22.17-49.49,39.65-77.09A7.57,7.57,0,0,0,1201.09,402.6Z"/><path fill="#571519" d="M1200.79,397.28a42.12,42.12,0,0,0-20.27,6.46c-13.82,8.68-35.31,37.5-40.72,44.93-9.91,2.16-50.6,12.48-66.29,39a5.34,5.34,0,0,0,9.18,5.44c15.07-25.44,60.74-34.27,61.2-34.36a5.35,5.35,0,0,0,3.37-2.14c7-9.75,27.49-36.61,38.94-43.8a31.67,31.67,0,0,1,15.19-4.85,2.09,2.09,0,0,1,2,1.08,2.23,2.23,0,0,1-.06,2.39c-8.41,13.28-14.78,28.06-20.39,41.09-6.11,14.18-11.88,27.58-18.74,35.31-4.69,5.29-13.75,12.28-24.25,20.38-23.25,17.93-55.08,42.5-73.23,74.1-44.48,77.45-82,197.61-109.35,285.34C946,904.29,936.08,936,927.69,958.48c-6.92,19.24-21.75,52.18-32.08,58.69a5.34,5.34,0,0,0,2.85,9.86,5.39,5.39,0,0,0,2.84-.82c16.81-10.59,34.48-58.67,36.42-64.06,8.47-22.74,18.39-54.53,29.87-91.35C994.82,783.54,1032.11,664,1076,587.59c17.09-29.75,48-53.57,70.49-71,11.37-8.78,20.35-15.7,25.71-21.75,8-9,13.82-22.52,20.56-38.16,5.73-13.3,11.65-27,19.61-39.61a12.9,12.9,0,0,0-11.59-19.83Z"/><path fill="#ffe4ce" d="M2073,1180.84c-.87-8.27-18-43-25.56-57.89-2.27-4.48-8.33-5.73-11.89-2.18-4,4-7.22,11.07-4,23.7,5,19.54,9.25,33.42,9.25,33.42l-2.31,28.75,25.23,55.29C2060.22,1238.18,2074.07,1191.45,2073,1180.84Z"/><path fill="#571519" d="M2052.17,1120.55a13.09,13.09,0,0,0-9.58-7,12.42,12.42,0,0,0-10.86,3.44c-4.64,4.64-9.34,13.41-5.39,28.82,4.2,16.49,8,29.13,9,32.66L2034,1195.3a5.34,5.34,0,0,0,10.64.85l1.43-17.84a5.4,5.4,0,0,0-.21-2c0-.14-4.3-14-9.17-33.15-2.17-8.47-1.3-14.74,2.58-18.62a1.81,1.81,0,0,1,1.61-.47,2.44,2.44,0,0,1,1.76,1.28c14.66,29,24.48,51,25,56.05.34,3.29-1.59,13.45-3.45,23.26s-4,21-5.27,31.73a4.44,4.44,0,0,0,0,.63v0a5.34,5.34,0,0,0,10.65.53c1.23-10.32,3.31-21.26,5.14-30.92,2.61-13.74,4.07-21.74,3.58-26.39C2077.37,1171.84,2063.58,1143.13,2052.17,1120.55Z"/><path fill="#571519" d="M2071.86,1268.11c-.6-20.37-1.75-41-8.46-50-4.53-6-30.23-39.22-42.05-53.77a12.91,12.91,0,0,0-22.3,4.16c-2.38,7.26-2.08,15,1,25.71,5.31,18.6,23.24,41.49,28.21,47.6v24.89a5.34,5.34,0,0,0,10.68,0v-26.8a5.34,5.34,0,0,0-1.26-3.44c-.22-.26-21.94-26.19-27.36-45.18-2.48-8.67-2.8-14.31-1.12-19.46a2.19,2.19,0,0,1,1.74-1.53,2.15,2.15,0,0,1,2.13.79c11.75,14.46,37.3,47.43,41.8,53.43,5.24,7,6,31.9,6.34,43.87,0,1.15.08,2.53.14,4.11.61,16.42,2.24,60-9.63,78.45-6.27,9.72-17.9,33.31-28.15,54.12-6.29,12.76-12.23,24.8-15.36,30.4-10.7,19.1-33.8,65.64-56.13,110.64-20.5,41.31-39.86,80.32-48.44,95.75-13.64,24.56-49.88,89.79-63.93,95.64-12,5-47.21-5-74.73-25.32-9.44-7-73-70.4-105.29-103a5.34,5.34,0,1,0-7.58,7.52c3.84,3.86,94.08,94.84,106.53,104,21.18,15.65,52,28.69,72.84,28.69a32.27,32.27,0,0,0,12.33-2.1c14.51-6,38.14-44.47,69.16-100.31,8.7-15.64,28.12-54.76,48.67-96.18,22.28-44.89,45.31-91.31,55.88-110.18,3.27-5.83,9-17.44,15.62-30.89,9.63-19.53,21.61-43.85,27.55-53.06,13.69-21.24,12-65.66,11.33-84.63C2072,1270.58,2071.9,1269.23,2071.86,1268.11Z"/><path fill="#571519" d="M1943.67,1093.73a28.56,28.56,0,0,0-24.48-3.1c-5.94,2.07-14,7.3-18.34,20.43a5.34,5.34,0,0,0,3.37,6.76,5.25,5.25,0,0,0,1.69.28,5.34,5.34,0,0,0,5.06-3.65c2.39-7.14,6.45-11.9,11.74-13.74a17.92,17.92,0,0,1,15.15,2,5.34,5.34,0,1,0,5.81-9Z"/><path fill="#571519" d="M1946.24,1073.67a39.34,39.34,0,0,0-33.68-4.27c-8.17,2.85-19.2,10.09-25.31,28.36a5.34,5.34,0,0,0,3.37,6.75,5.25,5.25,0,0,0,1.69.28,5.32,5.32,0,0,0,5.06-3.65c3.75-11.21,10.23-18.7,18.71-21.67,9.35-3.26,18.7-.5,24.35,3.16a5.34,5.34,0,0,0,5.81-9Z"/><path fill="#571519" d="M1950.91,1050c-13.46-8.74-31-11-45.71-5.82-11.1,3.87-26.09,13.74-34.45,38.74a5.34,5.34,0,0,0,3.37,6.76,5.24,5.24,0,0,0,1.69.27,5.34,5.34,0,0,0,5.06-3.64c5.53-16.54,15.17-27.62,27.85-32.06,14-4.87,28-.77,36.37,4.71a5.34,5.34,0,1,0,5.82-9Z"/><path fill="#571519" d="M1536.5,937.46c-29-19.32-68.74-13.83-85.72-11.48l-2.54.34h0a11.67,11.67,0,0,0-10.15,12.13c.49,11.27,2.7,32.75,12,50,5.86,10.95,21,15.09,35.64,15.09,10.52,0,20.82-2.13,27.33-5.4,15.6-7.83,24-30.55,28.24-48.22A11.71,11.71,0,0,0,1536.5,937.46Zm-28.27,51.17c-13,6.52-42.56,6.4-48.77-5.19-8.56-16-10.34-37.11-10.7-45.45a1,1,0,0,1,.9-1.09l2.58-.35c15.78-2.18,52.74-7.28,78.33,9.79a1.06,1.06,0,0,1,.31,1.1C1525.59,969.33,1517.55,984,1508.23,988.63Z"/><path fill="#571519" d="M1616.19,934.36c-18.31-2.49-43.4-3.39-58.9,6.44h0l-.71.43c-2,1.21-4.93,3-6.12,6.8-2.41,7.65-6.9,27.16,3.31,43.1,5.31,8.3,21.7,14.55,36.55,14.55,6.77,0,13.22-1.3,18.14-4.3,14.66-8.91,16.67-37.83,17.65-51.72l.19-2.69A11.78,11.78,0,0,0,1616.19,934.36Zm-.73,14.57c-.71,10.2-2.61,37.3-12.54,43.34-11.06,6.72-35.63.19-40.16-6.88-7.78-12.15-4.07-27.93-2.23-33.93a10.63,10.63,0,0,1,1.63-1.11l.85-.53c10-6.33,28.35-8.06,51.74-4.88a1.07,1.07,0,0,1,.91,1.2Z"/><path fill="#571519" d="M1545.85,943.27c-7.4-.31-13,4.7-13.58,5.27a5.34,5.34,0,0,0,7.24,7.84c1.7-1.52,6.08-4.57,10.13-.13a5.34,5.34,0,1,0,7.89-7.21A16.65,16.65,0,0,0,1545.85,943.27Z"/><path fill="#571519" d="M1445.85,933.47c-6.93-3.54-68.28-34.62-88-34.62a5.34,5.34,0,0,0,0,10.67c14.52,0,64.92,24.15,83.12,33.45a5.34,5.34,0,1,0,4.86-9.5Z"/><path fill="#5c2e32" d="M1163.31,350.53c-5.59-2.59-12.43-1.72-18.77,2.37-5.68,3.67-10.63,9.63-13.94,16.78-7.34,15.84-4.46,32.24,6.55,37.34a16.09,16.09,0,0,0,6.8,1.47,22.23,22.23,0,0,0,12-3.84c5.68-3.67,10.63-9.63,13.94-16.78C1177.19,372,1174.31,355.63,1163.31,350.53Zm-3.14,32.85c-2.44,5.27-6.11,9.75-10.05,12.3-3.2,2.07-6.29,2.67-8.49,1.65-4.7-2.18-6.41-12.22-1.35-23.16,2.45-5.27,6.11-9.75,10-12.3a11.72,11.72,0,0,1,6.14-2.14,5.46,5.46,0,0,1,2.35.49C1163.52,362.4,1165.23,372.44,1160.17,383.38Z"/></svg>