<svg xmlns="http://www.w3.org/2000/svg" xmlns:xlink="http://www.w3.org/1999/xlink" enable-background="new 0 0 3000 2000" viewBox="0 0 3000 2000"><switch><g><path fill="#fff" d="M2725.972,567.422c36.714,8.862,36.042,116.643,22.765,182.147
				c-9.233,45.551,2.349,67.263,1.903,73.465c-4.505,9.94-6.754,25.627-30.134,31.703c-46.982,12.211-76.289-8.297-86.299-23.423
				c-0.468-12.005,8.942-21.643,8.654-58.97c-0.312-40.348-1.259-62.168-6.156-82.484c-6.267-26.001-13.692-60.087-3.302-75.024
				C2642.648,601.548,2696.808,560.382,2725.972,567.422z"/><path fill="#f0c7ad" d="M2804.759,676.083c-8.213-21.957-50.762-81.88-63.788-94.513
											c-7.917-7.679-18.433-9.399-29.524-4.935c-14.627,5.886-1.128,26.73,8.647,39.102c0,0,33.316,43.11,51.627,62.185
											C2779.319,685.837,2811.316,693.615,2804.759,676.083z"/><path fill="#f2f2f2" d="M2740.465,573.227c-7.917-7.678-16.42-1.949-27.512,2.514
											c-14.627,5.886-10.346,19.981-0.571,32.353c0,0,15.561,18.356,25.321,31.709c13.179,2.994,30.086-4.417,34.256-23.498
											C2761.114,600.307,2746.037,578.632,2740.465,573.227z"/><path fill="#f0c7ad" d="M2744.728,776.403l-24.301,1.734c0,0,46.598-93.165,50.589-100.31
											c4.319-7.732,31.44-5.998,34.443,1.695C2809.551,690.006,2744.728,776.403,2744.728,776.403z"/><path fill="#f0c7ad" d="M2721.825,797.394c1.335-2.984,1.359-8.318,2.311-9.083c0.303-0.042,2.275,4.468,2.656,10.54
									c0.453,7.2,0.311,9.653,1.04,10.716c2.522,6.753,15.007-0.401,16.578-1.509c5.847-4.122,8.111-14.878,7.967-20.351
									c-0.161-6.133-4.28-12.657-7.009-15.712c-1.798-2.013-4.982-12.148-5.562-14.156c-2.518-8.717-15.569,1.034-16.988,4.617
									c-1.348,3.403-1.832,5.425-3.096,6.934c-4.374,5.219-5.174,14.761-4.613,16.493c1.228,3.794,0.248,10.662-0.63,13.316
									c-0.231,0.699,0.126,1.479,0.829,1.699C2717.476,801.576,2720.136,801.168,2721.825,797.394z"/><ellipse cx="2625.095" cy="1128.031" opacity=".1" rx="140.526" ry="90.617" transform="rotate(-4.704 2624.59 1127.842)"/><path fill="#594432" d="M2698.914,1121.079c-0.491,0.969-0.78,4.158-1.04,5.666
																		c12,9.669,26.909,17.077,38.574,13.831c10.112-2.814,11.628-11.356,9.799-19.601L2698.914,1121.079z"/><path fill="#594432" d="M2737.088,1138.578c-14.653,4.077-37.872-15.019-48.961-25.042
																		c-10.728-9.697-21.106-13.566-27.017-21.197c-4.956-6.398-5.566-13.91-3.776-22.019
																		c4.723-21.391,26.004-3.024,52.929,16.485c17.293,12.53,28.671,13.612,34.064,23.945
																		C2748.809,1119.338,2750.381,1134.88,2737.088,1138.578z"/><path fill="#211913" d="M2737.166,1133.738c-14.653,4.077-35.722-12.952-47.327-22.759
																		c-11.045-9.333-22.18-15.156-28.091-22.787c-4.956-6.398-5.958-12.363-4.168-20.472
																		c4.722-21.391,26.867-4.028,53.792,15.481c17.294,12.53,28.671,13.612,34.064,23.945
																		C2749.918,1115.734,2750.458,1130.039,2737.166,1133.738z"/><path fill="#52799b" d="M2703.791,1096.041c5.604,30.145,39.992,38.873,44.843,16.561
																	c0.616-2.834-1.712-279.233-1.712-279.233l-62.538,12.228C2684.384,845.597,2701.894,1085.841,2703.791,1096.041z"/><path fill="#594432" d="M2562.713,1176.924c4.073,3.661,36.5,14.991,45.694-0.545
																		c1.377-2.327,0.866-9.9,0.866-9.9l-47.663,2.107L2562.713,1176.924z"/><path fill="#594432" d="M2605.638,1173.259c-9.126,11.241-23.768,4.061-46.497-0.245
																		c-25.849-4.896-37.34-3.352-53.016-16.998c-10.095-8.789-16.861-28.526-7.187-28.505
																		c20.646,0.043,25.307,7.053,57.093,14.641c20.772,4.959,33.599-1.349,43.914,4.078
																		C2608.002,1150.469,2613.148,1164.01,2605.638,1173.259z"/><path fill="#211913" d="M2603.513,1173.773c-13.406,7.185-25.4,0.805-46.756-4.408
																		c-25.826-6.304-31.476-5.088-48.679-16.75c-11.85-8.033-21.184-27.267-8.127-27.691
																		c20.635-0.67,24.639,1.942,56.425,9.531c20.772,4.959,38.939,3.202,47.153,11.472
																		C2610.354,1152.798,2613.08,1168.646,2603.513,1173.773z"/><path fill="#488bb9" d="M2560.548,1143.172c-0.621,23.293,34.685,35.515,47.981,16.953
																	c2.013-2.81,23.178-153.726,23.178-153.726l83.091-158.638l-74.209-19.028c0,0-54.794,135.733-59.701,160.266
																	C2576.453,1011.177,2560.675,1138.386,2560.548,1143.172z"/><path fill="#f7cdb3" d="M2695.436,568.613c9.254-15.583,27.329-22.35,36.344-43.893
																		c15.683-37.477,12.643-45.308-12.123-55.671c-20.898-8.745-62.036-2.573-72.355,27.371
																		c-6.3,18.282-17.712,52.729-7.076,64.005c6.612,7.009,18.25-1.172,19.778,2.476
																		C2661.234,565.836,2693.286,572.234,2695.436,568.613z"/><path fill="#e3bba3" d="M2653.466,562.494c2.65,1.528,0.166,14.746,0.039,20.274
																		c-0.095,4.161-0.146,8.163,0.259,10.367l53.542-2.656c2.368-2.134,1.725-16.501-4.721-17.426
																		c0.252-1.893,3.826-31.009,7.935-54.763c-13.711,14.256-26.766,5.79-32.286,22.687
																		C2672.21,559.419,2658.964,560.245,2653.466,562.494z"/><path fill="#f2f2f2" d="M2704.338,555.383c-14.078-1.588-38.744,17.633-49.102,27.3
																		c-4.773,4.454-11.532,22.771-10.182,36.272c7.297-9.876,17.251-27.805,27.045-30.227
																		c19.24-4.758,35.298-13.275,39.872-18.202c1.13-1.217,1.543-2.844,0.096-3.658
																		C2710.121,565.773,2706.867,555.668,2704.338,555.383z"/><path fill="#4f3824" d="M2744.172,493.346c-4.715-50.927-79.13-54.143-87.133-42.039
																		c-12.619,19.085-4.26,12.605-4.008,22.009c-1.062,4.76,1.555,8.969,3.069,10.358
																		c4.809,4.414,5.74-7.138,12.929-2.817c3.868,2.324-0.504,15.462-1.534,26.35l5.887,6.644
																		c1.162-3.276,8.804-8.158,9.719-3.248c0.61,3.271-3.496,12.256-2.24,19.337
																		c2.622,14.779,11.868,25.464,14.438,32.809c5.236-4.156,14.133-7.686,18.65-12.484
																		C2723.537,540.077,2745.801,510.941,2744.172,493.346z"/><path fill="#ff936e" d="M2725.972,567.422c36.714,8.862,36.042,116.643,22.765,182.147
																	c-9.233,45.551,2.349,67.263,1.903,73.465c-4.505,9.94-6.754,25.627-30.134,31.703
																	c-46.982,12.211-76.289-8.297-86.299-23.423c-0.468-12.005,8.942-21.643,8.654-58.97
																	c-0.312-40.348-1.259-62.168-6.156-82.484c-6.267-26.001-13.692-60.087-3.302-75.024
																	C2642.648,601.548,2696.808,560.382,2725.972,567.422z"/><g><path fill="#f7cdb3" d="M2631.279,789.371c4.322,2.349,7.265,2.836,11.226,1.812
																c7.39-1.911,17.432,1.877,18.915,3.279c3.248,3.07,9.581,5.187,12.69,5.578c0.818,0.103,1.436,0.84,1.32,1.657
																c-0.358,2.519-2.052,5.014-6.686,4.904c-3.664-0.087-7.334,0.116-8.568,0.711
																c-0.092,0.139-5.754,7.642-11.901,12.033c-8.606,6.147-15.434,1.424-15.962,0.165
																c-1.171-2.789-3.996-4.826-5.86-6.244C2619.028,807.62,2626.583,786.774,2631.279,789.371L2631.279,789.371z"/><path fill="#f7cdb3" d="M2573.187,733.89c2.163-10.46,24.407-11.7,35.521-5.35
																c3.462,1.978,26.403,48.169,34.235,63.741c6.043,12.017-6.275,23.527-16.657,19.989
																C2626.285,812.271,2571.958,739.834,2573.187,733.89z"/><path fill="#f7cdb3" d="M2636.158,614.458c7.082-6.44,23.436,13.161,17.837,29.998
																c-8.84,26.583-41.514,81.693-45.947,86.227c-8.949,9.152-29.927,16.775-34.944,5
																C2570.954,730.637,2625.59,624.069,2636.158,614.458z"/><path fill="#f2f2f2" d="M2634.809,612.025c-4.469,4.064-16.578,25.904-28.904,50.139
															c1.065,18.372,20.646,28.891,38.554,24.998c8.042-14.639,15.263-29.117,18.499-38.888
															C2671.437,622.682,2641.891,605.585,2634.809,612.025z"/></g><g><polygon points="2146.044 1070.062 2200.459 1101.211 2561.34 892.856 2506.925 861.706" opacity=".1"/><path fill="#fff" d="M2222.374,280.689c-16.271,9.384-29.458,32.225-29.396,50.916
																			c0.665,234.466,1.33,468.932,1.994,703.399c0.045,18.709,13.316,26.266,29.588,16.861
																			c94.586-54.609,189.172-109.218,283.757-163.828c16.272-9.385,29.457-32.216,29.396-50.916
																			c-0.665-234.466-1.329-468.932-1.994-703.398c-0.044-18.701-13.317-26.265-29.588-16.861
																			C2411.546,171.47,2316.96,226.079,2222.374,280.689z"/><path fill="#e8e8e8" d="M2504.579,896.652c0.947-0.586,2.231-1.335,3.157-1.955
																				c1.107-0.741,2.579-1.743,3.617-2.578c1.8-1.448,4.138-3.455,5.849-5.006c0.956-0.867,2.139-2.12,3.032-3.051
																				c1.993-2.077,7.154-7.817,12.013-16.24c5.017-8.695,7.399-16.258,8.009-18.368c0.342-1.18,0.82-2.75,1.083-3.951
																				c0.493-2.251,1.086-5.268,1.438-7.545c0.093-0.598,0.555-3.82,0.57-8.504c0.008,2.708-1.89,5.507-5.634,7.668
																				c0.061,18.7-13.124,41.531-29.396,50.916C2508.33,892.313,2506.888,895.319,2504.579,896.652z"/><path fill="#e8e8e8" d="M2220.822,1060.479l28.376-16.383l28.376-16.383l28.376-16.383l28.375-16.383
																				l28.376-16.383l28.376-16.383l28.376-16.383l28.376-16.383l28.376-16.383l28.376-16.383
																				c2.309-1.333,3.75-4.338,3.738-8.614l-283.757,163.828C2224.572,1056.141,2223.131,1059.146,2220.822,1060.479z"/><path fill="#e8e8e8" d="M2167.701,1033.929l2.903,1.687c6.414,3.727,17.326,3.452,24.368-0.613
																				c0.045,18.709,13.316,26.266,29.588,16.861c0.012,4.276-1.429,7.281-3.738,8.614
																				c-1.299,0.728-3.049,1.669-4.402,2.29c-1.394,0.64-3.281,1.444-4.743,1.909c-1.751,0.556-4.116,1.21-5.917,1.569
																				c-1.485,0.296-3.499,0.517-5.01,0.606c-2.17,0.128-4.133-0.001-5.397-0.131
																				c-1.554-0.161-3.597-0.601-5.119-0.955c-0.834-0.194-1.927-0.548-2.717-0.878
																				c-1.406-0.588-3.241-1.466-4.59-2.175l-2.903-1.687c-3.703-2.157-6.008-4.57-6.104-4.671
																				c-1.073-1.132-2.461-2.69-3.388-3.945c-0.861-1.165-1.905-2.802-2.554-4.097
																				c-0.755-1.507-1.667-3.568-2.247-5.151c-0.49-1.337-0.995-3.173-1.313-4.561c-0.288-1.259-0.62-2.953-0.76-4.236
																				c-0.224-2.056-0.382-4.813-0.452-6.881C2163.212,1029.869,2164.698,1032.184,2167.701,1033.929z"/><path fill="#e8e8e8" d="M2543.348,829.453l-0.199-70.34l-0.199-70.34l-0.199-70.34l-0.199-70.34
																				l-0.199-70.34l-0.199-70.34l-0.199-70.34l-0.199-70.34l-0.199-70.34l-0.199-70.34
																				c0.008,2.708-1.89,5.506-5.634,7.668l1.994,703.399C2541.458,834.959,2543.355,832.161,2543.348,829.453z"/><path fill="#e8e8e8" d="M2488.137,90.772c1.395-0.64,3.282-1.444,4.744-1.909
																				c1.75-0.556,4.116-1.21,5.917-1.569c1.485-0.295,3.499-0.517,5.011-0.606c2.286-0.134,4.362,0.025,5.397,0.132
																				c1.554,0.16,3.598,0.601,5.119,0.955c0.834,0.194,1.927,0.548,2.717,0.878c0.783,0.327,1.695,0.745,2.586,1.173
																				c0.685,0.302,1.358,0.628,2.003,1.003l2.903,1.687c3.704,2.158,6.01,4.571,6.106,4.673
																				c1.073,1.132,2.461,2.69,3.388,3.945c0.86,1.165,1.904,2.802,2.553,4.097c0.756,1.507,1.667,3.568,2.247,5.151
																				c0.49,1.337,0.995,3.173,1.313,4.561c0.288,1.258,0.62,2.952,0.76,4.236c0.224,2.056,0.382,4.812,0.452,6.879
																				c0.007,2.707-1.891,5.506-5.635,7.668c-0.044-18.701-13.317-26.266-29.588-16.861
																				c-0.022-8.092-5.242-17.677-11.656-21.404l-2.903-1.687c-3.024-1.758-5.775-1.9-7.835-0.71
																				C2485.035,92.333,2486.785,91.392,2488.137,90.772z"/><path fill="#e8e8e8" d="M2165.707,330.531l2.903,1.687c6.414,3.727,17.326,3.452,24.368-0.614
																				l1.994,703.399c-7.042,4.066-17.954,4.341-24.368,0.613l-2.903-1.687c-3.004-1.746-4.489-4.06-4.495-6.445
																				l-0.2-70.34l-0.199-70.34l-0.2-70.34l-0.199-70.34l-0.2-70.34l-0.199-70.34l-0.2-70.34l-0.199-70.34l-0.2-70.34
																				l-0.199-70.34C2161.218,326.471,2162.703,328.785,2165.707,330.531z"/><path fill="#e8e8e8" d="M2483.738,93.06c2.06-1.189,4.81-1.048,7.834,0.71l2.903,1.687
																				c6.414,3.727,11.633,13.312,11.656,21.404l-283.757,163.827c-0.023-8.091-5.242-17.676-11.656-21.404
																				l-2.903-1.687c-3.024-1.757-5.775-1.899-7.835-0.71C2294.566,202.277,2389.152,147.67,2483.738,93.06z"/><path fill="#e8e8e8" d="M2161.781,315.584c0.352-2.277,0.945-5.294,1.438-7.544
																				c0.263-1.2,0.742-2.77,1.083-3.95c0.611-2.111,2.994-9.674,8.01-18.369c4.861-8.426,10.021-14.166,12.013-16.242
																				c0.893-0.931,2.077-2.184,3.032-3.051c1.711-1.552,4.049-3.559,5.849-5.007c1.039-0.835,2.51-1.838,3.617-2.579
																				c0.926-0.619,2.21-1.368,3.157-1.955c2.06-1.189,4.81-1.047,7.834,0.71l2.903,1.687
																				c6.414,3.727,11.633,13.312,11.656,21.404c-16.271,9.384-29.458,32.225-29.396,50.916
																				c-7.042,4.066-17.954,4.341-24.368,0.614l-2.903-1.687c-3.003-1.745-4.488-4.059-4.495-6.444
																				C2161.227,319.403,2161.689,316.182,2161.781,315.584z"/><path fill="#d9d9d9" d="M2173.746,381.276c2.447,2.381,3.843,4.823,4.584,6.453
																				c1.583,3.481,1.776,5.699,1.839,7.673v0v6.265v6.266v6.266v6.266v6.266v6.265v6.266v6.265v6.266v6.266v0.001
																				c-0.004,0.808-0.241,1.35-0.343,1.545c-0.362,0.695-0.731,0.933-1.057,1.143l-0.557,0.319
																				c-0.943,0.493-1.895,0.451-2.997-0.134l-0.001-0.001l0.001,0.001c-4.903-2.813-9.807-5.625-14.71-8.438
																				c-0.147-0.085-0.28-0.22-0.403-0.378c0.123,0.158,0.255,0.293,0.403,0.378c-0.622-0.361-2.076-1.445-2.146-3.707
																				v0v-6.225v-6.225v-6.225v-6.225v-6.225v-6.225v-6.225v-6.225v-6.225v-6.225v0
																				c0.013-2.547,0.653-4.091,0.848-4.503c0.304-0.64,0.591-1.244,1.207-1.964c0.614-0.716,1.059-1.002,1.676-1.398
																				l0.557-0.319C2167.586,375.661,2172.759,380.315,2173.746,381.276z"/><path fill="#d9d9d9" d="M2180.22,476.684L2180.22,476.684v6.265v6.265v6.266v6.265v6.265v6.266v6.266
																				v6.266v6.265v6.266v0c-0.018,2.371-0.559,3.772-0.964,4.62c-0.567,1.186-1.295,1.894-1.903,2.363l0,0v0
																				c-0.037,0.031-0.073,0.063-0.111,0.093v0c-0.192,0.153-0.391,0.294-0.603,0.415l-0.556,0.319
																				c-0.75,0.402-1.392,0.66-2.454,0.788c-1.309,0.158-2.615-0.171-2.628-0.174c-0.509-0.13-1.862-0.477-3.343-1.392
																				c-0.071-0.044-0.14-0.092-0.213-0.134c-0.35-0.201-1.65-1.102-2.499-1.943c-1.815-1.796-3.339-3.696-4.873-7.13
																				c-0.13-0.292-0.803-1.847-1.228-3.761c-0.374-1.688-0.401-2.593-0.435-3.739c0,0.091,0.046,0.192,0.069,0.288
																				c-0.022-0.096-0.069-0.197-0.069-0.288v-6.225v-6.225v-6.225v-6.225v-6.225v-6.225v-6.225v-6.225v-6.225v-6.225
																				v0v0l0,0l0,0c0.004-0.809,0.241-1.351,0.343-1.546c0.362-0.695,0.731-0.933,1.057-1.143l0.557-0.319
																				c0.943-0.493,1.895-0.451,2.997,0.134l1.471,0.844l1.471,0.844l1.471,0.844l1.471,0.844l1.471,0.844l1.471,0.844
																				l1.471,0.844l1.471,0.844l1.471,0.844l1.471,0.844C2178.696,473.337,2180.15,474.421,2180.22,476.684z"/><path fill="#f5f5f5" d="M2157.786,450.576L2157.786,450.576L2157.786,450.576
																					c-0.741-0.612-1.14-1.254-1.14-1.797c0.069,2.263,1.524,3.346,2.146,3.707
																					C2158.314,452.213,2157.95,451.536,2157.786,450.576L2157.786,450.576z"/><path fill="#f5f5f5" d="M2156.646,386.529v6.225v6.225v6.225v6.225v6.225v6.225v6.225v6.225v6.225v6.225
																					c0,0.751,0.765,1.693,2.142,2.482v-62.25C2157.411,388.222,2156.646,387.28,2156.646,386.529z"/><path fill="#f5f5f5" d="M2158.792,452.487c4.904,2.813,9.807,5.625,14.71,8.438
																					c-0.659-0.378-1.101-1.524-1.101-3.125l-14.71-8.438C2157.69,450.963,2158.133,452.109,2158.792,452.487z"/><path fill="#f5f5f5" d="M2178.112,459.596c-0.362,0.695-0.731,0.933-1.057,1.143l-0.557,0.319
																					c-0.943,0.493-1.895,0.451-2.997-0.134c-0.478-0.274-0.841-0.95-1.006-1.911l0,0l0,0l0.003,0.003
																					c1.817,0.723,3.785,0.878,4.788,0.303l0.556-0.319c0.414-0.237,0.611-0.569,0.611-0.95
																					C2178.451,458.858,2178.214,459.401,2178.112,459.596z"/><rect width="2.836" height="18.664" x="2164.65" y="443.741" fill="#f5f5f5" transform="rotate(-60 2166.12 453.107)"/><path fill="#fff" d="M2164.615,384.719c-3.242-1.647-5.819,0.301-5.828,4.285
																					c0.002,19.635,0.003,39.27-0.009,58.896c-0.001,1.292,0.687,2.483,1.808,3.125
																					c3.089,1.768,6.185,3.541,9.282,5.314c0.639,0.366,1.437-0.094,1.437-0.83c0.005-19.9,0.003-39.822-0.006-59.73
																					c0.002-4.007-2.845-8.924-6.338-10.879C2164.838,384.828,2164.665,384.809,2164.615,384.719z"/><path fill="#f5f5f5" d="M2172.032,381.269c2.447,2.381,3.843,4.823,4.584,6.453
																					c1.583,3.481,1.776,5.699,1.839,7.673v0v6.265v6.266v6.266v6.266v6.266v6.266v6.265v6.265v6.266v6.266
																					c0,0.381-0.197,0.712-0.611,0.95l-0.556,0.319c-1.23,0.705-3.909,0.312-5.984-0.878v-62.655
																					c0.004-4.021-2.847-8.934-6.343-10.892c-0.115-0.064-0.294-0.084-0.343-0.182
																					c-3.245-1.633-5.826,0.302-5.83,4.3c-1.376-0.79-2.142-1.732-2.142-2.483c0.013-2.547,0.653-4.091,0.848-4.503
																					c0.304-0.64,0.591-1.244,1.208-1.964c0.614-0.716,1.059-1.002,1.676-1.398l0.556-0.319
																					C2165.873,375.655,2171.045,380.309,2172.032,381.269z"/><path fill="#f5f5f5" d="M2175.477,547.029c-0.227,0.169-0.435,0.307-0.603,0.415
																							C2175.086,547.323,2175.285,547.182,2175.477,547.029z"/><path fill="#f5f5f5" d="M2177.491,544.573c-0.567,1.186-1.295,1.894-1.903,2.363
																							c0.387-0.328,0.736-0.717,1.032-1.174c-0.296,0.457-0.644,0.846-1.032,1.174v0
																							c-0.037,0.031-0.073,0.063-0.111,0.093v0c-0.192,0.153-0.391,0.294-0.603,0.415l-0.557,0.319
																							c-0.75,0.402-1.392,0.66-2.454,0.788c-1.309,0.158-2.615-0.171-2.628-0.174
																							c-0.509-0.131-1.862-0.478-3.343-1.392c-0.072-0.044-0.141-0.092-0.214-0.134
																							c-0.35-0.201-1.649-1.102-2.499-1.943c-1.815-1.796-3.339-3.696-4.873-7.13
																							c-0.131-0.292-0.803-1.847-1.228-3.761c-0.374-1.688-0.401-2.593-0.435-3.739
																							c0,0.751,0.765,1.693,2.142,2.482c0.004,4.003,2.585,8.898,5.83,10.988c0.049-0.042,0.229,0.145,0.343,0.212
																							c3.496,2.052,6.347,0.41,6.343-3.616c2.075,1.19,4.754,1.583,5.984,0.878l0.556-0.319
																							c0.414-0.237,0.611-0.569,0.611-0.95C2178.437,542.324,2177.896,543.726,2177.491,544.573z"/><path fill="#f5f5f5" d="M2156.646,468.028v6.225v6.225v6.225v6.225v6.225v6.225v6.225v6.225v6.225
																						v6.225c0,0.751,0.765,1.693,2.142,2.482v-62.25C2157.411,469.721,2156.646,468.779,2156.646,468.028z"/><path fill="#f5f5f5" d="M2160.473,465.203l-0.557,0.319c-1.004,0.576-1.853,2.362-2.131,4.306l0-0.003
																						l-0.001-0.002c-0.74-0.612-1.138-1.254-1.138-1.796c0.004-0.809,0.241-1.351,0.343-1.546
																						c0.362-0.695,0.731-0.933,1.057-1.143l0.557-0.319c0.943-0.493,1.895-0.451,2.997,0.134
																						C2161.268,464.964,2160.884,464.967,2160.473,465.203z"/><rect width="5.511" height="16.617" x="2162.792" y="467.968" fill="#f5f5f5" transform="rotate(-60 2165.59 476.314)"/><path fill="#fff" d="M2170.151,478.303c-2.961-1.695-5.928-3.395-8.887-5.098
																							c-1.1-0.633-2.47,0.16-2.47,1.429c0,19.38-0.012,38.752-0.01,58.132c0.007,3.992,2.593,8.901,5.833,10.976
																							c0.042-0.037,0.221,0.148,0.344,0.219c3.495,2.059,6.348,0.413,6.344-3.619
																							c-0.01-20.018,0.004-40.042-0.005-60.06C2171.299,479.464,2170.861,478.709,2170.151,478.303z"/><path fill="#f5f5f5" d="M2175.184,473.64l-0.557,0.319c-1.229,0.705-2.227,3.227-2.227,5.63
																						l-14.71-8.438c0-2.404,0.997-4.925,2.227-5.63l0.557-0.319c0.41-0.236,0.795-0.239,1.125-0.049l1.471,0.844
																						l1.471,0.844l1.471,0.844l1.471,0.844l1.471,0.844l1.471,0.844l1.471,0.844l1.471,0.844l1.471,0.844
																						l1.471,0.844C2175.979,473.401,2175.594,473.405,2175.184,473.64z"/><path fill="#f5f5f5" d="M2178.455,483.564v6.266v6.266v6.266v6.266v6.265v6.266v6.266v6.266v6.266
																						c0,0.381-0.197,0.712-0.611,0.95l-0.556,0.319c-1.23,0.705-3.909,0.312-5.984-0.878l0-62.655
																						c2.075,1.19,4.755,1.583,5.984,0.878l0.556-0.319c0.414-0.237,0.611-0.569,0.611-0.95V483.564z"/><path fill="#f5f5f5" d="M2178.455,477.298c0,0.381-0.197,0.712-0.611,0.95l-0.556,0.319
																						c-1.003,0.575-2.97,0.42-4.787-0.302l-0.004-0.001c0.278-1.942,1.126-3.728,2.13-4.304l0.557-0.319
																						c0.41-0.235,0.795-0.239,1.125-0.049C2176.931,473.952,2178.385,475.036,2178.455,477.298z"/><g><path fill="#747474" d="M2336.105,241.345c-1.833,1.058-3.325,0.208-3.331-1.898
																				c-0.006-2.106,1.476-4.674,3.309-5.732l58.464-33.754c1.833-1.058,3.325-0.208,3.331,1.898
																				c0.006,2.106-1.476,4.674-3.31,5.732L2336.105,241.345L2336.105,241.345z"/><path fill="#27aae1" d="M2228.517,298.741c-11.019,6.362-19.955,21.831-19.919,34.492l1.923,686.127
																				c0.036,12.662,9.03,17.787,20.049,11.425l273.614-157.971c11.012-6.358,19.948-21.835,19.912-34.496
																				l-1.923-686.127c-0.036-12.662-9.03-17.779-20.042-11.421l-65.512,37.824
																				c0.029,10.261-7.024,22.47-15.747,27.506l-110.999,64.086c-8.722,5.036-15.815,0.994-15.843-9.029
																				L2228.517,298.741z"/></g><g><defs><path id="a" d="M2228.517,298.741c-11.019,6.362-19.955,21.831-19.919,34.492l1.923,686.127
																		c0.036,12.662,9.03,17.787,20.049,11.425l273.614-157.971c11.012-6.358,19.948-21.835,19.912-34.496
																		l-1.923-686.127c-0.036-12.662-9.03-17.779-20.042-11.421l-65.512,37.824c0.029,10.261-7.024,22.47-15.747,27.506
																		l-110.999,64.086c-8.722,5.036-15.815,0.994-15.843-9.029L2228.517,298.741z"/></defs><clipPath id="b"><use overflow="visible" xlink:href="#a"/></clipPath><rect width="595.306" height="188.734" x="2194.524" y="102.088" fill="#4d4d4d" clip-path="url(#b)" transform="rotate(-153.663 2492.196 196.493)"/><rect width="595.306" height="109.304" x="2065.769" y="603.81" fill="#4d4d4d" clip-path="url(#b)" transform="rotate(-153.663 2363.432 658.502)"/><rect width="595.306" height="25.78" x="2023.705" y="733.871" fill="#4d4d4d" clip-path="url(#b)" transform="rotate(-153.663 2321.366 746.8)"/></g><g><path fill="#808285" d="M2463.144,376.49l55.754,16.685l-24.004,50.195l-16.548-4.944l0.472,252.949
									l-225.436,130.155l-0.472-252.963l-16.466,24.018l-24.222-22.366l152.957-223.034l58.141,17.38l-0.13-45.846l39.725-22.935
									L2463.144,376.49z M2456.663,678.764l-0.446-243.735l-90.854-27.205l-90.415,131.861l0.446,243.735L2456.663,678.764
									L2456.663,678.764z"/></g><g><path fill="#e6e6e6" d="M2457.097,585.149c0.03,7.229-5.028,16.636-12.127,20.735l-152.18,87.861
									c-7.599,4.387-12.909,0.02-12.136-8.046c0.178-1.859,0.679-3.914,1.55-6.104l75.681-190.216
									c2.319-5.843,6.411-10.451,10.497-12.81c4.098-2.366,8.202-2.49,10.547,0.66l76.51,102.348
									C2456.539,581.054,2457.061,582.986,2457.097,585.149z"/><path fill="#ff6a40" d="M2387.39,498.043l72.997,97.648c1.107,1.503,0.375,3.815,0.013,4.733
									c-0.372,0.938-1.469,3.231-3.694,4.516l-145.192,83.827c-2.225,1.284-3.331,0.262-3.707-0.243
									c-0.365-0.499-1.109-1.958-0.013-4.733L2380,502.31c1.106-2.768,2.945-4.071,3.683-4.497
									C2384.432,497.38,2386.272,496.559,2387.39,498.043z M2387.25,604.249c4.035-12.559,9.314-37.803,9.291-45.751
									c-0.03-10.453-3.269-20.626-12.729-15.164c-9.45,5.456-12.621,19.329-12.591,29.782c0.022,7.948,5.427,27.023,9.52,34.89
									L2387.25,604.249L2387.25,604.249z M2384.065,632.771c4.758-2.747,8.612-9.256,8.597-14.534
									c-0.015-5.29-3.893-7.336-8.651-4.589c-4.758,2.747-8.6,9.25-8.585,14.54
									C2375.441,633.466,2379.308,635.518,2384.065,632.771L2384.065,632.771z"/><path fill="#fff" d="M2384.011,613.648c4.758-2.747,8.636-0.701,8.651,4.589
										c0.015,5.277-3.839,11.787-8.596,14.534c-4.758,2.747-8.625,0.695-8.64-4.582
										C2375.411,622.898,2379.254,616.395,2384.011,613.648z"/><path fill="#fff" d="M2383.812,543.335c9.461-5.462,12.7,4.71,12.729,15.164
										c0.023,7.948-5.256,33.191-9.291,45.75l-6.509,3.758c-4.093-7.867-9.497-26.943-9.52-34.89
										C2371.192,562.663,2374.363,548.79,2383.812,543.335z"/><path fill="#d1d3d4" d="M2377.836,494.79c0.102-0.125,0.203-0.251,0.306-0.373c0.259-0.304,0.526-0.589,0.793-0.875
										c0.18-0.193,0.358-0.393,0.541-0.577c0.128-0.128,0.261-0.242,0.39-0.366c0.479-0.458,0.966-0.886,1.459-1.281
										c0.166-0.133,0.332-0.267,0.499-0.393c0.608-0.457,1.22-0.883,1.834-1.238c0.514-0.297,1.028-0.542,1.539-0.763
										c0.137-0.059,0.274-0.117,0.41-0.171c0.307-0.12,0.612-0.223,0.915-0.314c0.135-0.04,0.271-0.088,0.404-0.123
										c0.167-0.043,0.33-0.072,0.495-0.105c0.198-0.04,0.397-0.082,0.593-0.109c0.116-0.016,0.229-0.024,0.344-0.034
										c0.225-0.021,0.449-0.034,0.668-0.035c0.093,0,0.185-0.001,0.277,0.003c0.035,0.001,0.068,0.008,0.103,0.009
										c1.535,0.778,3.033,1.527,4.315,2.272c-0.246-0.33-0.511-0.622-0.795-0.878c-0.105-0.094-0.223-0.159-0.333-0.243
										c-0.187-0.145-0.37-0.301-0.571-0.417l-0.441-0.256c0.147,0.068,0.299,0.123,0.44,0.205l-0.011-0.007
										c0.004,0.002,0.008,0.005,0.012,0.007l-12.158-7.065c-0.02-0.012-0.04-0.023-0.06-0.035
										c-0.182-0.102-0.368-0.193-0.559-0.273c-0.054-0.023-0.112-0.038-0.167-0.059c-0.062-0.024-0.126-0.045-0.189-0.067
										c-0.078-0.026-0.154-0.059-0.233-0.082c-0.172-0.05-0.349-0.087-0.527-0.121c-0.026-0.005-0.051-0.013-0.078-0.018
										c-0.009-0.002-0.018-0.005-0.026-0.006c-0.225-0.039-0.454-0.065-0.686-0.08c-0.051-0.003-0.104,0.001-0.155-0.001
										c-0.09-0.004-0.181-0.002-0.272-0.002c-0.112,0-0.221-0.008-0.333-0.003c-0.103,0.004-0.21,0.022-0.314,0.031
										c-0.121,0.01-0.242,0.02-0.364,0.036c-0.067,0.009-0.132,0.01-0.199,0.02c-0.121,0.019-0.247,0.055-0.369,0.079
										c-0.17,0.033-0.34,0.066-0.512,0.109c-0.059,0.015-0.116,0.021-0.175,0.037c-0.087,0.024-0.177,0.065-0.265,0.091
										c-0.299,0.089-0.598,0.191-0.901,0.309c-0.082,0.032-0.162,0.05-0.244,0.084c-0.052,0.021-0.104,0.055-0.155,0.077
										c-0.469,0.201-0.941,0.423-1.413,0.689c-0.024,0.014-0.048,0.027-0.072,0.041c-0.031,0.018-0.062,0.035-0.093,0.053
										c-0.031,0.018-0.062,0.036-0.092,0.054c-0.025,0.015-0.05,0.029-0.074,0.044c-0.569,0.337-1.135,0.736-1.698,1.161
										c-0.138,0.104-0.274,0.212-0.411,0.322c-0.604,0.481-1.203,0.993-1.784,1.567c-0.001,0.001-0.002,0.002-0.003,0.003
										c-0.05,0.05-0.098,0.107-0.148,0.158c-0.362,0.365-0.722,0.739-1.07,1.138c0.001,0,0.002,0.001,0.002,0.001l0,0
										c-0.001-0.001-0.001-0.001-0.002-0.001c-0.008,0.009-0.015,0.019-0.022,0.028c-0.009,0.01-0.018,0.019-0.027,0.029
										c-0.315,0.362-0.624,0.737-0.925,1.126c-0.087,0.112-0.17,0.232-0.256,0.347c-0.073,0.097-0.145,0.195-0.217,0.294
										c-0.092,0.126-0.187,0.247-0.277,0.376c-0.222,0.316-0.438,0.639-0.649,0.969l0.011,0.007
										c-0.873,1.365-1.658,2.839-2.299,4.419c0.008,0.005,0.016,0.01,0.024,0.014c-0.025,0.061-0.055,0.117-0.079,0.178
										l-0.018-0.01l-72.206,181.481c-0.024,0.06-0.048,0.12-0.071,0.18c0,0,0,0,0,0l0,0c0,0,0,0,0,0
										c-0.001,0.003-0.002,0.007-0.004,0.01c-0.012,0.03-0.023,0.06-0.035,0.089c-0.139,0.363-0.268,0.721-0.386,1.076
										c-0.022,0.066-0.038,0.129-0.059,0.194c-0.044,0.136-0.083,0.269-0.124,0.404c-0.054,0.177-0.114,0.357-0.163,0.532
										c-0.035,0.125-0.059,0.244-0.091,0.368c-0.048,0.185-0.094,0.369-0.136,0.552c-0.025,0.109-0.058,0.221-0.081,0.328
										c-0.026,0.122-0.038,0.236-0.061,0.356c-0.055,0.284-0.104,0.564-0.145,0.84c-0.015,0.104-0.041,0.214-0.055,0.317
										c-0.027,0.209-0.05,0.417-0.069,0.621c0,0.002,0,0.005-0.001,0.007c-0.393,4.099,0.861,7.197,3.215,8.565l12.158,7.065
										c-2.354-1.368-3.607-4.465-3.214-8.565l0,0c0-0.001,0-0.002,0-0.003c0.029-0.301,0.079-0.615,0.126-0.927
										c0.04-0.267,0.086-0.537,0.14-0.812c0.048-0.246,0.101-0.494,0.16-0.746c0.042-0.177,0.084-0.355,0.132-0.535
										c0.088-0.336,0.187-0.677,0.295-1.023c0.032-0.103,0.06-0.204,0.094-0.308c0.159-0.482,0.333-0.972,0.531-1.47
										l72.206-181.481c0.822-2.07,1.877-3.975,3.078-5.67c0.044-0.062,0.09-0.121,0.135-0.182
										C2377.174,495.619,2377.502,495.199,2377.836,494.79z"/><path fill="#fff" d="M2468.3,593.281c0.029,6.897-4.797,15.872-11.57,19.783l-145.192,83.827
										c-7.25,4.186-12.316,0.019-11.578-7.677c0.17-1.774,0.648-3.734,1.479-5.824l72.206-181.481
										c2.213-5.575,6.116-9.971,10.015-12.222c3.91-2.257,7.826-2.376,10.063,0.63l72.997,97.648
										C2467.768,589.374,2468.266,591.217,2468.3,593.281z M2460.401,600.424c0.362-0.919,1.094-3.23-0.013-4.733l-72.997-97.648
										c-1.119-1.484-2.958-0.663-3.708-0.23c-0.738,0.426-2.576,1.728-3.683,4.497l-72.206,181.481
										c-1.095,2.775-0.352,4.234,0.013,4.733c0.376,0.505,1.483,1.527,3.707,0.243l145.192-83.827
										C2458.932,603.655,2460.029,601.361,2460.401,600.424L2460.401,600.424z"/></g></g><g><defs><rect id="c" width="2028.024" height="1374.382"/></defs><clipPath id="d"><use overflow="visible" xlink:href="#c"/></clipPath><g clip-path="url(#d)"><polygon points="1788.363 626.146 858.99 86.05 -76.155 625.951 853.218 1166.05" opacity=".1"/><path d="M1134.285,1213.024c-87.538-0.005-170.024-19.924-232.254-56.091
												c-6.909-4.013-13.683-8.343-20.737-13.246l-25.5-17.72l480.78-277.582l9.411,4.576
												c8.343,4.061,15.733,7.972,22.604,11.956c65.406,38.01,101.375,89.713,101.298,145.592
												c-0.087,56.221-36.586,108.232-102.8,146.453c-62.615,36.153-145.294,56.062-232.783,56.062
												C1134.295,1213.024,1134.295,1213.024,1134.285,1213.024z" opacity=".1"/><path fill="#515151" d="M853.408,1139.242c-6.823-3.965-13.645-7.93-20.468-11.895
													C618.168,1002.535,403.395,877.722,188.622,752.91c-19.317-11.225-38.633-22.451-57.95-33.677
													c-55.451-32.225-110.902-64.45-166.353-96.674c-0.069-24.484-0.139-48.968-0.208-73.452
													C178.884,673.92,393.657,798.732,608.429,923.545c6.823,3.965,13.645,7.93,20.468,11.895
													c74.768,43.45,149.535,86.901,224.303,130.351c0.006,2.143,0.012,4.285,0.018,6.427
													C853.281,1094.559,853.345,1116.901,853.408,1139.242z"/><polygon fill="#383838" points="853.2 1065.79 853.408 1139.242 1748.313 622.568 1748.104 549.116"/><polygon fill="#696969" points="-35.889 549.108 853.2 1065.79 1748.104 549.116 859.016 32.433"/><polygon fill="#a6868b" points="-1.021 -788.402 1.327 544.097 854.595 1039.963 852.247 -292.536"/><polygon fill="#c19ba1" points="852.247 -292.536 854.595 1039.963 1713.444 544.105 1711.097 -788.394"/><polygon fill="#dccfb4" points="-1.021 -788.402 852.247 -292.536 1711.097 -788.394 857.829 -1284.26"/><path fill="#383838" d="M904.219,1095.947c125.972,73.207,330.91,73.228,457.74,0.002
																c63.806-36.838,95.672-85.203,95.535-133.495l0.068,39.067c0.137,48.292-31.73,96.657-95.535,133.495
																c-126.83,73.225-331.769,73.205-457.741-0.002c-7.044-4.094-13.643-8.365-19.934-12.735l-0.068-39.067
																C890.576,1087.582,897.175,1091.854,904.219,1095.947z"/><path fill="#585b5b" d="M884.285,1083.212c6.291,4.37,12.89,8.642,19.934,12.735
																c125.972,73.207,330.911,73.228,457.741,0.002c126.796-73.206,127.464-191.934,1.492-265.141
																c-7.044-4.093-14.396-7.93-21.92-11.588L884.285,1083.212z"/><path fill="#424140" d="M1312.87,1015.452c52.469-30.293,78.672-70.052,78.559-109.746l0.068,39.067
																c0.113,39.694-26.09,79.453-78.559,109.746c-104.225,60.174-272.703,60.193-376.93-0.417l-0.068-36.233
																C1040.168,1078.479,1208.645,1075.626,1312.87,1015.452z"/><path fill="#696969" d="M935.94,1017.87c104.228,60.61,272.706,57.756,376.93-2.418
																c104.259-60.194,104.808-157.763,1.261-217.938L935.94,1017.87z"/><polygon fill="#8f8f8f" points="1185.024 427.851 1170.954 419.674 1172.173 849.483 1186.242 857.66"/><polygon fill="#5f8cba" points="1030.824 783.623 1030.081 521.511 1156.264 448.659 1157.007 710.772 1030.824 783.623"/><polygon fill="#556167" points="1008.323 944.798 1013.385 947.646 1012.167 517.838 1007.104 514.989"/><polygon fill="#8fa2ac" points="1009.082 520.653 1001.069 515.996 1002.288 945.805 1010.3 950.461"/><polygon fill="#495157" points="1177.204 423.587 1169.191 418.931 1001.069 515.996 1009.082 520.653"/><path fill="#5d6970" d="M1178.422,853.396L1010.3,950.461l-1.219-429.809l168.122-97.066L1178.422,853.396z"/><polygon fill="#546066" points="1154.01 837.733 1160.52 841.437 1160.216 734.394 1153.752 746.756"/><polygon fill="#4e5a5e" points="1044.858 900.752 1037.386 912.529 1160.52 841.437 1154.01 837.733"/><polygon fill="#71828a" points="1044.6 809.775 1044.858 900.752 1154.01 837.733 1153.752 746.756"/><polygon fill="#606e75" points="1153.752 746.756 1160.216 734.394 1037.083 805.485 1044.6 809.775"/><polygon fill="#80929b" points="1037.083 805.485 1034.885 804.208 1035.189 911.252 1037.386 912.529"/><polygon fill="#90a4ae" points="1160.216 734.394 1158.019 733.117 1034.885 804.208 1037.083 805.485"/><polygon fill="#606e75" points="1044.6 809.775 1037.083 805.485 1037.386 912.529 1044.858 900.752"/><polygon fill="#546066" points="1154.01 701.137 1160.52 704.841 1160.216 456.066 1153.752 468.428"/><polygon fill="#4e5a5e" points="1044.858 764.156 1037.386 775.933 1160.52 704.841 1154.01 701.137"/><polygon fill="#71828a" points="1044.6 531.447 1044.858 764.156 1154.01 701.137 1153.752 468.428"/><polygon fill="#606e75" points="1153.752 468.428 1160.216 456.066 1037.083 527.157 1044.6 531.447"/><polygon fill="#80929b" points="1037.083 527.157 1034.885 525.88 1035.189 774.656 1037.386 775.933"/><polygon fill="#90a4ae" points="1160.216 456.066 1158.019 454.789 1034.885 525.88 1037.083 527.157"/><polygon fill="#606e75" points="1044.6 531.447 1037.083 527.157 1037.386 775.933 1044.858 764.156"/><path fill="#9e9a29" d="M1019.551,784.724c1.716-0.991,3.272-1.083,4.396-0.429l7.885,4.582
															c-1.124-0.653-2.68-0.561-4.396,0.43c-3.393,1.959-6.152,6.737-6.141,10.657c0.006,1.95,0.696,3.321,1.805,3.966
															l-7.885-4.582c-1.11-0.645-1.8-2.016-1.805-3.966C1013.399,791.462,1016.158,786.683,1019.551,784.724z"/><path fill="#ebe32f" d="M1027.436,789.307c-3.393,1.959-6.152,6.737-6.141,10.657
																c0.011,3.919,2.788,5.502,6.181,3.543c3.411-1.969,6.17-6.748,6.159-10.667
																C1033.624,788.92,1030.847,787.338,1027.436,789.307z"/><polygon fill="#bababa" points="1196.486 415.461 1185.024 427.851 1186.242 857.66 1197.705 856.247"/><g><polygon fill="#8f8f8f" points="1011.838 522.067 1010.179 528.745 1185.024 427.851 1196.486 415.461"/></g><polygon fill="#b8b8b8" points="1211.429 845.4 1216.415 845.4 1219.927 839.976 1219.927 367.313 1211.429 367.313"/><g><polygon fill="#d1d1d1" points="993.187 511.438 994.466 973.151 1013.057 962.417 1011.838 522.067 1196.486 415.461 1197.705 856.247 1216.296 845.513 1215.017 383.365"/></g><g><polygon fill="#e3e3e3" points="981.67 504.839 967.601 496.663 968.934 966.824 983.003 975"/></g><g><polygon fill="#dbdbdb" points="993.187 511.438 981.67 504.839 983.003 975 994.466 973.151"/></g><g><polygon fill="#fdfdfd" points="1220.026 367.224 1205.957 359.048 967.601 496.663 981.67 504.839"/></g><g><polygon fill="#ededed" points="1215.017 383.365 1220.026 367.224 981.67 504.839 993.187 511.438"/></g><g><polygon fill="#f7f1eb" points="-.541 -114.782 81.119 -67.635 80.972 -32.662 -.393 -79.638"/><polygon fill="#f7f1eb" points="1.054 447.887 39.466 470.064 39.319 505.037 1.202 483.029"/><polygon fill="#f7f1eb" points="44.766 211.219 44.619 246.193 145.344 304.346 145.491 269.373"/><polygon fill="#f7f1eb" points="313.713 132.504 313.566 167.477 414.291 225.631 414.438 190.658"/><polygon fill="#f7f1eb" points="283.403 627.925 354.639 669.053 354.492 704.026 283.403 662.983"/><polygon fill="#f7f1eb" points="503.078 115.062 502.93 150.036 603.656 208.19 603.803 173.216"/><polygon fill="#f7f1eb" points="554.681 551.591 603.67 579.875 603.523 614.848 554.408 586.491"/><polygon fill="#f7f1eb" points="365.107 373.506 414.096 401.79 413.949 436.763 364.833 408.406"/><polygon fill="#f7f1eb" points="734.681 -26.707 783.67 1.577 783.523 36.55 734.408 8.193"/><polygon fill="#f7f1eb" points="852.858 410.465 771.647 363.577 771.794 328.604 852.71 375.321"/><polygon fill="#f7f1eb" points="853.624 680.614 809.513 655.146 809.66 620.173 853.476 645.471"/><polygon fill="#f7f1eb" points="688.489 862.516 688.341 897.49 789.067 955.643 789.214 920.67"/></g><g><polygon fill="#f7f1eb" points="1692.544 -142.222 1610.885 -95.075 1611.032 -60.102 1692.397 -107.078"/><polygon fill="#f7f1eb" points="1713.444 481.424 1675.032 503.601 1675.179 538.574 1713.297 516.567"/><polygon fill="#f7f1eb" points="1423.845 627.925 1352.609 669.053 1352.756 704.026 1423.845 662.983"/><polygon fill="#f7f1eb" points="1429.59 96.542 1358.353 137.67 1358.501 172.643 1429.59 131.6"/><polygon fill="#f7f1eb" points="1134.696 149.202 1063.46 190.33 1063.607 225.303 1134.696 184.26"/><polygon fill="#f7f1eb" points="1292.354 551.591 1243.365 579.875 1243.512 614.848 1292.627 586.491"/><polygon fill="#f7f1eb" points="854.39 410.465 935.601 363.577 935.454 328.604 854.537 375.321"/><polygon fill="#f7f1eb" points="853.624 680.614 897.735 655.146 897.588 620.173 853.772 645.471"/><polygon fill="#f7f1eb" points="943.322 811.633 943.322 846.691 901.249 870.982 901.102 836.009"/><polygon fill="#f7f1eb" points="965.351 101.683 965.351 136.742 923.277 161.033 923.13 126.06"/></g><g><polygon fill="#d6d6d6" points="1574.743 449.951 1573.947 168.391 1350.311 297.507 1351.11 579.071"/><polygon fill="#546c8f" points="1568.303 178.197 1355.994 300.777 1356.754 569.26 1569.064 446.685"/><polygon fill="#f5f5f5" points="1550.382 431.312 1540.193 425.391 1461.12 471.045 1471.308 476.966"/><polygon fill="#e8e8e8" points="1550.105 333.615 1539.916 327.695 1540.193 425.391 1550.382 431.312"/><polygon fill="#f5f5f5" points="1454.396 486.73 1444.208 480.809 1365.103 526.483 1375.288 532.403"/><polygon fill="#e8e8e8" points="1454.119 389.037 1443.931 383.116 1444.208 480.809 1454.396 486.73"/><polygon fill="#f5f5f5" points="1550.047 312.751 1539.858 306.83 1460.785 352.48 1470.973 358.401"/><polygon fill="#e8e8e8" points="1549.77 215.054 1539.581 209.134 1539.858 306.83 1550.047 312.751"/><polygon fill="#f5f5f5" points="1454.061 368.169 1443.872 362.248 1364.764 407.918 1374.952 413.838"/><polygon fill="#e8e8e8" points="1453.78 270.472 1443.595 264.552 1443.872 362.248 1454.061 368.169"/><path fill="#d4d4d4" d="M1569.064,446.685l-212.31,122.576l-0.76-268.483l212.309-122.58L1569.064,446.685z
															 M1375.288,532.403l79.109-45.674l-0.277-97.693l-79.108,45.67L1375.288,532.403L1375.288,532.403z M1374.952,413.838
															l79.109-45.67l-0.281-97.697l-79.104,45.67L1374.952,413.838L1374.952,413.838z M1470.973,358.401l79.073-45.65
															l-0.277-97.696l-79.073,45.654L1470.973,358.401L1470.973,358.401z M1471.308,476.966l79.073-45.654l-0.277-97.697
															l-79.074,45.654L1471.308,476.966L1471.308,476.966z"/></g></g><path fill="#e6e6e6" d="M772.676,140.754c6.103,3.525,11.036,12.073,11.016,19.09l-0.278,97.91
											c-0.02,7.017-4.985,9.848-11.088,6.322L586.748,156.88c-6.104-3.526-11.036-12.073-11.016-19.09l0.277-97.91
											c0.02-7.017,4.985-9.847,11.088-6.322L772.676,140.754z"/><path fill="#ebebeb" d="M766.056,144.428L591.254,43.457c-2.893-1.671-5.515-1.826-7.407-0.725L573.29,48.87
											c1.893-1.101,4.514-0.946,7.407,0.725l174.802,100.971c5.749,3.321,10.395,11.372,10.376,17.982l-0.261,92.224
											c-0.009,3.283-1.168,5.594-3.037,6.68l10.557-6.138c1.869-1.087,3.028-3.397,3.037-6.68l0.261-92.224
											C776.451,155.8,771.805,147.749,766.056,144.428z"/><path fill="#707070" d="M755.499,150.566c5.749,3.321,10.395,11.372,10.377,17.982l-0.261,92.224
												c-0.019,6.609-4.695,9.276-10.444,5.955L580.368,165.755c-5.749-3.321-10.395-11.372-10.377-17.982l0.261-92.224
												c0.019-6.609,4.695-9.276,10.444-5.955L755.499,150.566z"/><polygon fill="#888" points="352.218 386.175 320.088 367.494 319.986 331.666 352.117 350.347"/><polygon fill="#ababab" points="352.117 350.347 319.986 331.666 648.691 141.796 680.821 160.477"/><polygon fill="#8a8a8a" points="680.821 160.477 680.923 196.305 352.218 386.175 352.117 350.347"/><path fill="#fff" d="M733.537,157.141c2.124-1.235,5.061-1.067,8.292,0.8
											c6.421,3.709,11.647,12.764,11.626,20.146c-0.01,3.668-1.314,6.253-3.41,7.472l-6.348,3.8
											c2.096-1.219,3.399-3.804,3.41-7.472c0.021-7.383-5.204-16.437-11.626-20.146c-3.232-1.867-6.169-2.035-8.292-0.8
											L733.537,157.141z"/><path fill="#807b7a" d="M735.482,161.741c-6.422-3.709-11.681-0.711-11.702,6.671
												c-0.021,7.383,5.204,16.437,11.626,20.146c6.422,3.709,11.681,0.711,11.702-6.672
												C747.128,174.505,741.903,165.45,735.482,161.741z"/><path fill="#fff" d="M732.866,216.898c2.124-1.235,5.061-1.067,8.292,0.8
											c6.421,3.709,11.646,12.764,11.626,20.146c-0.01,3.667-1.314,6.253-3.41,7.472l-6.348,3.8
											c2.096-1.219,3.399-3.804,3.41-7.472c0.021-7.383-5.204-16.437-11.626-20.146c-3.232-1.867-6.169-2.035-8.292-0.8
											L732.866,216.898z"/><path fill="#807b7a" d="M734.811,221.499c-6.422-3.709-11.681-0.711-11.702,6.672
												c-0.021,7.382,5.204,16.437,11.626,20.146c6.422,3.709,11.681,0.711,11.702-6.672
												C746.457,234.263,741.232,225.208,734.811,221.499z"/><path fill="#fff" d="M589.249,71.197c2.124-1.235,5.061-1.067,8.292,0.8
											c6.421,3.709,11.646,12.764,11.626,20.146c-0.01,3.668-1.314,6.253-3.41,7.472l-6.348,3.8
											c2.096-1.219,3.399-3.804,3.41-7.472c0.021-7.383-5.204-16.437-11.626-20.146c-3.232-1.867-6.169-2.035-8.292-0.8
											L589.249,71.197z"/><path fill="#807b7a" d="M591.193,75.797c-6.422-3.709-11.681-0.711-11.702,6.671
												c-0.021,7.382,5.204,16.437,11.626,20.146c6.421,3.709,11.681,0.711,11.702-6.672
												C602.84,88.561,597.615,79.506,591.193,75.797z"/><g><path fill="#fff" d="M588.578,130.954c2.124-1.235,5.061-1.067,8.292,0.8
											c6.421,3.709,11.646,12.764,11.625,20.146c-0.01,3.667-1.313,6.253-3.409,7.472l-6.348,3.8
											c2.096-1.219,3.399-3.804,3.409-7.472c0.021-7.383-5.204-16.437-11.625-20.146c-3.232-1.867-6.169-2.035-8.292-0.8
											L588.578,130.954z"/><path fill="#807b7a" d="M590.522,135.555c-6.422-3.709-11.681-0.711-11.702,6.672
												c-0.021,7.383,5.204,16.437,11.626,20.146c6.422,3.709,11.681,0.711,11.702-6.672
												C602.169,148.319,596.943,139.264,590.522,135.555z"/></g><g><path fill="#999" d="M636.884,678.352L636.884,678.352l73.134-78.113L290.928,154.75L256.22,272.378
											c0,0-0.046,0.621,0.132,0.812l380.664,405.975C636.837,678.974,636.779,678.707,636.884,678.352z"/><path fill="#f2f2f2" d="M709.062,599.803c-13.315,15.305-72.178,78.55-72.178,78.55
											c-0.361,1.225,1.22,1.403,2.993,0.981c1.805-0.43,4.593-0.119,4.948-1.322c0,0,58.16-58.204,69.05-73.278
											C714.958,603.234,710.276,598.408,709.062,599.803z"/><path fill="#4a4a4a" d="M289.096,174.332c-1.915-2.038-5.18-2.804-9.333-1.815l-170.662,40.646
											c-8.241,1.963-16.871,10.116-19.261,18.217L54.237,352.039c-1.185,4.015-0.609,7.261,1.28,9.271l388.692,414.246
											c-1.889-2.01-2.465-5.256-1.28-9.271l35.603-120.659c2.39-8.101,11.021-16.255,19.261-18.217l170.662-40.646
											c4.153-0.989,7.418-0.223,9.333,1.815L289.096,174.332z"/><path fill="#a1a1a1" d="M668.455,586.762c8.253-1.966,13,3.002,10.61,11.103l-35.603,120.659
												c-2.387,8.089-11.005,16.239-19.258,18.205l-170.662,40.646c-8.241,1.963-13-3.002-10.613-11.091l35.603-120.659
												c2.39-8.101,11.021-16.255,19.261-18.217L668.455,586.762z"/><path fill="#737373" d="M654.852,624.31c0.949-3.216,0.489-5.815-1.023-7.425c-1.532-1.63-4.142-2.244-7.461-1.454
											l-6.968,1.66l-21.435,72.641c-1.91,6.474-8.808,12.997-15.403,14.568l-121.929,29.039l-2.072,7.023
											c-0.95,3.219-0.491,5.821,1.021,7.431c1.529,1.628,4.135,2.241,7.451,1.451l128.91-30.702
											c6.595-1.571,13.493-8.094,15.403-14.568L654.852,624.31z"/><path fill="#4adeff" d="M517.458,646.133c-6.595,1.571-13.48,8.091-15.39,14.565l-21.434,72.641l121.929-29.04
											c6.595-1.571,13.492-8.094,15.403-14.568l21.435-72.641L517.458,646.133z"/><path fill="#999" d="M710.161,596.792c1.185-4.015,0.402-7.288-1.491-9.303L290.536,142.437
											c1.893,2.014,2.472,5.267,1.287,9.282l-0.894,3.031l418.134,445.052L710.161,596.792z"/><path fill="#e8e8e8" d="M297.079,136.283c-2.832-3.014-7.655-4.154-13.781-2.695l-170.674,40.649l418.134,445.052
											l170.674-40.649c6.126-1.459,10.949-0.32,13.781,2.695L297.079,136.283z"/><path fill="#f2f2f2" d="M718.163,595.146c2.282-12.255-4.551-19.406-16.731-16.505l-10.011,2.384l-160.663,38.265
												c-12.18,2.901-21.962,16.328-28.49,26.946c-14.276,23.221-79.38,74.726-79.38,74.726
												c-0.355,1.203,6.102,0.739,7.907,0.309c1.773-0.422,3.055-1.885,4.068-2.663c23.843-18.312,61.321-49.322,75.597-72.542
												c4.41-7.173,9.997-17.792,18.225-19.752l167.75-39.953l2.925-0.697c8.228-1.96,12.892,3.64,10.597,11.106
												c-0.232,0.755-0.633,2.499-1.071,3.156c-1.329,1.993,3.726,6.154,4.99,4.805
												C716.244,602.203,717.68,597.741,718.163,595.146z"/><path fill="#bababa" d="M530.758,619.291L112.624,174.238c-12.18,2.901-24.962,14.99-28.49,26.946L48.531,321.842
											c-0.1,0.339-0.042,0.597,0.133,0.783l374.357,399.12c-0.175-0.186-0.233-0.444-0.133-0.783
											c0,0,65.104-51.505,79.38-74.726C508.796,635.618,518.578,622.192,530.758,619.291z"/><path fill="#fff" d="M635.209,718.815c-0.57-0.607-1.54-0.836-2.769-0.544
											c-2.443,0.582-5.016,3.015-5.724,5.414c-0.352,1.192-0.179,2.157,0.384,2.756l1.693,1.849
											c-0.562-0.599-0.735-1.564-0.384-2.756c0.708-2.399,3.28-4.831,5.724-5.414c1.23-0.293,2.199-0.063,2.769,0.544
											L635.209,718.815z"/><path fill="#807b7a" d="M634.132,720.12c2.444-0.582,3.861,0.901,3.153,3.299s-3.28,4.831-5.724,5.414
												c-2.443,0.582-3.86-0.901-3.153-3.299C629.116,723.135,631.689,720.702,634.132,720.12z"/><path fill="#fff" d="M668.326,601.657c-0.57-0.607-1.54-0.836-2.769-0.544
											c-2.443,0.582-5.016,3.015-5.724,5.414c-0.352,1.192-0.179,2.157,0.384,2.756l1.693,1.849
											c-0.563-0.599-0.735-1.564-0.384-2.756c0.708-2.399,3.28-4.831,5.724-5.414c1.23-0.293,2.199-0.063,2.769,0.544
											L668.326,601.657z"/><path fill="#807b7a" d="M667.25,602.962c2.444-0.582,3.861,0.901,3.153,3.299s-3.28,4.831-5.724,5.414
												c-2.443,0.582-3.86-0.901-3.153-3.299S664.806,603.544,667.25,602.962z"/><g><path fill="#fff" d="M467.263,752.782c-0.57-0.607-1.54-0.836-2.769-0.544
											c-2.443,0.582-5.016,3.015-5.724,5.414c-0.352,1.192-0.179,2.157,0.384,2.756l1.693,1.849
											c-0.562-0.599-0.735-1.564-0.384-2.756c0.708-2.399,3.28-4.831,5.724-5.414c1.23-0.293,2.199-0.063,2.769,0.544
											L467.263,752.782z"/><path fill="#807b7a" d="M466.187,754.087c2.444-0.582,3.861,0.901,3.153,3.299s-3.28,4.831-5.724,5.413
												c-2.444,0.582-3.861-0.901-3.153-3.299C461.171,757.102,463.743,754.669,466.187,754.087z"/></g></g><path fill="#ffec89" d="M1551.592,1618.342C1408.896,1409.816,639.559,617.498,639.399,617.091
								c-0.044-0.111-0.125-0.065-0.227,0.054l-121.714,28.989c-6.595,1.571-13.48,8.091-15.39,14.565l-21.434,72.641l0.035-0.008
								c-0.009,0.058-0.027,0.123-0.012,0.161c0.179,0.456,310.116,1085.924,310.116,1085.924
								C954.66,1971.032,1649.117,2040.85,1551.592,1618.342z" opacity=".5"/></g><g><path fill="#93b6cf" d="M1442.393,1379.161c-29.661,35.919-71.031,31.05-104.746,3.21
										c-33.715-27.84-47.007-68.109-17.346-104.028c29.661-35.919,97.071-61.887,130.786-34.047
										C1484.801,1272.137,1472.053,1343.242,1442.393,1379.161z"/><path fill="#829ea1" d="M1426.427,1389.434c-1.721,2.084-3.478,4.044-5.265,5.892
										c6.506-4.01,12.566-9.386,18.071-16.052c14.403-17.442,24.986-43.995,27.62-69.297c1.36-13.068,0.557-25.476-2.322-35.883
										c-3.153-11.397-5.667-0.776-5.052,14.955C1460.844,1323.925,1447.256,1364.211,1426.427,1389.434z"/><path fill="#d9d9d9" d="M1323.204,1279.395c-29.66,35.919-16.368,76.188,17.346,104.028
										c7.676,6.339,15.749,11.481,23.99,15.227c-35.41-38.593-45.283-88.493-8.018-133.622
										c7.412-8.976,16.464-17.518,26.614-25.298C1359.753,1247.62,1337.247,1262.389,1323.204,1279.395z"/><path fill="#d1d1d1" d="M1344.585,1373.969c-32.4-26.754-45.931-64.986-20.615-99.806
										c-1.276,1.377-2.505,2.769-3.67,4.179c-29.661,35.919-16.368,76.188,17.346,104.028
										c33.715,27.84,75.085,32.709,104.746-3.21c1.157-1.401,2.285-2.862,3.389-4.366
										C1416.431,1406.254,1376.976,1400.716,1344.585,1373.969z"/><path fill="#696969" d="M1687.018,1388.992c15.323,2.67,26.985-26.688,19.104-39.761
										c-87.779-29.078-132.379-85.297-163.511-59.823c-11.966,9.791-6.432,42.148,12.416,54.711
										C1598.206,1372.9,1649.505,1382.457,1687.018,1388.992z"/><path fill="#4d4d4d" d="M1656.492,1272.505c0.156,3.466,2.828,13.951,4.531,26.039l25.445,20.964l12.268-17.119
												c-3.104-15.001-4.912-28.367-6.41-35.213C1688.421,1257.026,1663.282,1256.444,1656.492,1272.505z"/><path fill="#f0c7ad" d="M1660.196,1259.652c0.231,12.208,2.726,30.871,2.726,30.871l31.424,0.752
												c0,0-9.17-27.663-8.558-36.123C1685.808,1254.883,1660.15,1257.168,1660.196,1259.652z"/><path fill="#696969" d="M1656.492,1272.505c3.663,7.68,29.464,10.935,35.834-5.328
												c4.087,18.684,19.932,87.068,16.003,99.67c-3.364,10.788-34.676,6.813-39.348-7.587
												C1667.454,1354.552,1656.968,1283.044,1656.492,1272.505z"/><path fill="#f0c7ad" d="M1620.218,1238.419c3.855-9.335,19.054,5.483,24.265,3.309
										c6.836-2.851-2.318-18.08-2.318-18.08s-16.085-30.083-15.121-31.122c1.43-1.539,3.963-3.444,6.686,1.129
										c1.229,2.064,21.158,33.03,21.158,33.03s-14.817-34.625-16.545-38.458c-1.473-3.267,3.46-4.17,4.866-1.802
										c0.45,0.757,3.857,6.881,7.823,14.029c6.106,11.004,13.536,24.432,13.536,24.432s-8.334-26.058-9.775-30.151
										c-0.592-1.683,0.843-6.391,4.989,0.735c3.171,5.45,9.234,18.745,13.338,27.456c0.646,1.37,1.197,2.388,1.693,3.195
										c-0.28-3.544-0.986-12.323-1.378-15.729c-0.204-1.773,1.408-5.951,3.869,1.918c1.881,6.018,1.759,5.539,3.827,14.944
										c0.663,3.016,1.365,5.811,2.021,8.272c4.266,7.553,5.465,14.756,0.715,28.569c-1.198,4.039-7.135,6.655-12.267,4.674
										c-5.132-1.981-14.504-3.803-17.792-6.11c-3.288-2.307-11.489-7.33-17.08-10.859
										C1631.1,1248.246,1620.218,1238.419,1620.218,1238.419z"/><path d="M1249.372,1613.402c-38.8,16.545-43.084,50.483-9.591,75.785
										c11.615,8.774,26.281,15.37,42.089,19.543c96.527,25.787,125.257,41.755,138.186,114.192
										c2.333,13.025,11.122,26.312,26.659,38.049c40.518,30.609,111.395,39.182,158.312,19.176
										c46.918-20.006,52.142-61.029,11.623-91.638c-15.88-11.996-36.428-20.584-58.391-25.419
										c-119.058-26.306-138.663-46.277-156.686-105.696c-3.055-10.129-10.03-19.621-21.283-28.122
										C1346.798,1603.971,1288.172,1596.858,1249.372,1613.402z" opacity=".1"/><path fill="#1a130f" d="M1548.553,1837.076c0,0-23.182-11.241-27.641-17.727
												c-1.048-1.525-2.355-9.422-2.355-9.422l36.943,20.85L1548.553,1837.076z"/><path fill="#2e231b" d="M1548.553,1837.076c0,0-24.645-11.039-29.104-17.525
												c-1.048-1.525-0.892-9.625-0.892-9.625l30.81,18.3L1548.553,1837.076z"/><path fill="#2e231b" d="M1628.573,1838.389c1.391-13.381-34.526-28.631-62.568-38.758
												c-28.043-10.127-40.624-21.949-46.491-5.703c-5.867,16.246-0.268,27.389,27.775,37.516
												c12.642,4.565,24.745,16.256,40.503,20.546C1604.671,1856.586,1627.268,1850.937,1628.573,1838.389z"/><path fill="#6d6e71" d="M1628.718,1836.323c4.125-12.805-34.526-28.631-62.568-38.758
												c-28.043-10.127-40.624-21.949-46.491-5.703c-5.867,16.246-0.04,26.548,28.003,36.675
												c12.642,4.565,27.479,15.501,43.403,19.127C1605.912,1851.045,1625.772,1845.468,1628.718,1836.323z"/><path fill="#2e2e2e" d="M1483.88,1662.097l34.458,144.738c9.618,18.934,49.217,11.728,47.333-6.91
													c0,0-17.808-145.864-21.177-148.752C1529.136,1638.01,1483.88,1662.097,1483.88,1662.097z"/><path fill="#2e2e2e" d="M1463.634,1446.129l-67.146,55.821c35.588,42.362,70.152,115.742,87.391,160.391
													c0,0,61.61-6.687,60.671-11.167C1537.359,1616.839,1498.069,1486.638,1463.634,1446.129z"/><polygon fill="#1a130f" points="1206.061 1440.733 1198.159 1449.347 1195.66 1440.574"/><path fill="#2e231b" d="M1197.568,1446.353l28.124,21.343c13.575-11.635,25.576-16.835,17.841-29.583
											c-9.309-15.34-26.563-18.479-47.78,2.382c1.192,0.992,3.564,2.435,4.967,3.155
											C1199.744,1444.573,1198.687,1445.472,1197.568,1446.353z"/><path fill="#2e231b" d="M1159.647,1516.53c10.828,10.062,36.503-15.615,60.415-38.006
											c19.59-18.345,34.181-23.955,20.739-37.352c-13.442-13.397-22.977-14.361-42.969,4.542
											c-10.731,10.146-24.578,17.019-35.594,31.183C1151.967,1490.104,1151.915,1509.344,1159.647,1516.53z"/><path fill="#6d6e71" d="M1159.903,1522.537c10.828,10.062,36.504-15.614,60.415-38.006
											c19.59-18.345,33.387-32.338,23.867-42.427c-13.025-13.802-22.449-12.681-46.096,9.617
											c-10.745,10.131-24.578,17.019-35.594,31.183C1152.223,1496.112,1152.171,1515.352,1159.903,1522.537z"/><path fill="#3d3d3d" d="M1198.658,1465.867c-3.692-7.555,27.23-43.126,47.015-16.896l48.437,91.165
											c37.666-29.528,55.815-57.47,85.934-103.881l74.202,46.39c-32.411,50.582-135.3,145.974-173.148,145.628
											C1253.69,1628.022,1198.658,1465.867,1198.658,1465.867z"/><g><path fill="#db3939" d="M1468.888,1523.969l-0.106,0.073C1468.802,1524.052,1468.838,1524.025,1468.888,1523.969z"/><path fill="#525252" d="M1578.288,1302.764c-3.978-17.373-5.89-33.472-18.105-36.212
											c0.66,1.603-3.038-13.014-2.814-8.102c0,0-30.482,4.807-38.2-7.49c-6.313-10.059,10.083-9.45,7.63-11.417
											c-11.448-9.185-36.407-2.175-43.207-1.568c-19.349,1.73-35.072,18.851-43.334,37.568
											c-8.873,20.099-28.356,65.687-36.689,91.219c-6.572,20.138-29.802,80.387-29.802,80.387
											c-1.33,20.32,84.546,80.365,113.617,42.766C1521.452,1445.854,1588.274,1346.38,1578.288,1302.764z"/></g><path fill="#333" d="M1508.496,1259.01c2.308,15.23,44.24,35.738,56.828,19.274
										c3.321-4.344-0.305-13.557-5.708-14.406c0,0-31.204-18.247-43.443-20.598
										C1512.782,1242.63,1506.624,1246.652,1508.496,1259.01z"/><path fill="#d9b49c" d="M1564.265,1271.424c0,0-14.523,15.935-40.976-3.051c-8.12-5.828-14.82-16.873-7.865-24.343
										l19.833-13.266l26.17,8.936L1564.265,1271.424z"/><g><path fill="#f0c7ad" d="M1602.465,1251.468c-18.192,29.933-27.452,57.602-44.229,50.487
												c-35.969-15.253-46.545-57.969-41.074-80.021c4.65-18.746,11.974-33.119,23.531-41.442
												c11.557-8.322,28.002-6.374,41.043-0.324c14.949,6.936,25.679,15.384,28.952,31.506
												C1613.126,1223.684,1611.029,1237.377,1602.465,1251.468z"/><defs><path id="e" d="M1615.093,1217.035c0.247,14.096-1.759,6.57-23.843,6.768
														c-27.955,0.25-78.612,5.653-77.386-8.18c2.468-27.842,33.688-50.146,51.31-49.9
														C1582.797,1165.969,1614.603,1189.087,1615.093,1217.035z"/></defs><use fill="#696969" overflow="visible" xlink:href="#e"/><clipPath id="f"><use overflow="visible" xlink:href="#e"/></clipPath><g clip-path="url(#f)"><rect width="1.816" height="66.938" x="1563.052" y="1159.676" fill="#3b3b3b" transform="matrix(1 -.0073 .0073 1 -8.704 11.497)"/><path fill="#3b3b3b" d="M1582.106,1226.772c-3.723-23.984-10.247-46.455-19.395-66.792l1.66-0.747
															c9.211,20.486,15.784,43.115,19.531,67.261L1582.106,1226.772z"/><path fill="#3b3b3b" d="M1603.031,1230.214c-6.04-23.821-19.639-47.346-40.42-69.929l1.338-1.23
															c20.989,22.808,34.729,46.597,40.845,70.71L1603.031,1230.214z"/><path fill="#3b3b3b" d="M1614.347,1227.49c-3.044-21.707-20.518-51.897-51.68-66.895l0.786-1.641
															c31.768,15.288,49.585,46.113,52.695,68.281L1614.347,1227.49z"/><path fill="#3b3b3b" d="M1548.781,1226.747l-1.812-0.166c2.227-24.326,7.368-47.322,15.281-68.345l1.699,0.64
															C1556.095,1179.748,1550.993,1202.582,1548.781,1226.747z"/><path fill="#3b3b3b" d="M1528.114,1231.484l-1.787-0.337c4.592-24.448,16.816-49.048,36.333-73.115
															l1.411,1.145C1544.748,1183.007,1532.651,1207.336,1528.114,1231.484z"/><path fill="#3b3b3b" d="M1516.647,1229.469l-1.812-0.142c1.721-22.412,18.489-58.621,50.378-68.943
															l0.562,1.729C1534.684,1172.177,1518.329,1207.558,1516.647,1229.469z"/></g><path fill="#454545" d="M1516.473,1221.875c-5.926-3.169-6.248-7.496-5.914-9.794
												c0.394-2.695,0.137-2.284,0.989-4.839c4.031-12.083,107.026,2.734,106.892,12.618c-0.072,5.274-0.512,8.609-2.991,10.527
												c-2.395,1.856-5.277,1.23-9.264,0.365c-3.533-0.767-8.371-1.817-15.561-2.16c-5.492-0.262-11.883-0.375-18.65-0.492
												C1549.686,1227.711,1526.637,1227.309,1516.473,1221.875z"/><path fill="#4f4f4f" d="M1603,1253.366c0,0-6.261,1.455-8.345,1.152c-2.82-0.409-9.671-6.457-12.46-7.041
												c-8.059-1.689-22.713,3.986-30.853,2.748c-9.257-1.409-36.167-11.712-36.167-11.712l0.305-6.283
												c0,0,32.811-1.132,43.367-0.255c6.715,0.557,19.504,5.706,26.238,5.956c4.166,0.155,12.695-3.286,16.842-2.86
												c2.054,0.211,7.858,2.551,7.858,2.551L1603,1253.366z"/><path fill="#f0c7ad" d="M1563.76,1242.331c-0.426,2.386-4.328,3.685-8.717,2.901
												c-4.388-0.784-7.6-3.353-7.174-5.739c0.426-2.386,4.328-3.685,8.717-2.901S1564.186,1239.945,1563.76,1242.331z"/><path fill="#f0c7ad" d="M1604.088,1244.775c-0.315,2.403-3.352,3.987-6.783,3.538
											c-3.431-0.45-5.957-2.762-5.642-5.166c0.315-2.403,3.352-3.987,6.783-3.538S1604.403,1242.371,1604.088,1244.775z"/></g><g><path fill="#93b6cf" d="M1440.047,1267.257l-16.776-33.97c0,0,31.029,2.389,41.352,6.724
									c32.647,13.709,48.645,28.681,30.391,72.984c-7.969,19.339,14.152,45.533,14.152,45.533
									c0.873,14.862-30.81,3.061-40.405,9.435c0,0,11.853-46.777,16.613-63.787c7.113-25.416-14.113-40.932-16.818-42.046
									C1451.122,1254.951,1440.047,1267.257,1440.047,1267.257z"/></g><g><path fill="#d6d6d6" d="M1488.246,1271.359c-21.303-21.907-41.223-20.057-62.585-8.917
									C1432.833,1246.802,1464.33,1243.06,1488.246,1271.359z"/><path fill="#d6d6d6" d="M1431.548,1258.434c9.021-5.296,16.011-8.194,34.957-3.278
									C1450.08,1251.847,1444.648,1253.989,1431.548,1258.434z"/><path fill="#d6d6d6" d="M1448.473,1249.229c-30.369-3.394-68.053,24.091-77.478,46.264
									C1366.602,1278.856,1412.026,1242.557,1448.473,1249.229z"/><path fill="#d6d6d6" d="M1372.96,1288.725c1.274-3.551,3.953-7.62,7.864-11.847
									c7.35-7.939,18.109-15.544,30.005-20.657C1394.893,1264.159,1380.542,1276.498,1372.96,1288.725z"/><path fill="#d6d6d6" d="M1492.963,1266.847c-28.7-29.399-74.007-30.619-102.7-15.585
									C1399.866,1230.215,1460.733,1228.86,1492.963,1266.847z"/><path fill="#d6d6d6" d="M1395.247,1247.524c12.925-9.674,37.626-13.509,71.258,0.044
									C1437.634,1237.722,1416.565,1239.58,1395.247,1247.524z"/></g><path fill="#696969" d="M1467.492,1309.118c9.154-17.597-3.718-61.185-21.815-41.852
								c-17.152,18.323-56.633,65.457-72.779,88.936c-6.459,9.393-10.788,31.6,2.165,31.763
								C1377.484,1387.995,1451.354,1340.139,1467.492,1309.118z"/><g><path fill="#414042" d="M1433.854,1338.656c4.059-0.266,5.227-3.12,10.773-3.988
										c10.432-1.031,16.574,31.834,8.546,38.354c-4.261,1.569-9.447,2.777-15.178,5.127
										C1434.691,1379.505,1430.374,1338.884,1433.854,1338.656z"/><path fill="#f0c7ad" d="M1456.147,1337.949c-9.968,4.91-21.297,2.53-21.297,2.53l-4.087,34.76
										c0,0,24.91-13.567,31.178-18.228C1462.146,1356.859,1458.258,1336.91,1456.147,1337.949z"/><path fill="#828282" d="M1444.354,1334.667c0,0,0.128,36.887,8.409,38.559
										c-17.001,6.261-64.598,27.474-76.743,23.656c-10.212-3.21-11.66-26.389,6.082-39.128
										C1386.578,1354.542,1434.526,1336.483,1444.354,1334.667z"/><path fill="#f0c7ad" d="M1497.345,1312.923c-3.408-1.686-16.8-1.785-18.022,2.738
									c-2.591,9.591-11.92,9.602-14.486,15.967c-2.431,6.029-19.664,9.193-19.664,9.193l2.872,24.612
									c0,0,14.671-5.86,25.168-5.018c8.109,0.65,25.656-9.757,27.816-14.025
									C1505.014,1338.515,1500.57,1314.519,1497.345,1312.923z"/></g><path fill="#f0c7ad" d="M1479.384,1305.623c0.405-0.692,1.3-0.961,1.985-0.546c2.115,1.282,3.773,4.725,1.169,8.4
								c-2.297,3.241-6.362,8.804-3.939,13.931l-14.283,7.772c0,0,3-10.589,3.561-12.833
								C1468.931,1318.133,1477.847,1308.252,1479.384,1305.623z"/><g><path fill="#d45835" d="M1636.423,1158.701l-20.252-11.759c21.433-22.871,39.507-50.987,49.471-78.587
											l20.252,11.762C1675.927,1107.714,1657.856,1135.83,1636.423,1158.701z"/><path fill="#d45835" d="M1829.355,798.851c-20.357-11.829-48.552-10.161-79.665,7.804
											c-61.825,35.693-111.788,122.229-111.586,193.284c0.09,32.195,10.465,55.676,27.539,68.417l20.252,11.762
											c-17.077-12.744-27.448-36.225-27.539-68.42c-0.202-71.055,49.761-157.59,111.583-193.284
											c31.116-17.964,59.311-19.632,79.665-7.804L1829.355,798.851z"/><path fill="#ff6a40" d="M1769.938,818.413c61.837-35.699,112.123-7.045,112.325,64.01
												c0.202,71.043-49.761,157.578-111.596,193.277c-14.445,8.339-28.267,13.161-40.96,14.756
												c-19.596,22.031-44.377,42.443-68.224,56.208c-8.568,4.949-17.016,9.04-25.062,12.037
												c21.433-22.871,39.504-50.987,49.471-78.583c-17.077-12.744-27.448-36.225-27.539-68.42
												C1658.153,940.642,1708.117,854.107,1769.938,818.413z"/><path fill="#fff" d="M1775.717,958.832c7.053-4.072,12.787-0.804,12.81,7.3l0.069,24.479
										c0.023,8.104-5.674,17.979-12.727,22.051l-4.966,2.867c-7.053,4.072-12.787,0.797-12.81-7.307l-0.069-24.479
										c-0.023-8.104,5.674-17.972,12.727-22.044L1775.717,958.832z"/><path fill="#fff" d="M1772.953,860.11c42.969-24.808,78.045-4.82,78.185,44.562
										c0.14,49.375-34.707,109.74-77.677,134.548c-42.975,24.812-78.05,4.817-78.19-44.558
										C1695.13,945.279,1729.977,884.922,1772.953,860.11z M1773.432,1029.267c38.197-22.053,69.174-75.707,69.049-119.598
										c-0.124-43.899-31.303-61.667-69.501-39.613c-38.203,22.057-69.18,75.71-69.055,119.609
										C1704.05,1033.556,1735.229,1051.323,1773.432,1029.267L1773.432,1029.267z"/><path fill="#fff" d="M1800.806,890.839c9.103-5.256,16.531-1.016,16.56,9.438
										c0.03,10.46-7.35,23.249-16.453,28.504c-9.097,5.252-16.531,1.016-16.561-9.444
										C1784.323,908.883,1791.709,896.091,1800.806,890.839z M1797.062,916.649c4.331-2.5,7.84-8.578,7.826-13.547
										c-0.014-4.977-3.546-6.989-7.877-4.489c-4.325,2.497-7.833,8.574-7.819,13.551
										C1789.206,917.133,1792.738,919.146,1797.062,916.649L1797.062,916.649z"/><path fill="#fff" d="M1755.674,890.827c2.273-1.313,4.425-0.983,5.325,1.079
										c1.177,2.697-0.252,7.344-3.176,10.369l-17.053,17.65c-0.689,0.711-1.402,1.269-2.104,1.674
										c-2.274,1.313-4.426,0.989-5.322-1.076c-1.177-2.69,0.246-7.333,3.176-10.368l17.053-17.65
										C1754.262,891.791,1754.974,891.231,1755.674,890.827z"/><path fill="#fff" d="M1745.358,922.852c9.097-5.252,16.531-1.016,16.56,9.438
										c0.03,10.46-7.356,23.252-16.453,28.505c-9.103,5.256-16.531,1.016-16.56-9.444
										C1728.876,940.896,1736.255,928.107,1745.358,922.852z M1749.236,944.262c4.325-2.497,7.833-8.575,7.819-13.544
										c-0.014-4.977-3.546-6.989-7.871-4.492c-4.331,2.5-7.84,8.578-7.826,13.555
										C1741.373,944.75,1744.905,946.762,1749.236,944.262L1749.236,944.262z"/><path fill="#fff" d="M1789.057,871.553c0.701-0.405,1.414-0.667,2.107-0.753l17.091-2.064
										c2.937-0.352,4.382,2.636,3.224,6.674c-0.882,3.092-3.025,5.896-5.299,7.209c-0.702,0.405-1.416,0.671-2.106,0.756
										l-17.091,2.064c-2.937,0.359-4.382-2.629-3.23-6.67C1784.639,875.676,1786.782,872.867,1789.057,871.553z"/></g></g></g></switch></svg>