<svg xmlns="http://www.w3.org/2000/svg" viewBox="0 0 3500 2000"><g style="isolation:isolate"><path fill="#6298a8" d="M137.26,1790.33h58a46.32,46.32,0,1,0-58,0Z"/><path fill="#6298a8" d="M96.26,1790.33h44.42a36.63,36.63,0,1,0-44.42,0Z"/><path fill="#6298a8" d="M105.13,1790.33a31.75,31.75,0,1,0-52.55,0Z"/><polygon fill="#61b8ff" points="290.22 1226.51 189.78 1303.75 189.47 1190.28 290.12 1190 290.22 1226.51"/><polygon fill="#a6d7ff" points="649.17 1355.9 650.35 1795.5 145.99 1796.86 144.8 1357.26 392.83 1157.8 404.87 1148.13 405.4 1147.7 649.17 1355.9"/><polygon fill="#61b8ff" points="649.17 1355.9 649.22 1375.8 392.83 1157.8 404.87 1148.13 405.4 1147.7 649.17 1355.9"/><polygon fill="#61b8ff" points="404.87 1148.12 404.79 1796.16 145.99 1796.85 144.8 1357.25 404.87 1148.12"/><rect width="149.9" height="178.31" x="196.72" y="1611.24" fill="#61b8ff" transform="rotate(-.15 280.369 1749.8)"/><rect width="65.15" height="171.03" x="281.74" y="1618.43" fill="#a6d7ff" transform="rotate(-.15 322.38 1753.675)"/><path fill="#0a7dbc" d="M281.34,1790.18v-.63l-.46-171.66,66.41-.18v.63l.46,171.66Zm.8-171,.45,169.77,63.9-.18L346,1619Z"/><rect width="65.02" height="171.03" x="204.6" y="1618.62" fill="#a6d7ff" transform="translate(-4.59 .64)"/><path fill="#0a7dbc" d="M204.21,1790.36v-.63l-.47-171.65,66.29-.18v.63l.46,171.66Zm.79-171,.46,169.77,63.77-.17-.46-169.77Z"/><polygon fill="#286aa1" points="122.41 1375.39 113.25 1363.9 406.85 1129.84 679.64 1362.56 670.1 1373.74 406.53 1148.88 122.41 1375.39"/><rect width="147.84" height="108.91" x="197.06" y="1390.92" fill="#61b8ff" transform="rotate(-.15 280.714 1486.24)"/><rect width="64.26" height="94.11" x="282.59" y="1398.01" fill="#a6d7ff" transform="translate(-3.89 .85)"/><path fill="#0a7dbc" d="M282.09,1492.83v-.63l-.25-94.74,65.51-.17v.63l.26,94.73Zm1-94.11.25,92.85,63-.17-.25-92.85Z"/><rect width="64.13" height="94.11" x="204.83" y="1398.19" fill="#a6d7ff" transform="rotate(-.15 242.517 1486.19)"/><path fill="#0a7dbc" d="M204.33,1493v-.63l-.26-94.73,65.39-.18v.63l.26,94.74Zm1-94.11.25,92.85,62.88-.17-.26-92.85Z"/><rect width="157.64" height="10.22" x="191.87" y="1499.11" fill="#61b8ff" transform="rotate(-.15 276.814 1547.35)"/><rect width="157.64" height="10.22" x="191.56" y="1382.61" fill="#61b8ff" transform="rotate(-.15 276.97 1428.939)"/><rect width="298.4" height="287.95" x="462.19" y="1507.68" fill="#6290d4" transform="rotate(-.15 628.028 1700.599)"/><rect width="313.24" height="16.16" x="455.88" y="1492.56" fill="#286aa1" transform="rotate(-.15 632.053 1543.995)"/><rect width="56.88" height="160.74" x="518.2" y="1618.94" fill="#a6d7ff" transform="rotate(-.15 563.033 1746.35)"/><rect width="56.88" height="160.74" x="586.72" y="1618.96" fill="#a6d7ff" transform="rotate(-.15 631.788 1746.44)"/><rect width="56.88" height="160.74" x="655.25" y="1618.97" fill="#a6d7ff" transform="rotate(-.15 704.363 1746.535)"/><polygon fill="#4a3f78" points="3113.95 1394.62 3110.2 1406.26 3015.36 1397.84 3025.61 1366.1 3113.95 1394.62"/><polygon fill="#4a3f78" points="3146.6 1282.13 3075.9 1225.19 3061.26 1255.16 3138.73 1293.78 3146.6 1282.13"/><path fill="#53aefa" d="M3030.64,1268.9l-25,66.54a15.81,15.81,0,0,1-20.29,9.19h0a15.8,15.8,0,0,1-9.19-20.29l25.05-66.54a15.8,15.8,0,0,1,20.28-9.19h0A15.79,15.79,0,0,1,3030.64,1268.9Z"/><path fill="#53aefa" d="M2982.35,1319.56a13.49,13.49,0,0,0-5.93,17.87l26.79,55.25a22.45,22.45,0,0,0,33.51,8.56h0a22.45,22.45,0,0,0,3.36-33.3l-41.54-45.5a13.5,13.5,0,0,0-16.19-2.88Z"/><path fill="#4a3f78" d="M3016.21,1387.27a8.63,8.63,0,1,0-.18-10A8.65,8.65,0,0,0,3016.21,1387.27Z"/><path fill="#4a3f78" d="M2984.08,1336.58a6.64,6.64,0,1,0-.13-7.65A6.65,6.65,0,0,0,2984.08,1336.58Z"/><path fill="#53aefa" d="M3001.94,1266.82a13.5,13.5,0,0,1,7.43-17.31l56.72-23.52a22.45,22.45,0,0,1,30.74,15.86h0a22.45,22.45,0,0,1-19.61,27.13l-61.27,6.43a13.49,13.49,0,0,1-14-8.59Z"/><path fill="#4a3f78" d="M3011.15,1266.54a6.63,6.63,0,1,0-1.23-7.56A6.64,6.64,0,0,0,3011.15,1266.54Z"/><path fill="#4a3f78" d="M3067.83,1253.27a8.63,8.63,0,1,0-1.59-9.84A8.64,8.64,0,0,0,3067.83,1253.27Z"/><rect width="23.44" height="108.59" x="2917.76" y="1213.19" fill="#4a3f78" transform="rotate(-69.43 2929.562 1267.476)"/><path fill="#53aefa" d="M2954.28,1261.61l-9.65,25.72a21.64,21.64,0,0,0,13,13.38l18.62,6.94L2991.4,1267l-18.62-6.93A21.68,21.68,0,0,0,2954.28,1261.61Z"/><rect width="51.31" height="6.22" x="2961.08" y="1285.14" fill="#4a3f78" transform="rotate(-69.43 2986.82 1288.23)"/><path fill="#53aefa" d="M2915.18,1288,2870,1270.43a26.34,26.34,0,0,1-15-34.11h0a26.34,26.34,0,0,1,34.11-15l45.16,17.59Z"/><g data-name="Arm 02"><path fill="#453b73" d="M2730.15,1676.32l-2.39-1.94c21-25.86,29.59-47.42,26.18-65.93-4.65-25.19-31.14-40.47-54.52-53.94-13.12-7.57-25.51-14.71-32.51-22.82-5.25-6.08-7.43-12.66-6.47-19.57,2.18-15.68,19.65-27.35,20.4-27.84l1.69,2.58c-.17.11-17.06,11.41-19,25.69-.83,6,1.1,11.75,5.75,17.13,6.65,7.71,18.83,14.73,31.72,22.16,24,13.81,51.09,29.46,56,56.05C2760.56,1627.34,2751.78,1649.72,2730.15,1676.32Z"/><path fill="#453b73" d="M2664.43,1401.52a137.2,137.2,0,0,1-20.27-40.2c-9.43-31.08-3.21-58.21,18-78.45,15.48-14.79,34.41-22.12,54.75-21.22,23.45,1,44.52,13.12,51.38,20.95l-9.28,8.12c-4.57-5.21-22.32-15.83-42.65-16.74-17.13-.77-32.51,5.23-45.69,17.81-17.86,17-22.8,39.24-14.7,66a126.56,126.56,0,0,0,18.22,36.23Z"/><rect width="34.34" height="9.43" x="2746.47" y="1281.95" fill="#453b73" transform="rotate(-41.93 2763.771 1286.67)"/><rect width="76.96" height="16.06" x="2730.89" y="1334.1" fill="#453b73" transform="rotate(45.2 2769.525 1342.315)"/><path fill="#453b73" d="M2680.65,1430.06h0a21,21,0,0,1,.17-29.67l91.23-90.3,29.5,29.83-91.24,90.3A21,21,0,0,1,2680.65,1430.06Z"/><path fill="#53aefa" d="M2799.35,1374.56l96.37-108.74a35.35,35.35,0,0,0-1.43-48.4h0a35.34,35.34,0,0,0-48.39-1.54l-108.74,96Z"/><path fill="#453b73" d="M2885.18,1258.54a22.67,22.67,0,1,1,0-32.06A22.71,22.71,0,0,1,2885.18,1258.54Zm-25.29-25.34a13.13,13.13,0,1,0,18.57,0A13.14,13.14,0,0,0,2859.89,1233.2Z"/><path fill="#53aefa" d="M2886,1591h0a68.08,68.08,0,0,1-96.09,6.15L2661.7,1484.41a68.1,68.1,0,0,1-6.15-96.1h0a68.1,68.1,0,0,1,96.1-6.15l128.16,112.74A68.09,68.09,0,0,1,2886,1591Z"/><path fill="#a6d4ff" d="M2676.75,1407a35.85,35.85,0,1,0,50.6-3.24A35.85,35.85,0,0,0,2676.75,1407Zm43,37.83a21.44,21.44,0,1,1-1.94-30.25A21.44,21.44,0,0,1,2719.77,1444.8Z"/><path fill="#453b73" d="M2952.85,1634.5l-10.4-6.65c17.08-26.7,17.07-50.93,0-70.07-28.4-31.8-86.06-6.66-86.64-6.4l-5-11.27a143.19,143.19,0,0,1,36.68-9.88c27.57-3.5,49.76,3.19,64.18,19.34C2972.5,1572.93,2972.93,1603.09,2952.85,1634.5Z"/><path fill="#5d4ca8" d="M2830,1487.82h25.41a49.16,49.16,0,0,1,49.16,49.16v65.78a0,0,0,0,1,0,0H2780.79a0,0,0,0,1,0,0V1537a49.16,49.16,0,0,1,49.16-49.16Z"/><path fill="#edf6ff" d="M2824.91,1527.53a28.14,28.14,0,1,0,39.69,2.82A28.14,28.14,0,0,0,2824.91,1527.53Zm29.46,34a16.83,16.83,0,1,1,1.69-23.74A16.83,16.83,0,0,1,2854.37,1561.5Z"/><rect width="158.19" height="46.48" x="2766.72" y="1596.53" fill="#5d4ca8"/><path fill="#53aefa" d="M2978.83,1661.36H2697.7a34,34,0,0,0-.23,3.93v134.94h281.58V1665.29A34,34,0,0,0,2978.83,1661.36Z"/><path fill="#53aefa" d="M2918.14,1618.9h-158.5c-33.91,9.21-58.73,25.08-61.31,47.59h281.13C2976.87,1644,2952.05,1628.11,2918.14,1618.9Z"/><rect width="303.34" height="41.06" x="2691.73" y="1759.18" fill="#453b73"/><path fill="#453b73" d="M2812.09,1700.39h0a7.57,7.57,0,0,1-7.57-7.58h0a7.57,7.57,0,0,1,7.57-7.57h0a7.57,7.57,0,0,1,7.57,7.57h0A7.57,7.57,0,0,1,2812.09,1700.39Z"/><path fill="#453b73" d="M2837.76,1700.39h0a7.57,7.57,0,0,1-7.57-7.58h0a7.57,7.57,0,0,1,7.57-7.57h0a7.58,7.58,0,0,1,7.58,7.57h0A7.58,7.58,0,0,1,2837.76,1700.39Z"/><path fill="#453b73" d="M2863.43,1700.39h0a7.57,7.57,0,0,1-7.57-7.58h0a7.57,7.57,0,0,1,7.57-7.57h0a7.57,7.57,0,0,1,7.58,7.57h0A7.58,7.58,0,0,1,2863.43,1700.39Z"/><path fill="#453b73" d="M2889.11,1700.39h0a7.58,7.58,0,0,1-7.58-7.58h0a7.57,7.57,0,0,1,7.58-7.57h0a7.57,7.57,0,0,1,7.57,7.57h0A7.57,7.57,0,0,1,2889.11,1700.39Z"/><path fill="#453b73" d="M2775.14,1752.63h-45.41v-41.7h45.41Zm-44.71-.7h44v-40.3h-44Z"/><path fill="#453b73" d="M2743.58,1643.27c4.62-6.64,11.53-11.32,18.4-15.44h-3.33c-6.87,4.12-13.79,8.8-18.41,15.44Z"/><path fill="#453b73" d="M2751.51,1643.27c4.61-6.64,11.53-11.32,18.39-15.44h-3.34c-6.86,4.12-13.78,8.8-18.39,15.44Z"/><path fill="#453b73" d="M2759.45,1643.27c4.6-6.64,11.52-11.32,18.37-15.44h-3.34c-6.85,4.12-13.77,8.8-18.37,15.44Z"/><path fill="#453b73" d="M2767.39,1643.27c4.58-6.64,11.5-11.32,18.34-15.44h-3.33c-6.84,4.12-13.76,8.8-18.35,15.44Z"/><path fill="#453b73" d="M2775.32,1643.27c4.58-6.64,11.5-11.32,18.33-15.44h-3.33c-6.84,4.12-13.76,8.8-18.34,15.44Z"/><path fill="#453b73" d="M2783.26,1643.27c4.56-6.64,11.48-11.32,18.31-15.44h-3.34c-6.82,4.12-13.74,8.8-18.31,15.44Z"/><path fill="#453b73" d="M2791.2,1643.27c4.55-6.64,11.47-11.32,18.29-15.44h-3.34c-6.82,4.12-13.74,8.8-18.29,15.44Z"/></g><path fill="#a6d4ff" d="M1359,1610.43h31.89V1799.8H3394.5V1605.94h-13.15V1466.87q-2.55-1.12-5.3-2.18v-65.82h-21.47V1377c0-15.39-10.88-25.38-25-30v-14.49c0-9-7-14.15-15-15.51v-32.76a3.69,3.69,0,0,0-3.93-3.36h-.84a3.69,3.69,0,0,0-3.93,3.36V1317c-8,1.36-15,6.53-15,15.51V1347c-14.14,4.61-25,14.6-25,30v21.91h-23.77v53.64a272.28,272.28,0,0,0-39.19,6.68V1355.43H3123V1289h-91.63v175.47h-8.25v-1.17h-.89v1.17h-16v-1.17h-.89v1.17h-.12V1429.1H2897.94v22.23h-38.09v84.61h-27.14l-4.28,2.42v-84.17h-83.95V1345.32H2647v260.62h-.11V1286.25h-85.65V1488H2548.5v.31h-27.05V1295.07L2406,1194.54v293.77h-34.17v117.63h-10.93c-2.7-2.07-4.21-4.67-8.32-7a25.94,25.94,0,0,0-10.48-3.61v-283.7l-45.22-41.23v-.07c-.28-.17-1-.58-1.24-.78v-32h-.08v0h-9.23v0h-48.91v58.84l-70.07,35.34v198.4h-21.14v-258h-12.78v-13.69H1998v13.69H1985.2v333.87h-24.91V1496.32c0-13.56-12.65-24.1-32.29-31.63v-65.82h-21.48c.71-21.53,2.48-43.77-25-51.9.08-12.28,2.61-27.25-15-30v-32.76c0-2.18-2.34-3.62-4.76-3.36a3.69,3.69,0,0,0-3.94,3.36V1317c-17.64,2.75-15.08,17.74-15,30-27.52,8.15-25.72,30.39-25,51.9H1794v53.64a272.13,272.13,0,0,0-39.18,6.68V1355.44H1675v-61.18l-46.47-39.18-45.16,39.18v170.2h-8.26v-1.18h-.89v1.18h-16v-1.18h-.9v1.18h-.11V1429.1H1449.89v118.63l-17.44-11.79h-44.86L1359,1552.15Zm384.87-225.64h-73.7v-12h73.7Zm0,27.23h-73.7v-12h73.7Zm0,27.23h-73.7v-12h73.7Zm0,27.24h-73.7v-12h73.7Zm0,27.23h-73.7v-12h73.7Z"/><path fill="#3b3870" d="M1184.32,1315.43c0-267.68,206.33-484.24,459.78-484.24s459.79,216.56,459.79,484.24c0,269-206.33,485.57-459.79,485.57S1184.32,1584.44,1184.32,1315.43Zm624.08,0c0-95.51-73.87-173.52-164.3-173.52s-164.3,78-164.3,173.52c0,96.84,73.87,174.86,164.3,174.86S1808.4,1412.27,1808.4,1315.43Z"/><path fill="#3b3870" d="M691.66,812.16H967.38v986.9H691.66Z"/><path fill="#504d99" d="M635.18,812.16H910.91v986.9H635.18Z"/><path fill="#504d99" d="M1125.93,1315.43c0-267.68,206.33-484.24,459.78-484.24s459.79,216.56,459.79,484.24c0,269-206.33,485.57-459.79,485.57S1125.93,1584.44,1125.93,1315.43Zm624.08,0c0-95.51-73.87-173.52-164.3-173.52s-164.3,78-164.3,173.52c0,96.84,73.88,174.86,164.3,174.86S1750,1412.27,1750,1315.43Z"/><path fill="#3b3870" d="M2435.08,1094.83h-255.3V846H2977.6v248.84H2722.3v706.11H2435.08Z"/><path fill="#504d99" d="M2386.16,1094.83h-255.3V846h797.82v248.84h-255.3v706.11H2386.16Z"/><ellipse cx="830.32" cy="760.01" fill="#625ea8" rx="32.68" ry="31.78" transform="rotate(-5.8 829.939 759.762)"/><path fill="#625ea8" d="M955.34,654.09h0a10,10,0,0,0-.44-14.25c-74-67.69-185.17-66.66-258.62,2.33a10,10,0,0,0-.32,14.27h0a10.7,10.7,0,0,0,14.85.49c65.52-60.46,163.67-61.36,229.68-2.06A10.69,10.69,0,0,0,955.34,654.09Z"/><path fill="#625ea8" d="M925.77,685.73l.05-.05a10.06,10.06,0,0,0-.73-14.52c-57.39-50.4-141.7-49.65-198.69,1.74a10.08,10.08,0,0,0-.6,14.55l.05,0a10.66,10.66,0,0,0,14.65.59c49.17-43.42,121.1-44.07,170.6-1.49A10.69,10.69,0,0,0,925.77,685.73Z"/><path fill="#625ea8" d="M897.09,716.41l.09-.1a10,10,0,0,0-.86-14.63c-41.26-34-99.83-33.45-140.84,1.17a10,10,0,0,0-.75,14.67l.1.09a10.73,10.73,0,0,0,14.45.77c33.25-27.1,79.9-27.5,113.34-1A10.74,10.74,0,0,0,897.09,716.41Z"/><path fill="#61b8ff" d="M776.33,1645.29l13.72.36A259.24,259.24,0,0,0,820,1599l-22.88-2.17C789.28,1613.52,782.22,1629.67,776.33,1645.29Z"/><path fill="#fff" d="M808.71,1572.58q-6,12.32-11.62,24.24L820,1599a147.35,147.35,0,0,0,9.33-23.83C829.84,1573.26,808.71,1572.58,808.71,1572.58Z"/><path fill="#61b8ff" d="M1024.66,1524.72l-45.83.4,2.54-20.24,1.55-12.43.09-.61a18.9,18.9,0,0,1,18.31-16.23,18.36,18.36,0,0,1,12.33,4.65,19.38,19.38,0,0,1,6.05,10.25c.12.53.23,1.06.31,1.61l1.61,11.29Z"/><path fill="#0d192b" d="M1021.62,1503.41l-40.25,1.47,1.55-12.43.09-.61,36.69-1.33c.12.53.23,1.06.31,1.61Z"/><path fill="#172c4a" d="M1016.17,1497.27c0,2.15-1.18,3.9-2.68,3.91s-2.73-1.71-2.75-3.86,1.18-3.89,2.68-3.91S1016.16,1495.13,1016.17,1497.27Z"/><path fill="#0d192b" d="M1014.12,1497.29c0,.53-.29,1-.66,1s-.67-.42-.67-1,.29-1,.66-1S1014.12,1496.77,1014.12,1497.29Z"/><path fill="#172c4a" d="M1009.35,1497.55a3.4,3.4,0,1,1-3.4-3.85A3.66,3.66,0,0,1,1009.35,1497.55Z"/><path fill="#0d192b" d="M1006.81,1497.58a.83.83,0,1,1-.83-.95A.91.91,0,0,1,1006.81,1497.58Z"/><path fill="#61b8ff" d="M868.14,1529.84s4.89-7.35,11.26-10.79,139.61-15.31,160.19-9,55.88,30.82,53,35.72S867.66,1536.21,868.14,1529.84Z"/><path fill="#fff" d="M1046.46,1526.38c-47.16-5.92-96.14-4.65-134.46-1.72-40.45,3.1-69,8-70.9,8.29-15.18,18.46-28.28,40.67-39,64.45l419.4,33.92C1181.18,1593.4,1109.41,1534.3,1046.46,1526.38Z"/><path fill="#61b8ff" d="M1250.39,1730.56c-.07,15.59-3.55,29.66-13,37.51l-4.68-.08v-16.9h-.21a51.55,51.55,0,0,0-102.49-6.77,50.08,50.08,0,0,0-.54,5.52l-.69,17.75-141.57-.54-98-.36v-18.12h-.09a57,57,0,0,0-.93-9A55.63,55.63,0,0,0,779.82,1735a55,55,0,0,0-1.92,12.11h-.21l0,19.14-7.14,0c-8.35-9.25-13.16-26.89-13.12-45.64,0-21.76,6.63-45,21.78-58.43.23-.22.43-.4.66-.59,1.34-5.46,2.79-10.79,4.32-16a364,364,0,0,1,17.87-48.14l419.4,33.93c19.67,18.49,21.82,31.64,21.82,31.64.77,7.91,5.94,17.56,1.16,26.18C1247.88,1702,1250.45,1716.86,1250.39,1730.56Z"/><path fill="#4aa5f0" d="M774.18,1734.14a36,36,0,0,0,5.64.88,55,55,0,0,0-1.92,12.11h-.21l0,19.14-7.14,0c-8.35-9.25-13.16-26.89-13.12-45.64C760,1725.79,764.83,1731.33,774.18,1734.14Z"/><path fill="#4aa5f0" d="M888.15,1739.55c74.35,2,170.32,3.66,241.83,4.77a50.08,50.08,0,0,0-.54,5.52l-.69,17.75-141.57-.54-98-.36v-18.12h-.09A57,57,0,0,0,888.15,1739.55Z"/><path fill="#fff" d="M1124.38,1682.34l-345.15-20.18c.23-.22.43-.4.66-.6q2-8.18,4.32-16Z"/><path fill="#fff" d="M841.1,1533s-46.31,6.68-45.62,9.44,26.94,11.37,22.12,29.33C843.84,1571.69,878.1,1529,841.1,1533Z"/><path fill="#303030" d="M1143.47,1583.73a296.52,296.52,0,0,0-5,30.07l-91-7.25L940.2,1598l8.29-67.66s8.73-.94,22.64-1.16c25.85-.38,69.57,1.73,108.12,17.1C1104.43,1556.33,1126.45,1570.61,1143.47,1583.73Z"/><path fill="#fff" d="M939.44,1531.48l-7.86,65.9-25.18-2.51-60.58-6,6.94-34.84c2.78-1.93,7.47-4.09,13.33-6.26C887.17,1539.9,923.31,1531.67,939.44,1531.48Z"/><path fill="#315c80" d="M1000.93,1767.51c-25.49-9.73-45.51-27.17-59.49-51.85a139.77,139.77,0,0,1-16-44.24l0-.17.05-.17c.4-1.3,1-2.89,1.8-4.73s1.48-3.64,2.25-5.79c-.52-16.36,1.42-34.92,2.47-44.9.4-3.91.7-6.74.66-7.55l1.48-.08c.05.93-.24,3.66-.67,7.78-1,10-3,28.55-2.45,44.85v.14l0,.13c-.8,2.23-1.61,4.22-2.33,6s-1.32,3.23-1.7,4.44c2.08,12.27,15.17,72.12,74.51,94.78Z"/><path fill="#36a2ff" d="M1149.54,1599.5l-5.86,44.94c7,.71,13.13-2.32,13.73-6.91l3.63-27.83C1161.64,1605.11,1156.5,1600.61,1149.54,1599.5Z"/><path fill="#0d192b" d="M980.22,1635.09l-30.67-2.45a6.67,6.67,0,0,1-6.11-7.16h0a6.69,6.69,0,0,1,7.17-6.11l30.67,2.45a6.68,6.68,0,0,1,6.1,7.17h0A6.67,6.67,0,0,1,980.22,1635.09Z"/><path fill="#7070a3" d="M866.09,1547.74c21.08-7.84,57.22-16.07,73.35-16.26l-7.86,65.9-25.18-2.51Z"/><path fill="#7070a3" d="M1047.45,1606.55,940.2,1598l8.29-67.66s8.73-.94,22.64-1.16Z"/><circle cx="834.3" cy="1751.04" r="37.62" fill="#333" transform="rotate(-61.08 834.405 1751.119)"/><path fill="#828282" d="M877.06,1750.74l.25-.38-29.55-2.1a3.06,3.06,0,0,1-2.94-2.09h0a3.39,3.39,0,0,1,.78-3.43L864.3,1721l-.39-1-21.76,18.91a2.94,2.94,0,0,1-3.38.54l-.26-.12a2.87,2.87,0,0,1-1.77-2.59l-3-29h-.13l-2.09,28a3.94,3.94,0,0,1-2.32,3.64l-.07,0a3.94,3.94,0,0,1-4.35-.77l-22-17.39-.12.38,19.38,21.61a3.25,3.25,0,0,1,.78,3.31v0a3.08,3.08,0,0,1-3,2.13l-29.11,3,.38.12,30.21,2a2.66,2.66,0,0,1,2.35,1.43l0,0a2.56,2.56,0,0,1-.46,3l-20,23.64-.25-.12,24.55-20.52a2.33,2.33,0,0,1,2.47-.55l.17,0a2.37,2.37,0,0,1,1.66,2.19l2.93,31.1h0l2.25-31.81a1.84,1.84,0,0,1,1.17-1.75h0a1.85,1.85,0,0,1,2,.39L865,1780.76l.25-.26-20.59-22.61a2.5,2.5,0,0,1-.49-2.9l0,0a2.62,2.62,0,0,1,2.31-1.5Z"/><path fill="#0d192b" d="M835,1802.88a51.85,51.85,0,1,1,51.1-52.57A51.9,51.9,0,0,1,835,1802.88Zm-1.2-84.8a33,33,0,1,0,33.43,32.49A33,33,0,0,0,833.83,1718.08Z"/><path fill="#4a4a4a" d="M840.66,1749.73a6.38,6.38,0,1,1-6.47-6.29A6.38,6.38,0,0,1,840.66,1749.73Z"/><path fill="#828282" d="M834.31,1786.22a36.37,36.37,0,1,1,.48,0Zm0-67.39h-.43a31.71,31.71,0,1,0,.43,0Z"/><circle cx="1181" cy="1752.84" r="35.19" fill="#333" transform="rotate(-45 1181.006 1752.831)"/><path fill="#828282" d="M1221,1752.56l.23-.36-27.63-2a2.86,2.86,0,0,1-2.76-2h0a3.15,3.15,0,0,1,.74-3.2l17.48-20.39-.36-.94-20.35,17.69a2.75,2.75,0,0,1-3.16.51l-.25-.12a2.69,2.69,0,0,1-1.66-2.42l-2.78-27.16h-.12l-2,26.2a3.68,3.68,0,0,1-2.16,3.4l-.08,0a3.68,3.68,0,0,1-4.06-.71l-20.54-16.27-.11.36,18.13,20.2a3.07,3.07,0,0,1,.73,3.1v0a2.9,2.9,0,0,1-2.76,2l-27.23,2.86.35.11,28.26,1.86a2.48,2.48,0,0,1,2.2,1.34v0a2.37,2.37,0,0,1-.42,2.77l-18.7,22.11-.24-.12,23-19.19a2.19,2.19,0,0,1,2.31-.51l.16.05a2.2,2.2,0,0,1,1.55,2l2.74,29.08h0l2.1-29.74a1.74,1.74,0,0,1,1.09-1.64h0a1.73,1.73,0,0,1,1.86.36l23.13,18.62.24-.24-19.26-21.15a2.31,2.31,0,0,1-.46-2.71v0a2.47,2.47,0,0,1,2.16-1.4Z"/><path fill="#0d192b" d="M1181.69,1801.32a48.49,48.49,0,1,1,47.8-49.17A48.54,48.54,0,0,1,1181.69,1801.32Zm-1.12-79.31a30.83,30.83,0,1,0,31.26,30.39A30.87,30.87,0,0,0,1180.57,1722Z"/><path fill="#4a4a4a" d="M1187,1751.61a6,6,0,1,1-6-5.88A6,6,0,0,1,1187,1751.61Z"/><path fill="#828282" d="M1181,1785.74a32.91,32.91,0,1,1,32.88-33.37h0a32.9,32.9,0,0,1-32.44,33.36Zm0-63h-.41a30.13,30.13,0,1,0,22,51.12,29.86,29.86,0,0,0,8.52-21.42h0a30.13,30.13,0,0,0-30.13-29.7Z"/><path fill="#315c80" d="M1106.22,1767.31a82.08,82.08,0,0,1,.23-49.6c5-14.91,11.73-23.82,16.53-28.66a35,35,0,0,1,9.08-6.91l9.52-57.38,1.47.24-9.66,58.18-.38.15c-.15.07-15.87,7-25.15,34.85a80.49,80.49,0,0,0-.25,48.61Z"/><path fill="#fff" d="M1191.16,1668.21c12.33,4.84,21.32,8.47,28.29,11.29l-2.78-18.12-25.51-1.55C1184.49,1661.17,1184.76,1664,1191.16,1668.21Z"/><path fill="#fff" d="M1243.3,1663l-26.63-1.6,2.78,18.12c12.28,5,18.24,7.44,25,9.65C1248.05,1686.06,1249.28,1668.78,1243.3,1663Z"/><path fill="#4aa5f0" d="M1250.39,1730.56c-.07,15.59-3.55,29.66-13,37.51l-4.68-.08v-16.9h-.21a51.22,51.22,0,0,0-.41-5.57C1235.23,1744.63,1245.85,1740.94,1250.39,1730.56Z"/><path fill="#2f284f" d="M1972.83,867.67l-8.73,1.26-3.61-25a4.4,4.4,0,0,1,3.74-5h0a4.41,4.41,0,0,1,5,3.73Z"/><path fill="#151224" d="M1710.59,904.37l-8.73,1.26-3.61-25a4.4,4.4,0,0,1,3.74-5h0a4.4,4.4,0,0,1,5,3.73Z"/><path fill="#66a1ff" d="M1708.32,883.91c-.28-1.92-17.42-1-38.3,2s-37.56,7-37.29,8.92,17.42,1,38.3-2S1708.59,885.83,1708.32,883.91Z"/><path fill="#66a1ff" d="M1773.47,874.51c-.27-1.92-17.42-1-38.29,2s-37.57,7-37.29,8.93,17.42,1,38.29-2S1773.75,876.43,1773.47,874.51Z"/><rect width="17.56" height="10.53" x="1695.63" y="879.21" fill="#66a1ff" transform="rotate(-8.1 1738.954 901.64)"/><path fill="#e6f6ff" d="M1709.94,919.89c-6.44.93-12.72-1.52-17.58-6.21a30.78,30.78,0,0,1-8.73-17.28l38.79-5.61,6.1-.88C1730.43,904.76,1722.19,918.12,1709.94,919.89Z"/><path fill="#fff" d="M1722.42,890.79c-.41,12.6-8.07,23.11-18.85,24.66a19.46,19.46,0,0,1-11.21-1.77,30.78,30.78,0,0,1-8.73-17.28Z"/><path fill="#66a1ff" d="M1969.82,846.18c-.28-1.92-17.43-1-38.3,2s-37.56,7-37.29,8.92,17.42,1,38.3-2S1970.09,848.1,1969.82,846.18Z"/><path fill="#66a1ff" d="M2035,836.78c-.27-1.92-17.42-1-38.29,2s-37.57,7-37.29,8.93,17.42,1,38.29-2S2035.25,838.7,2035,836.78Z"/><rect width="17.56" height="10.53" x="1957.13" y="841.47" fill="#66a1ff" transform="rotate(-8.21 1966.026 846.763)"/><path fill="#fff" d="M1970.92,882.24a20.62,20.62,0,0,1-16.18-5,27.09,27.09,0,0,1-5.37-6.06,30.08,30.08,0,0,1-3.2-6.45,33.32,33.32,0,0,1-1.56-6l36.26-5.23,8.63-1.25C1991.4,867.11,1983.17,880.46,1970.92,882.24Z"/><path fill="#fff" d="M1960.34,875.42l-5.6,1.85-79,26.24-40.33,13.39L1794,914.58l-71-4c-2.56-3.68.83-12.71,3.47-14l3.28-.48,142.89-20.73,14.08-2,59.38-8.61,12.38-1.8,1.47,10.25Z"/><path fill="#e6f6ff" d="M1970.92,882.24a20.62,20.62,0,0,1-16.18-5l-79,26.24-3-28.09,14.08-2c-.31,3.25-.45,8.39,1.2,11.68,2.19,4.34,47.74-9.57,61.38-13.84,2.42-.76,3.83-1.22,3.83-1.22a41.38,41.38,0,0,0,6.82,3.22c3.34,1.23,7.44,2.23,11.19,1.73,7.77-1.07,9.83-13.72,9.66-21.44l8.63-1.25C1991.4,867.11,1983.17,880.46,1970.92,882.24Z"/><path fill="#2f284f" d="M1780.76,985.81a3.15,3.15,0,0,1-.62-6.26l3.06-.44c-3.29-34.68,22.14-66.45,58-71.63a68.42,68.42,0,0,1,50.12,12.19,64.41,64.41,0,0,1,25.8,40.11l3.34-.48a3.15,3.15,0,1,1,.9,6.23l-6.38.92a3.16,3.16,0,0,1-3.56-2.67,58.13,58.13,0,0,0-23.78-39,62.09,62.09,0,0,0-45.54-11.06c-33.54,4.84-57,35.18-52.34,67.63a3.14,3.14,0,0,1-2.67,3.56l-6.09.88Z"/><path fill="#e6f6ff" d="M1794,914.58l-71-4c-2.56-3.68.83-12.71,3.47-14l3.28-.48c-1.22,2-2.68,5.11-1.57,7.36,1.75,3.53,64.21,2,64.21,2Z"/><path fill="#fff" d="M1880,926.33l-75.11,10.83c-4.9.7-9.89-16.34-12-32.32-1.75-13.53-1.44-26.28,2.78-26.88,13.23-13.71,55-21.56,76.35-11,4.82-.69,9,9.78,11.35,22.13C1886.56,905.57,1886.38,925.41,1880,926.33Z"/><path fill="#e6f6ff" d="M1880,926.33l-75.11,10.83c-4.9.7-9.89-16.34-12-32.32,5.3-.27,9.39-.74,12.43,1.76s2.22,18.29,9,18.65,53.24-5.07,58.41-8-.77-18.61.69-22.81,9.94-5.36,9.94-5.36C1886.56,905.57,1886.38,925.41,1880,926.33Z"/><circle cx="1837.55" cy="900.94" r="15.19" fill="#2f284f" transform="rotate(-3.91 1835.984 900.19)"/><circle cx="1837.55" cy="900.94" r="5.7" fill="#151224" transform="rotate(-18.09 1837.266 900.859)"/><path fill="#fff" d="M1840.29,900.79a2.74,2.74,0,1,1-2.89-2.59A2.75,2.75,0,0,1,1840.29,900.79Z"/><g data-name="male 01"><path fill="#f7a594" d="M1608.81,1311.57l54.6,30.32,28.51-68.77,14.32,3.73s-10,80.09-25,94.63-91-18.44-91-18.44C1571.67,1340.94,1589,1303.23,1608.81,1311.57Z"/><path fill="#f7a594" d="M1690.65,1281.53s-4.25-14-3.24-17.55,15-7.09,15.48-5.4,1.56,5.83-7.51,7.43C1700.8,1272,1706.44,1283.52,1690.65,1281.53Z"/><path fill="#f7a594" d="M1689.87,1282.08s0-12.23,2.42-16.93c3.22-6.26,11.35-9.72,11.35-9.72s12.69,12,12.93,14-12.26,12.81-12.26,12.81S1695.07,1289.52,1689.87,1282.08Z"/><path fill="#f7a594" d="M1693,1266.32s6.14-29.94,10.83-28.62c2.16.6-3.61,29.21-3.61,29.21Z"/><path fill="#e6836f" d="M1689.46,1277.58h.1a.16.16,0,0,0,.12-.19c-1-4.09-2.71-11.26-2.11-13.37.78-2.77,10-5.67,13.83-5.71,1.15,0,1.31.24,1.34.32a4.35,4.35,0,0,1-.23,3.75c-1,1.64-3.41,2.81-7.16,3.47l-.29.05.19.21c2.26,2.5,4.87,6.34,5.44,9.63a.18.18,0,0,0,.19.14.18.18,0,0,0,.14-.19c-.58-3.27-3.09-7-5.33-9.58,3.68-.68,6.07-1.88,7.1-3.56a4.78,4.78,0,0,0,.26-4c-.12-.38-.66-.56-1.66-.55-3.9,0-13.29,3-14.14,6-.61,2.18,1.06,9.42,2.11,13.54A.22.22,0,0,0,1689.46,1277.58Z"/><path fill="#e6836f" d="M1706.44,1273.36l.14,0,.11,0,.07-.09c2.22-2.89,7-3.7,7-3.7a.16.16,0,0,0,.13-.19.15.15,0,0,0-.18-.13c-.2,0-4.83.81-7.16,3.73h0c-2.83-1.11-6.28-8.36-6.32-8.44a.15.15,0,0,0-.21-.07.15.15,0,0,0-.08.21C1700.09,1265.06,1703.49,1272.2,1706.44,1273.36Z"/><path fill="#7090e3" d="M1598.82,1308s11.48,1.63,38.91,19.49c-3.17,11.85-12.63,42.8-12.63,42.8s-42-13.39-47.65-27.61S1578.19,1302.06,1598.82,1308Z"/><path fill="#0f3266" d="M1460.06,1789.79l43.54.37a5.15,5.15,0,0,0,2-1.73c2.52-32.37,5.89-47.93,5.89-47.93l-30.32-1.5-7.07,24C1463.84,1769.89,1451.6,1784.68,1460.06,1789.79Z"/><path fill="#0f3266" d="M1506.9,1790.78l-51.63-.45c-1.31,0-.81-7.19.5-7.18l51.32.74C1508.44,1783.9,1508.25,1790.79,1506.9,1790.78Z"/><path fill="#bfe0ff" d="M1527.88,1445.4c-15.38,23.21-27.43,135.89-49.81,305.51l30.89,1.89c9.68-45.15,20.34-68,31.54-133.09,26-57.32,39.65-111.72,46.91-167.79C1594.37,1409.67,1542.61,1387,1527.88,1445.4Z"/><path fill="#bfe0ff" d="M1564.37,1453.75A955.21,955.21,0,0,0,1580,1606.62c2.77,69.19,7.36,66.91,13.06,147.57l27.94-.13c2.65-34.51,22.68-195.34,9.1-298.8C1623.46,1408.65,1560.43,1392.7,1564.37,1453.75Z"/><path fill="#0f3266" d="M1593,1754.19c-2.6,13.32-4.48,23.72-3.54,35.81l67.64,1.9s6.76-6.46-1.58-16.32-24.37-4.34-34.58-21.52Z"/><path fill="#0f3266" d="M1660.19,1792.1l-71.89-.62c-1.3,0-.9-7.19.41-7.18l71.57.91C1661.63,1785.22,1661.53,1792.12,1660.19,1792.1Z"/><path fill="#7090e3" d="M1628,1450.4c-.12,14.28-101.5,9.27-101.37-5-4.74-124.69-35-112.2-27.15-124.68,13.47-21.51,80.57-19.71,104.65-10.2,9.57,3.78,22.32,18.93,26.24,42.94,2,12.35-7.19,26.63-8.71,36.58C1618.15,1413.06,1627.37,1447.08,1628,1450.4Z"/><path fill="#f7a594" d="M1571.66,1332s-33.43-21.65-35.89-26.67l1.5-34.64,19.64-1.74a58.15,58.15,0,0,1,16.25,3.91l4.22,22.85.93,5C1580.49,1305.51,1571.66,1332,1571.66,1332Z"/><path fill="#e6836f" d="M1543.81,1278.54c3,4.77,15.82,17,33.57,17.12l-3.65-19.77Z"/><path fill="#f7a594" d="M1590.65,1230.71c1.54,7.13,4.71,22.78,4.1,30-.91,10.94-11.25,23-20.18,24.52-10.34,1-24.23-2.23-31.73-8.79-4.17-5-12.21-16.74-15.87-27-7.63-21.42,7.62-40,26.8-44.17S1585.84,1208.49,1590.65,1230.71Z"/><path fill="#303030" d="M1533.09,1263.91c-3.93-7.06,1.4-9.86,7.16-4.35-.94-5.31-6.85-20.9-1.46-26,6.1-5.92,32.69-3.09,47.11-17.87,15.72-19.68-9.5-45.59-45.54-10C1500.68,1226.33,1533.09,1263.91,1533.09,1263.91Z"/><path fill="#f7a594" d="M1538.1,1257.28c3,3.7,3.07,8.58.19,10.9s-7.65,1.19-10.65-2.52-3.07-8.58-.19-10.9S1535.1,1253.57,1538.1,1257.28Z"/><path fill="#7090e3" d="M1634,1485.18l-91.69-.79-27.08-.24s2.39-31.71,4.08-65.72c.21-4.39.42-8.81.61-13.21.08-2,.17-4,.25-6,.17-4.48.32-8.91.44-13.21,0-1.13.06-2.26.1-3.37a21.08,21.08,0,0,0,1.81-5.48c4-19.79-5.67-64.56-16-63.42,5.36-4.86,11.36-6.14,23.42-8,13.49,25.8,43.08,34.86,43.08,34.86s12.15-10.09,11.53-34.86c-1.6.57,10.3-.7,22.33,4.83,8.37,9.19,20.34,59,19.59,76.33a20.55,20.55,0,0,1-.29,2.9,48.54,48.54,0,0,0-.19,10.31c.11,1.84.26,3.84.46,6,.35,4,.85,8.42,1.41,13.23C1630,1437.88,1633.2,1461.85,1634,1485.18Z"/><path fill="#7090e3" d="M1544.33,1433.73c2.5,23.25-1.71,40.17-2.07,50.66l-27.08-.24s2.39-31.71,4.08-65.72c.21-4.39.42-8.81.61-13.21.08-2,.17-4,.25-6,.17-4.48.32-8.91.44-13.21,0-1.13.06-2.26.1-3.37.77-1.47,1.49-26.3,1.93-28.45C1534,1368.58,1538.38,1378.37,1544.33,1433.73Z"/><path fill="#f7c4b9" d="M1519.47,1375.85l-16.92,36.72,67.13,34.2-1.38,14.17s-88.88-12.1-96.52-31.69,24.74-103,24.74-103C1505.61,1305,1517,1358,1519.47,1375.85Z"/><path fill="#f7c4b9" d="M1569.44,1447.68l33,1.12s-10.28,16.12-33.3,13C1538.8,1457.65,1550.9,1446.24,1569.44,1447.68Z"/><path fill="#0f3266" d="M1680.45,1449.38c.45,2.19-.86,3-2.44,3l-140.94-1.22c-1.57,0-2.86-.86-3.66-3.05Z"/><polygon fill="#241f3c" points="1698.31 1352.77 1699.12 1353.58 1698.67 1354.2 1697.63 1352.72 1698.31 1352.77"/><path fill="#5d4f99" d="M1679.07,1448.74l-114.34-1a2.9,2.9,0,0,1-2.9-3.56l15.86-89.76a4.35,4.35,0,0,1,4.16-3.49l114.33,1a2.91,2.91,0,0,1,2.91,3.55l-15.87,89.77A4.34,4.34,0,0,1,1679.07,1448.74Z"/><path fill="#0f3266" d="M1679.9,1449.57l-114.34-1a2.9,2.9,0,0,1-2.9-3.55l15.87-89.77a4.34,4.34,0,0,1,4.15-3.49l114.34,1a2.9,2.9,0,0,1,2.9,3.55l-15.87,89.77A4.34,4.34,0,0,1,1679.9,1449.57Z"/><path fill="#fff" d="M1617.55,1401.26c-1.07,8.59,4.77,16.38,13,17.41s15.84-5.11,16.91-13.7-4.78-16.39-13-17.41S1618.61,1392.67,1617.55,1401.26Z"/><path fill="#7090e3" d="M1519.52,1381.71l-38.35-19.84s11.56-39.77,24.39-47.28c6.19,3.78,9.13,12.39,12.4,27.84C1520.78,1355.78,1522,1369.23,1519.52,1381.71Z"/></g><g data-name="male 02"><path fill="#7090e3" d="M2321,1531.31c-16.52,16.72-30.94,33.17-44.8,63.77-3.84-10-2.89-7.78-12.16-29.69-4.26-10.3-31.79-4.48-32.48,4.59,0,0-5,63.12,24.2,88S2367.06,1579,2367.06,1579C2393.31,1543.16,2349.22,1508.89,2321,1531.31Z"/><path fill="#092e66" d="M2532.52,1754c-31,60.46-257,38.93-295.91,6-28.75-42.21,75.4-62.83,77.71-62.89,51.18-1.4,121.72,3.15,147.71,3.15C2522.47,1709.59,2539.33,1731,2532.52,1754Z"/><path fill="#051733" d="M2313.84,1728.64c42,10,79.34,13.23,125.19,6.2,0,0-70.23,31-70.61,32.19S2313.84,1728.64,2313.84,1728.64Z"/><path fill="#092e66" d="M2527.13,1761c-45.27,50.12-238.48,45.3-201.32-.27,33.73-4.22,126.4-26.75,134.57-31.18C2488.86,1706.49,2545.55,1733.89,2527.13,1761Z"/><path fill="#73ccff" d="M2498.14,1796.84c-2.24-10.09-13.87-16.51-26.29-20.56-6,7.07-14.27,21-14.79,41.81C2484.62,1824.28,2502,1814.16,2498.14,1796.84Z"/><path fill="#aae0ff" d="M2436.88,1771.77s-11.56-2-14.94,11.84c-1.14,4.69-4.51,14.09,6.77,21.42,11.24,6.19,19,11,28.35,13.06.52-20.81,8.75-34.74,14.79-41.81C2455.71,1771,2436.88,1771.77,2436.88,1771.77Z"/><path fill="#092e66" d="M2433.26,1773.37c22,5.28,10.72,32.46-.63,30.86,12.36,1.75-219,1.78-196.38-68.19h.09c8.62-14.73,35.57-27.46,57.4-17.85C2344.31,1745,2392,1763.64,2433.26,1773.37Z"/><path fill="#aae0ff" d="M2441.52,1802.72s-19.67-1.54-12.85-17.35,20.66-6.54,20.66-6.54S2456.71,1795,2441.52,1802.72Z"/><path fill="#fff" d="M2442.47,1804.08a.9.9,0,0,1-.9-.87,35.24,35.24,0,0,1,8.75-24.2.9.9,0,0,1,1.3,1.24,34,34,0,0,0-8.26,22.9.9.9,0,0,1-.86.93Z"/><path fill="#fff" d="M2448,1806.2a.89.89,0,0,1-.9-.86,35.31,35.31,0,0,1,8.75-24.21.91.91,0,0,1,1.27,0,.9.9,0,0,1,0,1.27,34,34,0,0,0-8.26,22.89.89.89,0,0,1-.86.93Z"/><path fill="#fff" d="M2453.91,1807.68a.89.89,0,0,1-.89-.87,35.19,35.19,0,0,1,8.75-24.2.9.9,0,0,1,1.27,0,.89.89,0,0,1,0,1.27,34.08,34.08,0,0,0-8.25,22.9.9.9,0,0,1-.87.93Z"/><path fill="#051733" d="M2435.59,1803.33c-4.72,2.61-123.92,8.15-190.27-34.59-21.6-13.91-10.24-33.87-10.24-33.87S2250.54,1792.73,2435.59,1803.33Z"/><path fill="#051733" d="M2422.28,1772.83a1.32,1.32,0,0,1-.39-.06C2336,1747.32,2296.39,1721,2296,1720.7a1.35,1.35,0,1,1,1.51-2.23c.39.26,39.68,26.4,125.15,51.72a1.35,1.35,0,0,1-.38,2.64Z"/><path fill="#051733" d="M2367.86,1753.58a1.35,1.35,0,0,1-.24-2.67c.55-.1,54.72-9.84,75.69-18.83a1.35,1.35,0,0,1,1.07,2.47c-21.26,9.12-74.05,18.61-76.28,19A1,1,0,0,1,2367.86,1753.58Z"/><path fill="#fff" d="M2465.25,1700.24c1.88,14.45-101,17.9-153.63-3-7.87-32.63-35-181.13,46.11-180.68C2445.35,1517,2456.92,1660.85,2465.25,1700.24Z"/><path fill="#f7a594" d="M2234.6,1569.38l-1.21-18.38,19.33-2.91,7.3,16.53C2260.84,1569.51,2235.43,1574.27,2234.6,1569.38Z"/><path fill="#f7a594" d="M2253.6,1551l4.68-29.8s-6.81-1.91-7.45,6.17-13.83,13.2-10.42,21.07S2253.6,1551,2253.6,1551Z"/><path fill="#f7a594" d="M2234,1551.8s-14.49-22.14-15.75-34.69c-.13-4.6,1.92-6,1.92-6l33,32.35s2.12,6.59-.43,9.36S2240.62,1559.67,2234,1551.8Z"/><path fill="#cc7767" d="M2254.4,1544s.34,5.24-2.66,4.16c-8.82-2.58-9.34-15.52-9.34-15.52Z"/><path fill="#404040" d="M2267.34,1550.47l-61.36-57a6.29,6.29,0,0,0-3.51.78l64.72,59.34A7.85,7.85,0,0,0,2267.34,1550.47Z"/><path d="M2202.47,1494.26c-.93.64-1.52,1.79-.83,3.9,1.71,5.22,55.88,55.12,61.36,57,2.67.91,3.76-.19,4.19-1.55Z"/><path fill="#f7a594" d="M2218.4,1514s.62-5.12,9.86,1.17c11.21,7.64,18.75,21.26,16.22,24.75C2241.25,1544.39,2216,1524.24,2218.4,1514Z"/><path fill="#7090e3" d="M2341.11,1519c-58.19,12.77-42.51,151.76-38.43,181.87,11,4.39,46.55,13.05,60.53,15.42C2335.23,1650.08,2320.55,1525.29,2341.11,1519Z"/><path fill="#f7a594" d="M2375.26,1521c-6.47,31.53-41.15,30.72-41.6,13a7.74,7.74,0,0,1-.09-1.44l-2.78-38.27-.36-4.67,3.05-.63,27.58-5.48,1-.18.81,2.43,3.5,10Z"/><path fill="#7090e3" d="M2374.45,1518.55c-11,25.77,3.53,160.33,13.57,200.49,27.15,9.18,68.09-4.24,79-18C2459.29,1664.31,2446.87,1536,2374.45,1518.55Z"/><path fill="#7090e3" d="M2371.72,1565.36c-4.23,23.17,3.83,63.36,10.1,84.24,16.62,12.24,42.47,5.92,42.47-12.87.71-17-.78-36-4.87-57.52C2415.4,1530.8,2373.81,1531.25,2371.72,1565.36Z"/><path fill="#7090e3" d="M2346.24,1596.55c-17.13-6.17-25.95,18.43-13.48,27,29.66,20,75.71,46.92,83.9,29.77C2428.64,1628.21,2385.27,1608.92,2346.24,1596.55Z"/><path fill="#f7a594" d="M2330.45,1615.9l-12.68-6.7c-8-6.18,6.06-18.88,11.76-16.84l9.86,6.19C2344.38,1603.28,2337.29,1615.38,2330.45,1615.9Z"/><path fill="#f7a594" d="M2319,1609.48c-10.37-2.21-6.79-12.69-4.45-24.67C2306.18,1548.89,2351.88,1610.43,2319,1609.48Z"/><path fill="#f7a594" d="M2323.55,1580.21s-3.39-5.28-10.85-17.07c-3.36.64-5.16,6.54-.64,11.71C2316,1579.38,2321.78,1582.46,2323.55,1580.21Z"/><path fill="#f7a594" d="M2313.35,1577.06c-7.5-4.24-12.83,8.12-10.87,17.77,3,14.77,14,7.47,17.29,3.53C2325.78,1591.15,2322.53,1582.27,2313.35,1577.06Z"/><path fill="#fff" d="M2372.68,1606.87a.92.92,0,0,1-.89-.76c-.05-.32-5.36-33.07,1.2-55.19a.9.9,0,1,1,1.73.51c-6.45,21.73-1.21,54.07-1.15,54.39a.9.9,0,0,1-.74,1Z"/><path fill="#fff" d="M2403.91,1657.42c-14.79,0-32.33-9.3-33.36-9.85a.9.9,0,1,1,.85-1.58c.34.18,34.1,18.08,46.45,4.54,10.83-11.88,2.76-63.33,2.68-63.85a.9.9,0,0,1,1.78-.28c.34,2.15,8.28,52.83-3.13,65.34C2415.37,1655.92,2409.86,1657.42,2403.91,1657.42Z"/><path fill="#fff" d="M2391.91,1614.65a.9.9,0,0,1-.36-.08c-21.64-9.62-48.73-18.33-49-18.42a.9.9,0,0,1,.55-1.71c.27.09,27.45,8.83,49.18,18.49a.9.9,0,0,1-.37,1.72Z"/><path fill="#d97661" d="M2333.56,1533.14c-.81-8.45-5.45-40.3-.08-44.17l27.58-5.48C2367.38,1518.24,2343.83,1535.6,2333.56,1533.14Z"/><path fill="#f7a594" d="M2365.32,1481.45c-1.2,25.4-23.81,45.11-40.64,44.18s-37.5-22.41-36.3-47.8,19.39-45.18,40.64-44.18S2366.52,1456.05,2365.32,1481.45Z"/><path fill="#0e0e0e" d="M2342.45,1437.24c-21.27-17.46-35.67-5.28-48.95,7.88-9.33,9.23-15.94,15.88-26.17,16.18,16.3,26.73,56.89,15.42,72.06-7.48-.52,14,14.43,27.56,25.93,27.63C2370.9,1466.45,2364,1433.89,2342.45,1437.24Z"/><circle cx="2361.32" cy="1482.52" r="8.77" fill="#f7a594"/></g><path fill="#378ccc" d="M3202.65,1791.4H3028.84V1489.92a7.21,7.21,0,0,1,7.21-7.21h159.39a7.21,7.21,0,0,1,7.21,7.21Z"/><path fill="#61b8ff" d="M3196.36,1579.85v-85.39a5.46,5.46,0,0,0-5.46-5.45H3040.59a5.45,5.45,0,0,0-5.46,5.45v85.39a5.64,5.64,0,0,0,5.65,5.64h149.93A5.64,5.64,0,0,0,3196.36,1579.85Z"/><path fill="#61b8ff" d="M3035.13,1602.26v177.4a5.45,5.45,0,0,0,5.46,5.45H3190.9a5.46,5.46,0,0,0,5.46-5.46V1602.26a5.94,5.94,0,0,0-6-5.94H3041.08A5.94,5.94,0,0,0,3035.13,1602.26Z"/><path fill="#378ccc" d="M3045.46,1577.89h0a3.19,3.19,0,0,1-3.18-3.18v-64.07a3.19,3.19,0,0,1,3.18-3.18h0a3.19,3.19,0,0,1,3.18,3.18v64.07A3.19,3.19,0,0,1,3045.46,1577.89Z"/><path fill="#378ccc" d="M3045.46,1745.5h0a3.19,3.19,0,0,1-3.18-3.18V1621.56a3.19,3.19,0,0,1,3.18-3.18h0a3.19,3.19,0,0,1,3.18,3.18v120.76A3.19,3.19,0,0,1,3045.46,1745.5Z"/><rect width="159.88" height=".63" x="3035.83" y="1590.37" fill="#275273"/><polygon fill="#378ccc" points="3028.84 1791.4 3028.84 1799.99 3037.94 1799.99 3037.94 1798.17 3192.22 1798.17 3192.22 1799.99 3202.56 1799.99 3202.56 1791.4 3028.84 1791.4"/><path fill="#092e66" d="M1916.65,1746.4a23,23,0,1,0,23,23A23,23,0,0,0,1916.65,1746.4Zm0,36.9a13.9,13.9,0,1,1,13.9-13.89A13.89,13.89,0,0,1,1916.65,1783.3Z"/><path fill="#092e66" d="M1973.15,1746.4a23,23,0,1,0,23,23A23,23,0,0,0,1973.15,1746.4Zm0,36.9a13.9,13.9,0,1,1,13.89-13.89A13.9,13.9,0,0,1,1973.15,1783.3Z"/><path fill="#092e66" d="M2119.92,1760.45a23,23,0,1,0,1.82,9A23,23,0,0,0,2119.92,1760.45Zm-21.2,22.85a13.9,13.9,0,1,1,13.89-13.89A13.89,13.89,0,0,1,2098.72,1783.3Z"/><path fill="#092e66" d="M2141.13,1746.4a23,23,0,1,0,23,23A23,23,0,0,0,2141.13,1746.4Zm0,36.9a13.9,13.9,0,1,1,13.9-13.89A13.88,13.88,0,0,1,2141.13,1783.3Z"/><path fill="#092e66" d="M1917.47,1763.13l-13.83-6.89v-20.32h-19.59v23.39l27.65,13.83C1920.34,1776.21,1924.18,1766.23,1917.47,1763.13Z"/><path fill="#092e66" d="M1974,1763.13l-13.83-6.89v-20.32h-19.59v23.39l27.65,13.83C1976.83,1776.21,1980.67,1766.23,1974,1763.13Z"/><path fill="#092e66" d="M2099.54,1763.13l-13.84-6.89v-20.32h-19.58v23.39l27.65,13.83C2102.41,1776.21,2106.25,1766.23,2099.54,1763.13Z"/><path fill="#092e66" d="M2142,1763.13l-13.83-6.89v-20.32h-19.59v23.39l27.65,13.83C2144.82,1776.21,2148.66,1766.23,2142,1763.13Z"/><rect width="70.74" height="95.64" x="1946.19" y="1479.68" fill="#f3ad88"/><polygon fill="#eb9e75" points="1954.45 1575.32 1954.45 1479.68 1898.72 1479.68 1899.46 1575.32 1954.45 1575.32"/><rect width="11.13" height="21.77" x="1977.98" y="1479.68" style="mix-blend-mode:soft-light" fill="#fff"/><rect width="70.74" height="95.64" x="2063.96" y="1479.68" fill="#c0e1ff"/><polygon fill="#96cdff" points="2063.96 1575.32 2063.96 1479.68 2016.48 1479.68 2017.22 1575.32 2063.96 1575.32"/><rect width="42.43" height="95.64" x="2092.26" y="1479.68" fill="#c0e1ff"/><rect width="70.74" height="95.64" x="1913.62" y="1574.48" fill="#96cdff"/><polygon fill="#c0e1ff" points="1921.88 1670.12 1921.88 1574.48 1866.14 1574.48 1866.89 1670.12 1921.88 1670.12"/><rect width="11.13" height="21.77" x="1945.41" y="1574.48" style="mix-blend-mode:soft-light" fill="#fff"/><rect width="70.74" height="95.64" x="2031.39" y="1574.48" fill="#f4b28f"/><polygon fill="#eb9e75" points="2031.39 1670.12 2031.39 1574.48 1983.91 1574.48 1984.65 1670.12 2031.39 1670.12"/><rect width="42.43" height="95.64" x="2059.69" y="1574.48" fill="#f4b28f"/><path fill="#092e66" d="M2051,1674l-208.49-.13a.92.92,0,0,1-1-.92l.42-157.11a2.31,2.31,0,0,1,.84-1.55,2.62,2.62,0,0,1,1.7-.75l237,1.07c.76,0,1.19.47,1.06,1.16L2053.67,1672a2.49,2.49,0,0,1-1,1.42,3.2,3.2,0,0,1-1.09.55A2.43,2.43,0,0,1,2051,1674Zm-205.6-157.25-.45,154,205.32,0L2078.31,1518Z"/><polygon fill="#092e66" points="2070.23 1570.15 2071.29 1568.14 1843.92 1565.63 1842.99 1567.53 2070.23 1570.15"/><polygon fill="#092e66" points="2060.48 1623.2 2061.5 1621.23 1843.75 1619.1 1842.86 1620.97 2060.48 1623.2"/><path fill="#092e66" d="M2033,1672.88a.93.93,0,0,0,.66-.63l28.77-156.18c0-.29-.18-.44-.53-.35a1,1,0,0,0-.71.68l-28.74,156.14c0,.27.18.43.51.35Z"/><path fill="#092e66" d="M2015.71,1672.87a.9.9,0,0,0,.65-.63L2042.52,1516c0-.28-.19-.43-.53-.33a1,1,0,0,0-.71.68l-26.13,156.23c0,.27.19.42.52.34Z"/><path fill="#092e66" d="M1998.38,1672.87a.9.9,0,0,0,.65-.64l23.54-156.37c0-.28-.2-.43-.54-.33a1,1,0,0,0-.68.69l-23.52,156.32c0,.27.2.42.53.34Z"/><path fill="#092e66" d="M1981,1672.86a.88.88,0,0,0,.64-.64l20.92-156.47c0-.27-.21-.41-.54-.31a1,1,0,0,0-.68.68l-20.88,156.42c0,.27.2.41.53.33Z"/><path fill="#092e66" d="M1963.68,1672.86a.9.9,0,0,0,.64-.64l18.28-156.57c0-.27-.21-.41-.54-.3a.94.94,0,0,0-.66.68l-18.26,156.51c0,.27.21.41.53.32Z"/><path fill="#092e66" d="M1946.31,1672.85a.88.88,0,0,0,.63-.64l15.64-156.66c0-.28-.22-.41-.55-.3h0a1,1,0,0,0-.64.69l-15.62,156.6c0,.27.21.4.53.31Z"/><path fill="#092e66" d="M1928.91,1672.84h0a.87.87,0,0,0,.62-.64l13-156.76c0-.26-.22-.39-.55-.28h0a.93.93,0,0,0-.63.68l-13,156.71C1928.35,1672.8,1928.59,1672.94,1928.91,1672.84Z"/><path fill="#092e66" d="M1911.5,1672.84h0a.84.84,0,0,0,.61-.64l10.35-156.85c0-.27-.22-.39-.56-.28a1,1,0,0,0-.61.69L1911,1672.55C1911,1672.8,1911.18,1672.93,1911.5,1672.84Z"/><path fill="#092e66" d="M1894.06,1672.83h0a.88.88,0,0,0,.6-.65l7.69-157c0-.26-.24-.38-.55-.26a.9.9,0,0,0-.6.69l-7.68,156.89C1893.52,1672.8,1893.76,1672.92,1894.06,1672.83Z"/><path fill="#092e66" d="M1876.61,1672.83h0a.85.85,0,0,0,.58-.65l5-157c0-.26-.24-.38-.56-.25a.89.89,0,0,0-.59.68l-5,157C1876.08,1672.79,1876.31,1672.92,1876.61,1672.83Z"/><path fill="#092e66" d="M1859.14,1672.82h0a.84.84,0,0,0,.57-.65l2.37-157.13c0-.26-.25-.37-.57-.25a.87.87,0,0,0-.57.69l-2.36,157.08C1858.62,1672.79,1858.85,1672.91,1859.14,1672.82Z"/><path fill="#092e66" d="M2161.67,1674.07l-110.1,0c-.33,0-.48-.4-.37-1l27.61-156.37a3.52,3.52,0,0,1,.63-1.37,1.43,1.43,0,0,1,.91-.66l110.78,1c.35,0,.52.41.41,1l-28.22,155.16a4.15,4.15,0,0,1-.67,1.59,2.28,2.28,0,0,1-.63.62A.72.72,0,0,1,2161.67,1674.07Zm-81.35-156.62-26.86,153.15,108.17-.15,27.8-151.89Z"/><polygon fill="#092e66" points="2180.88 1572.29 2181.57 1570.37 2071.33 1568.01 2070.57 1569.81 2180.88 1572.29"/><polygon fill="#092e66" points="2171.34 1625.29 2172.04 1623.25 2062.1 1621.12 2061.32 1623.05 2171.34 1625.29"/><path fill="#092e66" d="M2152.33,1672.81a1.14,1.14,0,0,0,.42-.7l29.4-155.28c0-.25-.05-.38-.22-.3a.91.91,0,0,0-.39.6l-29.46,155.29c-.06.31,0,.49.23.4Z"/><path fill="#092e66" d="M2143.21,1672.81a1.18,1.18,0,0,0,.42-.71l29.2-155.36c0-.25,0-.38-.22-.29a.91.91,0,0,0-.39.6L2143,1672.43c0,.31.05.48.24.39Z"/><path fill="#092e66" d="M2134.07,1672.81a1.09,1.09,0,0,0,.42-.71l29-155.45c0-.25-.06-.37-.22-.29a.93.93,0,0,0-.39.61l-29.07,155.47c-.06.31,0,.47.23.38Z"/><path fill="#092e66" d="M2124.92,1672.82a1.2,1.2,0,0,0,.43-.72l28.8-155.54c0-.25-.05-.37-.22-.28a.93.93,0,0,0-.38.6l-28.87,155.58c-.06.3.05.46.23.36Z"/><path fill="#092e66" d="M2115.76,1672.82a1.14,1.14,0,0,0,.43-.72l28.61-155.64c0-.24-.06-.36-.22-.26a1,1,0,0,0-.39.6l-28.67,155.67c-.05.29.05.45.24.35Z"/><path fill="#092e66" d="M2106.59,1672.82a1.11,1.11,0,0,0,.43-.72l28.41-155.73c.05-.24,0-.35-.22-.26h0a1,1,0,0,0-.38.61l-28.47,155.76c-.06.29,0,.45.23.34Z"/><path fill="#092e66" d="M2097.42,1672.82h0a1.18,1.18,0,0,0,.43-.72l28.21-155.82c0-.24-.06-.35-.22-.25h0a1.06,1.06,0,0,0-.38.6l-28.27,155.86C2097.13,1672.78,2097.23,1672.93,2097.42,1672.82Z"/><path fill="#092e66" d="M2088.22,1672.83h0a1.14,1.14,0,0,0,.43-.72l28-155.91c0-.24-.05-.35-.23-.25a1.06,1.06,0,0,0-.37.61l-28.08,156C2087.94,1672.78,2088.05,1672.93,2088.22,1672.83Z"/><path fill="#092e66" d="M2079,1672.83h0a1.2,1.2,0,0,0,.42-.72l27.81-156c0-.23-.06-.33-.23-.23a1,1,0,0,0-.37.61l-27.87,156C2078.75,1672.79,2078.85,1672.93,2079,1672.83Z"/><path fill="#092e66" d="M2069.81,1672.83h0a1.2,1.2,0,0,0,.42-.72l27.61-156.1c0-.23-.06-.33-.23-.22a1,1,0,0,0-.37.6l-27.67,156.14C2069.54,1672.8,2069.64,1672.93,2069.81,1672.83Z"/><path fill="#092e66" d="M2060.59,1672.83h0a1.23,1.23,0,0,0,.42-.72l27.41-156.19c0-.23-.07-.33-.23-.22a1.06,1.06,0,0,0-.37.61l-27.47,156.23C2060.32,1672.8,2060.42,1672.93,2060.59,1672.83Z"/><path fill="#092e66" d="M1950.32,1674l-109.16,0c-.33,0-.54-.41-.53-1l1.62-157.72a2.85,2.85,0,0,1,.4-1.38c.24-.42.54-.67.79-.67l110,.92c.35,0,.58.42.57,1l-2.42,156.5a3.45,3.45,0,0,1-.4,1.6,1.71,1.71,0,0,1-.53.63A.6.6,0,0,1,1950.32,1674ZM1843.87,1516.1l-1.4,154.47,107.22-.2,2.55-153.2Z"/><polygon fill="#092e66" points="1952.61 1571.36 1952.97 1569.43 1843.29 1567.09 1842.83 1568.91 1952.61 1571.36"/><polygon fill="#092e66" points="1951.88 1624.82 1952.24 1622.76 1842.89 1620.66 1842.43 1622.61 1951.88 1624.82"/><path fill="#092e66" d="M1940.86,1672.75a.94.94,0,0,0,.3-.71l3.57-156.61c0-.25-.11-.39-.26-.31a.75.75,0,0,0-.29.61l-3.64,156.63c0,.31.13.49.3.4Z"/><path fill="#092e66" d="M1931.81,1672.76a.93.93,0,0,0,.3-.71l3.37-156.71c0-.25-.12-.38-.27-.3a.81.81,0,0,0-.29.61l-3.42,156.73c0,.31.13.48.3.39Z"/><path fill="#092e66" d="M1922.75,1672.77a1,1,0,0,0,.31-.72l3.15-156.8c0-.25-.11-.38-.27-.29a.77.77,0,0,0-.28.61l-3.21,156.82c0,.31.12.48.29.38Z"/><path fill="#092e66" d="M1913.69,1672.77a.93.93,0,0,0,.3-.72l2.94-156.89c0-.24-.11-.37-.26-.28a.83.83,0,0,0-.29.61l-3,156.92c0,.3.13.47.3.37Z"/><path fill="#092e66" d="M1904.61,1672.78a1,1,0,0,0,.3-.72l2.73-157c0-.24-.11-.36-.26-.27a.76.76,0,0,0-.28.61l-2.79,157c0,.3.13.46.29.36Z"/><path fill="#092e66" d="M1895.52,1672.79a1,1,0,0,0,.31-.73l2.51-157.08c0-.24-.11-.35-.26-.26h0a.8.8,0,0,0-.28.61l-2.58,157.11c0,.3.13.45.3.35Z"/><path fill="#092e66" d="M1886.42,1672.79h0a1,1,0,0,0,.31-.73l2.3-157.17c0-.23-.11-.35-.26-.25h0a.82.82,0,0,0-.28.61l-2.36,157.21C1886.12,1672.75,1886.25,1672.9,1886.42,1672.79Z"/><path fill="#092e66" d="M1877.31,1672.8h0a1,1,0,0,0,.31-.73l2.09-157.26c0-.24-.11-.35-.27-.25a.85.85,0,0,0-.27.61l-2.15,157.3C1877,1672.76,1877.14,1672.9,1877.31,1672.8Z"/><path fill="#092e66" d="M1868.18,1672.81h0a1,1,0,0,0,.31-.73l1.87-157.35c0-.24-.12-.34-.26-.24a.83.83,0,0,0-.27.61l-1.94,157.4C1867.9,1672.77,1868,1672.91,1868.18,1672.81Z"/><path fill="#092e66" d="M1859.05,1672.81h0a1,1,0,0,0,.3-.73l1.66-157.44c0-.23-.12-.34-.26-.23a.83.83,0,0,0-.27.61l-1.72,157.49C1858.77,1672.78,1858.9,1672.91,1859.05,1672.81Z"/><path fill="#092e66" d="M1849.91,1672.82h0a1.08,1.08,0,0,0,.3-.74l1.44-157.53c0-.23-.11-.33-.26-.22a.91.91,0,0,0-.27.61l-1.5,157.59C1849.64,1672.79,1849.76,1672.92,1849.91,1672.82Z"/><path fill="#092e66" d="M1841.59,1674a3.31,3.31,0,0,1-3.31-3.31V1475.32a15.51,15.51,0,0,0-15.49-15.49h-46.71a3.31,3.31,0,0,1,0-6.62h46.71a22.14,22.14,0,0,1,22.11,22.11v195.41A3.31,3.31,0,0,1,1841.59,1674Z"/><path fill="#092e66" d="M1949.69,1674a3.31,3.31,0,0,1-3.31-3.31V1475.32a15.51,15.51,0,0,0-15.5-15.49h-46.7a3.31,3.31,0,0,1,0-6.62h46.7a22.14,22.14,0,0,1,22.12,22.11v195.41A3.31,3.31,0,0,1,1949.69,1674Z"/><path fill="#092e66" d="M2058.91,1736.19H1869.65a31.09,31.09,0,1,1,0-62.17h201.44a3.31,3.31,0,0,1,0,6.62H1869.65a24.47,24.47,0,1,0,0,48.93h189.26a3.31,3.31,0,0,1,0,6.62Z"/><path fill="#092e66" d="M2134.88,1736.19H1945.62a31.09,31.09,0,1,1,0-62.17h201.44a3.31,3.31,0,0,1,0,6.62H1945.62a24.47,24.47,0,1,0,0,48.93h189.26a3.31,3.31,0,0,1,0,6.62Z"/><path fill="#092e66" d="M1887.63,1462.38H1785.12a5.91,5.91,0,0,1-5.9-5.91h0a5.9,5.9,0,0,1,5.9-5.9h102.51a5.91,5.91,0,0,1,5.91,5.9h0A5.92,5.92,0,0,1,1887.63,1462.38Z"/><g data-name="male 03"><path fill="#53aefa" d="M3353.05,1431.67a70.8,70.8,0,0,0,1.45,7.41,18.21,18.21,0,0,0,1,2.81c1.65,3.86,4.75,8.18,8.34,10.38h0a8.35,8.35,0,0,0,5.82,1.36l.28-.78a.19.19,0,0,1,0-.07c1.13-3.18,2.18-6.37,3.14-9.53s1.88-6.49,2.71-9.67a272.51,272.51,0,0,0,8.38-59.27c-2.87-2.77-5.81-3.94-8.69-3.79h0C3361.5,1371.23,3349,1402.88,3353.05,1431.67Z"/><path fill="#f7a594" d="M3307.29,1366.83,3274,1351.32l32.94-34.91-5.54-10s-53.93,25.11-58.74,44.32,48.63,53.55,48.63,53.55C3311.6,1409.55,3325.75,1375.34,3307.29,1366.83Z"/><path fill="#5c5099" d="M3302.06,1364.15l-13.76-6.31c-7.25,1.16-20,23.64-18.48,35.26l20.38,20.16Z"/><path fill="#4a3f78" d="M3421.27,1798.92l-38.81-.06a4.52,4.52,0,0,1-1.73-1.56c-2-28.87-4.82-42.77-4.82-42.77l27-1.06L3409,1775C3418.07,1781.15,3428.85,1794.45,3421.27,1798.92Z"/><path fill="#4a3f78" d="M3379.52,1799.38l46,.06c1.17,0,.78-6.39-.38-6.4l-45.74.19C3378.21,1793.23,3378.32,1799.37,3379.52,1799.38Z"/><path fill="#4a3f78" d="M3363.94,1491.42c13.5,20.82,23.22,121.34,41.63,272.69l-27.54,1.41c-8.22-40.32-17.52-60.77-26.91-118.89-22.62-51.31-34.32-99.91-40.28-149.94C3305,1459,3351.34,1439.24,3363.94,1491.42Z"/><path fill="#4a3f78" d="M3331.36,1498.53a852.8,852.8,0,0,1-15.27,136.09c-3.1,61.62-7.16,59.55-13,131.37l-24.89-.36c-2-30.78-18.44-174.28-5.41-266.34C3279.11,1457.81,3335.42,1444.17,3331.36,1498.53Z"/><path fill="#4a3f78" d="M3303.11,1766c2.21,11.9,3.79,21.18,2.84,31.94l-60.3,1.09s-6-5.82,1.56-14.53,21.76-3.64,31-18.86Z"/><path fill="#4a3f78" d="M3242.91,1799.17l64.06.1c1.17,0,.87-6.4-.29-6.4l-63.79.16C3241.69,1793,3241.71,1799.17,3242.91,1799.17Z"/><path fill="#5c5099" d="M3293,1479.14l.16-106.43a20.23,20.23,0,0,1,4-2.18c13.85-5.3,43.5-7.61,66.05-3.47l-.16,112.18Z"/><path fill="#f7937e" d="M3329,1379.49c14.27,2.1,23.16-7.85,25.25-12l-1-28.89L3337,1337a48.57,48.57,0,0,0-13.58,3.13l-3.71,19-.82,4.12C3317,1367.29,3314.74,1377.39,3329,1379.49Z"/><path fill="#d17360" d="M3347.8,1345.12c-2.57,4-13.33,14.05-28.13,14l3.21-16.45Z"/><path fill="#f79f8d" d="M3308.84,1327.44a18.38,18.38,0,0,0,.66,3.68c.07.29.16.57.25.86,2.55,7.92,9.73,15.44,16.14,16.6a43.82,43.82,0,0,0,17.23-2l.28-.09a29.05,29.05,0,0,0,9.69-5.16,93.66,93.66,0,0,0,8.61-12.35,66.38,66.38,0,0,0,5.18-10.6,28.67,28.67,0,0,0,1.56-6.19c2.15-15.58-9.6-28.51-24.08-31.81-13.07-3-22.77.4-28.33,11.53a43.91,43.91,0,0,0-3.42,9.94c-.36,1.55-.81,3.58-1.27,5.84C3310,1314.29,3308.5,1322.86,3308.84,1327.44Z"/><path fill="#d17360" d="M3308.84,1327.44a18.38,18.38,0,0,0,.66,3.68,27.17,27.17,0,0,1,15.64-1.7c9.71,1.88,15.41,10.87,18.26,17.08a29.05,29.05,0,0,0,9.69-5.16,93.66,93.66,0,0,0,8.61-12.35,66.38,66.38,0,0,0,5.18-10.6,28.67,28.67,0,0,0,1.56-6.19c-15.93-12.85-33.17-20.52-52.41-20.28a43.91,43.91,0,0,0-3.42,9.94c-.36,1.55-.81,3.58-1.27,5.84C3310,1314.29,3308.5,1322.86,3308.84,1327.44Z"/><path fill="#73382a" d="M3361.39,1330.44c3.42-6-1.11-8.44-6.09-3.78.85-4.54,6-17.81,1.47-22.22-5.16-5.12-27.91-2.93-40.12-15.69,0,0,9.14-20,39-8.12C3389.42,1298.59,3361.39,1330.44,3361.39,1330.44Z"/><path fill="#53aefa" d="M3269.07,1525.91l105.84.16c1.43-8.42-2.19-34.76-4.32-63.35-.24-3.27-.47-6.57-.66-9.87v-.07c-.2-3.27-.36-6.55-.49-9.81s-.21-6.67-.25-10c-.31-27,2.79-51.12,15-58.71-3-1.33-5.88-2.63-8.69-3.79h0a50.93,50.93,0,0,0-16.58-4.25c-6.49,16.94-26.15,40.68-34.67,41.82,0,0-8.75-19.81-8-41.88-10.23-.62-12.24-1.74-16.12-3.18-3.28,2.49-8.36,11.8-13.93,29.24a190.79,190.79,0,0,0-7.34,33.2c-.47,3.51-.86,7-1.2,10.41-.29,3-.55,6.08-.8,9.12q-.4,5.19-.79,10.42c-.29,3.92-.6,7.88-1,11.9C3273,1483.8,3269.94,1505.13,3269.07,1525.91Z"/><path fill="#53aefa" d="M3372,1313.46c1.31-9.54,2.83-34-18.84-40.35-19.27-5.63-33.11,5.94-39.65,13.56-2.83.43-10.44-1.65-11.78-.07-.32.93,0,2.75,7.71,5.84l0,.07c28,6.18,51.84,14,61.91,27.48a9.5,9.5,0,0,0,2.88.83C3375.11,1320.82,3372.81,1317.07,3372,1313.46Z"/><path fill="#2398fa" d="M3332.74,1293s8.84-20.76,29.72-15.18l.4-.89a53.08,53.08,0,0,0-11.22-5.11c-6.6-1-21.88,1.48-30.71,17.5C3325.45,1291.68,3332.74,1293,3332.74,1293Z"/><path fill="#d4e6ff" d="M3356.35,1323.47c4.12-11.82-13.6-18.14-13.6-18.14l-8.55,24.2S3352.23,1335.29,3356.35,1323.47Z"/><path fill="#d4e6ff" d="M3341.77,1305c11.66,4.46,4,28.84-8.6,24.33l-39.25-12c-9.64-4.5-3.62-27.12,9.28-24Z"/><path fill="#fff" d="M3335.9,1328.17c4.83.25,8.47-4.88,9.56-10.08.88-4.17.29-9.67-4.25-11.44l-38.33-11.59h0c-6.46-1-10,5.18-10.59,7.18-2.27,7.63-.44,12.26,2.45,13.58l39,11.89a7.59,7.59,0,0,0,2.22.46Z"/><path fill="#d4e6ff" d="M3339,1311.09a.43.43,0,0,0,.39-.31.43.43,0,0,0-.29-.54l-36.56-10.92a.43.43,0,1,0-.24.82l36.56,10.93Z"/><polygon fill="#73382a" points="3355.55 1318.26 3352.69 1326.38 3361.8 1329.36 3367.3 1323.99 3355.55 1318.26"/><path fill="#d17360" d="M3356.44,1324.54c-2.59,3.14-2.71,7.31-.26,9.32s6.53,1.08,9.12-2.06,2.71-7.31.26-9.31S3359,1321.4,3356.44,1324.54Z"/><path fill="#5c5099" d="M3383.77,1375.94s13.92,39.76-11.56,44.6c-20.8,2.62-8.41-38.82-2.44-43.62S3378.5,1367.26,3383.77,1375.94Z"/><path fill="#f7a594" d="M3404.37,1394.1c-1.42,6-15.33,18.49-27.19,19.13-12.29,1.07-14.35-25.74-6.76-33.84l9-4.75Z"/><path fill="#f7a594" d="M3401.91,1397.33c10.5-9.38-2.74-33.67-47-73.85l-8.6,5.9C3350.58,1342.4,3379.92,1417,3401.91,1397.33Z"/><path fill="#f7a594" d="M3329.83,1333.31c1.56,1.9,10.92,5.43,18,4l.56-.13,1,.34c12.07,3.79,13.41-4.67,13.41-4.67l.06-.57c.29-3,1.26-17.21-6.08-23.09-8.22-6.61-13.06-5.3-13.06-5.3l-3.95.66s10.76,3.52,10,13.08-8.51,14.38-18.28,11.18C3331.45,1328.77,3326.1,1328.76,3329.83,1333.31Z"/><path fill="#f9f9f9" d="M3359.05,1315.78a.33.33,0,0,0,.32-.3c0-.22.39-5.38-6.31-9.43a.35.35,0,0,0-.47.12.34.34,0,0,0,.12.46c6.33,3.81,6,8.74,6,8.79a.34.34,0,0,0,.31.36Z"/><path fill="#f9f9f9" d="M3354.11,1313.72h0a.33.33,0,0,0,.3-.37c0-.07-.85-7.49-7.15-9.64a.33.33,0,0,0-.42.2.34.34,0,0,0,.2.43c5.89,2,6.7,9,6.7,9.08A.34.34,0,0,0,3354.11,1313.72Z"/><path fill="#f9f9f9" d="M3399.49,1373.24l.12,0a.29.29,0,0,0,.11-.38c-.11-.21-11.47-21.11-36.51-42.26,0-8.12-.91-18-7.46-22.48a.27.27,0,1,0-.31.45c6.37,4.4,7.2,14.15,7.21,22.16v.13l.1.08c25,21.11,36.37,42,36.49,42.18A.27.27,0,0,0,3399.49,1373.24Z"/><path fill="#fff" d="M3277.67,1435.88l77.81,6,14,1.08,3.65.28q1.47-4.89,2.71-9.67l-6.61-.56-16.14-1.35-74.18-6.2C3278.4,1429,3278,1432.44,3277.67,1435.88Z"/><path fill="#fff" d="M3370.59,1462.72c-.24-3.27-.47-6.57-.66-9.87a.19.19,0,0,1,0-.07h0l-6.1-.51h0l-87-7.27q-.4,5.19-.79,10.42Z"/></g><rect width="3424.34" height="18.49" x="37.83" y="1790.43" fill="#312f54"/><circle cx="534.8" cy="954.11" r="88.5" fill="#625ea8" transform="rotate(-45 534.808 954.115)"/><path fill="#fff" d="M575.74,940.12V991H545.91V968.11a10.74,10.74,0,0,0-21.47,0V991H497v-50.9l39.37-27.85Z"/><circle cx="259.03" cy="670.46" r="114.76" fill="#6298a8" transform="rotate(-45 259.035 670.464)"/><rect width="25.59" height="105.15" x="256.31" y="588.79" fill="#fff" transform="rotate(-73.63 269.07 641.344)"/><rect width="13.8" height="105.71" x="254.49" y="613.1" fill="#fff" transform="rotate(-73.63 261.353 665.94)"/><rect width="7.18" height="28.34" x="319.72" y="659.15" fill="#fff" transform="rotate(16.3 324.865 678.305)"/><polygon fill="#fff" points="237.61 703.04 201.87 703.04 201.87 697.94 234.21 697.94 244.2 672.83 249 674.54 237.61 703.04"/><rect width="5.1" height="54.81" x="201.67" y="674.59" fill="#fff"/><circle cx="1850.94" cy="308.79" r="128.69" fill="#625ea8"/><rect width="129.43" height="74.31" x="1784.35" y="271.2" fill="#fff"/><rect width="111.86" height="59.68" x="1793.14" y="278.51" fill="#625ea8"/><path fill="#fff" d="M1852.14,327.57a5.47,5.47,0,0,1-7.6-.1,5.13,5.13,0,0,1,.15-7.4,5.47,5.47,0,0,1,7.6.1A5.13,5.13,0,0,1,1852.14,327.57Z"/><path fill="#fff" d="M1869,306.38h0a1.65,1.65,0,0,0-.07-2.35,31.08,31.08,0,0,0-42.58.39,1.65,1.65,0,0,0-.06,2.35h0a1.77,1.77,0,0,0,2.45.08,27.87,27.87,0,0,1,37.82-.34A1.75,1.75,0,0,0,1869,306.38Z"/><path fill="#fff" d="M1864.13,311.59h0a1.66,1.66,0,0,0-.12-2.39,24.42,24.42,0,0,0-32.71.29,1.65,1.65,0,0,0-.1,2.39h0a1.77,1.77,0,0,0,2.42.1,21.23,21.23,0,0,1,28.09-.25A1.75,1.75,0,0,0,1864.13,311.59Z"/><path fill="#fff" d="M1859.41,316.64v0a1.65,1.65,0,0,0-.14-2.41,18,18,0,0,0-23.19.2,1.64,1.64,0,0,0-.12,2.41v0a1.77,1.77,0,0,0,2.38.12,14.82,14.82,0,0,1,18.67-.15A1.76,1.76,0,0,0,1859.41,316.64Z"/><rect width="65.57" height="7.33" x="1816.99" y="349.98" fill="#fff"/><circle cx="2104.66" cy="602.19" r="87.44" fill="#6298a8" transform="rotate(-13.61 2103.988 602.095)"/><path fill="#fff" d="M2159.21,619.15l-4.27-24.92v-.32a21,21,0,0,0-16.18-20.36,4.16,4.16,0,0,0-4-3.14h-13.37a4.2,4.2,0,0,0-3,1.23,4.11,4.11,0,0,0-.91,1.36h-28.09a4.2,4.2,0,0,0-3.87-2.6h-13.35a4.2,4.2,0,0,0-4,3h0a21,21,0,0,0-16.71,20.48c0,.36,0,.72,0,1.08v0l-4.14,24.14c-1.17,6.91,3.35,14,10,16.3s14.26-.53,16.83-7.11l6.47-16.49c14.45-4.19,29.67-3.7,45.49.57l6.24,15.92c2.58,6.58,10.08,9.5,16.83,7.11S2160.39,626.06,2159.21,619.15Zm-79.62-24.22h-2.76v2.78a4.21,4.21,0,0,1-4.2,4.2,4.17,4.17,0,0,1-3-1.23,4.25,4.25,0,0,1-1.23-3v-2.78h-2.78a4.18,4.18,0,0,1-4.19-4.2,4.2,4.2,0,0,1,4.19-4.19h2.78v-2.78a4.2,4.2,0,1,1,8.4,0v2.78h2.76a4.18,4.18,0,0,1,4.2,4.19,4.2,4.2,0,0,1-4.2,4.2Zm48.58-13.76h0a4.77,4.77,0,0,1,1.24-2.37,5.21,5.21,0,0,1,3.88-1.72,5.07,5.07,0,0,1,2.76.8h0a3.19,3.19,0,0,1,.59.43,5.28,5.28,0,1,1-8.65,4.05A4.57,4.57,0,0,1,2128.17,581.17Zm19.08,9.64a5.29,5.29,0,1,1-5.28-5.29A5.29,5.29,0,0,1,2147.25,590.81Zm-8.66,8.3a5.28,5.28,0,1,1-5.28-5.29A5.29,5.29,0,0,1,2138.59,599.11Zm-13.69-3a5.35,5.35,0,0,1-5.3-5.28,5.31,5.31,0,0,1,4.69-5.28h.61a5.29,5.29,0,0,1,0,10.57Z"/><circle cx="595.98" cy="313.63" r="78.39" fill="#625ea8" transform="rotate(-45 595.979 313.628)"/><path fill="#fff" d="M594.55,308.92a21.44,21.44,0,0,0,16.65-8.15,20.9,20.9,0,0,0,4.59-13.26,21.33,21.33,0,1,0-42.65,0,20.89,20.89,0,0,0,4.58,13.26A21.52,21.52,0,0,0,594.55,308.92Z"/><path fill="#fff" d="M632.17,347.08c0,13.51-75.45,13.51-75.45,0l0-15.75c3-21.53,69.3-22.43,75.44,0Z"/><circle cx="3129.02" cy="494.47" r="90.44" fill="#625ea8"/><path fill="#fff" d="M3168.29,486.15a25,25,0,0,0,.26-3.48,25.8,25.8,0,0,0-49.56-10,18,18,0,0,0-30,13.45h-3.36a17.46,17.46,0,0,0-17.4,17.41h0a17.45,17.45,0,0,0,17.4,17.4H3167a17.45,17.45,0,0,0,17.4-17.4h0A17.45,17.45,0,0,0,3168.29,486.15Z"/><circle cx="3219.83" cy="1027.97" r="105.49" fill="#6298a8" transform="rotate(-45 3219.83 1027.973)"/><path fill="#fff" d="M3210.38,991.43v-4.52a3.72,3.72,0,0,0-3.72-3.73H3167a3.72,3.72,0,0,0-3.72,3.73v80h102.49v-75.5Z"/><polygon fill="#9d9de0" points="3169.57 986.4 3163.32 1066.93 3265.31 1066.93 3270.07 986.4 3169.57 986.4"/><path fill="#fff" d="M3265.81,1066.93H3163.32l10.87-71.84a4.31,4.31,0,0,1,4.25-3.66h93.8a4.3,4.3,0,0,1,4.25,4.94Z"/><circle cx="1517.93" cy="633.83" r="92.11" fill="#6298a8"/><path fill="#fff" d="M1519.17,678.43h-3.75l-2.91-38.15v-41.8c0-12.35,10.84-12.35,10.84,0V640Z"/><polygon fill="#fff" points="1514.05 613.7 1450.66 654.58 1450.66 661.96 1514.05 638.55 1514.05 613.7"/><polygon fill="#fff" points="1521.01 613.7 1584.4 654.58 1584.4 661.96 1521.01 638.55 1521.01 613.7"/><polygon fill="#fff" points="1516.55 671.61 1496.77 676.41 1496.77 678.44 1516.55 678.44 1516.55 671.61"/><polygon fill="#fff" points="1518.24 671.61 1538.02 676.41 1538.02 678.44 1518.24 678.44 1518.24 671.61"/><circle cx="2425.02" cy="296.13" r="92.62" fill="#625ea8" transform="rotate(-45 2425.019 296.124)"/><path fill="#fff" d="M2425,353.25a57.12,57.12,0,1,1,57.12-57.12A57.18,57.18,0,0,1,2425,353.25Zm0-108.76a51.65,51.65,0,1,0,51.65,51.64A51.69,51.69,0,0,0,2425,244.49Z"/><path fill="#fff" d="M2425,353.25c-20,0-36.35-25.62-36.35-57.12S2405,239,2425,239s36.36,25.62,36.36,57.12S2445.07,353.25,2425,353.25Zm0-108.76c-17,0-30.88,23.16-30.88,51.64S2408,347.78,2425,347.78s30.88-23.17,30.88-51.65S2442.05,244.49,2425,244.49Z"/><rect width="106.72" height="5.48" x="2371.32" y="290.8" fill="#fff"/><rect width="5.48" height="109.12" x="2422.28" y="241.75" fill="#fff"/><path fill="#fff" d="M2425,353.25c-20,0-36.35-25.62-36.35-57.12S2405,239,2425,239s36.36,25.62,36.36,57.12S2445.07,353.25,2425,353.25Zm0-108.76c-17,0-30.88,23.16-30.88,51.64S2408,347.78,2425,347.78s30.88-23.17,30.88-51.65S2442.05,244.49,2425,244.49Z"/><circle cx="2769.2" cy="590.22" r="107.24" fill="#625ea8" transform="rotate(-45 2769.197 590.22)"/><path fill="#fff" d="M2717,564.44v78.61c0,8.75,106.88,8.75,106.88,0V564.44Zm58.85,41.74v22.28a5.41,5.41,0,1,1-10.82,0V606.13a13.14,13.14,0,1,1,10.82,0Z"/><path fill="#fff" d="M2814.47,565h-10.82v-5.3a33.26,33.26,0,1,0-66.52,0V565h-10.81v-5.3a44.08,44.08,0,1,1,88.15,0Z"/><circle cx="1138.1" cy="274.67" r="90.44" fill="#625ea8"/><path fill="#fff" d="M1177.37,266.34a25,25,0,0,0,.26-3.48,25.8,25.8,0,0,0-49.56-10,18,18,0,0,0-30,13.45h-3.36a17.45,17.45,0,0,0-17.4,17.4h0a17.45,17.45,0,0,0,17.4,17.4h81.37a17.45,17.45,0,0,0,17.4-17.4h0A17.45,17.45,0,0,0,1177.37,266.34Z"/><path fill="#288fc7" d="M2251.16,1444.83h0a3.12,3.12,0,0,0-.14-4.45c-23.08-21.11-57.75-20.79-80.66.73a3.12,3.12,0,0,0-.1,4.45h0a3.33,3.33,0,0,0,4.63.15,52.82,52.82,0,0,1,71.64-.64A3.34,3.34,0,0,0,2251.16,1444.83Z"/><path fill="#288fc7" d="M2241.93,1454.7l0,0a3.14,3.14,0,0,0-.23-4.53,46.28,46.28,0,0,0-62,.54,3.14,3.14,0,0,0-.18,4.54v0a3.32,3.32,0,0,0,4.57.18,40.22,40.22,0,0,1,53.21-.46A3.34,3.34,0,0,0,2241.93,1454.7Z"/><path fill="#288fc7" d="M2233,1464.26l0,0a3.12,3.12,0,0,0-.27-4.56,34.09,34.09,0,0,0-43.93.37,3.12,3.12,0,0,0-.23,4.57l0,0a3.34,3.34,0,0,0,4.5.24,28.05,28.05,0,0,1,35.36-.3A3.33,3.33,0,0,0,2233,1464.26Z"/><path fill="#288fc7" d="M1069.18,1479h0a3.11,3.11,0,0,0,2.91-3.36c-2.61-31.17-28.28-54.47-59.71-54.22a3.12,3.12,0,0,0-3.1,3.2h0a3.34,3.34,0,0,0,3.3,3.25,52.81,52.81,0,0,1,53,48.16A3.35,3.35,0,0,0,1069.18,1479Z"/><path fill="#288fc7" d="M1055.71,1480h0a3.15,3.15,0,0,0,2.91-3.48,46.28,46.28,0,0,0-45.87-41.67,3.14,3.14,0,0,0-3.22,3.2v0a3.33,3.33,0,0,0,3.23,3.24,40.2,40.2,0,0,1,39.38,35.78A3.33,3.33,0,0,0,1055.71,1480Z"/><path fill="#288fc7" d="M1042.64,1481h0a3.11,3.11,0,0,0,2.9-3.53,34.06,34.06,0,0,0-32.5-29.55,3.11,3.11,0,0,0-3.27,3.2v0a3.34,3.34,0,0,0,3.15,3.23,28,28,0,0,1,26.15,23.79A3.35,3.35,0,0,0,1042.64,1481Z"/><path fill="#288fc7" d="M3157.77,1531.57h0a3.12,3.12,0,0,0-.14-4.44c-23.08-21.12-57.75-20.81-80.66.71a3.12,3.12,0,0,0-.1,4.45h0a3.34,3.34,0,0,0,4.63.15,52.8,52.8,0,0,1,71.63-.63A3.33,3.33,0,0,0,3157.77,1531.57Z"/><path fill="#288fc7" d="M3148.55,1541.44v0a3.14,3.14,0,0,0-.22-4.53,46.28,46.28,0,0,0-62,.53,3.15,3.15,0,0,0-.19,4.54l0,0a3.32,3.32,0,0,0,4.57.18,40.2,40.2,0,0,1,53.2-.45A3.35,3.35,0,0,0,3148.55,1541.44Z"/><path fill="#288fc7" d="M3139.6,1551l0,0a3.12,3.12,0,0,0-.27-4.56,34.07,34.07,0,0,0-43.92.36,3.12,3.12,0,0,0-.24,4.57l0,0a3.35,3.35,0,0,0,4.51.24,28,28,0,0,1,35.35-.29A3.33,3.33,0,0,0,3139.6,1551Z"/><path fill="#288fc7" d="M2945.94,1506.49h0a3.11,3.11,0,0,0,3-3.23c-1.36-31.26-26.08-55.57-57.49-56.59a3.13,3.13,0,0,0-3.22,3.08h0a3.33,3.33,0,0,0,3.16,3.38,52.82,52.82,0,0,1,51.06,50.26A3.33,3.33,0,0,0,2945.94,1506.49Z"/><path fill="#288fc7" d="M2932.44,1506.93h0a3.15,3.15,0,0,0,3.05-3.36,46.28,46.28,0,0,0-44.16-43.48,3.14,3.14,0,0,0-3.34,3.07v0a3.32,3.32,0,0,0,3.09,3.36,40.23,40.23,0,0,1,37.92,37.34A3.32,3.32,0,0,0,2932.44,1506.93Z"/><path fill="#288fc7" d="M2919.35,1507.36h0a3.13,3.13,0,0,0,3-3.42,34.09,34.09,0,0,0-31.29-30.83,3.13,3.13,0,0,0-3.4,3.07v0a3.35,3.35,0,0,0,3,3.36,28,28,0,0,1,25.17,24.81A3.35,3.35,0,0,0,2919.35,1507.36Z"/><path fill="#288fc7" d="M450,1097.73h0a3.1,3.1,0,0,0,0-4.44c-22.6-21.62-57.27-22.08-80.65-1.08a3.11,3.11,0,0,0-.2,4.44h0a3.34,3.34,0,0,0,4.63.26,52.81,52.81,0,0,1,71.63,1A3.34,3.34,0,0,0,450,1097.73Z"/><path fill="#288fc7" d="M440.51,1107.38h0a3.14,3.14,0,0,0-.12-4.53,46.27,46.27,0,0,0-62-.85,3.14,3.14,0,0,0-.29,4.53l0,0a3.32,3.32,0,0,0,4.56.28,40.23,40.23,0,0,1,53.21.73A3.33,3.33,0,0,0,440.51,1107.38Z"/><path fill="#288fc7" d="M431.35,1116.75l0,0a3.13,3.13,0,0,0-.17-4.57,34.07,34.07,0,0,0-43.92-.62,3.12,3.12,0,0,0-.34,4.57l0,0a3.35,3.35,0,0,0,4.5.34,28,28,0,0,1,35.35.5A3.35,3.35,0,0,0,431.35,1116.75Z"/><path fill="#625ea8" d="M259,1134.13h-3.77v-12.58H259Zm0-25.16h-3.77v-12.59H259Zm0-25.17h-3.77v-12.58H259Zm0-25.17h-3.77v-12.58H259Zm0-25.17h-3.77v-12.58H259Zm0-25.16h-3.77V995.71H259Zm0-25.17h-3.77V970.54H259ZM259,958h-3.77V945.38H259Zm0-25.17h-3.77V920.21H259Zm0-25.16h-3.77V895H259Zm0-25.17h-3.77V869.87H259Zm0-25.17h-3.77V844.71H259Zm0-25.17h-3.77V819.54H259Z"/><path fill="#625ea8" d="M269.78,537.34H266V524.76h3.78Zm0-25.17H266V499.59h3.78Zm0-25.16H266V474.42h3.78Zm0-25.17H266V449.26h3.78Zm0-25.17H266V424.09h3.78Zm0-25.17H266V398.92h3.78Zm0-25.16H266V373.75h3.78Zm0-25.17H266V348.58h3.78Zm0-25.17H266V323.42h3.78ZM487.3,318.21H474.72v-3.78H487.3Zm-25.16,0H449.55v-3.78h12.59Zm-25.17,0H424.39v-3.78H437Zm-25.17,0H399.22v-3.78H411.8Zm-25.17,0H374.05v-3.78h12.58Zm-25.16,0H348.88v-3.78h12.59Zm-25.17,0H323.71v-3.78H336.3Zm-25.17,0H298.55v-3.78h12.58Zm-25.17,0H273.38v-3.78H286Z"/><path fill="#625ea8" d="M391.28,622.8l-2.67-2.67,8.9-8.9,2.67,2.67Zm17.8-17.8-2.67-2.67,8.89-8.9L418,596.1Zm17.79-17.8-2.67-2.67,8.9-8.89,2.67,2.66Zm17.8-17.79L442,566.74l8.9-8.9,2.67,2.67Zm17.79-17.8-2.66-2.67,8.89-8.9,2.67,2.67Zm17.8-17.8-2.67-2.66,8.9-8.9,2.67,2.67ZM498.06,516l-2.67-2.67,8.9-8.9,2.67,2.67Zm17.79-17.8-2.67-2.67,8.9-8.9,2.67,2.67Zm17.8-17.79L531,477.76l8.9-8.9,2.67,2.67Zm17.8-17.8L548.78,460l8.62-8.63h2v3.06l.17.17-.17.17v.38H559Zm428.63-7.52h-5.46v-3.78h4l5.21-4.84,2.57,2.77Zm-18.05,0H949.45v-3.78H962Zm-25.16,0H924.28v-3.78h12.59Zm-25.17,0H899.11v-3.78H911.7Zm-25.17,0H874v-3.78h12.58Zm-25.17,0H848.78v-3.78h12.58Zm-25.17,0H823.61v-3.78h12.58Zm-25.16,0H798.44v-3.78H811Zm-25.17,0H773.28v-3.78h12.58Zm-25.17,0H748.11v-3.78h12.58Zm-25.17,0H722.94v-3.78h12.58Zm-25.16,0H697.77v-3.78h12.59Zm-25.17,0H672.61v-3.78h12.58Zm-25.17,0H647.44v-3.78H660Zm-25.17,0H622.27v-3.78h12.58Zm-25.16,0H597.1v-3.78h12.59Zm-25.17,0H571.94v-3.78h12.58ZM995.6,440.69,993,437.92l9.22-8.56,2.57,2.77ZM1014,423.56l-2.57-2.77,9.22-8.56,2.57,2.77Zm18.44-17.13-2.57-2.76,9.22-8.57,2.57,2.77Zm18.44-17.13-2.57-2.76,9.22-8.57,2.57,2.77Z"/><path fill="#625ea8" d="M1421.27,556.23l-8.9-8.89,2.67-2.67,8.9,8.89Zm-17.8-17.79-8.9-8.9,2.67-2.67,8.9,8.9Zm-17.8-17.8-8.89-8.9,2.67-2.67,8.89,8.9Zm-17.79-17.79L1359,494l2.67-2.67,8.9,8.9Zm-17.8-17.8-8.9-8.9,2.67-2.67,8.9,8.9Zm-17.79-17.8-8.9-8.89,2.67-2.67,8.89,8.89Zm-17.8-17.79-8.9-8.9,2.67-2.67,8.9,8.9Zm-17.8-17.8-8.9-8.9,2.67-2.67,8.9,8.9Zm-17.79-17.8L1270,405l2.67-2.67,8.9,8.9Zm-17.8-17.79-8.9-8.9,2.67-2.67,8.9,8.9Zm-17.8-17.8-8.89-8.9,2.67-2.67,8.89,8.9Zm-17.79-17.79-8.9-8.9,2.67-2.67,8.9,8.9Z"/><path fill="#625ea8" d="M1830.79,829.1H1827V816.51h3.77Zm0-25.17H1827V791.34h3.77Zm0-25.17H1827V766.18h3.77Zm0-25.17H1827V741h3.77Zm0-25.16H1827V715.84h3.77Zm0-25.17H1827V690.67h3.77Zm0-25.17H1827V665.51h3.77Zm0-25.17H1827V640.34h3.77Zm0-25.17H1827V615.17h3.77Zm0-25.16H1827V590h3.77Zm0-25.17H1827V564.84h3.77Zm0-25.17H1827V539.67h3.77Zm0-25.17H1827V514.5h3.77Zm0-25.16H1827V489.33h3.77Zm0-25.17H1827V464.17h3.77Z"/><path fill="#625ea8" d="M2302.1,299.43h-12.59v-3.78h12.59Zm-25.17,0h-12.59v-3.78h12.59Zm-25.17,0h-12.58v-3.78h12.58Zm-25.17,0H2214v-3.78h12.58Zm-25.16,0h-12.59v-3.78h12.59Zm-25.17,0h-12.59v-3.78h12.59Zm-25.17,0h-12.58v-3.78h12.58Zm-25.17,0h-12.58v-3.78h12.58Zm-25.16,0h-12.59v-3.78h12.59Zm-25.17,0H2063v-3.78h12.59Zm-25.17,0h-12.58v-3.78h12.58Zm-25.17,0h-12.58v-3.78h12.58Z"/><path fill="#625ea8" d="M2200.35,518.87l-2.67-2.67,2.57-2.57,2.67,2.67Zm11.47-11.46-2.67-2.67,8.9-8.9,2.67,2.67Zm17.8-17.8-2.67-2.67,8.9-8.9,2.66,2.67Zm17.79-17.8-2.67-2.67,8.9-8.89,2.67,2.66Zm17.8-17.79-2.67-2.67,8.9-8.9,2.67,2.67Zm17.8-17.8-2.67-2.67,8.89-8.9,2.67,2.67Zm17.79-17.8-2.67-2.66,8.9-8.9,2.67,2.67Zm17.8-17.79-2.67-2.67,8.9-8.9,2.66,2.67Zm17.79-17.8-2.67-2.67,8.9-8.89,2.67,2.66Z"/><path fill="#625ea8" d="M3124.89,375.19h-3.78v-5.63h3.78Zm0-18.22h-3.78V344.39h3.78Zm0-25.16h-3.78V319.22h3.78Zm0-25.17h-3.78v-7.21h-1.6v-3.78h5.38Zm-18-7.21h-12.58v-3.78h12.58Zm-25.17,0h-12.58v-3.78h12.58Zm-25.17,0H3044v-3.78h12.58Zm-25.16,0h-12.59v-3.78h12.59Zm-25.17,0h-12.58v-3.78h12.58Zm-25.17,0h-12.58v-3.78h12.58Zm-25.17,0h-12.58v-3.78h12.58Zm-25.16,0h-12.59v-3.78h12.59Zm-25.17,0H2893v-3.78h12.58Zm-25.17,0h-12.58v-3.78h12.58Zm-25.17,0h-12.58v-3.78h12.58Zm-25.16,0H2817.5v-3.78h12.59Zm-25.17,0h-12.59v-3.78h12.59Zm-25.17,0h-12.58v-3.78h12.58Zm-25.17,0H2742v-3.78h12.58Zm-25.16,0h-12.59v-3.78h12.59Zm-25.17,0h-12.59v-3.78h12.59Zm-25.17,0H2666.5v-3.78h12.58Zm-25.17,0h-12.58v-3.78h12.58Zm-25.16,0h-12.59v-3.78h12.59Zm-25.17,0H2591v-3.78h12.59Zm-25.17,0h-12.58v-3.78h12.58Zm-25.17,0h-12.58v-3.78h12.58Z"/><path fill="#625ea8" d="M3110.86,927.35l-8.9-8.89,2.67-2.67,8.9,8.89Zm-17.8-17.79-8.89-8.9,2.67-2.67,8.89,8.9Zm-17.79-17.8-8.9-8.9,2.67-2.67,8.9,8.9ZM3057.47,874l-8.9-8.9,2.67-2.67,8.9,8.9Zm-17.79-17.8-8.9-8.9,2.67-2.67,8.9,8.9Zm-17.8-17.8-8.9-8.9,2.67-2.66,8.9,8.89Zm-17.8-17.79-8.89-8.9,2.66-2.67,8.9,8.9Zm-17.79-17.8-8.9-8.9,2.67-2.67,8.9,8.9Zm-17.8-17.8-8.9-8.89,2.67-2.67,8.9,8.89Zm-17.79-17.79-8.9-8.9,2.67-2.67,8.89,8.9Zm-17.8-17.8-8.9-8.9,2.67-2.67,8.9,8.9Zm-17.8-17.79-8.9-8.9,2.67-2.67,8.9,8.9Zm-17.79-17.8-8.9-8.9,2.67-2.67,8.9,8.9Zm-17.8-17.8-8.9-8.9,2.67-2.66,8.9,8.89Z"/><path fill="#625ea8" d="M2631.09,598.43h-2.37v-3.78h2.37Zm-15,0h-12.59v-3.78h12.59Zm-25.17,0h-12.58v-3.78H2591Zm-25.17,0h-12.58v-3.78h12.58Zm-25.17,0h-12.58v-3.78h12.58Zm-25.16,0h-12.59v-3.78h12.59Zm-25.17,0h-12.58v-3.78h12.58Zm-25.17,0h-12.58v-3.78h12.58Zm-25.17,0h-12.58v-3.78H2440Zm-25.16,0h-12.59v-3.78h12.59Zm-25.17,0H2377v-3.78h12.59Zm-25.17,0h-12.58v-3.78h12.58Zm-25.17,0h-12.58v-3.78h12.58Zm-25.16,0h-12.59v-3.78h12.59Zm-25.17,0h-12.59v-3.78H2289Zm-25.17,0h-12.58v-3.78h12.58Zm-25.17,0H2226v-3.78h12.58Z"/><path fill="#625ea8" d="M1194.75,961.83H1191V949.24h3.77Zm0-25.17H1191V924.07h3.77Zm0-25.17H1191V898.91h3.77Zm0-25.17H1191V873.74h3.77Zm0-25.17H1191V848.57h3.77Zm0-25.16H1191V823.4h3.77Zm0-25.17H1191V798.24h3.77Zm0-25.17H1191V773.07h3.77Zm0-25.17H1191V747.9h3.77Zm0-25.16H1191V722.73h3.77Zm0-25.17H1191V697.57h3.77Zm0-25.17H1191V672.4h3.77Zm0-25.17H1191V647.23h3.77Zm0-25.16H1191v-7.47h8.89V631h-5.12Zm206.46-3.7h-12.58v-3.77h12.58ZM1376,631h-12.58v-3.77H1376Zm-25.16,0h-12.59v-3.77h12.59Zm-25.17,0h-12.58v-3.77h12.58Zm-25.17,0H1288v-3.77h12.58Zm-25.17,0h-12.58v-3.77h12.58Zm-25.16,0h-12.59v-3.77h12.59ZM1225,631h-12.58v-3.77H1225Z"/><path fill="#625ea8" d="M1704.22,302.06h-12.59v-3.78h12.59Zm-25.17,0h-12.59v-3.78h12.59Zm-25.17,0H1641.3v-3.78h12.58Zm-25.17,0h-12.58v-3.78h12.58Zm-25.16,0H1591v-3.78h12.59Zm-25.17,0h-12.59v-3.78h12.59Zm-25.17,0h-12.58v-3.78h12.58Zm-25.17,0h-12.58v-3.78H1528Zm-25.17,0h-12.58v-3.78h12.58Zm-25.16,0h-12.59v-3.78h12.59Zm-25.17,0H1440v-3.78h12.58Zm-25.17,0h-12.58v-3.78h12.58Zm-25.17,0h-12.58v-3.78h12.58Zm-25.16,0h-12.59v-3.78H1377Zm-25.17,0h-12.58v-3.78h12.58Zm-25.17,0h-12.58v-3.78h12.58Zm-25.17,0H1289v-3.78h12.58Zm-25.16,0h-12.59v-3.78h12.59Z"/><path fill="#625ea8" d="M1594,550.63l-2.69-2.65,8.83-9,2.69,2.65Zm17.66-17.92-2.68-2.65,8.83-9,2.69,2.65Zm17.67-17.93-2.69-2.65,8.83-9,2.69,2.65ZM1647,496.86l-2.69-2.65,8.83-9,2.69,2.65Zm17.66-17.93-2.69-2.65,8.84-9,2.69,2.65ZM1682.37,461l-2.69-2.65,8.83-9,2.69,2.65ZM1700,443.08l-2.69-2.65,8.83-9,2.69,2.65Zm17.66-17.92-2.69-2.65,8.84-9,2.68,2.65Z"/><path fill="#625ea8" d="M2111.1,813.81h-3.78V801.22h3.78Zm0-25.17h-3.78V776.05h3.78Zm0-25.17h-3.78V750.89h3.78Zm0-25.17h-3.78V725.72h3.78Zm0-25.16h-3.78V700.55h3.78Z"/><circle cx="256.3" cy="1138.93" r="10.11" fill="#625ea8"/><circle cx="256.3" cy="823.03" r="10.11" fill="#625ea8"/><circle cx="358.74" cy="771.03" r="10.1" fill="#625ea8"/><circle cx="389.95" cy="621.46" r="10.11" fill="#625ea8"/><circle cx="267.89" cy="537.34" r="10.1" fill="#625ea8"/><circle cx="490.77" cy="314.83" r="10.11" fill="#625ea8" transform="rotate(-22.5 490.76 314.821)"/><circle cx="1067.26" cy="374.7" r="10.11" fill="#625ea8"/><circle cx="1219.49" cy="350.42" r="10.11" fill="#625ea8"/><circle cx="1263" cy="299.32" r="10.1" fill="#625ea8"/><circle cx="1696.87" cy="299.32" r="10.11" fill="#625ea8"/><circle cx="1731.58" cy="408.39" r="10.1" fill="#625ea8"/><circle cx="1828.91" cy="464.17" r="10.1" fill="#625ea8" transform="rotate(-80.78 1828.969 464.137)"/><circle cx="2012.65" cy="295.63" r="10.1" fill="#625ea8" transform="rotate(-80.78 2012.707 295.599)"/><circle cx="2305.24" cy="295.63" r="10.1" fill="#625ea8" transform="rotate(-76.72 2305.167 295.674)"/><circle cx="2546.12" cy="295.63" r="10.1" fill="#625ea8" transform="rotate(-80.78 2546.191 295.585)"/><circle cx="2336.95" cy="378.07" r="10.11" fill="#625ea8"/><circle cx="2199.02" cy="517.54" r="10.11" fill="#625ea8"/><circle cx="2224.91" cy="598.26" r="10.11" fill="#625ea8"/><circle cx="2109.31" cy="708.6" r="10.1" fill="#625ea8" transform="matrix(.16 -.99 .99 .16 1071.99 2677.17)"/><circle cx="2630.94" cy="595.62" r="10.11" fill="#625ea8"/><circle cx="3123" cy="297.54" r="10.1" fill="#625ea8" transform="rotate(-76.72 3122.908 297.603)"/><circle cx="3123" cy="371.94" r="10.1" fill="#625ea8" transform="rotate(-76.72 3122.903 371.998)"/><circle cx="2872.91" cy="687.84" r="10.11" fill="#625ea8"/><circle cx="3116.42" cy="928.56" r="10.11" fill="#625ea8"/><circle cx="2109.31" cy="813.69" r="10.11" fill="#625ea8"/><circle cx="1848.8" cy="821.12" r="10.11" fill="#625ea8"/><circle cx="1594.51" cy="549.01" r="10.11" fill="#625ea8"/><circle cx="1427.19" cy="560.58" r="10.11" fill="#625ea8"/><circle cx="1408.5" cy="629.12" r="10.11" fill="#625ea8"/><circle cx="1194.89" cy="631.79" r="10.11" fill="#625ea8"/><circle cx="450.32" cy="862.6" r="10.11" fill="#625ea8"/><path fill="#625ea8" d="M447.82,863.72l-8.89-8.9,2.66-2.67,8.9,8.9ZM430,845.93l-8.9-8.9,2.67-2.67,8.9,8.9Zm-17.8-17.8-8.9-8.9,2.67-2.67,8.9,8.9Zm-17.8-17.8-8.89-8.89,2.67-2.67,8.89,8.89Zm-17.79-17.79-8.9-8.9,2.67-2.67,8.9,8.9Zm-17.8-17.8-8.9-8.9,2.67-2.67,8.9,8.9Z"/></g></svg>