<svg xmlns="http://www.w3.org/2000/svg" enable-background="new 0 0 3000 2500" viewBox="0 0 3000 2500"><rect width="2918.6" height="2432.2" x="40.7" y="33.9" fill="none"/><g opacity=".26"><ellipse cx="1664.2" cy="1904.4" fill="#29174c" opacity="0" rx="372.3" ry="159"/><ellipse cx="1664.2" cy="1903.7" fill="#29174c" opacity=".036" rx="364.2" ry="155.5"/><ellipse cx="1664.2" cy="1903" fill="#29174c" opacity=".071" rx="356" ry="152"/><ellipse cx="1664.2" cy="1902.3" fill="#29174c" opacity=".107" rx="347.9" ry="148.6"/><ellipse cx="1664.2" cy="1901.6" fill="#29174c" opacity=".143" rx="339.8" ry="145.1"/><ellipse cx="1664.2" cy="1901" fill="#29174c" opacity=".179" rx="331.6" ry="141.6"/><ellipse cx="1664.2" cy="1900.3" fill="#29174c" opacity=".214" rx="323.5" ry="138.1"/><ellipse cx="1664.2" cy="1899.6" fill="#29174c" opacity=".25" rx="315.4" ry="134.7"/><ellipse cx="1664.2" cy="1898.9" fill="#29174c" opacity=".286" rx="307.2" ry="131.2"/><ellipse cx="1664.2" cy="1898.2" fill="#29174c" opacity=".321" rx="299.1" ry="127.7"/><ellipse cx="1664.2" cy="1897.6" fill="#29174c" opacity=".357" rx="291" ry="124.2"/><ellipse cx="1664.2" cy="1896.9" fill="#29174c" opacity=".393" rx="282.8" ry="120.8"/><ellipse cx="1664.2" cy="1896.2" fill="#29174c" opacity=".429" rx="274.7" ry="117.3"/><ellipse cx="1664.2" cy="1895.5" fill="#29174c" opacity=".464" rx="266.6" ry="113.8"/><ellipse cx="1664.2" cy="1894.9" fill="#29174c" opacity=".5" rx="258.4" ry="110.4"/><ellipse cx="1664.2" cy="1894.2" fill="#29174c" opacity=".536" rx="250.3" ry="106.9"/><ellipse cx="1664.2" cy="1893.5" fill="#29174c" opacity=".571" rx="242.2" ry="103.4"/><ellipse cx="1664.2" cy="1892.8" fill="#29174c" opacity=".607" rx="234" ry="99.9"/><ellipse cx="1664.2" cy="1892.1" fill="#29174c" opacity=".643" rx="225.9" ry="96.5"/><ellipse cx="1664.2" cy="1891.5" fill="#29174c" opacity=".679" rx="217.8" ry="93"/><ellipse cx="1664.2" cy="1890.8" fill="#29174c" opacity=".714" rx="209.6" ry="89.5"/><ellipse cx="1664.2" cy="1890.1" fill="#29174c" opacity=".75" rx="201.5" ry="86"/><ellipse cx="1664.2" cy="1889.4" fill="#29174c" opacity=".786" rx="193.4" ry="82.6"/><ellipse cx="1664.2" cy="1888.7" fill="#29174c" opacity=".821" rx="185.2" ry="79.1"/><ellipse cx="1664.2" cy="1888.1" fill="#29174c" opacity=".857" rx="177.1" ry="75.6"/><ellipse cx="1664.2" cy="1887.4" fill="#29174c" opacity=".893" rx="169" ry="72.1"/><ellipse cx="1664.2" cy="1886.7" fill="#29174c" opacity=".929" rx="160.8" ry="68.7"/><ellipse cx="1664.2" cy="1886" fill="#29174c" opacity=".964" rx="152.7" ry="65.2"/><ellipse cx="1664.2" cy="1885.4" fill="#29174c" rx="144.6" ry="61.7"/></g><g opacity=".26"><ellipse cx="875.1" cy="1500.1" fill="#29174c" opacity="0" rx="372.3" ry="159"/><ellipse cx="875.1" cy="1499.4" fill="#29174c" opacity=".036" rx="364.2" ry="155.5"/><ellipse cx="875.1" cy="1498.7" fill="#29174c" opacity=".071" rx="356" ry="152"/><ellipse cx="875.1" cy="1498.1" fill="#29174c" opacity=".107" rx="347.9" ry="148.6"/><ellipse cx="875.1" cy="1497.4" fill="#29174c" opacity=".143" rx="339.8" ry="145.1"/><ellipse cx="875.1" cy="1496.7" fill="#29174c" opacity=".179" rx="331.6" ry="141.6"/><ellipse cx="875.1" cy="1496" fill="#29174c" opacity=".214" rx="323.5" ry="138.1"/><ellipse cx="875.1" cy="1495.3" fill="#29174c" opacity=".25" rx="315.4" ry="134.7"/><ellipse cx="875.1" cy="1494.7" fill="#29174c" opacity=".286" rx="307.2" ry="131.2"/><ellipse cx="875.1" cy="1494" fill="#29174c" opacity=".321" rx="299.1" ry="127.7"/><ellipse cx="875.1" cy="1493.3" fill="#29174c" opacity=".357" rx="291" ry="124.2"/><ellipse cx="875.1" cy="1492.6" fill="#29174c" opacity=".393" rx="282.8" ry="120.8"/><ellipse cx="875.1" cy="1492" fill="#29174c" opacity=".429" rx="274.7" ry="117.3"/><ellipse cx="875.1" cy="1491.3" fill="#29174c" opacity=".464" rx="266.6" ry="113.8"/><ellipse cx="875.1" cy="1490.6" fill="#29174c" opacity=".5" rx="258.4" ry="110.4"/><ellipse cx="875.1" cy="1489.9" fill="#29174c" opacity=".536" rx="250.3" ry="106.9"/><ellipse cx="875.1" cy="1489.2" fill="#29174c" opacity=".571" rx="242.2" ry="103.4"/><ellipse cx="875.1" cy="1488.6" fill="#29174c" opacity=".607" rx="234" ry="99.9"/><ellipse cx="875.1" cy="1487.9" fill="#29174c" opacity=".643" rx="225.9" ry="96.5"/><ellipse cx="875.1" cy="1487.2" fill="#29174c" opacity=".679" rx="217.8" ry="93"/><ellipse cx="875.1" cy="1486.5" fill="#29174c" opacity=".714" rx="209.6" ry="89.5"/><ellipse cx="875.1" cy="1485.8" fill="#29174c" opacity=".75" rx="201.5" ry="86"/><ellipse cx="875.1" cy="1485.2" fill="#29174c" opacity=".786" rx="193.4" ry="82.6"/><ellipse cx="875.1" cy="1484.5" fill="#29174c" opacity=".821" rx="185.2" ry="79.1"/><ellipse cx="875.1" cy="1483.8" fill="#29174c" opacity=".857" rx="177.1" ry="75.6"/><ellipse cx="875.1" cy="1483.1" fill="#29174c" opacity=".893" rx="169" ry="72.1"/><ellipse cx="875.1" cy="1482.5" fill="#29174c" opacity=".929" rx="160.8" ry="68.7"/><ellipse cx="875.1" cy="1481.8" fill="#29174c" opacity=".964" rx="152.7" ry="65.2"/><ellipse cx="875.1" cy="1481.1" fill="#29174c" rx="144.6" ry="61.7"/></g><linearGradient id="a" x1="340.689" x2="1168.379" y1="916.15" y2="916.15" gradientUnits="userSpaceOnUse"><stop offset="0" stop-color="#053f9b"/><stop offset="1" stop-color="#3084d7"/></linearGradient><polygon fill="url(#a)" points="663.2 585.1 1168.4 878 845.9 1247.2 340.7 954.3"/><linearGradient id="b" x1="663.196" x2="1581.901" y1="704.232" y2="704.232" gradientUnits="userSpaceOnUse"><stop offset="0" stop-color="#053f9b"/><stop offset="1" stop-color="#3084d7"/></linearGradient><polygon fill="url(#b)" points="1581.9 823.4 1076.7 530.5 663.2 585.1 1168.4 878"/><linearGradient id="c" x1="960.056" x2="1472.451" y1="1002.264" y2="1430.265" gradientUnits="userSpaceOnUse"><stop offset="0" stop-color="#fff"/><stop offset="1" stop-color="#bababa"/></linearGradient><polygon fill="url(#c)" points="1168.4 878 1581.9 823.4 1581.9 1185.5 845.9 1605.2 845.9 1247.2"/><linearGradient id="d" x1="564.662" x2="639.009" y1="1045.152" y2="1660.026" gradientUnits="userSpaceOnUse"><stop offset="0" stop-color="#fff"/><stop offset="1" stop-color="#bababa"/></linearGradient><polygon fill="url(#d)" points="340.7 1316.5 340.7 954.3 845.9 1247.2 845.9 1605.2"/><polygon fill="#818181" points="917.5 1564.4 1247.4 1376.3 1247.4 1064.8 917.5 1252.9"/><polygon fill="#515151" points="1203.5 1089.8 1203.5 1351.2 1247.4 1376.3 1247.4 1064.8"/><polygon fill="#d3d3d3" points="1247.4 1376.3 1203.5 1351.2 917.5 1511.2 917.5 1564.4"/><line x1="917.5" x2="1203.5" y1="1306.6" y2="1143.5" fill="#818181" stroke="#29174c" stroke-linecap="round" stroke-linejoin="round" stroke-miterlimit="10" stroke-width="6.307"/><line x1="917.5" x2="1203.5" y1="1361.3" y2="1198.2" fill="#818181" stroke="#29174c" stroke-linecap="round" stroke-linejoin="round" stroke-miterlimit="10" stroke-width="6.307"/><line x1="917.5" x2="1203.5" y1="1416" y2="1252.9" fill="#818181" stroke="#29174c" stroke-linecap="round" stroke-linejoin="round" stroke-miterlimit="10" stroke-width="6.307"/><line x1="917.5" x2="1203.5" y1="1470.7" y2="1307.6" fill="#818181" stroke="#29174c" stroke-linecap="round" stroke-linejoin="round" stroke-miterlimit="10" stroke-width="6.307"/><polygon fill="#818181" points="1384 1298.6 1534.2 1211.4 1534.2 899.9 1384 987.2"/><polygon fill="#515151" points="1490.3 924.9 1490.3 1186.4 1534.2 1211.4 1534.2 899.9"/><polygon fill="#d3d3d3" points="1534.2 1211.4 1490.3 1186.4 1384 1245.4 1384 1298.6"/><polygon fill="#818181" points="1150.4 1075 1300.6 987.7 1300.6 889.1 1150.4 976.4"/><polygon fill="#515151" points="1256.7 914.1 1256.7 962.7 1300.6 987.7 1300.6 889.1"/><polygon fill="#d3d3d3" points="1300.6 987.7 1256.7 962.7 1150.4 1021.7 1150.4 1075"/><polygon fill="#818181" points="528.3 1236.4 378 1149.2 378 1050.5 528.3 1137.8"/><polygon fill="#515151" points="422 1075.6 422 1124.1 378 1149.2 378 1050.5"/><polygon fill="#d3d3d3" points="378 1149.2 422 1124.1 528.3 1183.2 528.3 1236.4"/><g><polygon fill="#818181" points="743.5 1356.9 593.3 1269.6 593.3 1171 743.5 1258.2"/><polygon fill="#515151" points="637.2 1196 637.2 1244.6 593.3 1269.6 593.3 1171"/><polygon fill="#d3d3d3" points="593.3 1269.6 637.2 1244.6 743.5 1303.6 743.5 1356.9"/></g><g><linearGradient id="e" x1="2477.574" x2="2577.115" y1="990.18" y2="849.652" gradientUnits="userSpaceOnUse"><stop offset="0" stop-color="#515151"/><stop offset="1" stop-color="#bababa"/></linearGradient><polygon fill="url(#e)" points="2461 939.6 2635 1041.4 2635 841.9 2461 740.1"/><polygon fill="#9e9e9e" points="2659.3 1027.3 2635 1041.4 2635 841.9 2659.3 827.7"/><polygon fill="#ededed" points="2659.3 827.7 2635 841.9 2461 740.1 2485.4 726"/><path fill="#29174c" d="M2607.6,850.3c7.2,4.1,13,14.2,12.9,22.4c0,8.2-5.9,11.6-13,7.4c-7.2-4.1-13-14.2-12.9-22.4     C2594.6,849.5,2600.4,846.1,2607.6,850.3z"/><path fill="#29174c" d="M2607.6,974.4c7.2,4.1,13,14.2,12.9,22.4c0,8.2-5.9,11.6-13,7.4c-7.2-4.1-13-14.2-12.9-22.4     C2594.6,973.6,2600.4,970.3,2607.6,974.4z"/><path fill="#29174c" d="M2486.5,771.5c7.2,4.1,13,14.2,12.9,22.4c0,8.2-5.9,11.6-13,7.4c-7.2-4.1-13-14.2-12.9-22.4     C2473.5,770.7,2479.3,767.4,2486.5,771.5z"/><path fill="#29174c" d="M2486.5,895.6c7.2,4.1,13,14.2,12.9,22.4c0,8.2-5.9,11.6-13,7.4c-7.2-4.1-13-14.2-12.9-22.4     C2473.5,894.8,2479.3,891.5,2486.5,895.6z"/><path fill="#6c6d6c" d="M2587.2,905c0-0.6,0-1.3-0.1-2c0-0.3,0-0.6-0.1-0.9c0-0.1,0-0.3,0-0.4c0-0.2,0-0.5-0.1-0.7      c-0.1-0.7-0.1-1.3-0.2-2c-0.1-0.7-0.2-1.3-0.3-2c0,0,0,0,0,0c0,0,0-0.1,0-0.1c-0.1-0.6-0.2-1.3-0.3-1.9      c-0.1-0.7-0.3-1.4-0.4-2.1c-0.1-0.2-0.1-0.5-0.2-0.7c0-0.1-0.1-0.3-0.1-0.4c-0.1-0.3-0.1-0.6-0.2-0.9c-0.2-0.7-0.4-1.4-0.6-2.1      c-0.1-0.5-0.3-1-0.5-1.5c0-0.1-0.1-0.2-0.1-0.3c0-0.1-0.1-0.2-0.1-0.3c-0.2-0.7-0.4-1.4-0.7-2.1c-0.2-0.7-0.5-1.4-0.7-2.1      c0-0.1-0.1-0.2-0.1-0.4c0-0.1-0.1-0.2-0.1-0.3c-0.2-0.4-0.3-0.9-0.5-1.3c-0.3-0.7-0.5-1.3-0.8-2c-0.2-0.5-0.4-0.9-0.6-1.4      c0-0.1-0.1-0.2-0.1-0.3c0-0.1-0.1-0.2-0.1-0.3c-0.3-0.7-0.6-1.3-0.9-1.9c-0.3-0.7-0.7-1.4-1-2.1c-0.1-0.1-0.1-0.2-0.2-0.3      c-0.1-0.1-0.1-0.3-0.2-0.4c-0.3-0.6-0.6-1.1-0.9-1.7c-0.4-0.7-0.8-1.4-1.2-2c-0.2-0.4-0.4-0.7-0.6-1.1c-0.1-0.1-0.2-0.3-0.2-0.4      c-0.4-0.6-0.7-1.2-1.1-1.8c-0.5-0.9-1.1-1.7-1.6-2.6c-0.1-0.1-0.2-0.3-0.3-0.4c-0.8-1.2-1.6-2.3-2.4-3.5c0,0-0.1-0.1-0.1-0.1      l0,0c-0.6-0.8-1.2-1.6-1.8-2.3c-0.5-0.6-1-1.2-1.5-1.8c0,0,0,0,0,0c0,0,0,0,0,0c-0.5-0.6-1-1.2-1.6-1.8c-0.5-0.6-1-1.2-1.6-1.7      c-0.1-0.1-0.2-0.2-0.3-0.3c-0.1-0.1-0.2-0.2-0.3-0.3c-0.4-0.4-0.7-0.8-1.1-1.2c-0.6-0.6-1.1-1.1-1.7-1.7      c-0.2-0.2-0.4-0.3-0.5-0.5c-0.1-0.1-0.3-0.2-0.4-0.4c-0.3-0.3-0.6-0.5-0.8-0.8c-0.6-0.5-1.2-1.1-1.8-1.6      c-0.3-0.2-0.5-0.4-0.8-0.6c-0.1-0.1-0.3-0.2-0.4-0.3c-0.2-0.2-0.4-0.3-0.6-0.5c-0.6-0.5-1.2-0.9-1.8-1.3      c-0.4-0.3-0.9-0.6-1.3-0.9c-0.1-0.1-0.1-0.1-0.2-0.2c-0.1-0.1-0.2-0.1-0.2-0.2c-0.6-0.4-1.1-0.8-1.7-1.1c-0.6-0.4-1.1-0.7-1.7-1      c-0.1-0.1-0.3-0.2-0.4-0.2c-0.4-0.2-0.9-0.5-1.3-0.7c-0.6-0.3-1.1-0.6-1.7-0.9c-0.4-0.2-0.7-0.3-1.1-0.5c-0.1,0-0.2-0.1-0.2-0.1      c-0.1,0-0.2-0.1-0.3-0.2c-0.5-0.2-1.1-0.5-1.6-0.7c-0.5-0.2-1.1-0.4-1.6-0.6c-0.1,0-0.2-0.1-0.3-0.1c-0.1,0-0.2-0.1-0.2-0.1      c-0.4-0.1-0.7-0.2-1.1-0.4c-0.6-0.2-1.1-0.3-1.7-0.5c-0.3-0.1-0.5-0.1-0.8-0.2c-0.1,0-0.2-0.1-0.3-0.1c-0.2,0-0.3-0.1-0.5-0.1      c-0.6-0.1-1.2-0.2-1.8-0.3c-0.4,0-0.7-0.1-1.1-0.1c-0.1,0-0.2,0-0.4,0c-0.1,0-0.2,0-0.4,0c-0.6,0-1.3-0.1-1.9-0.1      c-0.3,0-0.5,0-0.8,0c-0.2,0-0.4,0-0.6,0c-0.2,0-0.4,0-0.6,0c-0.8,0.1-1.6,0.2-2.3,0.3c0,0,0,0,0,0c-0.2,0-0.3,0.1-0.5,0.1      c-0.8,0.2-1.5,0.4-2.3,0.6c-0.1,0-0.1,0.1-0.2,0.1c-1.1,0.4-2.1,0.9-3.1,1.4l-22,13.3c1-0.6,2-1,3.1-1.4      c0.8-0.3,1.6-0.5,2.5-0.7c0.2,0,0.3-0.1,0.5-0.1c1-0.2,2-0.3,3-0.4c0.2,0,0.4,0,0.6,0c1,0,2,0,3.1,0.1c0.1,0,0.2,0,0.4,0      c1.1,0.1,2.2,0.3,3.3,0.5c0.1,0,0.2,0.1,0.4,0.1c1.2,0.3,2.3,0.6,3.5,1c0.1,0,0.2,0.1,0.2,0.1c1.3,0.4,2.5,0.9,3.8,1.5      c0.1,0,0.2,0.1,0.3,0.1c1.3,0.6,2.6,1.3,4,2.1c1.4,0.8,2.7,1.6,4,2.6c0.1,0.1,0.2,0.1,0.2,0.2c1.2,0.9,2.5,1.8,3.7,2.8      c0.1,0.1,0.3,0.2,0.4,0.3c1.2,1,2.3,2,3.4,3c0.1,0.1,0.3,0.2,0.4,0.4c1.1,1.1,2.3,2.2,3.4,3.3c0.1,0.1,0.2,0.2,0.3,0.3      c1.2,1.2,2.3,2.5,3.4,3.9c0,0,0,0,0.1,0.1c1.1,1.4,2.2,2.7,3.3,4.2c0,0.1,0.1,0.1,0.1,0.2c0.9,1.3,1.8,2.5,2.7,3.8      c0.6,0.8,1.1,1.7,1.6,2.6c0.4,0.7,0.9,1.4,1.3,2.2c0.2,0.4,0.4,0.7,0.6,1.1c0.7,1.2,1.4,2.5,2,3.7c0.1,0.1,0.1,0.3,0.2,0.4      c0.8,1.5,1.5,3.1,2.2,4.7c0,0.1,0.1,0.2,0.1,0.3c0.7,1.5,1.3,3.1,1.9,4.7c0,0.1,0.1,0.2,0.1,0.3c0.6,1.6,1.1,3.2,1.6,4.8      c0,0.1,0.1,0.2,0.1,0.3c0.5,1.5,0.9,3.1,1.2,4.6c0,0.1,0.1,0.3,0.1,0.4c0.4,1.6,0.7,3.2,0.9,4.8c0,0,0,0,0,0.1      c0.3,1.6,0.4,3.2,0.6,4.7c0,0.1,0,0.3,0,0.4c0.1,1.6,0.2,3.1,0.2,4.7c0,1.5-0.1,3-0.2,4.4c0,0.1,0,0.3,0,0.4      c-0.1,1.3-0.3,2.5-0.5,3.8c0,0.2-0.1,0.3-0.1,0.5c-0.2,1.2-0.5,2.3-0.9,3.3c-0.1,0.2-0.1,0.4-0.2,0.6c-0.3,1-0.7,2-1.1,2.9      c0,0.1-0.1,0.2-0.1,0.3c-0.5,1-1,2-1.6,2.9c-0.8,1.3-1.8,2.4-2.8,3.4c-0.2,0.3-0.5,0.5-0.8,0.7c-1.1,1-2.2,1.9-3.4,2.6l0,0v0v0      l22-13.3c1.2-0.7,2.3-1.6,3.4-2.6c0.3-0.2,0.5-0.5,0.8-0.7c1-1,2-2.2,2.8-3.4c0,0,0,0,0-0.1c0.6-0.9,1.1-1.8,1.5-2.8      c0,0,0-0.1,0-0.1c0.1-0.1,0.1-0.2,0.1-0.3c0.3-0.6,0.5-1.2,0.8-1.9c0.1-0.3,0.2-0.7,0.3-1c0.1-0.2,0.1-0.4,0.2-0.6      c0.1-0.2,0.1-0.3,0.2-0.5c0.2-0.7,0.4-1.4,0.5-2.1c0.1-0.2,0.1-0.5,0.2-0.8c0-0.2,0.1-0.3,0.1-0.5c0-0.2,0.1-0.5,0.1-0.7      c0.1-0.6,0.2-1.3,0.3-1.9c0-0.4,0.1-0.7,0.1-1.1c0-0.1,0-0.3,0-0.4c0-0.2,0-0.3,0-0.5c0.1-0.6,0.1-1.3,0.1-1.9      c0-0.6,0-1.3,0-1.9c0,0,0-0.1,0-0.1C2587.2,906.3,2587.2,905.7,2587.2,905z"/><path fill="#d6d4d4" d="M2525.1,850.6c22.3,12.9,40.2,44,40.1,69.6c-0.1,25.5-18.1,35.9-40.4,23c-22.3-12.8-40.2-44-40.1-69.5       C2484.7,848.1,2502.8,837.8,2525.1,850.6z"/><path fill="#fff" d="M2501.6,851.1c-0.8,0.3-1.5,0.6-2.2,1c5.7,0.4,11.9,2.5,18,6c22.2,12.8,39.9,41.5,42.4,67.6      c0.2-1.7,0.3-3.6,0.4-5.5c0.1-23.9-16.8-53.2-37.6-65.2l0,0C2514.7,850.5,2507.3,849.1,2501.6,851.1z"/><path fill="#9e9e9e" d="M2390,996.7c-26.7,0-52.8-12.6-68.8-35.6l-39.2-56.2c-8-11.4-5.2-27.2,6.2-35.1c11.4-8,27.1-5.2,35.1,6.2     l39.3,56.2c9.9,14.1,29.3,18.4,44.2,9.7l90.7-56.4c11.8-7.4,27.4-3.7,34.7,8.1c7.4,11.8,3.7,27.4-8.1,34.7l-91.3,56.8     C2419.3,992.9,2404.6,996.7,2390,996.7z"/><polygon fill="#676d6d" points="1941.2 974.8 1749.9 873.9 1749.9 669.2 1941.2 794.6"/><linearGradient id="f" x1="1791.189" x2="1918.3" y1="860.193" y2="860.193" gradientUnits="userSpaceOnUse"><stop offset="0" stop-color="#515151"/><stop offset="1" stop-color="#bababa"/></linearGradient><path fill="url(#f)" d="M1918.3,875.2c0-0.8-0.1-1.6-0.1-2.4      c0-0.4-0.1-0.7-0.1-1.1c0-0.2,0-0.3,0-0.5c0-0.3,0-0.6-0.1-0.9c-0.1-0.8-0.2-1.6-0.3-2.4c-0.1-0.8-0.2-1.7-0.4-2.5c0,0,0,0,0,0      c0-0.1,0-0.1,0-0.1c-0.1-0.8-0.3-1.6-0.4-2.4c-0.2-0.9-0.3-1.7-0.5-2.6c-0.1-0.3-0.1-0.6-0.2-0.9c0-0.2-0.1-0.4-0.1-0.5      c-0.1-0.4-0.2-0.8-0.3-1.2c-0.2-0.9-0.5-1.8-0.7-2.6c-0.2-0.6-0.4-1.3-0.6-1.9c0-0.1-0.1-0.2-0.1-0.4c0-0.1-0.1-0.3-0.1-0.4      c-0.3-0.9-0.5-1.7-0.8-2.6c-0.3-0.8-0.6-1.7-0.9-2.5c-0.1-0.2-0.1-0.3-0.2-0.4c0-0.1-0.1-0.3-0.1-0.4c-0.2-0.5-0.4-1.1-0.6-1.6      c-0.3-0.8-0.6-1.6-1-2.4c-0.2-0.6-0.5-1.1-0.7-1.7c0-0.1-0.1-0.2-0.1-0.3c-0.1-0.1-0.1-0.2-0.2-0.4c-0.4-0.8-0.7-1.6-1.1-2.4      c-0.4-0.9-0.8-1.7-1.3-2.6c-0.1-0.1-0.1-0.3-0.2-0.4c-0.1-0.2-0.2-0.3-0.2-0.5c-0.4-0.7-0.7-1.4-1.1-2.1      c-0.4-0.9-0.9-1.7-1.4-2.5c-0.2-0.4-0.5-0.9-0.7-1.3c-0.1-0.2-0.2-0.4-0.3-0.5c-0.4-0.7-0.9-1.4-1.4-2.2c-0.7-1.1-1.3-2.1-2-3.2      c-0.1-0.2-0.2-0.4-0.3-0.5c-1-1.5-2-2.9-3-4.3c0-0.1-0.1-0.1-0.1-0.2l0,0c-0.7-1-1.5-1.9-2.2-2.9c-0.6-0.8-1.2-1.5-1.8-2.3      c0,0,0,0,0,0c0,0,0,0-0.1-0.1c-0.6-0.8-1.3-1.5-1.9-2.2c-0.6-0.7-1.3-1.4-1.9-2.2c-0.1-0.1-0.2-0.2-0.3-0.3      c-0.1-0.1-0.2-0.2-0.3-0.4c-0.5-0.5-0.9-1-1.4-1.5c-0.7-0.7-1.4-1.4-2.1-2.1c-0.2-0.2-0.4-0.4-0.7-0.6c-0.2-0.2-0.3-0.3-0.5-0.4      c-0.4-0.3-0.7-0.7-1.1-1c-0.7-0.7-1.5-1.3-2.2-1.9c-0.3-0.3-0.6-0.5-1-0.8c-0.2-0.1-0.3-0.3-0.5-0.4c-0.3-0.2-0.5-0.4-0.7-0.6      c-0.7-0.6-1.5-1.1-2.2-1.7c-0.5-0.4-1.1-0.8-1.6-1.1c-0.1-0.1-0.2-0.1-0.3-0.2c-0.1-0.1-0.2-0.1-0.3-0.2c-0.7-0.5-1.4-1-2.1-1.4      c-0.7-0.4-1.4-0.9-2.1-1.3c-0.2-0.1-0.3-0.2-0.5-0.3c-0.5-0.3-1.1-0.6-1.6-0.9c-0.7-0.4-1.4-0.7-2-1.1c-0.4-0.2-0.9-0.4-1.3-0.6      c-0.1-0.1-0.2-0.1-0.3-0.1c-0.1-0.1-0.3-0.1-0.4-0.2c-0.7-0.3-1.3-0.6-2-0.8c-0.7-0.3-1.3-0.5-2-0.8c-0.1,0-0.2-0.1-0.3-0.1      c-0.1,0-0.2-0.1-0.3-0.1c-0.4-0.1-0.9-0.3-1.4-0.4c-0.7-0.2-1.4-0.4-2.1-0.6c-0.3-0.1-0.6-0.1-1-0.2c-0.1,0-0.3-0.1-0.4-0.1      c-0.2,0-0.4-0.1-0.6-0.1c-0.7-0.1-1.5-0.3-2.2-0.4c-0.4-0.1-0.9-0.1-1.3-0.1c-0.2,0-0.3,0-0.5,0c-0.1,0-0.3,0-0.4,0      c-0.8-0.1-1.6-0.1-2.3-0.1c-0.3,0-0.7,0-1,0c-0.3,0-0.5,0-0.8,0c-0.3,0-0.5,0-0.8,0c-1,0.1-1.9,0.2-2.9,0.4c0,0,0,0,0,0      c-0.2,0-0.4,0.1-0.6,0.2c-1,0.2-1.9,0.4-2.8,0.8c-0.1,0-0.1,0.1-0.2,0.1c-1.3,0.5-2.6,1.1-3.8,1.8l-42.1,26.4      c1.2-0.7,2.5-1.3,3.8-1.8c1-0.4,2-0.6,3-0.9c0.2,0,0.4-0.1,0.6-0.2c1.2-0.2,2.5-0.4,3.7-0.5c0.3,0,0.5,0,0.8,0      c1.2,0,2.5,0,3.8,0.1c0.2,0,0.3,0,0.5,0c1.3,0.1,2.7,0.3,4.1,0.6c0.2,0,0.3,0.1,0.4,0.1c1.4,0.3,2.9,0.7,4.4,1.2      c0.1,0,0.2,0.1,0.3,0.1c1.6,0.5,3.1,1.2,4.7,1.9c0.1,0,0.2,0.1,0.3,0.1c1.6,0.8,3.3,1.6,4.9,2.6c1.7,1,3.4,2,5,3.2      c0.1,0.1,0.2,0.1,0.3,0.2c1.5,1.1,3,2.2,4.5,3.4c0.2,0.1,0.3,0.3,0.5,0.4c1.4,1.2,2.8,2.4,4.2,3.7c0.2,0.2,0.3,0.3,0.5,0.5      c1.4,1.3,2.8,2.7,4.1,4.1c0.1,0.1,0.2,0.2,0.3,0.3c1.4,1.5,2.8,3.1,4.2,4.8c0,0,0,0,0.1,0.1c1.4,1.7,2.7,3.4,4,5.2      c0.1,0.1,0.1,0.2,0.2,0.3c1.1,1.5,2.2,3.1,3.3,4.7c0.7,1.1,1.4,2.1,2,3.2c0.5,0.9,1.1,1.8,1.7,2.7c0.3,0.4,0.5,0.9,0.7,1.3      c0.9,1.5,1.7,3.1,2.5,4.6c0.1,0.2,0.2,0.3,0.3,0.5c1,1.9,1.9,3.8,2.7,5.8c0,0.1,0.1,0.2,0.1,0.3c0.8,1.9,1.6,3.8,2.3,5.8      c0,0.1,0.1,0.2,0.1,0.4c0.7,2,1.4,4,2,5.9c0,0.1,0.1,0.2,0.1,0.4c0.6,1.9,1.1,3.8,1.5,5.7c0,0.2,0.1,0.4,0.1,0.5      c0.4,2,0.8,3.9,1.1,5.9c0,0,0,0,0,0.1c0.3,2,0.5,3.9,0.7,5.9c0,0.2,0,0.3,0,0.5c0.1,1.9,0.2,3.9,0.2,5.7c0,1.9-0.1,3.7-0.3,5.5      c0,0.2,0,0.3-0.1,0.5c-0.2,1.6-0.4,3.2-0.7,4.6c0,0.2-0.1,0.4-0.1,0.6c-0.3,1.4-0.7,2.8-1.1,4.1c-0.1,0.3-0.2,0.5-0.2,0.7      c-0.4,1.2-0.9,2.4-1.4,3.5c-0.1,0.1-0.1,0.3-0.2,0.4c-0.6,1.3-1.3,2.5-2,3.6c-1,1.6-2.2,3-3.4,4.3c-0.3,0.3-0.6,0.6-0.9,0.9      c-1.3,1.2-2.7,2.3-4.2,3.2l0,0l42.1-26.4c1.5-0.9,2.9-2,4.2-3.2c0.3-0.3,0.6-0.6,0.9-0.9c1.2-1.3,2.4-2.7,3.4-4.3      c0,0,0,0,0.1-0.1c0.7-1.1,1.3-2.2,1.9-3.4c0,0,0-0.1,0-0.1c0.1-0.1,0.1-0.3,0.2-0.4c0.3-0.7,0.7-1.5,1-2.3      c0.1-0.4,0.3-0.8,0.4-1.2c0.1-0.2,0.2-0.5,0.2-0.7c0.1-0.2,0.2-0.4,0.2-0.7c0.2-0.8,0.5-1.7,0.7-2.5c0.1-0.3,0.1-0.6,0.2-0.9      c0-0.2,0.1-0.4,0.1-0.6c0.1-0.3,0.1-0.6,0.2-0.9c0.1-0.8,0.3-1.6,0.4-2.4c0.1-0.4,0.1-0.9,0.1-1.4c0-0.2,0-0.3,0.1-0.5      c0-0.2,0-0.4,0.1-0.6c0.1-0.8,0.1-1.6,0.1-2.4c0-0.8,0.1-1.6,0.1-2.4c0,0,0-0.1,0-0.1C1918.3,876.7,1918.3,875.9,1918.3,875.2z"/><path fill="#ededed" d="M1826.6,817.9c27.5,15.9,49.7,54.4,49.6,86c-0.1,31.6-22.4,44.4-50,28.5c-27.5-15.9-49.7-54.4-49.6-86       C1776.7,814.7,1799.1,802,1826.6,817.9z"/><path fill="#9e9e9e" d="M1857.2,901.2c0-0.6,0-1.3-0.1-2c0-0.3,0-0.6-0.1-0.9c0-0.1,0-0.3,0-0.4c0-0.2,0-0.5-0.1-0.7       c-0.1-0.7-0.1-1.3-0.2-2c-0.1-0.7-0.2-1.3-0.3-2c0,0,0,0,0,0c0,0,0-0.1,0-0.1c-0.1-0.6-0.2-1.3-0.3-1.9       c-0.1-0.7-0.3-1.4-0.4-2.1c0-0.2-0.1-0.5-0.2-0.7c0-0.1-0.1-0.3-0.1-0.4c-0.1-0.3-0.1-0.6-0.2-0.9c-0.2-0.7-0.4-1.4-0.6-2.1       c-0.1-0.5-0.3-1-0.5-1.5c0-0.1-0.1-0.2-0.1-0.3c0-0.1-0.1-0.2-0.1-0.3c-0.2-0.7-0.4-1.4-0.7-2.1c-0.2-0.7-0.5-1.4-0.7-2.1       c0-0.1-0.1-0.2-0.1-0.4c0-0.1-0.1-0.2-0.1-0.3c-0.2-0.4-0.3-0.9-0.5-1.3c-0.3-0.7-0.5-1.3-0.8-2c-0.2-0.5-0.4-0.9-0.6-1.4       c0-0.1-0.1-0.2-0.1-0.3c0-0.1-0.1-0.2-0.1-0.3c-0.3-0.7-0.6-1.3-0.9-1.9c-0.3-0.7-0.7-1.4-1-2.1c0-0.1-0.1-0.2-0.2-0.3       c-0.1-0.1-0.1-0.3-0.2-0.4c-0.3-0.6-0.6-1.1-0.9-1.7c-0.4-0.7-0.8-1.4-1.2-2.1c-0.2-0.4-0.4-0.7-0.6-1.1       c-0.1-0.1-0.2-0.3-0.2-0.4c-0.4-0.6-0.7-1.2-1.1-1.8c-0.5-0.9-1.1-1.7-1.6-2.6c-0.1-0.1-0.2-0.3-0.3-0.4       c-0.8-1.2-1.6-2.3-2.4-3.5c0,0-0.1-0.1-0.1-0.1l0,0c-0.6-0.8-1.2-1.6-1.8-2.3c-0.5-0.6-1-1.2-1.5-1.8c0,0,0,0,0,0c0,0,0,0,0,0       c-0.5-0.6-1-1.2-1.6-1.8c-0.5-0.6-1-1.2-1.6-1.7c-0.1-0.1-0.2-0.2-0.3-0.3c-0.1-0.1-0.2-0.2-0.3-0.3c-0.4-0.4-0.8-0.8-1.1-1.2       c-0.6-0.6-1.1-1.1-1.7-1.7c-0.2-0.2-0.4-0.3-0.5-0.5c-0.1-0.1-0.3-0.2-0.4-0.4c-0.3-0.3-0.6-0.5-0.8-0.8       c-0.6-0.5-1.2-1.1-1.8-1.6c-0.3-0.2-0.5-0.4-0.8-0.6c-0.1-0.1-0.3-0.2-0.4-0.3c-0.2-0.2-0.4-0.3-0.6-0.5       c-0.6-0.5-1.2-0.9-1.8-1.3c-0.4-0.3-0.9-0.6-1.3-0.9c-0.1-0.1-0.1-0.1-0.2-0.2c-0.1-0.1-0.2-0.1-0.2-0.2       c-0.6-0.4-1.1-0.8-1.7-1.1c-0.6-0.4-1.1-0.7-1.7-1c-0.1-0.1-0.3-0.2-0.4-0.2c-0.4-0.2-0.8-0.5-1.3-0.7       c-0.5-0.3-1.1-0.6-1.7-0.9c-0.4-0.2-0.7-0.3-1.1-0.5c-0.1,0-0.2-0.1-0.3-0.1c-0.1,0-0.2-0.1-0.3-0.2c-0.5-0.2-1.1-0.5-1.6-0.7       c-0.5-0.2-1.1-0.4-1.6-0.6c-0.1,0-0.2-0.1-0.3-0.1c-0.1,0-0.2,0-0.2-0.1c-0.4-0.1-0.7-0.2-1.1-0.4c-0.6-0.2-1.1-0.3-1.7-0.5       c-0.3-0.1-0.5-0.1-0.8-0.2c-0.1,0-0.2,0-0.3-0.1c-0.2,0-0.3-0.1-0.5-0.1c-0.6-0.1-1.2-0.2-1.8-0.3c-0.4,0-0.7-0.1-1.1-0.1       c-0.1,0-0.2,0-0.4,0c-0.1,0-0.2,0-0.4,0c-0.6,0-1.3-0.1-1.9-0.1c-0.3,0-0.5,0-0.8,0c-0.2,0-0.4,0-0.6,0c-0.2,0-0.4,0-0.6,0       c-0.8,0.1-1.6,0.2-2.3,0.3c0,0,0,0,0,0c-0.2,0-0.3,0.1-0.5,0.1c-0.8,0.2-1.5,0.4-2.3,0.6c-0.1,0-0.1,0.1-0.2,0.1       c-1.1,0.4-2.1,0.9-3.1,1.4l-74.3,45.5c1-0.6,2-1,3.1-1.4c0.8-0.3,1.6-0.5,2.5-0.7c0.2,0,0.3-0.1,0.5-0.1c1-0.2,2-0.3,3-0.4       c0.2,0,0.4,0,0.6,0c1,0,2,0,3.1,0.1c0.1,0,0.2,0,0.4,0c1.1,0.1,2.2,0.3,3.3,0.5c0.1,0,0.2,0,0.4,0.1c1.2,0.3,2.3,0.6,3.5,1       c0.1,0,0.2,0,0.2,0.1c1.3,0.4,2.5,0.9,3.8,1.5c0.1,0,0.2,0.1,0.3,0.1c1.3,0.6,2.6,1.3,4,2.1c1.4,0.8,2.7,1.6,4,2.6       c0.1,0.1,0.1,0.1,0.2,0.2c1.2,0.9,2.5,1.8,3.7,2.8c0.1,0.1,0.3,0.2,0.4,0.3c1.2,0.9,2.3,1.9,3.4,3c0.1,0.1,0.3,0.2,0.4,0.4       c1.1,1.1,2.3,2.2,3.4,3.4c0.1,0.1,0.2,0.2,0.3,0.3c1.2,1.2,2.3,2.5,3.4,3.9c0,0,0,0,0,0.1c1.1,1.3,2.2,2.7,3.3,4.2       c0,0.1,0.1,0.1,0.1,0.2c0.9,1.3,1.8,2.5,2.7,3.8c0.6,0.8,1.1,1.7,1.6,2.6c0.4,0.7,0.9,1.4,1.3,2.2c0.2,0.4,0.4,0.7,0.6,1.1       c0.7,1.2,1.4,2.5,2,3.7c0.1,0.1,0.1,0.3,0.2,0.4c0.8,1.5,1.5,3.1,2.2,4.7c0,0.1,0.1,0.2,0.1,0.3c0.7,1.5,1.3,3.1,1.9,4.7       c0,0.1,0.1,0.2,0.1,0.3c0.6,1.6,1.1,3.2,1.6,4.8c0,0.1,0.1,0.2,0.1,0.3c0.5,1.5,0.9,3.1,1.2,4.6c0,0.1,0.1,0.3,0.1,0.4       c0.4,1.6,0.7,3.2,0.9,4.8c0,0,0,0,0,0.1c0.3,1.6,0.4,3.2,0.6,4.7c0,0.1,0,0.3,0,0.4c0.1,1.6,0.2,3.1,0.2,4.7       c0,1.5-0.1,3-0.2,4.4c0,0.1,0,0.3,0,0.4c-0.1,1.3-0.3,2.5-0.5,3.8c0,0.2-0.1,0.3-0.1,0.5c-0.2,1.2-0.5,2.3-0.9,3.3       c-0.1,0.2-0.1,0.4-0.2,0.6c-0.3,1-0.7,2-1.1,2.9c0,0.1-0.1,0.2-0.1,0.3c-0.5,1-1,2-1.6,2.9c-0.8,1.3-1.8,2.4-2.8,3.4       c-0.2,0.3-0.5,0.5-0.8,0.7c-1.1,1-2.2,1.9-3.4,2.6l0,0l74.3-45.5c1.2-0.7,2.3-1.6,3.4-2.6c0.3-0.2,0.5-0.5,0.8-0.7       c1-1,2-2.2,2.8-3.4c0,0,0,0,0-0.1c0.5-0.9,1.1-1.8,1.5-2.8c0,0,0-0.1,0-0.1c0.1-0.1,0.1-0.2,0.1-0.3c0.3-0.6,0.5-1.2,0.8-1.9       c0.1-0.3,0.2-0.7,0.3-1c0.1-0.2,0.1-0.4,0.2-0.6c0.1-0.2,0.1-0.4,0.2-0.5c0.2-0.7,0.4-1.4,0.5-2.1c0.1-0.2,0.1-0.5,0.2-0.8       c0-0.2,0.1-0.3,0.1-0.5c0-0.2,0.1-0.5,0.1-0.7c0.1-0.6,0.2-1.3,0.3-1.9c0-0.4,0.1-0.7,0.1-1.1c0-0.1,0-0.3,0-0.4       c0-0.1,0-0.3,0-0.4c0.1-0.6,0.1-1.3,0.1-1.9c0-0.6,0-1.3,0-1.9c0,0,0-0.1,0-0.1C1857.2,902.5,1857.2,901.9,1857.2,901.2z"/><path fill="#ededed" d="M1742.8,879c22.3,12.9,40.2,44,40.1,69.6c-0.1,25.5-18.1,35.9-40.4,23c-22.3-12.8-40.2-44-40.1-69.5        C1702.4,876.5,1720.5,866.1,1742.8,879z"/><linearGradient id="g" x1="1769.591" x2="1717.214" y1="977.665" y2="876.941" gradientUnits="userSpaceOnUse"><stop offset="0" stop-color="#515151"/><stop offset="1" stop-color="#bababa"/></linearGradient><path fill="url(#g)" d="M1818.2,933.2c0-0.8-0.1-1.5-0.1-2.3       c0-0.3-0.1-0.7-0.1-1c0-0.2,0-0.3,0-0.5c0-0.3,0-0.5-0.1-0.8c-0.1-0.8-0.2-1.5-0.3-2.3c-0.1-0.8-0.2-1.6-0.3-2.4c0,0,0,0,0,0       c0-0.1,0-0.1,0-0.1c-0.1-0.8-0.3-1.5-0.4-2.3c-0.2-0.8-0.3-1.6-0.5-2.5c-0.1-0.3-0.1-0.6-0.2-0.9c0-0.2-0.1-0.3-0.1-0.5       c-0.1-0.4-0.2-0.7-0.3-1.1c-0.2-0.8-0.4-1.7-0.7-2.5c-0.2-0.6-0.4-1.2-0.5-1.8c0-0.1-0.1-0.2-0.1-0.3c0-0.1-0.1-0.2-0.1-0.4       c-0.2-0.8-0.5-1.6-0.8-2.4c-0.3-0.8-0.6-1.6-0.8-2.4c-0.1-0.1-0.1-0.3-0.2-0.4c0-0.1-0.1-0.2-0.1-0.4c-0.2-0.5-0.4-1-0.6-1.5       c-0.3-0.8-0.6-1.5-0.9-2.3c-0.2-0.5-0.5-1.1-0.7-1.6c0-0.1-0.1-0.2-0.1-0.3c-0.1-0.1-0.1-0.2-0.1-0.3c-0.3-0.8-0.7-1.5-1-2.3       c-0.4-0.8-0.8-1.7-1.2-2.5c-0.1-0.1-0.1-0.2-0.2-0.4c-0.1-0.2-0.2-0.3-0.2-0.5c-0.3-0.7-0.7-1.3-1-2c-0.4-0.8-0.9-1.6-1.4-2.4       c-0.2-0.4-0.5-0.8-0.7-1.3c-0.1-0.2-0.2-0.3-0.3-0.5c-0.4-0.7-0.9-1.4-1.3-2.1c-0.6-1-1.2-2-1.9-3c-0.1-0.2-0.2-0.3-0.3-0.5       c-0.9-1.4-1.9-2.7-2.9-4.1c0-0.1-0.1-0.1-0.1-0.2l0,0c-0.7-0.9-1.4-1.8-2.1-2.7c-0.6-0.7-1.2-1.4-1.7-2.2c0,0,0,0,0,0       c0,0,0,0-0.1-0.1c-0.6-0.7-1.2-1.4-1.8-2.1c-0.6-0.7-1.2-1.4-1.8-2c-0.1-0.1-0.2-0.2-0.3-0.3c-0.1-0.1-0.2-0.2-0.3-0.3       c-0.4-0.5-0.9-0.9-1.3-1.4c-0.7-0.7-1.3-1.3-2-2c-0.2-0.2-0.4-0.4-0.6-0.6c-0.2-0.1-0.3-0.3-0.5-0.4c-0.3-0.3-0.7-0.6-1-0.9       c-0.7-0.6-1.4-1.2-2.1-1.8c-0.3-0.3-0.6-0.5-0.9-0.8c-0.2-0.1-0.3-0.3-0.5-0.4c-0.2-0.2-0.5-0.4-0.7-0.6       c-0.7-0.5-1.4-1.1-2.1-1.6c-0.5-0.4-1-0.7-1.5-1.1c-0.1-0.1-0.2-0.1-0.3-0.2c-0.1-0.1-0.2-0.1-0.3-0.2c-0.7-0.5-1.3-0.9-2-1.3       c-0.7-0.4-1.3-0.8-2-1.2c-0.2-0.1-0.3-0.2-0.5-0.3c-0.5-0.3-1-0.6-1.5-0.8c-0.6-0.4-1.3-0.7-1.9-1c-0.4-0.2-0.8-0.4-1.2-0.6       c-0.1-0.1-0.2-0.1-0.3-0.1c-0.1-0.1-0.2-0.1-0.4-0.2c-0.6-0.3-1.3-0.6-1.9-0.8c-0.6-0.3-1.3-0.5-1.9-0.7       c-0.1,0-0.2-0.1-0.3-0.1c-0.1,0-0.2-0.1-0.3-0.1c-0.4-0.1-0.9-0.3-1.3-0.4c-0.7-0.2-1.3-0.4-2-0.5c-0.3-0.1-0.6-0.1-0.9-0.2       c-0.1,0-0.3-0.1-0.4-0.1c-0.2,0-0.4-0.1-0.6-0.1c-0.7-0.1-1.4-0.2-2.1-0.3c-0.4-0.1-0.8-0.1-1.2-0.1c-0.1,0-0.3,0-0.4,0       c-0.1,0-0.3,0-0.4,0c-0.8-0.1-1.5-0.1-2.2-0.1c-0.3,0-0.6,0-1,0c-0.2,0-0.5,0-0.7,0c-0.3,0-0.5,0-0.8,0       c-0.9,0.1-1.8,0.2-2.7,0.4c0,0,0,0,0,0c-0.2,0-0.4,0.1-0.6,0.2c-0.9,0.2-1.8,0.4-2.7,0.7c-0.1,0-0.1,0.1-0.2,0.1       c-1.3,0.5-2.5,1-3.6,1.7l-87.3,53.5c1.2-0.7,2.4-1.2,3.6-1.7c0.9-0.3,1.9-0.6,2.9-0.8c0.2,0,0.4-0.1,0.6-0.2       c1.1-0.2,2.3-0.4,3.5-0.4c0.2,0,0.5,0,0.7,0c1.2,0,2.4,0,3.6,0.1c0.1,0,0.3,0,0.4,0c1.3,0.1,2.6,0.3,3.9,0.6       c0.1,0,0.3,0.1,0.4,0.1c1.4,0.3,2.8,0.7,4.2,1.2c0.1,0,0.2,0.1,0.3,0.1c1.5,0.5,3,1.1,4.5,1.8c0.1,0,0.2,0.1,0.3,0.1       c1.5,0.7,3.1,1.5,4.7,2.4c1.6,0.9,3.2,1.9,4.7,3c0.1,0.1,0.2,0.1,0.3,0.2c1.5,1,2.9,2.1,4.3,3.2c0.2,0.1,0.3,0.3,0.5,0.4       c1.4,1.1,2.7,2.3,4,3.5c0.2,0.1,0.3,0.3,0.5,0.4c1.3,1.3,2.7,2.6,3.9,3.9c0.1,0.1,0.2,0.2,0.3,0.3c1.4,1.5,2.7,3,4,4.5       c0,0,0,0,0.1,0.1c1.3,1.6,2.6,3.2,3.8,4.9c0.1,0.1,0.1,0.2,0.2,0.2c1.1,1.5,2.1,3,3.1,4.5c0.7,1,1.3,2,1.9,3.1       c0.5,0.9,1.1,1.7,1.6,2.6c0.2,0.4,0.5,0.8,0.7,1.3c0.8,1.5,1.6,2.9,2.4,4.4c0.1,0.2,0.2,0.3,0.2,0.5c0.9,1.8,1.8,3.6,2.6,5.5       c0,0.1,0.1,0.2,0.1,0.3c0.8,1.8,1.5,3.6,2.2,5.5c0,0.1,0.1,0.2,0.1,0.3c0.7,1.9,1.3,3.8,1.9,5.6c0,0.1,0.1,0.2,0.1,0.3       c0.5,1.8,1,3.6,1.4,5.4c0,0.2,0.1,0.3,0.1,0.5c0.4,1.9,0.8,3.8,1.1,5.6c0,0,0,0,0,0.1c0.3,1.9,0.5,3.7,0.7,5.6       c0,0.2,0,0.3,0,0.5c0.1,1.8,0.2,3.7,0.2,5.5c0,1.8-0.1,3.5-0.2,5.2c0,0.2,0,0.3-0.1,0.5c-0.2,1.5-0.4,3-0.6,4.4       c0,0.2-0.1,0.4-0.1,0.6c-0.3,1.4-0.6,2.7-1,3.9c-0.1,0.2-0.2,0.5-0.2,0.7c-0.4,1.2-0.8,2.3-1.3,3.4c-0.1,0.1-0.1,0.3-0.2,0.4       c-0.6,1.2-1.2,2.3-1.9,3.4c-1,1.5-2.1,2.8-3.3,4.1c-0.3,0.3-0.6,0.6-0.9,0.9c-1.2,1.2-2.5,2.2-4,3l0,0l87.3-53.5       c1.4-0.8,2.8-1.9,4-3c0.3-0.3,0.6-0.6,0.9-0.9c1.2-1.2,2.3-2.5,3.3-4c0,0,0,0,0.1-0.1c0.6-1,1.2-2.1,1.8-3.2c0,0,0-0.1,0-0.1       c0.1-0.1,0.1-0.3,0.2-0.4c0.3-0.7,0.6-1.4,0.9-2.2c0.1-0.4,0.3-0.8,0.4-1.2c0.1-0.2,0.2-0.5,0.2-0.7c0.1-0.2,0.1-0.4,0.2-0.6       c0.2-0.8,0.4-1.6,0.6-2.4c0.1-0.3,0.1-0.6,0.2-0.9c0-0.2,0.1-0.4,0.1-0.6c0.1-0.3,0.1-0.6,0.2-0.9c0.1-0.7,0.2-1.5,0.3-2.3       c0.1-0.4,0.1-0.9,0.1-1.3c0-0.2,0-0.3,0.1-0.5c0-0.2,0-0.3,0.1-0.5c0.1-0.7,0.1-1.5,0.1-2.2c0-0.7,0.1-1.5,0.1-2.3       c0,0,0-0.1,0-0.1C1818.2,934.7,1818.2,934,1818.2,933.2z"/><path fill="#ededed" d="M1683.7,907.1c26.2,15.1,47.3,51.7,47.2,81.8c-0.1,30-21.3,42.2-47.5,27.1        c-26.2-15.1-47.3-51.7-47.2-81.7C1636.3,904.1,1657.5,892,1683.7,907.1z"/><path fill="#29174c" d="M1683.6,928.9c15.7,9,28.3,30.9,28.2,48.9c-0.1,18-12.8,25.2-28.4,16.2c-15.7-9-28.3-30.9-28.2-48.9        C1655.3,927.2,1668,919.9,1683.6,928.9z"/><linearGradient id="h" x1="2289.256" x2="2039.46" y1="900.922" y2="682.015" gradientUnits="userSpaceOnUse"><stop offset="0" stop-color="#515151"/><stop offset="1" stop-color="#bababa"/></linearGradient><polygon fill="url(#h)" points="2340.1 543.9 1800.2 853.3 1800.2 873.9 1941.2 794.6 1941.2 974.8 2340.1 744.4"/><linearGradient id="i" x1="1615.837" x2="2340.114" y1="644.962" y2="644.962" gradientUnits="userSpaceOnUse"><stop offset="0" stop-color="#fff"/><stop offset="1" stop-color="#bababa"/></linearGradient><polygon fill="url(#i)" points="2155.7 436.7 2340.1 543.9 1800.2 853.3 1615.8 746"/><polygon fill="#9e9e9e" points="1615.8 746 1800.2 853.3 1800.2 873.9 1615.8 766.7"/><linearGradient id="j" x1="2332.825" x2="2083.029" y1="851.205" y2="632.298" gradientUnits="userSpaceOnUse"><stop offset="0" stop-color="#515151"/><stop offset="1" stop-color="#bababa"/></linearGradient><polygon fill="url(#j)" points="2184.4 834.3 2271.5 906.9 2340.1 870.6 2340.1 744.4"/><polygon fill="#676d6d" points="2271.5 906.9 2163.6 846.4 2184.4 834.3"/><path fill="#29174c" d="M2319.7,812.8c-7.2,4.1-13,14.2-12.9,22.4c0,8.2,5.9,11.6,13,7.4c7.2-4.1,13-14.2,12.9-22.4     C2332.7,812,2326.9,808.7,2319.7,812.8z"/><path fill="#29174c" d="M2271.5,855.7c-7.2,4.1-13,14.2-12.9,22.4c0,8.2,5.9,11.6,13,7.4c7.2-4.1,13-14.2,12.9-22.4     C2284.5,854.9,2278.6,851.5,2271.5,855.7z"/></g><g><linearGradient id="k" x1="1371.797" x2="1688.626" y1="1582.554" y2="1582.554" gradientUnits="userSpaceOnUse"><stop offset="0" stop-color="#f4b651"/><stop offset=".993" stop-color="#c9892d"/></linearGradient><polygon fill="url(#k)" points="1371.8 1671.6 1688.6 1856.9 1688.6 1493.5 1371.8 1308.2"/><linearGradient id="l" x1="1688.626" x2="2005.455" y1="1582.554" y2="1582.554" gradientUnits="userSpaceOnUse"><stop offset="0" stop-color="#f4b651"/><stop offset=".993" stop-color="#c9892d"/></linearGradient><polygon fill="url(#l)" points="2005.5 1671.6 1688.6 1856.9 1688.6 1493.5 2005.5 1308.2"/><linearGradient id="m" x1="1371.797" x2="2005.455" y1="1308.187" y2="1308.187" gradientUnits="userSpaceOnUse"><stop offset="0" stop-color="#f4b651"/><stop offset=".993" stop-color="#ffdeae"/></linearGradient><polygon fill="url(#m)" points="2005.5 1308.2 1688.6 1493.5 1371.8 1308.2 1688.6 1122.9"/><linearGradient id="n" x1="1561.899" x2="1648.285" y1="1524.576" y2="1524.576" gradientUnits="userSpaceOnUse"><stop offset="0" stop-color="#e1e1e1"/><stop offset=".995" stop-color="#fff"/></linearGradient><polygon fill="url(#n)" points="1648.3 1502.4 1561.9 1451.9 1561.9 1546.8 1648.3 1597.3"/><polygon fill="#fbfcff" stroke="#999" stroke-linecap="round" stroke-linejoin="round" stroke-miterlimit="10" stroke-width="2.753" points="1664.2 1726.8 1401.8 1573.3 1401.8 1668.2 1664.2 1821.7"/><polygon fill="#fff" points="1820.7 1684.1 1880.9 1648.9 1880.9 1743.8 1820.7 1779" opacity=".47"/><line x1="1634.2" x2="1574.9" y1="1517.4" y2="1482.8" fill="#fbfcff" stroke="#999" stroke-linecap="round" stroke-linejoin="round" stroke-miterlimit="10" stroke-width="2.753"/><line x1="1634.2" x2="1574.9" y1="1534.8" y2="1500.1" fill="#fbfcff" stroke="#999" stroke-linecap="round" stroke-linejoin="round" stroke-miterlimit="10" stroke-width="2.753"/><line x1="1634.2" x2="1574.9" y1="1552.1" y2="1517.4" fill="#fbfcff" stroke="#999" stroke-linecap="round" stroke-linejoin="round" stroke-miterlimit="10" stroke-width="2.753"/><line x1="1615.6" x2="1574.9" y1="1558.6" y2="1534.8" fill="#fbfcff" stroke="#999" stroke-linecap="round" stroke-linejoin="round" stroke-miterlimit="10" stroke-width="2.753"/><line x1="1475.5" x2="1475.5" y1="1616.4" y2="1709.7" fill="#fbfcff" stroke="#999" stroke-linecap="round" stroke-linejoin="round" stroke-miterlimit="10" stroke-width="2.753"/><line x1="1582.8" x2="1582.8" y1="1680.3" y2="1773.5" fill="#fbfcff" stroke="#999" stroke-linecap="round" stroke-linejoin="round" stroke-miterlimit="10" stroke-width="2.753"/><line x1="1664.2" x2="1401.8" y1="1750.8" y2="1597.3" fill="#fbfcff" stroke="#999" stroke-linecap="round" stroke-linejoin="round" stroke-miterlimit="10" stroke-width="2.753"/><polygon fill="#fff" points="1880.9 1381 1820.7 1416.2 1503.9 1230.9 1564.1 1195.7" opacity=".47"/><polygon fill="#fff" points="1820.7 1416.2 1880.9 1381 1880.9 1475.9 1820.7 1511.1" opacity=".47"/></g><g><linearGradient id="o" x1="1688.626" x2="2005.455" y1="1772.933" y2="1772.933" gradientUnits="userSpaceOnUse"><stop offset="0" stop-color="#f4b651"/><stop offset=".993" stop-color="#c9892d"/></linearGradient><polygon fill="url(#o)" points="1688.6 1862 2005.5 2047.3 2005.5 1683.9 1688.6 1498.6"/><linearGradient id="p" x1="2005.455" x2="2322.283" y1="1772.933" y2="1772.933" gradientUnits="userSpaceOnUse"><stop offset="0" stop-color="#f4b651"/><stop offset=".993" stop-color="#c9892d"/></linearGradient><polygon fill="url(#p)" points="2322.3 1862 2005.5 2047.3 2005.5 1683.9 2322.3 1498.6"/><linearGradient id="q" x1="1688.626" x2="2322.283" y1="1498.565" y2="1498.565" gradientUnits="userSpaceOnUse"><stop offset="0" stop-color="#f4b651"/><stop offset=".993" stop-color="#ffdeae"/></linearGradient><polygon fill="url(#q)" points="2322.3 1498.6 2005.5 1683.9 1688.6 1498.6 2005.5 1313.3"/><linearGradient id="r" x1="1878.728" x2="1965.114" y1="1714.954" y2="1714.954" gradientUnits="userSpaceOnUse"><stop offset="0" stop-color="#e1e1e1"/><stop offset=".995" stop-color="#fff"/></linearGradient><polygon fill="url(#r)" points="1965.1 1692.8 1878.7 1642.3 1878.7 1737.1 1965.1 1787.7"/><polygon fill="#fbfcff" stroke="#999" stroke-linecap="round" stroke-linejoin="round" stroke-miterlimit="10" stroke-width="2.753" points="1981 1917.2 1718.6 1763.7 1718.6 1858.6 1981 2012.1"/><polygon fill="#fff" points="2137.6 1874.5 2197.8 1839.3 2197.8 1934.2 2137.6 1969.4" opacity=".47"/><line x1="1951" x2="1891.7" y1="1707.8" y2="1673.1" fill="#fbfcff" stroke="#999" stroke-linecap="round" stroke-linejoin="round" stroke-miterlimit="10" stroke-width="2.753"/><line x1="1951" x2="1891.7" y1="1725.1" y2="1690.5" fill="#fbfcff" stroke="#999" stroke-linecap="round" stroke-linejoin="round" stroke-miterlimit="10" stroke-width="2.753"/><line x1="1951" x2="1891.7" y1="1742.5" y2="1707.8" fill="#fbfcff" stroke="#999" stroke-linecap="round" stroke-linejoin="round" stroke-miterlimit="10" stroke-width="2.753"/><line x1="1932.5" x2="1891.7" y1="1749" y2="1725.1" fill="#fbfcff" stroke="#999" stroke-linecap="round" stroke-linejoin="round" stroke-miterlimit="10" stroke-width="2.753"/><line x1="1792.3" x2="1792.3" y1="1806.8" y2="1900.1" fill="#fbfcff" stroke="#999" stroke-linecap="round" stroke-linejoin="round" stroke-miterlimit="10" stroke-width="2.753"/><line x1="1899.6" x2="1899.6" y1="1870.7" y2="1963.9" fill="#fbfcff" stroke="#999" stroke-linecap="round" stroke-linejoin="round" stroke-miterlimit="10" stroke-width="2.753"/><line x1="1981" x2="1718.6" y1="1941.1" y2="1787.7" fill="#fbfcff" stroke="#999" stroke-linecap="round" stroke-linejoin="round" stroke-miterlimit="10" stroke-width="2.753"/><polygon fill="#fff" points="2197.8 1571.4 2137.6 1606.6 1820.7 1421.3 1880.9 1386.1" opacity=".47"/><polygon fill="#fff" points="2137.6 1606.6 2197.8 1571.4 2197.8 1666.3 2137.6 1701.5" opacity=".47"/></g><g><linearGradient id="s" x1="1193.567" x2="1427.413" y1="1793.524" y2="1793.524" gradientUnits="userSpaceOnUse"><stop offset="0" stop-color="#f4b651"/><stop offset=".993" stop-color="#c9892d"/></linearGradient><polygon fill="url(#s)" points="1193.6 1859.3 1427.4 1996 1427.4 1727.8 1193.6 1591"/><linearGradient id="t" x1="1427.413" x2="1661.258" y1="1793.524" y2="1793.524" gradientUnits="userSpaceOnUse"><stop offset="0" stop-color="#f4b651"/><stop offset=".993" stop-color="#c9892d"/></linearGradient><polygon fill="url(#t)" points="1661.3 1859.3 1427.4 1996 1427.4 1727.8 1661.3 1591"/><linearGradient id="u" x1="1193.567" x2="1661.258" y1="1591.019" y2="1591.019" gradientUnits="userSpaceOnUse"><stop offset="0" stop-color="#f4b651"/><stop offset=".993" stop-color="#ffdeae"/></linearGradient><polygon fill="url(#u)" points="1661.3 1591 1427.4 1727.8 1193.6 1591 1427.4 1454.2"/><linearGradient id="v" x1="1333.878" x2="1397.638" y1="1750.732" y2="1750.732" gradientUnits="userSpaceOnUse"><stop offset="0" stop-color="#e1e1e1"/><stop offset=".995" stop-color="#fff"/></linearGradient><polygon fill="url(#v)" points="1397.6 1734.4 1333.9 1697.1 1333.9 1767.1 1397.6 1804.4"/><polygon fill="#fbfcff" stroke="#999" stroke-linecap="round" stroke-linejoin="round" stroke-miterlimit="10" stroke-width="2.032" points="1409.4 1900 1215.7 1786.7 1215.7 1856.7 1409.4 1970"/><polygon fill="#fff" points="1524.9 1868.5 1569.4 1842.5 1569.4 1912.5 1524.9 1938.5" opacity=".47"/><line x1="1387.2" x2="1343.5" y1="1745.5" y2="1719.9" fill="#fbfcff" stroke="#999" stroke-linecap="round" stroke-linejoin="round" stroke-miterlimit="10" stroke-width="2.032"/><line x1="1387.2" x2="1343.5" y1="1758.2" y2="1732.7" fill="#fbfcff" stroke="#999" stroke-linecap="round" stroke-linejoin="round" stroke-miterlimit="10" stroke-width="2.032"/><line x1="1387.2" x2="1343.5" y1="1771" y2="1745.5" fill="#fbfcff" stroke="#999" stroke-linecap="round" stroke-linejoin="round" stroke-miterlimit="10" stroke-width="2.032"/><line x1="1373.5" x2="1343.5" y1="1775.8" y2="1758.2" fill="#fbfcff" stroke="#999" stroke-linecap="round" stroke-linejoin="round" stroke-miterlimit="10" stroke-width="2.032"/><line x1="1270.1" x2="1270.1" y1="1818.5" y2="1887.4" fill="#fbfcff" stroke="#999" stroke-linecap="round" stroke-linejoin="round" stroke-miterlimit="10" stroke-width="2.032"/><line x1="1349.3" x2="1349.3" y1="1865.7" y2="1934.5" fill="#fbfcff" stroke="#999" stroke-linecap="round" stroke-linejoin="round" stroke-miterlimit="10" stroke-width="2.032"/><line x1="1409.4" x2="1215.7" y1="1917.7" y2="1804.4" fill="#fbfcff" stroke="#999" stroke-linecap="round" stroke-linejoin="round" stroke-miterlimit="10" stroke-width="2.032"/><polygon fill="#fff" points="1569.4 1644.8 1524.9 1670.8 1291.1 1534 1335.5 1508" opacity=".47"/><polygon fill="#fff" points="1524.9 1670.8 1569.4 1644.8 1569.4 1714.8 1524.9 1740.8" opacity=".47"/></g></svg>