<svg width="937" height="1256" viewBox="0 0 937 1256" fill="none" xmlns="http://www.w3.org/2000/svg">
<path d="M856.37 480.785C893.084 489.647 892.412 597.428 879.135 662.932C869.902 708.483 881.484 730.195 881.038 736.397C876.533 746.337 874.284 762.024 850.904 768.1C803.922 780.311 774.615 759.803 764.605 744.677C764.137 732.672 773.547 723.034 773.259 685.707C772.947 645.359 772 623.539 767.103 603.223C760.836 577.222 753.411 543.136 763.801 528.199C773.046 514.911 827.206 473.745 856.37 480.785Z" fill="white"/>
<path d="M935.157 589.446C926.944 567.489 884.395 507.566 871.369 494.933C863.452 487.254 852.936 485.534 841.845 489.998C827.218 495.884 840.717 516.728 850.492 529.1C850.492 529.1 883.808 572.21 902.119 591.285C909.717 599.2 941.714 606.978 935.157 589.446Z" fill="#F0C7AD"/>
<path d="M870.864 486.59C862.947 478.912 854.444 484.641 843.352 489.104C828.725 494.99 833.006 509.085 842.781 521.457C842.781 521.457 858.342 539.813 868.102 553.166C881.281 556.16 898.188 548.749 902.358 529.668C891.513 513.67 876.436 491.995 870.864 486.59Z" fill="#F2F2F2"/>
<path d="M875.126 689.766L850.825 691.5C850.825 691.5 897.423 598.335 901.414 591.19C905.733 583.458 932.854 585.192 935.857 592.885C939.949 603.369 875.126 689.766 875.126 689.766Z" fill="#F0C7AD"/>
<path d="M852.224 710.757C853.559 707.773 853.583 702.439 854.535 701.674C854.838 701.632 856.81 706.142 857.191 712.214C857.644 719.414 857.502 721.867 858.231 722.93C860.753 729.683 873.238 722.529 874.809 721.421C880.656 717.299 882.92 706.543 882.776 701.07C882.615 694.937 878.496 688.413 875.767 685.358C873.969 683.345 870.785 673.21 870.205 671.202C867.687 662.485 854.636 672.236 853.217 675.819C851.869 679.222 851.385 681.244 850.121 682.753C845.747 687.972 844.947 697.514 845.508 699.246C846.736 703.04 845.756 709.908 844.878 712.562C844.647 713.261 845.004 714.041 845.707 714.261C847.875 714.939 850.535 714.531 852.224 710.757Z" fill="#F0C7AD"/>
<path opacity="0.1" d="M762.939 1131.66C840.288 1125.3 899.664 1079.71 895.56 1029.83C891.456 979.95 825.425 944.676 748.076 951.04C670.727 957.405 611.351 1003 615.455 1052.88C619.559 1102.75 685.59 1138.03 762.939 1131.66Z" fill="black"/>
<path d="M829.312 1034.44C828.822 1035.41 828.532 1038.6 828.272 1040.11C840.272 1049.78 855.181 1057.18 866.846 1053.94C876.958 1051.12 878.475 1042.58 876.646 1034.34L829.312 1034.44Z" fill="#594432"/>
<path d="M867.486 1051.94C852.833 1056.02 829.614 1036.92 818.525 1026.9C807.797 1017.2 797.42 1013.33 791.509 1005.7C786.553 999.304 785.943 991.792 787.733 983.683C792.456 962.292 813.736 980.659 840.661 1000.17C857.954 1012.7 869.332 1013.78 874.725 1024.11C879.207 1032.7 880.779 1048.24 867.486 1051.94Z" fill="#594432"/>
<path d="M867.564 1047.1C852.911 1051.18 831.842 1034.15 820.237 1024.34C809.192 1015.01 798.057 1009.19 792.146 1001.55C787.19 995.157 786.188 989.192 787.978 981.083C792.7 959.692 814.845 977.055 841.77 996.564C859.064 1009.09 870.441 1010.18 875.834 1020.51C880.316 1029.1 880.856 1043.4 867.564 1047.1Z" fill="#211913"/>
<path d="M834.189 1009.4C839.793 1039.55 874.181 1048.28 879.032 1025.97C879.648 1023.13 877.32 746.732 877.32 746.732L814.782 758.96C814.782 758.96 832.292 999.204 834.189 1009.4Z" fill="#52799B"/>
<path d="M693.112 1090.29C697.185 1093.95 729.612 1105.28 738.806 1089.74C740.183 1087.42 739.672 1079.84 739.672 1079.84L692.009 1081.95L693.112 1090.29Z" fill="#594432"/>
<path d="M736.037 1086.62C726.911 1097.86 712.269 1090.68 689.54 1086.38C663.691 1081.48 652.2 1083.03 636.524 1069.38C626.429 1060.59 619.663 1040.85 629.337 1040.87C649.983 1040.92 654.644 1047.93 686.43 1055.52C707.202 1060.47 720.029 1054.17 730.344 1059.59C738.401 1063.83 743.547 1077.37 736.037 1086.62Z" fill="#594432"/>
<path d="M733.912 1087.14C720.506 1094.32 708.512 1087.94 687.156 1082.73C661.33 1076.42 655.68 1077.64 638.477 1065.98C626.627 1057.95 617.293 1038.71 630.35 1038.29C650.985 1037.62 654.989 1040.23 686.775 1047.82C707.547 1052.78 725.714 1051.02 733.928 1059.29C740.753 1066.16 743.479 1082.01 733.912 1087.14Z" fill="#211913"/>
<path d="M690.947 1056.54C690.326 1079.83 725.632 1092.05 738.928 1073.49C740.941 1070.68 762.105 919.762 762.105 919.762L845.197 761.124L770.988 742.096C770.988 742.096 716.193 877.829 711.286 902.362C706.851 924.54 691.074 1051.75 690.947 1056.54Z" fill="#488BB9"/>
<path d="M825.834 481.976C835.088 466.393 853.163 459.626 862.178 438.083C877.861 400.606 874.821 392.776 850.055 382.413C829.157 373.668 788.019 379.84 777.7 409.784C771.4 428.066 759.988 462.512 770.624 473.788C777.236 480.797 788.874 472.617 790.402 476.265C791.632 479.2 823.684 485.597 825.834 481.976Z" fill="#F7CDB3"/>
<path d="M783.865 475.857C786.515 477.385 784.031 490.603 783.904 496.131C783.809 500.292 783.758 504.294 784.163 506.498L837.705 503.842C840.073 501.708 839.43 487.341 832.984 486.416C833.236 484.523 836.81 455.407 840.919 431.653C827.208 445.909 814.153 437.443 808.633 454.34C802.609 472.782 789.363 473.608 783.865 475.857Z" fill="#E3BBA3"/>
<path d="M834.736 468.746C820.658 467.158 795.992 486.379 785.634 496.046C780.861 500.5 774.102 518.817 775.452 532.318C782.749 522.442 792.703 504.513 802.497 502.091C821.737 497.333 837.795 488.816 842.369 483.889C843.499 482.672 843.912 481.045 842.465 480.231C840.519 479.136 837.265 469.031 834.736 468.746Z" fill="#F2F2F2"/>
<path d="M874.57 406.709C869.855 355.782 795.44 352.566 787.437 364.67C774.818 383.755 783.177 377.275 783.429 386.679C782.367 391.439 784.984 395.648 786.498 397.037C791.307 401.451 792.238 389.899 799.427 394.22C803.295 396.544 798.923 409.682 797.893 420.57L803.78 427.214C804.942 423.938 812.584 419.056 813.499 423.966C814.109 427.237 810.003 436.222 811.259 443.303C813.881 458.082 823.127 468.767 825.697 476.112C830.933 471.956 839.83 468.426 844.347 463.628C853.935 453.44 876.199 424.304 874.57 406.709Z" fill="#4F3824"/>
<path d="M856.37 480.785C893.084 489.647 892.412 597.428 879.135 662.932C869.902 708.483 881.484 730.195 881.038 736.397C876.533 746.337 874.284 762.024 850.904 768.1C803.922 780.311 774.615 759.803 764.605 744.677C764.137 732.672 773.547 723.034 773.259 685.707C772.947 645.359 772 623.539 767.103 603.223C760.836 577.222 753.411 543.136 763.801 528.199C773.046 514.911 827.206 473.745 856.37 480.785Z" fill="#FF936E"/>
<path d="M761.677 702.734C765.999 705.083 768.942 705.57 772.903 704.546C780.293 702.635 790.335 706.423 791.818 707.825C795.066 710.895 801.399 713.012 804.508 713.403C805.326 713.506 805.944 714.243 805.828 715.06C805.47 717.579 803.776 720.074 799.142 719.964C795.478 719.877 791.808 720.08 790.574 720.675C790.482 720.814 784.82 728.317 778.673 732.708C770.067 738.855 763.239 734.132 762.711 732.873C761.54 730.084 758.715 728.047 756.851 726.629C749.426 720.983 756.981 700.137 761.677 702.734Z" fill="#F7CDB3"/>
<path d="M703.585 647.253C705.748 636.793 727.992 635.553 739.106 641.903C742.568 643.881 765.509 690.072 773.341 705.644C779.384 717.661 767.066 729.171 756.684 725.633C756.684 725.633 702.356 653.197 703.585 647.253Z" fill="#F7CDB3"/>
<path d="M766.556 527.821C773.638 521.381 789.992 540.982 784.393 557.819C775.553 584.402 742.879 639.512 738.446 644.046C729.497 653.198 708.519 660.821 703.502 649.046C701.352 644 755.988 537.432 766.556 527.821Z" fill="#F7CDB3"/>
<path d="M765.207 525.388C760.738 529.452 748.629 551.292 736.303 575.527C737.368 593.899 756.949 604.418 774.857 600.525C782.899 585.886 790.12 571.408 793.356 561.637C801.835 536.045 772.289 518.948 765.207 525.388Z" fill="#F2F2F2"/>
<path opacity="0.1" d="M276.442 983.425L330.857 1014.57L691.739 806.219L637.323 775.069L276.442 983.425Z" fill="black"/>
<path d="M352.772 194.052C336.501 203.436 323.314 226.277 323.376 244.968C324.041 479.434 324.706 713.9 325.37 948.367C325.415 967.076 338.686 974.633 354.958 965.228C449.544 910.619 544.13 856.01 638.715 801.4C654.987 792.015 668.172 769.184 668.111 750.484C667.446 516.018 666.782 281.552 666.117 47.0862C666.073 28.3852 652.8 20.8212 636.529 30.2252C541.944 84.8332 447.358 139.442 352.772 194.052Z" fill="white"/>
<path d="M634.978 810.015C635.925 809.429 637.209 808.68 638.135 808.06C639.242 807.319 640.713 806.317 641.751 805.482C643.551 804.034 645.889 802.027 647.6 800.476C648.556 799.609 649.739 798.356 650.632 797.425C652.625 795.348 657.787 789.608 662.646 781.185C667.663 772.49 670.045 764.927 670.655 762.817C670.997 761.637 671.475 760.067 671.738 758.866C672.231 756.615 672.824 753.598 673.176 751.321C673.269 750.723 673.73 747.501 673.745 742.817C673.753 745.525 671.855 748.324 668.111 750.485C668.172 769.185 654.987 792.016 638.715 801.401C638.728 805.676 637.287 808.682 634.978 810.015Z" fill="#E8E8E8"/>
<path d="M351.221 973.842L379.597 957.459L407.973 941.076L436.349 924.693L464.724 908.31L493.1 891.927L521.476 875.544L549.852 859.161L578.228 842.778L606.604 826.395L634.98 810.012C637.289 808.679 638.73 805.674 638.718 801.398L354.961 965.226C354.971 969.504 353.53 972.509 351.221 973.842Z" fill="#E8E8E8"/>
<path d="M298.099 947.292L301.002 948.979C307.416 952.706 318.328 952.431 325.37 948.366C325.415 967.075 338.686 974.632 354.958 965.227C354.97 969.503 353.529 972.508 351.22 973.841C349.921 974.569 348.171 975.51 346.818 976.131C345.424 976.771 343.537 977.575 342.075 978.04C340.324 978.596 337.959 979.25 336.158 979.609C334.673 979.905 332.659 980.126 331.148 980.215C328.978 980.343 327.015 980.214 325.751 980.084C324.197 979.923 322.154 979.483 320.632 979.129C319.798 978.935 318.706 978.581 317.916 978.251C316.51 977.663 314.674 976.785 313.325 976.076L310.422 974.389C306.719 972.232 304.414 969.819 304.318 969.718C303.245 968.586 301.857 967.028 300.93 965.773C300.069 964.608 299.025 962.971 298.376 961.676C297.621 960.169 296.709 958.108 296.129 956.525C295.639 955.188 295.134 953.352 294.816 951.964C294.528 950.705 294.196 949.011 294.056 947.728C293.832 945.672 293.674 942.915 293.604 940.847C293.61 943.232 295.096 945.547 298.099 947.292Z" fill="#E8E8E8"/>
<path d="M673.746 742.816L673.547 672.476L673.348 602.136L673.149 531.796L672.95 461.456L672.751 391.116L672.552 320.776L672.353 250.436L672.154 180.096L671.955 109.756L671.756 39.4163C671.764 42.1243 669.866 44.9223 666.122 47.0843L668.116 750.483C671.856 748.322 673.753 745.524 673.746 742.816Z" fill="#E8E8E8"/>
<path d="M618.536 4.13526C619.931 3.49526 621.818 2.69125 623.28 2.22625C625.03 1.67025 627.396 1.01625 629.197 0.657251C630.682 0.362251 632.696 0.140255 634.208 0.0512555C636.494 -0.0827445 638.57 0.0762516 639.605 0.183252C641.159 0.343252 643.203 0.784253 644.724 1.13825C645.558 1.33225 646.651 1.68625 647.441 2.01625C648.224 2.34325 649.136 2.76125 650.027 3.18925C650.712 3.49125 651.385 3.81725 652.03 4.19225L654.933 5.87925C658.637 8.03725 660.943 10.4503 661.039 10.5523C662.112 11.6843 663.5 13.2423 664.427 14.4973C665.287 15.6623 666.331 17.2993 666.98 18.5943C667.736 20.1013 668.647 22.1623 669.227 23.7453C669.717 25.0823 670.222 26.9183 670.54 28.3063C670.828 29.5643 671.16 31.2583 671.3 32.5423C671.524 34.5983 671.682 37.3542 671.752 39.4212C671.759 42.1282 669.861 44.9272 666.117 47.0892C666.073 28.3882 652.8 20.8233 636.529 30.2283C636.507 22.1363 631.287 12.5513 624.873 8.82425L621.97 7.13725C618.946 5.37925 616.195 5.23726 614.135 6.42726C615.434 5.69626 617.184 4.75526 618.536 4.13526Z" fill="#E8E8E8"/>
<path d="M296.105 243.894L299.009 245.581C305.423 249.308 316.334 249.033 323.376 244.967L325.37 948.366C318.328 952.432 307.416 952.707 301.002 948.979L298.099 947.292C295.095 945.546 293.61 943.232 293.604 940.847L293.405 870.507L293.205 800.167L293.005 729.827L292.806 659.487L292.606 589.147L292.407 518.807L292.208 448.467L292.009 378.127L291.808 307.787L291.609 237.447C291.616 239.834 293.101 242.148 296.105 243.894Z" fill="#E8E8E8"/>
<path d="M614.136 6.42318C616.196 5.23418 618.946 5.37517 621.97 7.13317L624.873 8.82018C631.287 12.5472 636.506 22.1322 636.529 30.2242L352.772 194.051C352.749 185.96 347.53 176.375 341.116 172.647L338.213 170.96C335.189 169.203 332.438 169.061 330.378 170.25C424.964 115.64 519.55 61.0332 614.136 6.42318Z" fill="#E8E8E8"/>
<path d="M292.179 228.947C292.531 226.67 293.124 223.653 293.617 221.403C293.88 220.203 294.359 218.633 294.7 217.453C295.311 215.342 297.694 207.779 302.71 199.084C307.571 190.658 312.731 184.918 314.723 182.842C315.616 181.911 316.8 180.658 317.755 179.791C319.466 178.239 321.804 176.232 323.604 174.784C324.643 173.949 326.114 172.946 327.221 172.205C328.147 171.586 329.431 170.837 330.378 170.25C332.438 169.061 335.188 169.203 338.212 170.96L341.115 172.647C347.529 176.374 352.748 185.959 352.771 194.051C336.5 203.435 323.313 226.276 323.375 244.967C316.333 249.033 305.421 249.308 299.007 245.581L296.104 243.894C293.101 242.149 291.616 239.835 291.609 237.45C291.625 232.766 292.087 229.545 292.179 228.947Z" fill="#E8E8E8"/>
<path d="M304.145 294.639C306.592 297.02 307.988 299.462 308.729 301.092C310.312 304.573 310.504 306.791 310.567 308.765V315.03V321.296V327.562V333.828V340.094V346.359V352.625V358.89V365.156V371.422V371.423C310.563 372.231 310.326 372.773 310.224 372.968C309.862 373.663 309.493 373.901 309.167 374.111L308.61 374.43C307.667 374.923 306.716 374.881 305.614 374.296C300.711 371.483 295.806 368.671 290.903 365.858C290.756 365.773 290.623 365.638 290.5 365.48C290.623 365.638 290.755 365.773 290.903 365.858C290.281 365.497 288.827 364.413 288.757 362.151V355.926V349.701V343.476V337.251V331.026V324.801V318.576V312.351V306.126V299.901C288.77 297.354 289.41 295.81 289.605 295.398C289.909 294.758 290.197 294.154 290.812 293.434C291.427 292.718 291.872 292.432 292.489 292.036L293.045 291.717C297.984 289.024 303.158 293.678 304.145 294.639Z" fill="#D9D9D9"/>
<path d="M310.618 390.047V396.312V402.577V408.843V415.108V421.373V427.639V433.905V440.171V446.436V452.702C310.6 455.073 310.059 456.474 309.654 457.322C309.087 458.508 308.359 459.216 307.751 459.685C307.714 459.716 307.678 459.748 307.64 459.778C307.448 459.931 307.249 460.072 307.037 460.193L306.481 460.512C305.731 460.914 305.089 461.172 304.027 461.3C302.718 461.458 301.412 461.129 301.399 461.126C300.89 460.996 299.537 460.649 298.056 459.734C297.985 459.69 297.916 459.642 297.843 459.6C297.493 459.399 296.193 458.498 295.344 457.657C293.529 455.861 292.005 453.961 290.471 450.527C290.341 450.235 289.668 448.68 289.243 446.766C288.869 445.078 288.842 444.173 288.808 443.027C288.808 443.118 288.854 443.219 288.877 443.315C288.855 443.219 288.808 443.118 288.808 443.027V436.802V430.577V424.352V418.127V411.902V405.677V399.452V393.227V387.002V380.777C288.812 379.968 289.049 379.426 289.151 379.231C289.513 378.536 289.882 378.298 290.208 378.088L290.765 377.769C291.708 377.276 292.66 377.318 293.762 377.903L295.233 378.747L296.704 379.591L298.175 380.435L299.646 381.279L301.117 382.123L302.588 382.967L304.059 383.811L305.53 384.655L307.001 385.499L308.472 386.343C309.094 386.7 310.548 387.784 310.618 390.047Z" fill="#D9D9D9"/>
<path d="M288.184 363.939C287.443 363.327 287.044 362.685 287.044 362.142C287.113 364.405 288.568 365.488 289.19 365.849C288.712 365.576 288.348 364.899 288.184 363.939Z" fill="#F5F5F5"/>
<path d="M287.044 299.892V306.117V312.342V318.567V324.792V331.017V337.242V343.467V349.692V355.917V362.142C287.044 362.893 287.81 363.835 289.187 364.624V302.374C287.81 301.585 287.044 300.643 287.044 299.892Z" fill="#F5F5F5"/>
<path d="M289.19 365.85C294.094 368.663 298.997 371.475 303.9 374.288C303.241 373.91 302.799 372.764 302.799 371.163L288.089 362.725C288.088 364.326 288.531 365.472 289.19 365.85Z" fill="#F5F5F5"/>
<path d="M308.51 372.959C308.148 373.654 307.779 373.892 307.453 374.102L306.896 374.421C305.953 374.914 305.001 374.872 303.899 374.287C303.421 374.013 303.059 373.337 302.894 372.376L302.896 372.379C304.713 373.102 306.681 373.257 307.684 372.682L308.24 372.363C308.654 372.126 308.851 371.794 308.851 371.413C308.849 372.221 308.612 372.764 308.51 372.959Z" fill="#F5F5F5"/>
<path d="M289.09 360.604L287.672 363.06L303.835 372.392L305.253 369.936L289.09 360.604Z" fill="#F5F5F5"/>
<path d="M295.013 298.082C291.771 296.435 289.194 298.383 289.185 302.367C289.187 322.002 289.188 341.637 289.176 361.263C289.175 362.555 289.863 363.746 290.984 364.388C294.073 366.156 297.169 367.929 300.266 369.702C300.905 370.068 301.703 369.608 301.703 368.872C301.708 348.972 301.706 329.05 301.697 309.142C301.699 305.135 298.852 300.218 295.359 298.263C295.236 298.191 295.063 298.172 295.013 298.082Z" fill="white"/>
<path d="M302.43 294.632C304.877 297.013 306.273 299.455 307.014 301.085C308.597 304.566 308.791 306.784 308.854 308.758V315.023V321.289V327.555V333.821V340.087V346.353V352.618V358.883V365.149V371.415C308.854 371.796 308.656 372.127 308.242 372.365L307.687 372.684C306.457 373.389 303.777 372.996 301.702 371.806V309.151C301.706 305.13 298.855 300.217 295.359 298.259C295.244 298.195 295.065 298.175 295.016 298.077C291.771 296.444 289.191 298.379 289.187 302.377C287.811 301.587 287.044 300.645 287.044 299.894C287.057 297.347 287.697 295.803 287.892 295.391C288.196 294.751 288.483 294.147 289.1 293.427C289.714 292.711 290.159 292.425 290.776 292.029L291.333 291.71C296.272 289.018 301.443 293.672 302.43 294.632Z" fill="#F5F5F5"/>
<path d="M305.875 460.392C305.648 460.561 305.44 460.699 305.272 460.807C305.484 460.686 305.683 460.545 305.875 460.392Z" fill="#F5F5F5"/>
<path d="M307.889 457.936C307.322 459.122 306.594 459.83 305.986 460.299C306.373 459.971 306.723 459.582 307.019 459.125C306.723 459.582 306.374 459.971 305.986 460.299C305.949 460.33 305.913 460.362 305.875 460.392C305.683 460.545 305.484 460.686 305.272 460.807L304.715 461.126C303.965 461.528 303.323 461.786 302.261 461.914C300.952 462.072 299.647 461.743 299.634 461.74C299.125 461.609 297.772 461.262 296.291 460.348C296.219 460.304 296.149 460.256 296.076 460.214C295.726 460.013 294.427 459.112 293.577 458.271C291.762 456.475 290.238 454.575 288.704 451.141C288.573 450.849 287.901 449.294 287.476 447.38C287.102 445.692 287.076 444.787 287.042 443.641C287.042 444.392 287.806 445.334 289.183 446.123C289.187 450.126 291.768 455.021 295.013 457.111C295.062 457.069 295.242 457.256 295.356 457.323C298.852 459.375 301.703 457.733 301.699 453.707C303.774 454.897 306.453 455.29 307.683 454.585L308.24 454.266C308.654 454.029 308.85 453.697 308.85 453.316C308.835 455.687 308.294 457.089 307.889 457.936Z" fill="#F5F5F5"/>
<path d="M287.044 381.391V387.616V393.841V400.066V406.291V412.516V418.741V424.966V431.191V437.416V443.641C287.044 444.392 287.81 445.334 289.187 446.123V383.873C287.81 383.084 287.044 382.142 287.044 381.391Z" fill="#F5F5F5"/>
<path d="M290.871 378.566L290.314 378.885C289.31 379.461 288.461 381.247 288.183 383.191V383.188L288.182 383.186C287.442 382.574 287.044 381.932 287.044 381.39C287.048 380.581 287.285 380.039 287.387 379.844C287.749 379.149 288.118 378.911 288.444 378.701L289.001 378.382C289.944 377.889 290.897 377.931 291.999 378.516C291.667 378.327 291.282 378.33 290.871 378.566Z" fill="#F5F5F5"/>
<path d="M290.117 383.155L287.361 387.927L301.752 396.236L304.508 391.463L290.117 383.155Z" fill="#F5F5F5"/>
<path d="M300.549 391.666C297.588 389.971 294.621 388.271 291.662 386.568C290.562 385.935 289.192 386.728 289.192 387.997C289.192 407.377 289.18 426.749 289.182 446.129C289.189 450.121 291.775 455.03 295.015 457.105C295.057 457.068 295.236 457.253 295.359 457.324C298.854 459.383 301.707 457.737 301.703 453.705C301.693 433.687 301.707 413.663 301.698 393.645C301.697 392.827 301.259 392.072 300.549 391.666Z" fill="white"/>
<path d="M305.583 387.003L305.025 387.322C303.796 388.027 302.798 390.549 302.798 392.952L288.088 384.514C288.088 382.11 289.085 379.589 290.315 378.884L290.873 378.565C291.283 378.329 291.668 378.326 291.998 378.516L293.469 379.36L294.939 380.204L296.41 381.048L297.881 381.892L299.353 382.736L300.823 383.58L302.294 384.424L303.765 385.268L305.236 386.112L306.708 386.956C306.378 386.764 305.993 386.768 305.583 387.003Z" fill="#F5F5F5"/>
<path d="M308.853 396.927V403.193V409.459V415.725V421.991V428.256V434.522V440.788V447.054V453.32C308.853 453.701 308.656 454.032 308.242 454.27L307.686 454.589C306.456 455.294 303.777 454.901 301.702 453.711V391.056C303.777 392.246 306.457 392.639 307.686 391.934L308.242 391.615C308.656 391.378 308.853 391.046 308.853 390.665V396.927Z" fill="#F5F5F5"/>
<path d="M308.854 390.661C308.854 391.042 308.656 391.373 308.242 391.611L307.687 391.93C306.684 392.505 304.716 392.35 302.899 391.628L302.896 391.627C303.174 389.685 304.021 387.899 305.025 387.323L305.583 387.004C305.993 386.769 306.378 386.765 306.708 386.955C307.33 387.315 308.784 388.399 308.854 390.661Z" fill="#F5F5F5"/>
<path d="M466.503 154.708C464.67 155.766 463.178 154.916 463.172 152.81C463.166 150.704 464.648 148.136 466.481 147.078L524.945 113.324C526.778 112.266 528.27 113.116 528.276 115.222C528.282 117.328 526.8 119.896 524.966 120.954L466.503 154.708Z" fill="#747474"/>
<path d="M358.915 212.104C347.896 218.466 338.96 233.935 338.996 246.596L340.919 932.723C340.955 945.385 349.949 950.51 360.968 944.148L634.582 786.177C645.594 779.819 654.53 764.342 654.494 751.681L652.571 65.5541C652.535 52.8921 643.541 47.7751 632.529 54.1331L567.017 91.9571C567.046 102.218 559.993 114.427 551.27 119.463L440.271 183.549C431.549 188.585 424.456 184.543 424.428 174.52L358.915 212.104Z" fill="#27AAE1"/>
<mask id="mask0_50_554" style="mask-type:luminance" maskUnits="userSpaceOnUse" x="124" y="297" width="670" height="678">
<path d="M455.133 954.138C467.831 953.325 482.702 943.426 488.287 932.064L790.964 316.303C796.549 304.94 790.762 296.356 778.064 297.169L462.768 317.354C450.078 318.167 435.203 328.073 429.618 339.436L126.941 955.196C121.356 966.559 127.146 975.135 139.836 974.323L215.329 969.489C219.855 960.281 231.592 952.468 241.644 951.825L369.553 943.636C379.604 942.992 384.168 949.761 379.746 958.756L455.133 954.138Z" fill="white"/>
</mask>
<g mask="url(#mask0_50_554)">
<path d="M202.819 488.831L736.332 752.938L784.825 654.98L251.312 390.873L202.819 488.831Z" fill="#4D4D4D"/>
</g>
<mask id="mask1_50_554" style="mask-type:luminance" maskUnits="userSpaceOnUse" x="5" y="445" width="670" height="679">
<path d="M336.194 1102.91C348.892 1102.09 363.763 1092.19 369.348 1080.83L672.025 465.071C677.61 453.708 671.823 445.124 659.125 445.937L343.829 466.122C331.139 466.935 316.264 476.841 310.679 488.204L8.00236 1103.96C2.41713 1115.33 8.20739 1123.9 20.8971 1123.09L96.3897 1118.26C100.916 1109.05 112.653 1101.24 122.705 1100.59L250.614 1092.4C260.665 1091.76 265.229 1098.53 260.807 1107.52L336.194 1102.91Z" fill="white"/>
</mask>
<g mask="url(#mask1_50_554)">
<path d="M179.279 539.7L712.792 803.808L724.229 780.704L190.716 516.596L179.279 539.7Z" fill="#4D4D4D"/>
</g>
<path d="M593.542 289.853L649.296 306.538L625.292 356.733L608.744 351.789L609.216 604.738L383.78 734.893L383.308 481.93L366.842 505.948L342.62 483.582L495.577 260.548L553.718 277.928L553.588 232.082L593.313 209.147L593.542 289.853ZM587.061 592.127L586.615 348.392L495.761 321.187L405.346 453.048L405.792 696.783L587.061 592.127Z" fill="#808285"/>
<path d="M587.495 498.512C587.525 505.741 582.467 515.148 575.368 519.247L423.188 607.108C415.589 611.495 410.279 607.128 411.052 599.062C411.23 597.203 411.731 595.148 412.602 592.958L488.283 402.742C490.602 396.899 494.694 392.291 498.78 389.932C502.878 387.566 506.982 387.442 509.327 390.592L585.837 492.94C586.937 494.417 587.459 496.349 587.495 498.512Z" fill="#E6E6E6"/>
<path d="M517.788 411.406L590.785 509.054C591.892 510.557 591.16 512.869 590.798 513.787C590.426 514.725 589.329 517.018 587.104 518.303L441.912 602.13C439.687 603.414 438.581 602.392 438.205 601.887C437.84 601.388 437.096 599.929 438.192 597.154L510.398 415.673C511.504 412.905 513.343 411.602 514.081 411.176C514.83 410.743 516.67 409.922 517.788 411.406ZM517.648 517.612C521.683 505.053 526.962 479.809 526.939 471.861C526.909 461.408 523.67 451.235 514.21 456.697C504.76 462.153 501.589 476.026 501.619 486.479C501.641 494.427 507.046 513.502 511.139 521.369L517.648 517.612ZM514.463 546.134C519.221 543.387 523.075 536.878 523.06 531.6C523.045 526.31 519.167 524.264 514.409 527.011C509.651 529.758 505.809 536.261 505.824 541.551C505.839 546.829 509.706 548.881 514.463 546.134Z" fill="#FF6A40"/>
<path d="M514.409 527.011C519.167 524.264 523.045 526.31 523.06 531.6C523.075 536.877 519.221 543.387 514.464 546.134C509.706 548.881 505.839 546.829 505.824 541.552C505.809 536.261 509.652 529.758 514.409 527.011Z" fill="white"/>
<path d="M514.21 456.698C523.671 451.236 526.91 461.408 526.939 471.862C526.962 479.81 521.683 505.053 517.648 517.612L511.139 521.37C507.046 513.503 501.642 494.427 501.619 486.48C501.59 476.026 504.761 462.153 514.21 456.698Z" fill="white"/>
<path d="M508.234 408.153C508.336 408.028 508.437 407.902 508.54 407.78C508.799 407.476 509.066 407.191 509.333 406.905C509.513 406.712 509.691 406.512 509.874 406.328C510.002 406.2 510.135 406.086 510.264 405.962C510.743 405.504 511.23 405.076 511.723 404.681C511.889 404.548 512.055 404.414 512.222 404.288C512.83 403.831 513.442 403.405 514.056 403.05C514.57 402.753 515.084 402.508 515.595 402.287C515.732 402.228 515.869 402.17 516.005 402.116C516.312 401.996 516.617 401.893 516.92 401.802C517.055 401.762 517.191 401.714 517.324 401.679C517.491 401.636 517.654 401.607 517.819 401.574C518.017 401.534 518.216 401.492 518.412 401.465C518.528 401.449 518.641 401.441 518.756 401.431C518.981 401.41 519.205 401.397 519.424 401.396C519.517 401.396 519.609 401.395 519.701 401.399C519.736 401.4 519.769 401.408 519.804 401.409C521.339 402.187 522.837 402.935 524.119 403.68C523.873 403.35 523.608 403.058 523.324 402.802C523.219 402.708 523.101 402.644 522.991 402.56C522.804 402.415 522.621 402.258 522.42 402.142L521.979 401.886C522.126 401.954 522.278 402.009 522.419 402.091L522.408 402.084C522.412 402.086 522.415 402.089 522.419 402.091L510.262 395.026C510.242 395.014 510.222 395.003 510.202 394.991C510.02 394.889 509.834 394.798 509.643 394.718C509.589 394.695 509.531 394.68 509.476 394.659C509.414 394.635 509.35 394.614 509.287 394.592C509.209 394.566 509.133 394.533 509.054 394.51C508.882 394.46 508.705 394.423 508.527 394.389C508.501 394.384 508.476 394.376 508.449 394.371C508.44 394.369 508.431 394.367 508.423 394.366C508.198 394.327 507.969 394.3 507.737 394.285C507.686 394.282 507.633 394.286 507.582 394.284C507.492 394.28 507.401 394.282 507.31 394.282C507.198 394.282 507.089 394.274 506.977 394.279C506.874 394.283 506.767 394.301 506.663 394.31C506.542 394.32 506.421 394.33 506.299 394.346C506.232 394.355 506.167 394.356 506.1 394.366C505.979 394.385 505.853 394.421 505.731 394.445C505.561 394.478 505.391 394.511 505.219 394.554C505.16 394.569 505.103 394.575 505.044 394.591C504.957 394.615 504.867 394.656 504.779 394.682C504.48 394.771 504.181 394.873 503.878 394.991C503.796 395.023 503.716 395.041 503.634 395.075C503.582 395.096 503.53 395.13 503.479 395.152C503.01 395.353 502.538 395.575 502.066 395.841C502.042 395.855 502.018 395.869 501.994 395.883C501.963 395.901 501.932 395.917 501.901 395.935C501.87 395.953 501.839 395.971 501.809 395.989C501.784 396.004 501.759 396.019 501.735 396.034C501.166 396.371 500.6 396.769 500.037 397.194C499.899 397.298 499.763 397.407 499.626 397.517C499.022 397.998 498.423 398.509 497.842 399.083C497.841 399.084 497.84 399.085 497.839 399.086C497.789 399.136 497.741 399.193 497.691 399.244C497.329 399.609 496.969 399.984 496.621 400.383C496.622 400.383 496.623 400.383 496.623 400.383C496.622 400.382 496.622 400.383 496.621 400.383C496.613 400.392 496.606 400.401 496.599 400.41C496.59 400.42 496.581 400.429 496.572 400.439C496.257 400.801 495.948 401.176 495.647 401.565C495.56 401.677 495.477 401.797 495.391 401.912C495.318 402.009 495.246 402.107 495.174 402.206C495.082 402.332 494.987 402.453 494.897 402.582C494.675 402.898 494.459 403.221 494.248 403.551L494.259 403.558C493.386 404.923 492.601 406.398 491.96 407.978C491.968 407.983 491.976 407.987 491.984 407.991C491.959 408.052 491.929 408.108 491.905 408.169L491.887 408.159L419.681 589.64C419.657 589.7 419.633 589.76 419.61 589.82C419.609 589.823 419.608 589.827 419.606 589.83C419.594 589.86 419.583 589.891 419.571 589.92C419.432 590.283 419.303 590.641 419.185 590.996C419.163 591.062 419.147 591.124 419.126 591.189C419.082 591.325 419.043 591.458 419.002 591.593C418.948 591.77 418.888 591.951 418.839 592.126C418.804 592.251 418.78 592.369 418.748 592.493C418.7 592.678 418.654 592.863 418.612 593.046C418.587 593.155 418.554 593.267 418.531 593.374C418.505 593.496 418.493 593.61 418.47 593.73C418.415 594.014 418.366 594.293 418.325 594.569C418.31 594.673 418.284 594.784 418.27 594.887C418.243 595.096 418.22 595.303 418.201 595.507C418.201 595.509 418.201 595.512 418.2 595.514C417.807 599.613 419.061 602.711 421.415 604.079L433.573 611.145C431.219 609.777 429.966 606.679 430.359 602.579C430.359 602.578 430.359 602.578 430.359 602.577C430.388 602.276 430.438 601.962 430.485 601.65C430.525 601.383 430.571 601.112 430.625 600.837C430.673 600.591 430.726 600.344 430.785 600.092C430.827 599.915 430.869 599.736 430.917 599.556C431.005 599.22 431.104 598.879 431.212 598.533C431.244 598.43 431.272 598.329 431.306 598.225C431.465 597.743 431.639 597.254 431.837 596.756L504.043 415.274C504.865 413.204 505.92 411.299 507.121 409.604C507.165 409.542 507.211 409.483 507.256 409.422C507.572 408.982 507.9 408.562 508.234 408.153Z" fill="#D1D3D4"/>
<path d="M598.699 506.645C598.728 513.542 593.901 522.517 587.128 526.428L441.937 610.254C434.687 614.44 429.62 610.273 430.358 602.577C430.528 600.803 431.006 598.844 431.837 596.754L504.044 415.272C506.257 409.697 510.159 405.302 514.058 403.051C517.968 400.794 521.884 400.674 524.121 403.68L597.118 501.329C598.166 502.738 598.665 504.581 598.699 506.645ZM590.799 513.788C591.161 512.869 591.893 510.557 590.786 509.054L517.79 411.406C516.671 409.922 514.832 410.743 514.082 411.176C513.344 411.602 511.505 412.904 510.398 415.673L438.192 597.155C437.097 599.93 437.84 601.388 438.205 601.887C438.581 602.392 439.688 603.415 441.912 602.131L587.105 518.303C589.331 517.018 590.427 514.725 590.799 513.788Z" fill="white"/>
</svg>
