<svg width="2029" height="1938" viewBox="0 0 2029 1938" fill="none" xmlns="http://www.w3.org/2000/svg">
<mask id="mask0_50_555" style="mask-type:luminance" maskUnits="userSpaceOnUse" x="0" y="0" width="2029" height="1375">
<path d="M2028.02 0H0V1374.38H2028.02V0Z" fill="white"/>
</mask>
<g mask="url(#mask0_50_555)">
<path opacity="0.1" d="M1788.36 626.146L858.99 86.0503L-76.1553 625.951L853.218 1166.05L1788.36 626.146Z" fill="black"/>
<path opacity="0.1" d="M1134.28 1213.02C1046.75 1213.02 964.261 1193.1 902.031 1156.93C895.122 1152.92 888.348 1148.59 881.294 1143.69L855.794 1125.97L1336.57 848.385L1345.98 852.961C1354.33 857.022 1361.72 860.933 1368.59 864.917C1433.99 902.927 1469.96 954.63 1469.89 1010.51C1469.8 1066.73 1433.3 1118.74 1367.09 1156.96C1304.47 1193.12 1221.79 1213.02 1134.3 1213.02C1134.29 1213.02 1134.29 1213.02 1134.28 1213.02Z" fill="black"/>
<path d="M853.407 1139.24C846.584 1135.28 839.762 1131.31 832.939 1127.35C618.167 1002.54 403.394 877.722 188.621 752.91C169.304 741.685 149.988 730.459 130.671 719.233C75.2204 687.008 19.7694 654.783 -35.6816 622.559C-35.7506 598.075 -35.8206 573.591 -35.8896 549.107C178.883 673.92 393.656 798.732 608.428 923.545C615.251 927.51 622.073 931.475 628.896 935.44C703.664 978.89 778.431 1022.34 853.199 1065.79C853.205 1067.93 853.211 1070.08 853.217 1072.22C853.28 1094.56 853.344 1116.9 853.407 1139.24Z" fill="#515151"/>
<path d="M853.199 1065.79L853.407 1139.24L1748.31 622.568L1748.1 549.116L853.199 1065.79Z" fill="#383838"/>
<path d="M-35.8896 549.108L853.199 1065.79L1748.1 549.116L859.015 32.4331L-35.8896 549.108Z" fill="#696969"/>
<path d="M-1.02148 -788.402L1.32652 544.097L854.594 1039.96L852.247 -292.536L-1.02148 -788.402Z" fill="#A6868B"/>
<path d="M852.247 -292.536L854.595 1039.96L1713.44 544.105L1711.1 -788.394L852.247 -292.536Z" fill="#C19BA1"/>
<path d="M904.218 1095.95C1030.19 1169.15 1235.13 1169.18 1361.96 1095.95C1425.76 1059.11 1457.63 1010.75 1457.49 962.454L1457.56 1001.52C1457.7 1049.81 1425.83 1098.18 1362.03 1135.02C1235.2 1208.24 1030.26 1208.22 904.285 1135.01C897.241 1130.92 890.642 1126.65 884.351 1122.28L884.283 1083.21C890.575 1087.58 897.174 1091.85 904.218 1095.95Z" fill="#383838"/>
<path d="M884.285 1083.21C890.576 1087.58 897.175 1091.85 904.219 1095.95C1030.19 1169.15 1235.13 1169.18 1361.96 1095.95C1488.76 1022.74 1489.42 904.015 1363.45 830.808C1356.41 826.715 1349.06 822.878 1341.53 819.22L884.285 1083.21Z" fill="#585B5B"/>
<path d="M1312.87 1015.45C1365.34 985.159 1391.54 945.4 1391.43 905.706L1391.5 944.773C1391.61 984.467 1365.41 1024.23 1312.94 1054.52C1208.71 1114.69 1040.23 1114.71 936.007 1054.1L935.939 1017.87C1040.17 1078.48 1208.64 1075.63 1312.87 1015.45Z" fill="#424140"/>
<path d="M935.939 1017.87C1040.17 1078.48 1208.65 1075.63 1312.87 1015.45C1417.13 955.258 1417.68 857.689 1314.13 797.514L935.939 1017.87Z" fill="#696969"/>
<path d="M1185.02 427.851L1170.95 419.674L1172.17 849.483L1186.24 857.66L1185.02 427.851Z" fill="#8F8F8F"/>
<path d="M1030.82 783.623L1030.08 521.511L1156.26 448.659L1157.01 710.772L1030.82 783.623Z" fill="#5F8CBA"/>
<path d="M1008.32 944.798L1013.38 947.646L1012.17 517.838L1007.1 514.989L1008.32 944.798Z" fill="#556167"/>
<path d="M1009.08 520.653L1001.07 515.996L1002.29 945.805L1010.3 950.461L1009.08 520.653Z" fill="#8FA2AC"/>
<path d="M1177.2 423.587L1169.19 418.931L1001.07 515.996L1009.08 520.653L1177.2 423.587Z" fill="#495157"/>
<path d="M1178.42 853.396L1010.3 950.461L1009.08 520.652L1177.2 423.586L1178.42 853.396Z" fill="#5D6970"/>
<path d="M1154.01 837.733L1160.52 841.437L1160.22 734.394L1153.75 746.756L1154.01 837.733Z" fill="#546066"/>
<path d="M1044.86 900.752L1037.39 912.529L1160.52 841.437L1154.01 837.733L1044.86 900.752Z" fill="#4E5A5E"/>
<path d="M1044.6 809.775L1044.86 900.752L1154.01 837.733L1153.75 746.756L1044.6 809.775Z" fill="#71828A"/>
<path d="M1153.75 746.756L1160.22 734.394L1037.08 805.485L1044.6 809.775L1153.75 746.756Z" fill="#606E75"/>
<path d="M1037.08 805.485L1034.88 804.208L1035.19 911.252L1037.39 912.529L1037.08 805.485Z" fill="#80929B"/>
<path d="M1160.22 734.394L1158.02 733.117L1034.88 804.208L1037.08 805.485L1160.22 734.394Z" fill="#90A4AE"/>
<path d="M1044.6 809.775L1037.08 805.485L1037.39 912.529L1044.86 900.752L1044.6 809.775Z" fill="#606E75"/>
<path d="M1154.01 701.137L1160.52 704.841L1160.22 456.066L1153.75 468.428L1154.01 701.137Z" fill="#546066"/>
<path d="M1044.86 764.156L1037.39 775.933L1160.52 704.841L1154.01 701.137L1044.86 764.156Z" fill="#4E5A5E"/>
<path d="M1044.6 531.447L1044.86 764.156L1154.01 701.137L1153.75 468.428L1044.6 531.447Z" fill="#71828A"/>
<path d="M1153.75 468.428L1160.22 456.066L1037.08 527.157L1044.6 531.447L1153.75 468.428Z" fill="#606E75"/>
<path d="M1037.08 527.157L1034.88 525.88L1035.19 774.656L1037.39 775.933L1037.08 527.157Z" fill="#80929B"/>
<path d="M1160.22 456.066L1158.02 454.789L1034.88 525.88L1037.08 527.157L1160.22 456.066Z" fill="#90A4AE"/>
<path d="M1044.6 531.447L1037.08 527.157L1037.39 775.933L1044.86 764.156L1044.6 531.447Z" fill="#606E75"/>
<path d="M1019.55 784.724C1021.27 783.733 1022.82 783.641 1023.95 784.295L1031.83 788.877C1030.71 788.224 1029.15 788.316 1027.44 789.307C1024.04 791.266 1021.28 796.044 1021.3 799.964C1021.3 801.914 1021.99 803.285 1023.1 803.93L1015.22 799.348C1014.11 798.703 1013.42 797.332 1013.41 795.382C1013.4 791.462 1016.16 786.683 1019.55 784.724Z" fill="#9E9A29"/>
<path d="M1027.44 789.307C1024.04 791.266 1021.28 796.044 1021.29 799.964C1021.31 803.883 1024.08 805.466 1027.48 803.507C1030.89 801.538 1033.65 796.759 1033.63 792.84C1033.62 788.92 1030.85 787.338 1027.44 789.307Z" fill="#EBE32F"/>
<path d="M1196.49 415.461L1185.02 427.851L1186.24 857.66L1197.7 856.247L1196.49 415.461Z" fill="#BABABA"/>
<path d="M1011.84 522.067L1010.18 528.745L1185.02 427.851L1196.49 415.461L1011.84 522.067Z" fill="#8F8F8F"/>
<path d="M1211.43 845.4H1216.41L1219.93 839.976V367.313H1211.43V845.4Z" fill="#B8B8B8"/>
<path d="M993.187 511.438L994.466 973.151L1013.06 962.417L1011.84 522.067L1196.49 415.461L1197.7 856.247L1216.3 845.513L1215.02 383.365L993.187 511.438Z" fill="#D1D1D1"/>
<path d="M981.67 504.839L967.601 496.663L968.934 966.824L983.003 975L981.67 504.839Z" fill="#E3E3E3"/>
<path d="M993.187 511.438L981.67 504.839L983.003 975L994.466 973.151L993.187 511.438Z" fill="#DBDBDB"/>
<path d="M1220.03 367.224L1205.96 359.048L967.601 496.663L981.67 504.839L1220.03 367.224Z" fill="#FDFDFD"/>
<path d="M1215.02 383.365L1220.03 367.224L981.67 504.839L993.187 511.438L1215.02 383.365Z" fill="#EDEDED"/>
<path d="M1.05371 447.887L39.4657 470.064L39.3187 505.037L1.20171 483.029L1.05371 447.887Z" fill="#F7F1EB"/>
<path d="M44.7661 211.219L44.6191 246.193L145.344 304.346L145.491 269.373L44.7661 211.219Z" fill="#F7F1EB"/>
<path d="M313.713 132.504L313.566 167.477L414.291 225.631L414.438 190.658L313.713 132.504Z" fill="#F7F1EB"/>
<path d="M283.403 627.925L354.639 669.053L354.492 704.026L283.403 662.983V627.925Z" fill="#F7F1EB"/>
<path d="M503.078 115.062L502.93 150.036L603.656 208.19L603.803 173.216L503.078 115.062Z" fill="#F7F1EB"/>
<path d="M554.681 551.591L603.67 579.875L603.523 614.848L554.408 586.491L554.681 551.591Z" fill="#F7F1EB"/>
<path d="M365.107 373.506L414.096 401.79L413.949 436.763L364.833 408.406L365.107 373.506Z" fill="#F7F1EB"/>
<path d="M734.681 -26.7065L783.67 1.57746L783.523 36.5505L734.408 8.19346L734.681 -26.7065Z" fill="#F7F1EB"/>
<path d="M852.857 410.465L771.646 363.577L771.794 328.604L852.71 375.321L852.857 410.465Z" fill="#F7F1EB"/>
<path d="M853.624 680.614L809.513 655.146L809.66 620.173L853.476 645.471L853.624 680.614Z" fill="#F7F1EB"/>
<path d="M688.489 862.516L688.341 897.49L789.067 955.643L789.214 920.67L688.489 862.516Z" fill="#F7F1EB"/>
<path d="M1713.44 481.424L1675.03 503.601L1675.18 538.574L1713.3 516.567L1713.44 481.424Z" fill="#F7F1EB"/>
<path d="M1423.85 627.925L1352.61 669.053L1352.76 704.026L1423.85 662.983V627.925Z" fill="#F7F1EB"/>
<path d="M1429.59 96.5422L1358.35 137.67L1358.5 172.643L1429.59 131.6V96.5422Z" fill="#F7F1EB"/>
<path d="M1134.7 149.202L1063.46 190.33L1063.61 225.303L1134.7 184.26V149.202Z" fill="#F7F1EB"/>
<path d="M1292.35 551.591L1243.37 579.875L1243.51 614.848L1292.63 586.491L1292.35 551.591Z" fill="#F7F1EB"/>
<path d="M854.39 410.465L935.601 363.577L935.454 328.604L854.537 375.321L854.39 410.465Z" fill="#F7F1EB"/>
<path d="M853.624 680.614L897.735 655.146L897.588 620.173L853.772 645.471L853.624 680.614Z" fill="#F7F1EB"/>
<path d="M943.322 811.633V846.691L901.249 870.982L901.102 836.009L943.322 811.633Z" fill="#F7F1EB"/>
<path d="M965.351 101.683V136.742L923.277 161.033L923.13 126.06L965.351 101.683Z" fill="#F7F1EB"/>
<path d="M1574.74 449.951L1573.95 168.391L1350.31 297.507L1351.11 579.071L1574.74 449.951Z" fill="#D6D6D6"/>
<path d="M1568.3 178.197L1355.99 300.777L1356.75 569.26L1569.06 446.685L1568.3 178.197Z" fill="#546C8F"/>
<path d="M1550.38 431.312L1540.19 425.391L1461.12 471.045L1471.31 476.966L1550.38 431.312Z" fill="#F5F5F5"/>
<path d="M1550.1 333.615L1539.92 327.695L1540.19 425.391L1550.38 431.312L1550.1 333.615Z" fill="#E8E8E8"/>
<path d="M1454.4 486.73L1444.21 480.809L1365.1 526.483L1375.29 532.403L1454.4 486.73Z" fill="#F5F5F5"/>
<path d="M1454.12 389.037L1443.93 383.116L1444.21 480.809L1454.4 486.73L1454.12 389.037Z" fill="#E8E8E8"/>
<path d="M1550.05 312.751L1539.86 306.83L1460.78 352.48L1470.97 358.401L1550.05 312.751Z" fill="#F5F5F5"/>
<path d="M1549.77 215.054L1539.58 209.134L1539.86 306.83L1550.05 312.751L1549.77 215.054Z" fill="#E8E8E8"/>
<path d="M1454.06 368.169L1443.87 362.248L1364.76 407.918L1374.95 413.838L1454.06 368.169Z" fill="#F5F5F5"/>
<path d="M1453.78 270.472L1443.59 264.552L1443.87 362.248L1454.06 368.169L1453.78 270.472Z" fill="#E8E8E8"/>
<path d="M1569.06 446.685L1356.75 569.261L1355.99 300.778L1568.3 178.198L1569.06 446.685ZM1375.29 532.403L1454.4 486.729L1454.12 389.036L1375.01 434.706L1375.29 532.403ZM1374.95 413.838L1454.06 368.168L1453.78 270.471L1374.68 316.141L1374.95 413.838ZM1470.97 358.401L1550.05 312.751L1549.77 215.055L1470.7 260.709L1470.97 358.401ZM1471.31 476.966L1550.38 431.312L1550.1 333.615L1471.03 379.269L1471.31 476.966Z" fill="#D4D4D4"/>
</g>
<path d="M772.677 140.754C778.78 144.279 783.713 152.827 783.693 159.844L783.414 257.754C783.394 264.771 778.429 267.602 772.326 264.076L586.748 156.88C580.644 153.354 575.712 144.807 575.732 137.79L576.009 39.8798C576.029 32.8628 580.994 30.0328 587.097 33.5578L772.677 140.754Z" fill="#E6E6E6"/>
<path d="M766.056 144.428L591.254 43.4571C588.361 41.7861 585.739 41.6311 583.847 42.7321L573.29 48.8701C575.183 47.7691 577.804 47.9241 580.697 49.5951L755.499 150.566C761.248 153.887 765.894 161.938 765.875 168.548L765.614 260.772C765.605 264.055 764.446 266.366 762.577 267.452L773.134 261.314C775.003 260.227 776.162 257.917 776.171 254.634L776.432 162.41C776.451 155.8 771.805 147.749 766.056 144.428Z" fill="#EBEBEB"/>
<path d="M755.499 150.566C761.248 153.887 765.894 161.938 765.876 168.548L765.615 260.772C765.596 267.381 760.92 270.048 755.171 266.727L580.368 165.755C574.619 162.434 569.973 154.383 569.991 147.773L570.252 55.549C570.271 48.94 574.947 46.273 580.696 49.594L755.499 150.566Z" fill="#707070"/>
<path d="M352.218 386.175L320.088 367.494L319.986 331.666L352.117 350.347L352.218 386.175Z" fill="#888888"/>
<path d="M352.117 350.347L319.986 331.666L648.691 141.796L680.821 160.477L352.117 350.347Z" fill="#ABABAB"/>
<path d="M680.821 160.477L680.923 196.305L352.218 386.175L352.117 350.347L680.821 160.477Z" fill="#8A8A8A"/>
<path d="M733.537 157.141C735.661 155.906 738.598 156.074 741.829 157.941C748.25 161.65 753.476 170.705 753.455 178.087C753.445 181.755 752.141 184.34 750.045 185.559L743.697 189.359C745.793 188.14 747.096 185.555 747.107 181.887C747.128 174.504 741.903 165.45 735.481 161.741C732.249 159.874 729.312 159.706 727.189 160.941L733.537 157.141Z" fill="white"/>
<path d="M735.482 161.741C729.06 158.032 723.801 161.03 723.78 168.412C723.759 175.795 728.984 184.849 735.406 188.558C741.828 192.267 747.087 189.269 747.108 181.886C747.128 174.505 741.903 165.45 735.482 161.741Z" fill="#807B7A"/>
<path d="M732.866 216.898C734.99 215.663 737.927 215.831 741.158 217.698C747.579 221.407 752.804 230.462 752.784 237.844C752.774 241.511 751.47 244.097 749.374 245.316L743.026 249.116C745.122 247.897 746.425 245.312 746.436 241.644C746.457 234.261 741.232 225.207 734.81 221.498C731.578 219.631 728.641 219.463 726.518 220.698L732.866 216.898Z" fill="white"/>
<path d="M734.811 221.499C728.389 217.79 723.13 220.788 723.109 228.171C723.088 235.553 728.313 244.608 734.735 248.317C741.157 252.026 746.416 249.028 746.437 241.645C746.457 234.263 741.232 225.208 734.811 221.499Z" fill="#807B7A"/>
<path d="M589.249 71.197C591.373 69.962 594.31 70.13 597.541 71.997C603.962 75.706 609.187 84.761 609.167 92.143C609.157 95.811 607.853 98.396 605.757 99.615L599.409 103.415C601.505 102.196 602.808 99.611 602.819 95.943C602.84 88.56 597.615 79.506 591.193 75.797C587.961 73.93 585.024 73.762 582.901 74.997L589.249 71.197Z" fill="white"/>
<path d="M591.193 75.7969C584.771 72.0879 579.512 75.0859 579.491 82.4679C579.47 89.8499 584.695 98.9049 591.117 102.614C597.538 106.323 602.798 103.325 602.819 95.9419C602.84 88.5609 597.615 79.5059 591.193 75.7969Z" fill="#807B7A"/>
<path d="M588.578 130.954C590.702 129.719 593.639 129.887 596.87 131.754C603.291 135.463 608.516 144.518 608.495 151.9C608.485 155.567 607.182 158.153 605.086 159.372L598.738 163.172C600.834 161.953 602.137 159.368 602.147 155.7C602.168 148.317 596.943 139.263 590.522 135.554C587.29 133.687 584.353 133.519 582.23 134.754L588.578 130.954Z" fill="white"/>
<path d="M590.522 135.555C584.1 131.846 578.841 134.844 578.82 142.227C578.799 149.61 584.024 158.664 590.446 162.373C596.868 166.082 602.127 163.084 602.148 155.701C602.169 148.319 596.943 139.264 590.522 135.555Z" fill="#807B7A"/>
<path d="M636.884 678.352L710.018 600.239L290.928 154.75L256.22 272.378C256.22 272.378 256.174 272.999 256.352 273.19L637.016 679.165C636.837 678.974 636.779 678.707 636.884 678.352Z" fill="#999999"/>
<path d="M709.062 599.803C695.747 615.108 636.884 678.353 636.884 678.353C636.523 679.578 638.104 679.756 639.877 679.334C641.682 678.904 644.47 679.215 644.825 678.012C644.825 678.012 702.985 619.808 713.875 604.734C714.958 603.234 710.276 598.408 709.062 599.803Z" fill="#F2F2F2"/>
<path d="M289.096 174.332C287.181 172.294 283.916 171.528 279.763 172.517L109.101 213.163C100.86 215.126 92.2304 223.279 89.8404 231.38L54.2374 352.039C53.0524 356.054 53.6284 359.3 55.5174 361.31L444.209 775.556C442.32 773.546 441.744 770.3 442.929 766.285L478.532 645.626C480.922 637.525 489.553 629.371 497.793 627.409L668.455 586.763C672.608 585.774 675.873 586.54 677.788 588.578L289.096 174.332Z" fill="#4A4A4A"/>
<path d="M668.455 586.762C676.708 584.796 681.455 589.764 679.065 597.865L643.462 718.524C641.075 726.613 632.457 734.763 624.204 736.729L453.542 777.375C445.301 779.338 440.542 774.373 442.929 766.284L478.532 645.625C480.922 637.524 489.553 629.37 497.793 627.408L668.455 586.762Z" fill="#A1A1A1"/>
<path d="M654.852 624.31C655.801 621.094 655.341 618.495 653.829 616.885C652.297 615.255 649.687 614.641 646.368 615.431L639.4 617.091L617.965 689.732C616.055 696.206 609.157 702.729 602.562 704.3L480.633 733.339L478.561 740.362C477.611 743.581 478.07 746.183 479.582 747.793C481.111 749.421 483.717 750.034 487.033 749.244L615.943 718.542C622.538 716.971 629.436 710.448 631.346 703.974L654.852 624.31Z" fill="#737373"/>
<path d="M517.459 646.133C510.864 647.704 503.979 654.224 502.069 660.698L480.635 733.339L602.564 704.299C609.159 702.728 616.056 696.205 617.967 689.731L639.402 617.09L517.459 646.133Z" fill="#4ADEFF"/>
<path d="M710.161 596.792C711.346 592.777 710.563 589.504 708.67 587.489L290.536 142.437C292.429 144.451 293.008 147.704 291.823 151.719L290.929 154.75L709.063 599.802L710.161 596.792Z" fill="#999999"/>
<path d="M297.079 136.283C294.247 133.269 289.424 132.129 283.298 133.588L112.624 174.237L530.758 619.289L701.432 578.64C707.558 577.181 712.381 578.32 715.213 581.335L297.079 136.283Z" fill="#E8E8E8"/>
<path d="M718.163 595.146C720.445 582.891 713.612 575.74 701.432 578.641L691.421 581.025L530.758 619.29C518.578 622.191 508.796 635.618 502.268 646.236C487.992 669.457 422.888 720.962 422.888 720.962C422.533 722.165 428.99 721.701 430.795 721.271C432.568 720.849 433.85 719.386 434.863 718.608C458.706 700.296 496.184 669.286 510.46 646.066C514.87 638.893 520.457 628.274 528.685 626.314L696.435 586.361L699.36 585.664C707.588 583.704 712.252 589.304 709.957 596.77C709.725 597.525 709.324 599.269 708.886 599.926C707.557 601.919 712.612 606.08 713.876 604.731C716.244 602.203 717.68 597.741 718.163 595.146Z" fill="#F2F2F2"/>
<path d="M530.758 619.291L112.624 174.238C100.444 177.139 87.6623 189.228 84.1343 201.184L48.5313 321.842C48.4313 322.181 48.4893 322.439 48.6643 322.625L423.021 721.745C422.846 721.559 422.788 721.301 422.888 720.962C422.888 720.962 487.992 669.457 502.268 646.236C508.796 635.618 518.578 622.192 530.758 619.291Z" fill="#BABABA"/>
<path d="M635.21 718.815C634.64 718.208 633.67 717.979 632.441 718.271C629.998 718.853 627.425 721.286 626.717 723.685C626.365 724.877 626.538 725.842 627.101 726.441L628.794 728.29C628.232 727.691 628.059 726.726 628.41 725.534C629.118 723.135 631.69 720.703 634.134 720.12C635.364 719.827 636.333 720.057 636.903 720.664L635.21 718.815Z" fill="white"/>
<path d="M634.132 720.12C636.576 719.538 637.993 721.021 637.285 723.419C636.577 725.817 634.005 728.25 631.561 728.833C629.118 729.415 627.701 727.932 628.408 725.534C629.116 723.135 631.689 720.702 634.132 720.12Z" fill="#807B7A"/>
<path d="M668.326 601.657C667.756 601.05 666.786 600.821 665.557 601.113C663.114 601.695 660.541 604.128 659.833 606.527C659.481 607.719 659.654 608.684 660.217 609.283L661.91 611.132C661.347 610.533 661.175 609.568 661.526 608.376C662.234 605.977 664.806 603.545 667.25 602.962C668.48 602.669 669.449 602.899 670.019 603.506L668.326 601.657Z" fill="white"/>
<path d="M667.251 602.962C669.695 602.38 671.112 603.863 670.404 606.261C669.696 608.659 667.124 611.092 664.68 611.675C662.237 612.257 660.82 610.774 661.527 608.376C662.234 605.978 664.807 603.544 667.251 602.962Z" fill="#807B7A"/>
<path d="M467.263 752.782C466.693 752.175 465.723 751.946 464.494 752.238C462.051 752.82 459.478 755.253 458.77 757.652C458.418 758.844 458.591 759.809 459.154 760.408L460.847 762.257C460.285 761.658 460.112 760.693 460.463 759.501C461.171 757.102 463.743 754.67 466.187 754.087C467.417 753.794 468.386 754.024 468.956 754.631L467.263 752.782Z" fill="white"/>
<path d="M466.188 754.087C468.632 753.505 470.049 754.988 469.341 757.386C468.633 759.784 466.061 762.217 463.617 762.799C461.173 763.381 459.756 761.898 460.464 759.5C461.172 757.102 463.744 754.669 466.188 754.087Z" fill="#807B7A"/>
<path opacity="0.5" d="M1551.59 1618.34C1408.9 1409.82 639.559 617.498 639.399 617.091C639.355 616.98 639.274 617.026 639.172 617.145L517.458 646.134C510.863 647.705 503.978 654.225 502.068 660.699L480.634 733.34L480.669 733.332C480.66 733.39 480.642 733.455 480.657 733.493C480.836 733.949 790.773 1819.42 790.773 1819.42C954.66 1971.03 1649.12 2040.85 1551.59 1618.34Z" fill="#FFEC89"/>
<path d="M1442.39 1379.16C1412.73 1415.08 1371.36 1410.21 1337.65 1382.37C1303.93 1354.53 1290.64 1314.26 1320.3 1278.34C1349.96 1242.42 1417.37 1216.46 1451.09 1244.3C1484.8 1272.14 1472.05 1343.24 1442.39 1379.16Z" fill="#93B6CF"/>
<path d="M1426.43 1389.43C1424.71 1391.52 1422.95 1393.48 1421.16 1395.33C1427.67 1391.32 1433.73 1385.94 1439.23 1379.27C1453.64 1361.83 1464.22 1335.28 1466.85 1309.98C1468.21 1296.91 1467.41 1284.5 1464.53 1274.09C1461.38 1262.7 1458.86 1273.32 1459.48 1289.05C1460.84 1323.92 1447.26 1364.21 1426.43 1389.43Z" fill="#829EA1"/>
<path d="M1323.2 1279.4C1293.54 1315.31 1306.84 1355.58 1340.55 1383.42C1348.23 1389.76 1356.3 1394.9 1364.54 1398.65C1329.13 1360.06 1319.26 1310.16 1356.52 1265.03C1363.93 1256.05 1372.99 1247.51 1383.14 1239.73C1359.75 1247.62 1337.25 1262.39 1323.2 1279.4Z" fill="#D9D9D9"/>
<path d="M1344.59 1373.97C1312.19 1347.21 1298.65 1308.98 1323.97 1274.16C1322.69 1275.54 1321.47 1276.93 1320.3 1278.34C1290.64 1314.26 1303.93 1354.53 1337.65 1382.37C1371.36 1410.21 1412.73 1415.08 1442.39 1379.16C1443.55 1377.76 1444.68 1376.3 1445.78 1374.79C1416.43 1406.25 1376.98 1400.72 1344.59 1373.97Z" fill="#D1D1D1"/>
<path d="M1687.02 1388.99C1702.34 1391.66 1714 1362.3 1706.12 1349.23C1618.34 1320.15 1573.74 1263.93 1542.61 1289.41C1530.65 1299.2 1536.18 1331.56 1555.03 1344.12C1598.21 1372.9 1649.51 1382.46 1687.02 1388.99Z" fill="#696969"/>
<path d="M1656.49 1272.51C1656.65 1275.97 1659.32 1286.46 1661.02 1298.54L1686.47 1319.51L1698.74 1302.39C1695.63 1287.39 1693.82 1274.02 1692.33 1267.18C1688.42 1257.03 1663.28 1256.44 1656.49 1272.51Z" fill="#4D4D4D"/>
<path d="M1660.2 1259.65C1660.43 1271.86 1662.92 1290.52 1662.92 1290.52L1694.35 1291.28C1694.35 1291.28 1685.18 1263.61 1685.79 1255.15C1685.81 1254.88 1660.15 1257.17 1660.2 1259.65Z" fill="#F0C7AD"/>
<path d="M1656.49 1272.5C1660.16 1280.18 1685.96 1283.44 1692.33 1267.18C1696.41 1285.86 1712.26 1354.24 1708.33 1366.85C1704.97 1377.63 1673.65 1373.66 1668.98 1359.26C1667.45 1354.55 1656.97 1283.04 1656.49 1272.5Z" fill="#696969"/>
<path d="M1620.22 1238.42C1624.07 1229.08 1639.27 1243.9 1644.48 1241.73C1651.32 1238.88 1642.17 1223.65 1642.17 1223.65C1642.17 1223.65 1626.08 1193.57 1627.04 1192.53C1628.47 1190.99 1631.01 1189.08 1633.73 1193.66C1634.96 1195.72 1654.89 1226.69 1654.89 1226.69C1654.89 1226.69 1640.07 1192.06 1638.34 1188.23C1636.87 1184.96 1641.8 1184.06 1643.21 1186.43C1643.66 1187.18 1647.07 1193.31 1651.03 1200.45C1657.14 1211.46 1664.57 1224.89 1664.57 1224.89C1664.57 1224.89 1656.23 1198.83 1654.79 1194.74C1654.2 1193.05 1655.64 1188.34 1659.78 1195.47C1662.95 1200.92 1669.02 1214.22 1673.12 1222.93C1673.77 1224.3 1674.32 1225.31 1674.81 1226.12C1674.53 1222.58 1673.83 1213.8 1673.44 1210.39C1673.23 1208.62 1674.84 1204.44 1677.3 1212.31C1679.19 1218.33 1679.06 1217.85 1681.13 1227.25C1681.79 1230.27 1682.5 1233.07 1683.15 1235.53C1687.42 1243.08 1688.62 1250.28 1683.87 1264.1C1682.67 1268.13 1676.73 1270.75 1671.6 1268.77C1666.47 1266.79 1657.1 1264.97 1653.81 1262.66C1650.52 1260.35 1642.32 1255.33 1636.73 1251.8C1631.1 1248.25 1620.22 1238.42 1620.22 1238.42Z" fill="#F0C7AD"/>
<path opacity="0.1" d="M1249.37 1613.4C1210.57 1629.95 1206.29 1663.88 1239.78 1689.19C1251.4 1697.96 1266.06 1704.56 1281.87 1708.73C1378.4 1734.52 1407.13 1750.48 1420.06 1822.92C1422.39 1835.95 1431.18 1849.23 1446.72 1860.97C1487.23 1891.58 1558.11 1900.15 1605.03 1880.15C1651.95 1860.14 1657.17 1819.12 1616.65 1788.51C1600.77 1776.51 1580.22 1767.92 1558.26 1763.09C1439.2 1736.78 1419.6 1716.81 1401.57 1657.39C1398.52 1647.26 1391.54 1637.77 1380.29 1629.27C1346.8 1603.97 1288.17 1596.86 1249.37 1613.4Z" fill="black"/>
<path d="M1548.55 1837.08C1548.55 1837.08 1525.37 1825.83 1520.91 1819.35C1519.86 1817.82 1518.56 1809.93 1518.56 1809.93L1555.5 1830.78L1548.55 1837.08Z" fill="#1A130F"/>
<path d="M1548.55 1837.08C1548.55 1837.08 1523.91 1826.04 1519.45 1819.55C1518.4 1818.03 1518.56 1809.93 1518.56 1809.93L1549.37 1828.23L1548.55 1837.08Z" fill="#2E231B"/>
<path d="M1628.57 1838.39C1629.96 1825.01 1594.05 1809.76 1566.01 1799.63C1537.96 1789.5 1525.38 1777.68 1519.51 1793.93C1513.65 1810.17 1519.25 1821.32 1547.29 1831.44C1559.93 1836.01 1572.03 1847.7 1587.79 1851.99C1604.67 1856.59 1627.27 1850.94 1628.57 1838.39Z" fill="#2E231B"/>
<path d="M1628.72 1836.32C1632.84 1823.52 1594.19 1807.69 1566.15 1797.56C1538.11 1787.44 1525.53 1775.62 1519.66 1791.86C1513.79 1808.11 1519.62 1818.41 1547.66 1828.54C1560.3 1833.1 1575.14 1844.04 1591.07 1847.66C1605.91 1851.04 1625.77 1845.47 1628.72 1836.32Z" fill="#6D6E71"/>
<path d="M1483.88 1662.1L1518.34 1806.83C1527.96 1825.77 1567.56 1818.56 1565.67 1799.92C1565.67 1799.92 1547.86 1654.06 1544.49 1651.17C1529.14 1638.01 1483.88 1662.1 1483.88 1662.1Z" fill="#2E2E2E"/>
<path d="M1463.63 1446.13L1396.49 1501.95C1432.08 1544.31 1466.64 1617.69 1483.88 1662.34C1483.88 1662.34 1545.49 1655.65 1544.55 1651.17C1537.36 1616.84 1498.07 1486.64 1463.63 1446.13Z" fill="#2E2E2E"/>
<path d="M1206.06 1440.73L1198.16 1449.35L1195.66 1440.57L1206.06 1440.73Z" fill="#1A130F"/>
<path d="M1197.57 1446.35L1225.69 1467.7C1239.27 1456.06 1251.27 1450.86 1243.53 1438.11C1234.22 1422.77 1216.97 1419.63 1195.75 1440.49C1196.95 1441.49 1199.32 1442.93 1200.72 1443.65C1199.74 1444.57 1198.69 1445.47 1197.57 1446.35Z" fill="#2E231B"/>
<path d="M1159.65 1516.53C1170.48 1526.59 1196.15 1500.91 1220.06 1478.52C1239.65 1460.18 1254.24 1454.57 1240.8 1441.17C1227.36 1427.77 1217.82 1426.81 1197.83 1445.71C1187.1 1455.86 1173.25 1462.73 1162.24 1476.9C1151.97 1490.1 1151.92 1509.34 1159.65 1516.53Z" fill="#2E231B"/>
<path d="M1159.9 1522.54C1170.73 1532.6 1196.41 1506.92 1220.32 1484.53C1239.91 1466.19 1253.71 1452.19 1244.19 1442.1C1231.16 1428.3 1221.74 1429.42 1198.09 1451.72C1187.34 1461.85 1173.51 1468.74 1162.5 1482.9C1152.22 1496.11 1152.17 1515.35 1159.9 1522.54Z" fill="#6D6E71"/>
<path d="M1198.66 1465.87C1194.97 1458.31 1225.89 1422.74 1245.67 1448.97L1294.11 1540.14C1331.78 1510.61 1349.93 1482.67 1380.04 1436.25L1454.25 1482.64C1421.84 1533.23 1318.95 1628.62 1281.1 1628.27C1253.69 1628.02 1198.66 1465.87 1198.66 1465.87Z" fill="#3D3D3D"/>
<path d="M1468.89 1523.97L1468.78 1524.04C1468.8 1524.05 1468.84 1524.02 1468.89 1523.97Z" fill="#DB3939"/>
<path d="M1578.29 1302.76C1574.31 1285.39 1572.4 1269.29 1560.18 1266.55C1560.84 1268.15 1557.15 1253.54 1557.37 1258.45C1557.37 1258.45 1526.89 1263.26 1519.17 1250.96C1512.86 1240.9 1529.25 1241.51 1526.8 1239.54C1515.35 1230.36 1490.39 1237.37 1483.59 1237.97C1464.24 1239.7 1448.52 1256.83 1440.26 1275.54C1431.39 1295.64 1411.9 1341.23 1403.57 1366.76C1397 1386.9 1373.77 1447.15 1373.77 1447.15C1372.44 1467.47 1458.31 1527.51 1487.38 1489.91C1521.45 1445.85 1588.27 1346.38 1578.29 1302.76Z" fill="#525252"/>
<path d="M1508.5 1259.01C1510.8 1274.24 1552.74 1294.75 1565.32 1278.28C1568.65 1273.94 1565.02 1264.73 1559.62 1263.88C1559.62 1263.88 1528.41 1245.63 1516.17 1243.28C1512.78 1242.63 1506.62 1246.65 1508.5 1259.01Z" fill="#333333"/>
<path d="M1564.26 1271.42C1564.26 1271.42 1549.74 1287.36 1523.29 1268.37C1515.17 1262.54 1508.47 1251.5 1515.42 1244.03L1535.26 1230.76L1561.43 1239.7L1564.26 1271.42Z" fill="#D9B49C"/>
<path d="M1602.47 1251.47C1584.27 1281.4 1575.01 1309.07 1558.24 1301.95C1522.27 1286.7 1511.69 1243.99 1517.16 1221.93C1521.81 1203.19 1529.14 1188.81 1540.69 1180.49C1552.25 1172.17 1568.7 1174.12 1581.74 1180.17C1596.69 1187.1 1607.42 1195.55 1610.69 1211.67C1613.13 1223.68 1611.03 1237.38 1602.47 1251.47Z" fill="#F0C7AD"/>
<path d="M1615.09 1217.03C1615.34 1231.13 1613.33 1223.6 1591.25 1223.8C1563.3 1224.05 1512.64 1229.46 1513.86 1215.62C1516.33 1187.78 1547.55 1165.48 1565.17 1165.72C1582.8 1165.97 1614.6 1189.09 1615.09 1217.03Z" fill="#696969"/>
<mask id="mask1_50_555" style="mask-type:luminance" maskUnits="userSpaceOnUse" x="1513" y="1165" width="103" height="61">
<path d="M1615.09 1217.03C1615.34 1231.13 1613.33 1223.6 1591.25 1223.8C1563.3 1224.05 1512.64 1229.46 1513.86 1215.62C1516.33 1187.78 1547.55 1165.48 1565.17 1165.72C1582.8 1165.97 1614.6 1189.09 1615.09 1217.03Z" fill="white"/>
</mask>
<g mask="url(#mask1_50_555)">
<path d="M1564.63 1159.75L1562.81 1159.76L1563.3 1226.7L1565.12 1226.69L1564.63 1159.75Z" fill="#3B3B3B"/>
<path d="M1582.11 1226.77C1578.38 1202.79 1571.86 1180.32 1562.71 1159.98L1564.37 1159.23C1573.58 1179.72 1580.16 1202.35 1583.9 1226.49L1582.11 1226.77Z" fill="#3B3B3B"/>
<path d="M1603.03 1230.21C1596.99 1206.39 1583.39 1182.87 1562.61 1160.28L1563.95 1159.05C1584.94 1181.86 1598.68 1205.65 1604.8 1229.76L1603.03 1230.21Z" fill="#3B3B3B"/>
<path d="M1614.35 1227.49C1611.3 1205.78 1593.83 1175.59 1562.67 1160.59L1563.45 1158.95C1595.22 1174.24 1613.04 1205.07 1616.15 1227.23L1614.35 1227.49Z" fill="#3B3B3B"/>
<path d="M1548.78 1226.75L1546.97 1226.58C1549.2 1202.25 1554.34 1179.26 1562.25 1158.24L1563.95 1158.88C1556.1 1179.75 1550.99 1202.58 1548.78 1226.75Z" fill="#3B3B3B"/>
<path d="M1528.12 1231.48L1526.33 1231.15C1530.92 1206.7 1543.14 1182.1 1562.66 1158.03L1564.07 1159.18C1544.75 1183.01 1532.65 1207.34 1528.12 1231.48Z" fill="#3B3B3B"/>
<path d="M1516.65 1229.47L1514.84 1229.33C1516.56 1206.91 1533.32 1170.71 1565.21 1160.38L1565.78 1162.11C1534.69 1172.18 1518.33 1207.56 1516.65 1229.47Z" fill="#3B3B3B"/>
</g>
<path d="M1516.47 1221.87C1510.55 1218.71 1510.23 1214.38 1510.56 1212.08C1510.95 1209.39 1510.7 1209.8 1511.55 1207.24C1515.58 1195.16 1618.57 1209.98 1618.44 1219.86C1618.37 1225.13 1617.93 1228.47 1615.45 1230.39C1613.05 1232.24 1610.17 1231.62 1606.19 1230.75C1602.65 1229.98 1597.81 1228.93 1590.62 1228.59C1585.13 1228.33 1578.74 1228.22 1571.97 1228.1C1549.69 1227.71 1526.64 1227.31 1516.47 1221.87Z" fill="#454545"/>
<path d="M1603 1253.37C1603 1253.37 1596.74 1254.82 1594.66 1254.52C1591.84 1254.11 1584.98 1248.06 1582.2 1247.48C1574.14 1245.79 1559.48 1251.46 1551.34 1250.22C1542.09 1248.82 1515.18 1238.51 1515.18 1238.51L1515.48 1232.23C1515.48 1232.23 1548.29 1231.1 1558.85 1231.97C1565.56 1232.53 1578.35 1237.68 1585.09 1237.93C1589.25 1238.09 1597.78 1234.64 1601.93 1235.07C1603.98 1235.28 1609.79 1237.62 1609.79 1237.62L1603 1253.37Z" fill="#4F4F4F"/>
<path d="M1563.76 1242.33C1563.33 1244.72 1559.43 1246.02 1555.04 1245.23C1550.66 1244.45 1547.44 1241.88 1547.87 1239.49C1548.3 1237.11 1552.2 1235.81 1556.59 1236.59C1560.98 1237.38 1564.19 1239.94 1563.76 1242.33Z" fill="#F0C7AD"/>
<path d="M1604.09 1244.77C1603.77 1247.18 1600.74 1248.76 1597.31 1248.31C1593.87 1247.86 1591.35 1245.55 1591.66 1243.15C1591.98 1240.74 1595.02 1239.16 1598.45 1239.61C1601.88 1240.06 1604.4 1242.37 1604.09 1244.77Z" fill="#F0C7AD"/>
<path d="M1440.05 1267.26L1423.27 1233.29C1423.27 1233.29 1454.3 1235.68 1464.62 1240.01C1497.27 1253.72 1513.27 1268.69 1495.01 1312.99C1487.05 1332.33 1509.17 1358.53 1509.17 1358.53C1510.04 1373.39 1478.36 1361.59 1468.76 1367.96C1468.76 1367.96 1480.61 1321.19 1485.37 1304.18C1492.49 1278.76 1471.26 1263.24 1468.56 1262.13C1451.12 1254.95 1440.05 1267.26 1440.05 1267.26Z" fill="#93B6CF"/>
<path d="M1488.25 1271.36C1466.94 1249.45 1447.02 1251.3 1425.66 1262.44C1432.83 1246.8 1464.33 1243.06 1488.25 1271.36Z" fill="#D6D6D6"/>
<path d="M1431.55 1258.43C1440.57 1253.14 1447.56 1250.24 1466.5 1255.16C1450.08 1251.85 1444.65 1253.99 1431.55 1258.43Z" fill="#D6D6D6"/>
<path d="M1448.47 1249.23C1418.1 1245.83 1380.42 1273.32 1371 1295.49C1366.6 1278.86 1412.03 1242.56 1448.47 1249.23Z" fill="#D6D6D6"/>
<path d="M1372.96 1288.72C1374.23 1285.17 1376.91 1281.1 1380.82 1276.88C1388.17 1268.94 1398.93 1261.33 1410.83 1256.22C1394.89 1264.16 1380.54 1276.5 1372.96 1288.72Z" fill="#D6D6D6"/>
<path d="M1492.96 1266.85C1464.26 1237.45 1418.96 1236.23 1390.26 1251.26C1399.87 1230.21 1460.73 1228.86 1492.96 1266.85Z" fill="#D6D6D6"/>
<path d="M1395.25 1247.52C1408.17 1237.85 1432.87 1234.01 1466.51 1247.57C1437.63 1237.72 1416.57 1239.58 1395.25 1247.52Z" fill="#D6D6D6"/>
<path d="M1467.49 1309.12C1476.65 1291.52 1463.77 1247.93 1445.68 1267.27C1428.53 1285.59 1389.04 1332.72 1372.9 1356.2C1366.44 1365.59 1362.11 1387.8 1375.06 1387.96C1377.48 1387.99 1451.35 1340.14 1467.49 1309.12Z" fill="#696969"/>
<path d="M1433.85 1338.66C1437.91 1338.39 1439.08 1335.54 1444.63 1334.67C1455.06 1333.64 1461.2 1366.5 1453.17 1373.02C1448.91 1374.59 1443.73 1375.8 1438 1378.15C1434.69 1379.51 1430.37 1338.88 1433.85 1338.66Z" fill="#414042"/>
<path d="M1456.15 1337.95C1446.18 1342.86 1434.85 1340.48 1434.85 1340.48L1430.76 1375.24C1430.76 1375.24 1455.67 1361.67 1461.94 1357.01C1462.15 1356.86 1458.26 1336.91 1456.15 1337.95Z" fill="#F0C7AD"/>
<path d="M1444.35 1334.67C1444.35 1334.67 1444.48 1371.55 1452.76 1373.23C1435.76 1379.49 1388.17 1400.7 1376.02 1396.88C1365.81 1393.67 1364.36 1370.49 1382.1 1357.75C1386.58 1354.54 1434.53 1336.48 1444.35 1334.67Z" fill="#828282"/>
<path d="M1497.35 1312.92C1493.94 1311.24 1480.55 1311.14 1479.32 1315.66C1476.73 1325.25 1467.4 1325.26 1464.84 1331.63C1462.41 1337.66 1445.17 1340.82 1445.17 1340.82L1448.05 1365.43C1448.05 1365.43 1462.72 1359.57 1473.21 1360.42C1481.32 1361.07 1498.87 1350.66 1501.03 1346.39C1505.01 1338.52 1500.57 1314.52 1497.35 1312.92Z" fill="#F0C7AD"/>
<path d="M1479.38 1305.62C1479.79 1304.93 1480.68 1304.66 1481.37 1305.08C1483.48 1306.36 1485.14 1309.8 1482.54 1313.48C1480.24 1316.72 1476.18 1322.28 1478.6 1327.41L1464.32 1335.18C1464.32 1335.18 1467.32 1324.59 1467.88 1322.35C1468.93 1318.13 1477.85 1308.25 1479.38 1305.62Z" fill="#F0C7AD"/>
<path d="M1636.42 1158.7L1616.17 1146.94C1637.6 1124.07 1655.68 1095.95 1665.64 1068.35L1685.89 1080.12C1675.93 1107.71 1657.86 1135.83 1636.42 1158.7Z" fill="#D45835"/>
<path d="M1829.36 798.851C1809 787.022 1780.8 788.69 1749.69 806.655C1687.87 842.348 1637.9 928.884 1638.11 999.939C1638.2 1032.13 1648.57 1055.61 1665.64 1068.36L1685.9 1080.12C1668.82 1067.37 1658.45 1043.89 1658.36 1011.7C1658.16 940.643 1708.12 854.108 1769.94 818.414C1801.06 800.45 1829.25 798.782 1849.61 810.61L1829.36 798.851Z" fill="#D45835"/>
<path d="M1769.94 818.413C1831.78 782.714 1882.06 811.368 1882.26 882.423C1882.47 953.466 1832.5 1040 1770.67 1075.7C1756.22 1084.04 1742.4 1088.86 1729.71 1090.46C1710.11 1112.49 1685.33 1132.9 1661.48 1146.66C1652.92 1151.61 1644.47 1155.7 1636.42 1158.7C1657.85 1135.83 1675.93 1107.71 1685.89 1080.12C1668.82 1067.37 1658.44 1043.89 1658.35 1011.7C1658.15 940.642 1708.12 854.107 1769.94 818.413Z" fill="#FF6A40"/>
<path d="M1775.72 958.832C1782.77 954.76 1788.5 958.028 1788.53 966.132L1788.6 990.611C1788.62 998.715 1782.92 1008.59 1775.87 1012.66L1770.9 1015.53C1763.85 1019.6 1758.12 1016.33 1758.09 1008.22L1758.02 983.743C1758 975.639 1763.7 965.771 1770.75 961.699L1775.72 958.832Z" fill="white"/>
<path d="M1772.95 860.11C1815.92 835.302 1851 855.29 1851.14 904.672C1851.28 954.047 1816.43 1014.41 1773.46 1039.22C1730.49 1064.03 1695.41 1044.04 1695.27 994.662C1695.13 945.279 1729.98 884.922 1772.95 860.11ZM1773.43 1029.27C1811.63 1007.21 1842.61 953.56 1842.48 909.669C1842.36 865.77 1811.18 848.002 1772.98 870.056C1734.78 892.113 1703.8 945.766 1703.93 989.665C1704.05 1033.56 1735.23 1051.32 1773.43 1029.27Z" fill="white"/>
<path d="M1800.81 890.839C1809.91 885.583 1817.34 889.823 1817.37 900.277C1817.4 910.737 1810.02 923.526 1800.91 928.781C1791.82 934.033 1784.38 929.797 1784.35 919.337C1784.32 908.883 1791.71 896.091 1800.81 890.839ZM1797.06 916.649C1801.39 914.149 1804.9 908.071 1804.89 903.102C1804.87 898.125 1801.34 896.113 1797.01 898.613C1792.69 901.11 1789.18 907.187 1789.19 912.164C1789.21 917.133 1792.74 919.146 1797.06 916.649Z" fill="white"/>
<path d="M1755.67 890.827C1757.95 889.514 1760.1 889.844 1761 891.906C1762.18 894.603 1760.75 899.25 1757.82 902.275L1740.77 919.925C1740.08 920.636 1739.37 921.194 1738.67 921.599C1736.39 922.912 1734.24 922.588 1733.34 920.523C1732.17 917.833 1733.59 913.19 1736.52 910.155L1753.57 892.505C1754.26 891.791 1754.97 891.231 1755.67 890.827Z" fill="white"/>
<path d="M1745.36 922.852C1754.46 917.6 1761.89 921.836 1761.92 932.29C1761.95 942.75 1754.56 955.542 1745.47 960.795C1736.36 966.051 1728.94 961.811 1728.91 951.351C1728.88 940.896 1736.26 928.107 1745.36 922.852ZM1749.24 944.262C1753.56 941.765 1757.07 935.687 1757.06 930.718C1757.04 925.741 1753.51 923.729 1749.19 926.226C1744.85 928.726 1741.35 934.804 1741.36 939.781C1741.37 944.75 1744.91 946.762 1749.24 944.262Z" fill="white"/>
<path d="M1789.06 871.553C1789.76 871.148 1790.47 870.886 1791.16 870.8L1808.26 868.736C1811.19 868.384 1812.64 871.372 1811.48 875.41C1810.6 878.502 1808.45 881.306 1806.18 882.619C1805.48 883.024 1804.76 883.29 1804.07 883.375L1786.98 885.439C1784.05 885.798 1782.6 882.81 1783.75 878.769C1784.64 875.676 1786.78 872.867 1789.06 871.553Z" fill="white"/>
</svg>
