<svg xmlns="http://www.w3.org/2000/svg" xmlns:xlink="http://www.w3.org/1999/xlink" data-name="Layer 1" viewBox="0 0 261.89 257.1"><defs><linearGradient id="a" x1="187.7" x2="255.89" y1="199.21" y2="199.21" gradientUnits="userSpaceOnUse"><stop offset="0" stop-color="#2a3b67"/><stop offset="1" stop-color="#4861b0"/></linearGradient><linearGradient id="b" x1="32.69" x2="144.99" y1="224.68" y2="224.68" xlink:href="#a"/></defs><path fill="url(#a)" d="M245.91,187.94c13.31,6.23,13.31,16.32,0,22.54s-34.91,6.22-48.22,0-13.32-16.31,0-22.54S232.59,181.72,245.91,187.94Z"/><rect width="57.36" height="7.81" x="193.12" y="186.45" fill="#2d426f"/><path fill="#2d426f" d="M242.08,184.3c11.2,5.24,11.2,13.72,0,19s-29.36,5.23-40.56,0-11.2-13.72,0-19S230.88,179.07,242.08,184.3Z"/><path fill="#f1f3ff" d="M242.08,177c11.2,5.23,11.2,13.72,0,19s-29.36,5.24-40.56,0-11.2-13.72,0-19S230.88,171.74,242.08,177Z"/><path fill="#2d426f" d="M221.8,200.19c-7.4,0-14.8-1.31-20.43-3.94s-8.6-6.07-8.6-9.8,3.06-7.2,8.6-9.79c11.26-5.26,29.59-5.26,40.85,0h0c5.55,2.59,8.6,6.07,8.6,9.79s-3,7.2-8.6,9.8S229.19,200.19,221.8,200.19Zm0-26.79c-7.29,0-14.58,1.3-20.14,3.89-5.28,2.47-8.2,5.73-8.2,9.16s2.92,6.7,8.2,9.17c11.11,5.19,29.17,5.19,40.27,0,5.29-2.47,8.2-5.73,8.2-9.17s-2.91-6.69-8.2-9.16h0C236.38,174.7,229.09,173.4,221.8,173.4Z"/><rect width="57.36" height="7.81" x="193.12" y="174.5" fill="#2d426f"/><path fill="#2d426f" d="M242.08,172.35c11.2,5.23,11.2,13.72,0,19s-29.36,5.24-40.56,0-11.2-13.72,0-19S230.88,167.11,242.08,172.35Z"/><path fill="#f1f3ff" d="M242.08,165c11.2,5.23,11.2,13.72,0,19s-29.36,5.23-40.56,0-11.2-13.73,0-19S230.88,159.79,242.08,165Z"/><path fill="#2d426f" d="M221.8,188.24c-7.4,0-14.8-1.32-20.43-4s-8.6-6.07-8.6-9.79,3.06-7.2,8.6-9.79c11.26-5.27,29.59-5.27,40.85,0,5.55,2.59,8.6,6.07,8.6,9.79s-3,7.2-8.6,9.79S229.19,188.24,221.8,188.24Zm0-26.8c-7.29,0-14.58,1.3-20.14,3.9-5.28,2.47-8.19,5.72-8.2,9.16s2.92,6.69,8.2,9.16c11.11,5.19,29.17,5.19,40.27,0,5.29-2.47,8.2-5.72,8.2-9.16s-2.91-6.69-8.2-9.16h0C236.38,162.74,229.09,161.44,221.8,161.44Z"/><rect width="57.36" height="7.81" x="193.12" y="162.54" fill="#2d426f"/><path fill="#2d426f" d="M242.08,160.39c11.2,5.24,11.2,13.72,0,19s-29.36,5.23-40.56,0-11.2-13.72,0-19S230.88,155.16,242.08,160.39Z"/><path fill="#f1f3ff" d="M242.08,153.07c11.2,5.23,11.2,13.72,0,19s-29.36,5.24-40.56,0-11.2-13.72,0-19S230.88,147.83,242.08,153.07Z"/><path fill="#2d426f" d="M221.8,176.29c-7.4,0-14.8-1.32-20.43-3.95s-8.6-6.07-8.6-9.79,3-7.21,8.6-9.8c11.26-5.26,29.59-5.26,40.85,0h0c5.55,2.59,8.6,6.07,8.6,9.8s-3,7.2-8.6,9.79S229.19,176.29,221.8,176.29Zm0-26.8c-7.29,0-14.59,1.3-20.14,3.89-5.28,2.47-8.2,5.73-8.2,9.17s2.92,6.69,8.2,9.16c11.11,5.19,29.17,5.19,40.27,0,5.29-2.47,8.2-5.73,8.2-9.16s-2.91-6.7-8.2-9.17h0C236.38,150.79,229.09,149.49,221.8,149.49Z"/><rect width="57.36" height="7.81" x="193.12" y="150.59" fill="#2d426f"/><path fill="#2d426f" d="M242.08,148.44c11.2,5.23,11.2,13.72,0,19s-29.36,5.23-40.56,0-11.2-13.73,0-19S230.88,143.2,242.08,148.44Z"/><path fill="#f1f3ff" d="M242.08,141.11c11.2,5.24,11.2,13.72,0,19s-29.36,5.23-40.56,0-11.2-13.72,0-19S230.88,135.88,242.08,141.11Z"/><path fill="#2d426f" d="M221.8,164.33c-7.4,0-14.8-1.32-20.43-4s-8.6-6.07-8.6-9.79,3-7.2,8.6-9.79c11.26-5.27,29.59-5.27,40.85,0,5.55,2.59,8.6,6.07,8.6,9.79s-3,7.2-8.6,9.79S229.19,164.33,221.8,164.33Zm0-26.79c-7.29,0-14.58,1.29-20.14,3.89-5.28,2.47-8.2,5.72-8.2,9.16s2.92,6.69,8.2,9.16c11.11,5.19,29.17,5.19,40.27,0,5.29-2.47,8.2-5.72,8.2-9.16s-2.91-6.69-8.2-9.16C236.38,138.83,229.09,137.54,221.8,137.54Z"/><g style="isolation:isolate"><path fill="#2d426f" d="M235.76.65A5.68,5.68,0,0,0,231.24.3a10.76,10.76,0,0,0-2.41,1.05,15.74,15.74,0,0,0-2.6,1.93,21,21,0,0,0-2.72,3,25.07,25.07,0,0,0-2.64,4.46,23.15,23.15,0,0,0-1.59,4.76c-2.41,11.41-16.58,93.36-17.22,96a20.52,20.52,0,0,0-.4,4.27,12.62,12.62,0,0,0,1,4.81,7.53,7.53,0,0,0,2.07,2.82,6.66,6.66,0,0,0,.82.57l3.86,2.26a6.66,6.66,0,0,1-.82-.57,7.53,7.53,0,0,1-2.07-2.82,12.62,12.62,0,0,1-1-4.81,20.46,20.46,0,0,1,.4-4.27c.64-2.65,14.81-84.6,17.22-96A23.15,23.15,0,0,1,224.73,13a25.07,25.07,0,0,1,2.64-4.46,21,21,0,0,1,2.72-3,15.4,15.4,0,0,1,2.61-1.93,10.49,10.49,0,0,1,2.4-1,5.67,5.67,0,0,1,4.52.35Z"/><path fill="#fff" d="M232.7,3.61a10.49,10.49,0,0,1,2.4-1c5.28-1.52,8.35,2.87,7.18,9.72-1.93,11.26-10.49,91.6-10.85,94.16-1.48,7.77-6.83,15.48-12.7,18.9a14.48,14.48,0,0,1-3.24,1.41c-7.05,2-11.33-3.77-9.57-13,.64-2.65,14.81-84.6,17.22-96C224.38,11.92,228.31,6.16,232.7,3.61Z"/><path fill="#2d426f" d="M212.82,127.5a6.89,6.89,0,0,1-4.75-1.76c-2.6-2.37-3.5-6.74-2.49-12,.26-1.07,2.76-15.3,5.67-31.78,4.5-25.57,10.1-57.39,11.55-64.23C224,11.84,228,5.92,232.52,3.31A10.86,10.86,0,0,1,235,2.23a5.67,5.67,0,0,1,5.61,1c2,1.76,2.7,5.09,2,9.13-1.46,8.53-6.79,57.29-9.36,80.73-.84,7.71-1.4,12.8-1.48,13.42-1.48,7.74-6.78,15.6-12.88,19.15a14.7,14.7,0,0,1-3.32,1.45A10.15,10.15,0,0,1,212.82,127.5ZM237.1,2.61a6.89,6.89,0,0,0-1.9.28,11,11,0,0,0-2.33,1h0c-4.32,2.51-8.19,8.25-9.39,14-1.44,6.82-7,38.64-11.55,64.2-3,17.17-5.41,30.74-5.68,31.81-.95,5-.13,9.15,2.28,11.35,1.73,1.57,4.1,2,6.86,1.19a13.93,13.93,0,0,0,3.16-1.38c5.94-3.45,11.1-11.13,12.54-18.66.08-.6.64-5.69,1.48-13.39,2.57-23.44,7.9-72.22,9.37-80.77.65-3.8,0-6.89-1.8-8.5A4.42,4.42,0,0,0,237.1,2.61Z"/></g><path fill="#fff" d="M259.92,26.11c2.81-6.16,1.9-15.62-2-21.12C255.83,2.08,253.34.86,251,1.24l-47.81,5.3,3.84,29.73L254.52,31C256.62,30.72,258.58,29.07,259.92,26.11Z"/><path fill="#2d426f" d="M206.75,36.65,202.84,6.23,251,.9c2.5-.42,5.13,1,7.19,3.89,4,5.59,4.91,15.22,2.06,21.46-1.35,3-3.36,4.78-5.67,5.13ZM203.61,6.84l3.75,29.05,47.12-5.2c2-.31,3.88-2,5.13-4.72h0c2.75-6,1.86-15.37-2-20.78-1.92-2.7-4.24-4-6.52-3.6Z"/><path fill="#2d426f" d="M211.78,31.45c-2.81,6.16-8.27,6.69-12.2,1.17s-4.84-15-2-21.12,8.27-6.68,12.2-1.17S214.59,25.3,211.78,31.45Z"/><path fill="#f84748" d="M208,26.12c-1.3,2.86-3.84,3.11-5.67.55a10.92,10.92,0,0,1-.94-9.84c1.3-2.86,3.84-3.11,5.67-.54A10.92,10.92,0,0,1,208,26.12Z"/><path fill="#2d426f" d="M205.1,28.78A4,4,0,0,1,202,26.87a11.35,11.35,0,0,1-1-10.18,3.34,3.34,0,0,1,6.27-.6,11.3,11.3,0,0,1,1,10.17,3.81,3.81,0,0,1-2.92,2.51Zm-.88-13.92H204A3.15,3.15,0,0,0,201.67,17a10.54,10.54,0,0,0,.91,9.48,2.67,2.67,0,0,0,5.07-.49h0a10.5,10.5,0,0,0-.91-9.48A3.27,3.27,0,0,0,204.22,14.86Z"/><path fill="#fff" d="M221.8,156.63a15.91,15.91,0,0,0,15.91-15.89s-.07-24.11-.28-24.75a15.74,15.74,0,0,0-31.26,0,5.53,5.53,0,0,0-.27,1.69v0s0,14.61,0,23a15.91,15.91,0,0,0,15.91,15.93Z"/><path fill="#2d426f" d="M221.8,157a16.27,16.27,0,0,1-16.26-16.28l0-23a5.69,5.69,0,0,1,.28-1.77,16.08,16.08,0,0,1,31.93.07c.2.59.27,20.75.28,24.78A16.28,16.28,0,0,1,221.8,157Zm-15.55-39.31,0,23a15.57,15.57,0,1,0,31.13,0c0-9.52-.12-23.94-.27-24.66a15.39,15.39,0,0,0-30.57-.06,5.31,5.31,0,0,0-.27,1.65Z"/><g style="isolation:isolate"><path fill="#2d426f" d="M253.05,10.86a5.67,5.67,0,0,0-4.52-.35,11.16,11.16,0,0,0-2.4,1.05,15.33,15.33,0,0,0-2.6,1.93,21.05,21.05,0,0,0-2.73,3A24.44,24.44,0,0,0,238.17,21a23.19,23.19,0,0,0-1.6,4.76c-2.41,11.41-16.57,93.36-17.22,96A20.42,20.42,0,0,0,219,126a12.62,12.62,0,0,0,1,4.81,7.41,7.41,0,0,0,2.06,2.82,6.66,6.66,0,0,0,.82.57l3.86,2.26a6.81,6.81,0,0,1-2.88-3.39,12.66,12.66,0,0,1-1-4.81,20.42,20.42,0,0,1,.39-4.27c.65-2.65,14.81-84.6,17.22-96a23,23,0,0,1,1.6-4.76,24.44,24.44,0,0,1,2.63-4.46,21.05,21.05,0,0,1,2.73-3,15.33,15.33,0,0,1,2.6-1.93,10.69,10.69,0,0,1,2.4-1.05,5.67,5.67,0,0,1,4.52.35Z"/><path fill="#f84748" d="M250,13.82a10.69,10.69,0,0,1,2.4-1.05c5.29-1.52,8.36,2.87,7.18,9.72-1.93,11.26-10.49,91.6-10.84,94.16-1.49,7.77-6.83,15.48-12.71,18.9a14.29,14.29,0,0,1-3.24,1.41c-7,2-11.33-3.77-9.57-13,.65-2.65,14.81-84.6,17.22-96C241.68,22.13,245.6,16.37,250,13.82Z"/><path fill="#2d426f" d="M230.11,137.71a6.91,6.91,0,0,1-4.75-1.76c-2.59-2.37-3.5-6.74-2.49-12,.26-1.07,2.77-15.33,5.68-31.83,4.5-25.55,10.1-57.35,11.55-64.18,1.24-5.88,5.24-11.8,9.72-14.41h0a10.68,10.68,0,0,1,2.48-1.08,5.65,5.65,0,0,1,5.6,1c2,1.77,2.71,5.1,2,9.14-1.46,8.52-6.78,57.22-9.34,80.62-.85,7.77-1.41,12.9-1.5,13.53-1.48,7.73-6.77,15.6-12.87,19.15a15.1,15.1,0,0,1-3.32,1.45A10.27,10.27,0,0,1,230.11,137.71ZM250.17,14.12h0c-4.33,2.51-8.19,8.25-9.4,14-1.44,6.81-7,38.6-11.54,64.15-3,17.2-5.42,30.78-5.68,31.86-1,5-.13,9.15,2.28,11.35,1.73,1.57,4.1,2,6.86,1.19a14.33,14.33,0,0,0,3.16-1.38c5.94-3.46,11.09-11.13,12.54-18.66.08-.6.64-5.73,1.49-13.49,2.56-23.41,7.89-72.13,9.35-80.67.65-3.8,0-6.9-1.79-8.5a5,5,0,0,0-4.95-.83A10.4,10.4,0,0,0,250.17,14.12Z"/></g><g style="isolation:isolate"><path fill="#2d426f" d="M231.2,120.81a12.86,12.86,0,0,1,.74-1.76,12,12,0,0,1,1-1.68,9.88,9.88,0,0,1,3-2.78,4.94,4.94,0,0,1,2.15-.71,2.87,2.87,0,0,1,1.18.16,2.33,2.33,0,0,1,.39.19l3.35,1.94a3.39,3.39,0,0,0-.39-.18,2.87,2.87,0,0,0-1.18-.16,4.69,4.69,0,0,0-2.15.71,9.88,9.88,0,0,0-3,2.78,12.5,12.5,0,0,0-1,1.67,13.54,13.54,0,0,0-.74,1.77,9.34,9.34,0,0,0-.47,2.8,3.63,3.63,0,0,0,1.52,3.35l-3.35-2a3.65,3.65,0,0,1-1.52-3.35A9.39,9.39,0,0,1,231.2,120.81Z"/><path fill="#f1f3ff" d="M239.29,116.54a11.45,11.45,0,0,0-5.21,9c0,3.32,2.36,4.65,5.24,3a11.45,11.45,0,0,0,5.21-9C244.52,116.21,242.18,114.87,239.29,116.54Z"/><path fill="#2d426f" d="M237,129.61a3.09,3.09,0,0,1-1.54-.39,4,4,0,0,1-1.71-3.66,11.88,11.88,0,0,1,5.39-9.32h0a3.52,3.52,0,0,1,5.76,3.28,11.9,11.9,0,0,1-5.38,9.33A5.12,5.12,0,0,1,237,129.61Zm2.48-12.77a11.12,11.12,0,0,0-5,8.72,3.32,3.32,0,0,0,1.36,3.06,3.37,3.37,0,0,0,3.36-.38,11.06,11.06,0,0,0,5-8.71,3.32,3.32,0,0,0-1.35-3.06,3.36,3.36,0,0,0-3.37.37Z"/></g><path fill="#2d426f" d="M238.08,125.81c-.74,0-1.18-.61-1.18-1.62a5.85,5.85,0,0,1,2.64-4.58,2.28,2.28,0,0,1,1.08-.34c.74,0,1.18.61,1.19,1.63a5.81,5.81,0,0,1-2.65,4.57,2.22,2.22,0,0,1-1.08.34Z"/><g style="isolation:isolate"><path fill="#2d426f" d="M245.27,25.74A11.15,11.15,0,0,1,246,24a12.43,12.43,0,0,1,1-1.67,10,10,0,0,1,3-2.79,5,5,0,0,1,2.15-.71,2.84,2.84,0,0,1,1.18.17,2.32,2.32,0,0,1,.39.18l3.35,1.95a2.35,2.35,0,0,0-.39-.19,3,3,0,0,0-1.18-.16,5,5,0,0,0-2.15.71,10,10,0,0,0-3,2.78,11.93,11.93,0,0,0-1,1.68,10.77,10.77,0,0,0-.74,1.76,9.1,9.1,0,0,0-.48,2.8,3.66,3.66,0,0,0,1.53,3.35l-3.35-1.94a3.68,3.68,0,0,1-1.53-3.35A9.17,9.17,0,0,1,245.27,25.74Z"/><path fill="#f1f3ff" d="M253.35,21.47a11.51,11.51,0,0,0-5.21,9c0,3.32,2.36,4.66,5.25,3a11.53,11.53,0,0,0,5.21-9C258.59,21.14,256.24,19.8,253.35,21.47Z"/><path fill="#2d426f" d="M251,34.55a3,3,0,0,1-1.54-.4,4,4,0,0,1-1.7-3.66,11.87,11.87,0,0,1,5.38-9.32,4,4,0,0,1,4.06-.37,4,4,0,0,1,1.7,3.66,11.87,11.87,0,0,1-5.38,9.32A5.11,5.11,0,0,1,251,34.55ZM255.7,21.1a4.37,4.37,0,0,0-2.17.67h0a11.11,11.11,0,0,0-5,8.72,3.33,3.33,0,0,0,1.36,3.06,3.39,3.39,0,0,0,3.36-.37,11.11,11.11,0,0,0,5-8.72,3.33,3.33,0,0,0-1.36-3.06A2.36,2.36,0,0,0,255.7,21.1Z"/></g><path fill="#2d426f" d="M252.15,30.75c-.74,0-1.18-.61-1.18-1.63a5.83,5.83,0,0,1,2.64-4.58,2.2,2.2,0,0,1,1.08-.33c.74,0,1.18.6,1.18,1.62a5.83,5.83,0,0,1-2.64,4.58,2.28,2.28,0,0,1-1.08.34Z"/><polygon fill="url(#b)" points="32.69 215.87 104.1 257.1 144.99 233.5 73.58 192.27 32.69 215.87"/><polygon fill="#fff" points="36.66 197.87 103.03 236.19 141.02 214.25 74.65 175.93 36.66 197.87"/><polygon fill="#d7e3fd" points="103.03 248.58 141.02 226.64 141.02 214.25 103.03 236.19 103.03 248.58"/><polygon fill="#fff" points="36.66 210.26 103.03 248.58 103.03 236.19 36.66 197.87 36.66 210.26"/><polygon fill="#d7e3fd" points="63.79 182.03 113.14 211.09 114.03 229.36 141.02 214.25 74.24 176.21 63.79 182.03"/><polygon fill="#f96266" points="40.55 195.78 50.14 201.32 52.44 199.99 42.86 194.45 40.55 195.78"/><polygon fill="#f96266" points="45.73 192.77 55.31 198.31 57.62 196.97 48.03 191.44 45.73 192.77"/><polygon fill="#f96266" points="50.81 189.72 60.4 195.25 62.71 193.92 53.12 188.39 50.81 189.72"/><path fill="#2d426f" d="M43,194.16a.34.34,0,0,0-.34,0l-2.31,1.33a.34.34,0,0,0-.16.3.33.33,0,0,0,.16.28L50,201.61a.33.33,0,0,0,.17,0,.32.32,0,0,0,.16,0l2.31-1.34a.34.34,0,0,0,.17-.29.33.33,0,0,0-.17-.28Zm7.11,6.77-8.92-5.14,1.64-.95L51.77,200Z"/><path fill="#2d426f" d="M48.2,191.15a.34.34,0,0,0-.34,0l-2.3,1.33a.33.33,0,0,0,0,.58l9.58,5.54a.33.33,0,0,0,.17,0,.35.35,0,0,0,.17,0l2.3-1.34a.33.33,0,0,0,0-.58Zm7.11,6.77-8.92-5.15,1.64-.94L57,197Z"/><path fill="#2d426f" d="M53.29,188.1a.34.34,0,0,0-.34,0l-2.3,1.33a.33.33,0,0,0,0,.58l9.58,5.53a.34.34,0,0,0,.17.05.37.37,0,0,0,.17-.05l2.3-1.33a.33.33,0,0,0,0-.58Zm7.11,6.77-8.92-5.15,1.64-.95L62,193.92Z"/><path fill="#2d426f" d="M74.82,175.64a.32.32,0,0,0-.33,0l-38,21.94a.33.33,0,0,0,0,.58l66.37,38.31a.34.34,0,0,0,.17.05.33.33,0,0,0,.16-.05l38-21.93a.33.33,0,0,0,0-.58ZM103,235.8l-65.7-37.93,37.32-21.56,65.7,37.94Z"/><path fill="#2d426f" d="M140.86,214l-38,21.94a.32.32,0,0,0-.17.28v12.4a.32.32,0,0,0,.17.29.33.33,0,0,0,.17,0,.32.32,0,0,0,.16,0l38-21.94a.34.34,0,0,0,.17-.29V214.25a.34.34,0,0,0-.17-.29A.32.32,0,0,0,140.86,214Zm-.17,12.49L103.36,248V236.38l37.33-21.55Z"/><path fill="#2d426f" d="M103.19,235.9,36.82,197.58a.34.34,0,0,0-.5.29v12.39a.32.32,0,0,0,.17.29l66.37,38.32a.33.33,0,0,0,.17,0,.32.32,0,0,0,.16,0,.32.32,0,0,0,.17-.29v-12.4A.32.32,0,0,0,103.19,235.9Zm-.5,12.1L37,210.07V198.45l65.7,37.93Z"/><polygon fill="#fff" points="69.89 199.19 101.95 217.7 101.95 182.82 69.89 164.31 69.89 199.19"/><polygon fill="#d7e3fd" points="101.95 217.7 113.14 211.09 113.14 176.21 101.95 182.82 101.95 217.7"/><polygon fill="#d7e3fd" points="69.95 173.51 101.78 199.31 101.95 189.47 70.05 171.14 69.95 173.51"/><path fill="#2d426f" d="M70.06,164a.34.34,0,0,0-.51.29v34.88a.34.34,0,0,0,.17.29L101.78,218a.34.34,0,0,0,.17,0,.37.37,0,0,0,.17,0,.34.34,0,0,0,.16-.29v-6.59h-.67v6L70.22,199V164.89L101.61,183v6.78h.67v-7a.34.34,0,0,0-.16-.29Z"/><path fill="#2d426f" d="M113.31,175.92a.34.34,0,0,0-.34,0l-11.19,6.61a.34.34,0,0,0-.17.29V202h.67V183l10.53-6.21v34.1l-10.53,6.21v-7.56h-.67v8.15a.34.34,0,0,0,.17.29.31.31,0,0,0,.34,0l11.19-6.61a.36.36,0,0,0,.17-.29V176.21A.34.34,0,0,0,113.31,175.92Z"/><polygon fill="#fff" points=".33 131.6 186.37 239.01 186.37 115.36 .33 7.95 .33 131.6"/><polygon fill="#d7e3fd" points="12.01 124.86 174.7 218.79 174.7 122.1 12.01 28.17 12.01 124.86"/><path fill="#2d426f" d="M149.75,107.31l-.33.58,25,14.4v95.92l-162-93.54V28.75L93,75.29l.29.17.33-.58-81.41-47a.33.33,0,0,0-.33,0,.34.34,0,0,0-.17.29v96.69a.34.34,0,0,0,.17.29l162.69,93.93a.37.37,0,0,0,.17,0,.34.34,0,0,0,.17,0,.34.34,0,0,0,.17-.29V122.1a.34.34,0,0,0-.17-.29Z"/><polygon fill="#d7e3fd" points="186.37 239.01 198.95 231.85 198.95 108.2 186.37 115.36 186.37 239.01"/><polygon fill="#f1f3ff" points=".33 7.95 186.37 115.36 198.95 108.2 12.91 .79 .33 7.95"/><path fill="#2d426f" d="M64.63,159.81l-.33.58L90,175.2v2.45L12.72,133.07v-2.46l8.76,5.06.33-.58-9.26-5.34a.32.32,0,0,0-.33,0,.31.31,0,0,0-.17.29v3.22a.32.32,0,0,0,.17.29l77.9,45a.33.33,0,0,0,.16,0,.34.34,0,0,0,.17,0,.34.34,0,0,0,.17-.29V175a.34.34,0,0,0-.17-.29Z"/><path fill="#2d426f" d="M.5,7.66a.32.32,0,0,0-.33,0A.32.32,0,0,0,0,8V131.6a.32.32,0,0,0,.17.29l186,107.41a.29.29,0,0,0,.16,0,.33.33,0,0,0,.17,0,.34.34,0,0,0,.17-.29V115.36a.34.34,0,0,0-.17-.29ZM186,238.43.67,131.41V8.53L186,115.55Z"/><path fill="#2d426f" d="M198.78,107.91l-4.63,2.64.33.58,4.14-2.35V231.66l-11.91,6.77V115.55l1.23-.7-.33-.58-1.4.8a.32.32,0,0,0-.17.29V239a.34.34,0,0,0,.16.29.35.35,0,0,0,.17,0,.33.33,0,0,0,.17,0l12.58-7.16a.32.32,0,0,0,.16-.29V108.2a.34.34,0,0,0-.16-.29A.34.34,0,0,0,198.78,107.91Z"/><path fill="#2d426f" d="M13.08.5a.33.33,0,0,0-.33,0L.17,7.66a.33.33,0,0,0,0,.58l186,107.41a.29.29,0,0,0,.16,0,.33.33,0,0,0,.17,0l2.76-1.57-.33-.58-2.6,1.47L1,8l11.9-6.77,185.37,107-6.15,3.5.33.58,6.66-3.79a.34.34,0,0,0,.16-.29.32.32,0,0,0-.16-.29Z"/><path fill="#2d426f" d="M25.87,47.27c-2.52,2.11-2.51,7.22,0,11.41a10.23,10.23,0,0,0,4.54,4.24,5.42,5.42,0,0,0,2.11.47,3.92,3.92,0,0,0,2.54-.91c2.52-2.11,2.51-7.23,0-11.41a10.22,10.22,0,0,0-4.54-4.24A4.32,4.32,0,0,0,25.87,47.27Zm.15.22a3.8,3.8,0,0,1,2.46-.88,5.2,5.2,0,0,1,2,.45,9.89,9.89,0,0,1,4.39,4.1c2.46,4.07,2.47,9.05,0,11.1a4.21,4.21,0,0,1-4.51.43A9.92,9.92,0,0,1,26,58.59C23.58,54.52,23.57,49.54,26,47.49Z"/><path fill="#2d426f" d="M24.76,45.44c-3.13,2.61-3.12,9,0,14.17a12.77,12.77,0,0,0,5.62,5.26,6.83,6.83,0,0,0,2.63.57,4.81,4.81,0,0,0,3.14-1.13c3.14-2.61,3.12-9,0-14.17a12.74,12.74,0,0,0-5.63-5.26A5.36,5.36,0,0,0,24.76,45.44Zm.1.14A5.29,5.29,0,0,1,30.54,45a12.53,12.53,0,0,1,5.52,5.16c3.1,5.13,3.11,11.39,0,14a5.27,5.27,0,0,1-5.67.54,12.52,12.52,0,0,1-5.53-5.17C21.79,54.42,21.78,48.16,24.86,45.58Z"/><path fill="#2d426f" d="M37.86,70.8c-1.41,1.18-1.41,4,0,6.38a5.75,5.75,0,0,0,2.54,2.38,3.07,3.07,0,0,0,1.18.26A2.17,2.17,0,0,0,43,79.31c1.41-1.18,1.4-4,0-6.38a5.75,5.75,0,0,0-2.54-2.38A2.43,2.43,0,0,0,37.86,70.8ZM38,71a2.32,2.32,0,0,1,2.5-.24A5.51,5.51,0,0,1,42.9,73c1.37,2.26,1.37,5,0,6.17a2.34,2.34,0,0,1-2.51.24A5.49,5.49,0,0,1,38,77.12C36.6,74.86,36.59,72.09,38,71Z"/><path fill="#2d426f" d="M38,108.39c-1.41,1.17-1.4,4,0,6.38a5.78,5.78,0,0,0,2.54,2.37,3.12,3.12,0,0,0,1.19.26,2.17,2.17,0,0,0,1.42-.51c1.41-1.17,1.4-4,0-6.38a5.78,5.78,0,0,0-2.54-2.37A2.43,2.43,0,0,0,38,108.39Zm.1.14a2.13,2.13,0,0,1,1.37-.49,3.05,3.05,0,0,1,1.14.25A5.56,5.56,0,0,1,43,110.57c1.37,2.27,1.37,5,0,6.18a2.34,2.34,0,0,1-2.5.24,5.56,5.56,0,0,1-2.44-2.28C36.73,112.44,36.73,109.67,38.09,108.53Z"/><path fill="#2d426f" d="M38.12,129.33c-1.41,1.18-1.41,4,0,6.38a5.75,5.75,0,0,0,2.54,2.38,3.11,3.11,0,0,0,1.18.26,2.21,2.21,0,0,0,1.42-.51c1.41-1.18,1.41-4,0-6.38a5.75,5.75,0,0,0-2.54-2.38A2.43,2.43,0,0,0,38.12,129.33Zm.1.15a2.32,2.32,0,0,1,2.5-.24,5.51,5.51,0,0,1,2.44,2.28c1.37,2.26,1.37,5,0,6.17a2.3,2.3,0,0,1-2.5.24,5.51,5.51,0,0,1-2.44-2.28C36.86,133.39,36.86,130.62,38.22,129.48Z"/><path fill="#2d426f" d="M48,93c-1.78,1.77-1.77,6.07,0,9.59a8,8,0,0,0,3.21,3.57,3.35,3.35,0,0,0,1.5.39,2.48,2.48,0,0,0,1.79-.77c1.79-1.77,1.78-6.07,0-9.59a8,8,0,0,0-3.21-3.57A2.7,2.7,0,0,0,48,93Zm.11.17a2.42,2.42,0,0,1,1.74-.74,3.14,3.14,0,0,1,1.45.38,7.7,7.7,0,0,1,3.11,3.45c1.75,3.43,1.75,7.62,0,9.35a2.59,2.59,0,0,1-3.19.36,7.65,7.65,0,0,1-3.11-3.45C46.34,99.06,46.34,94.86,48.08,93.14Z"/><path fill="#2d426f" d="M30.45,58.11h0a2.45,2.45,0,0,1,.77.77.76.76,0,0,1,0,.81l-.18.25c-.17.26-.47.22-.61-.07L30,59C29.78,58.57,30.07,57.9,30.45,58.11Z"/><path fill="#2d426f" d="M30.52,55.9A5.55,5.55,0,0,1,32.46,58a.41.41,0,0,1,0,.4l-.25.36a.17.17,0,0,1-.3,0,3.55,3.55,0,0,0-1.21-1.25.87.87,0,0,0-1,0c-.07.06-.16,0-.21-.09l-.5-1a.43.43,0,0,1,.05-.46A1.29,1.29,0,0,1,30.52,55.9Z"/><path fill="#2d426f" d="M29.88,50.14A11.14,11.14,0,0,1,34.47,55a.51.51,0,0,1,0,.5l-.32.48c-.11.16-.28.17-.36,0a9.27,9.27,0,0,0-3.64-3.81,2.06,2.06,0,0,0-2.79.51c-.07.09-.17.08-.23-.05l-.57-1.12a.64.64,0,0,1,0-.54A2.48,2.48,0,0,1,29.88,50.14Z"/><path fill="#2d426f" d="M30.22,53.18a8.46,8.46,0,0,1,3.19,3.36.46.46,0,0,1,0,.45l-.29.42c-.1.14-.25.15-.33,0A6.54,6.54,0,0,0,30.41,55a1.48,1.48,0,0,0-1.88.16c-.07.08-.17.06-.23-.06L27.76,54a.53.53,0,0,1,0-.49A1.87,1.87,0,0,1,30.22,53.18Z"/><path fill="#2d426f" d="M39.63,73.6h0c-.17-.09-.31,0-.31.16v1.62a.71.71,0,0,0,.33.53h0c.18.1.32,0,.32-.17l0-1.63A.65.65,0,0,0,39.63,73.6Zm1.77,1,0,0c-.18-.09-.32,0-.31.17l0,1.66a.7.7,0,0,0,.34.54l0,0c.18.1.32,0,.32-.19l-.07-1.66A.69.69,0,0,0,41.4,74.55Zm-.89-.48h0c-.17-.1-.31,0-.31.17l0,1.63a.69.69,0,0,0,.33.54h0c.18.1.32,0,.32-.18l0-1.65A.65.65,0,0,0,40.51,74.07Zm1.64,1.08v-.31a.71.71,0,0,0-.34-.52l-3.48-1.84c-.17-.09-.3,0-.31.16v2.47a.65.65,0,0,0,.31.52l3.62,2c.19.1.33,0,.32-.19v-.33c0-.2.13-.28.31-.18h0c.19.1.33,0,.32-.18l0-.54a.71.71,0,0,0-.35-.54h0A.69.69,0,0,1,42.15,75.15Zm-.48,2.06L38.56,75.5a.66.66,0,0,1-.32-.53V73c0-.19.14-.26.31-.17l3,1.6a.67.67,0,0,1,.33.52L42,77C42,77.23,41.85,77.31,41.67,77.21Zm-2.91-4.07,0,0c-.17-.09-.31,0-.31.17v1.59a.68.68,0,0,0,.32.53h0c.18.1.32,0,.32-.17V73.64A.62.62,0,0,0,38.76,73.14Z"/><path fill="#2d426f" d="M38.87,111.94a.86.86,0,0,0,0,.16l-.58.42.25.74.82.26a1.3,1.3,0,0,0,.1.15v.93l.57.48.53-.49.15,0,.56.89.56-.06-.06-1,.09-.08.81.34.22-.57-.62-.86a.86.86,0,0,0,0-.16l.58-.42-.25-.74-.82-.26a1.3,1.3,0,0,0-.1-.15v-.93l-.57-.48-.53.5a.94.94,0,0,0-.15-.06l-.56-.89-.56.06.06,1-.09.08-.81-.34-.22.57Zm.76-.09c.19-.52.77-.58,1.29-.15a1.71,1.71,0,0,1,.59,1.73c-.19.52-.77.58-1.29.15A1.71,1.71,0,0,1,39.63,111.85Z"/><path fill="#2d426f" d="M50.59,97.92c.2.11.35,0,.33-.31l-.27-3.37c0-.35.22-.47.45-.21,2.44,2.75,1.61,4.52,1.15,5.15a.63.63,0,0,0,.09.67l2.42,3.29c.21.28.2.68,0,.75-2.31.72-3.41-1.94-3.77-3.08-.08-.27-.29-.45-.45-.41l-2.28.55c-.2,0-.46-.28-.48-.61C47.62,96.65,49.72,97.44,50.59,97.92Z"/><path fill="#2d426f" d="M30.67,127.63a1.33,1.33,0,0,0,.63,1.07l5.78,3.35,0,.22-5.78-3.35a1.73,1.73,0,0,1-.8-1.38l-.23-64.82.2.09Z"/><polygon fill="#2d426f" points="37.01 111.01 37 111.24 30.49 107.8 30.51 107.57 37.01 111.01"/><polygon fill="#2d426f" points="36.83 73.64 36.82 73.86 30.31 70.42 30.33 70.2 36.83 73.64"/><polygon fill="#2d426f" points="46.73 96.97 46.71 97.19 30.46 88.41 30.48 88.19 46.73 96.97"/><path fill="#2d426f" d="M47,96.83a.62.62,0,0,1,0,.76c-.17.14-.44,0-.61-.25a.65.65,0,0,1,0-.76C46.58,96.44,46.85,96.56,47,96.83Z"/><path fill="#2d426f" d="M30.8,107.43a.62.62,0,0,1,0,.76c-.16.14-.44,0-.6-.25a.62.62,0,0,1,0-.76C30.36,107,30.63,107.16,30.8,107.43Z"/><path fill="#2d426f" d="M30.68,70.13c.17.28.17.62,0,.75s-.43,0-.6-.25a.61.61,0,0,1,0-.75C30.24,69.74,30.51,69.85,30.68,70.13Z"/><path fill="#2d426f" d="M30.64,62.51a.62.62,0,0,1,0,.76c-.16.14-.43,0-.6-.25a.62.62,0,0,1,0-.76C30.2,62.13,30.47,62.24,30.64,62.51Z"/><polygon fill="#2d426f" points="41.71 134.57 40.63 133.98 41.13 133.12 41.71 134.57"/><polygon fill="#2d426f" points="40.34 133.55 39.96 132.6 41.03 132.87 40.34 133.55"/><path fill="#2d426f" d="M40,133.62a.86.86,0,0,1-.42-.77.29.29,0,0,1,.05-.17l1.06-1.86c.17-.29.57-.26.9.07a1.09,1.09,0,0,1,.28,1.14l-.07.09-.74.75L40,132.6l.38,1,.69-.68.63.15a1.12,1.12,0,0,1,.74.91.62.62,0,0,1-.14.53h0l-2,1.83c-.12.11-.34,0-.48-.17a.5.5,0,0,1-.09-.51l1-1.64,1.09.59-.58-1.45-.51.86-.63-.35Z"/><polygon fill="#f96266" points="117.34 126.63 117.22 149.94 106.92 144.05 106.88 152.19 90.12 142.35 90.08 132.63 107.88 121.23 117.34 126.63"/><path fill="#2d426f" d="M65.77,87.89l41.43,23.65a1.4,1.4,0,0,1,.67,1.15l0,7.63,9.63,5.49a1.4,1.4,0,0,1,.67,1.15l-.12,23.3a.59.59,0,0,1-.27.55.63.63,0,0,1-.63-.05l-9.41-5.37,0,7.13a.64.64,0,0,1-.28.55.48.48,0,0,1-.24.06.77.77,0,0,1-.39-.12L80.87,138.23v-1.78l8,4.55-.15-9.39a.62.62,0,0,1,.26-.56l5.62-3.39,1.07,1.73-5.37,3.23.16,9.28,15.67,9,0-7.14a.61.61,0,0,1,.27-.55.66.66,0,0,1,.63.06l9.41,5.37.11-21.53-9.24-5.28L102.5,125l-1.1-1.71,4.85-3.26,0-7.26L80.21,97.91l0,11.86-1.58-1,0-11.78L66.17,89.89,66,115.45l12.52,7.15,0-6.5.27.11,2.55-4.72.7.67-2.37,4.41.43.18,0,7.51a.6.6,0,0,1-.28.55.48.48,0,0,1-.24.06.79.79,0,0,1-.39-.12L66,117.22,66,127.94l7,4v.51l.09-.11,6.53,7.57-.44.55L73,133.31v.42l-7.94-4.53a1.43,1.43,0,0,1-.34-.31V88.06a.67.67,0,0,1,.25-.25A.83.83,0,0,1,65.77,87.89Z"/><path fill="#2d426f" d="M147.38,169l.05,0a11.61,11.61,0,0,1,3.6,3.55,3.62,3.62,0,0,1,0,3.78l-.8,1.19c-.8,1.2-2.19,1-2.88-.35l-2-3.9C144.29,171.11,145.64,168,147.38,169Z"/><path fill="#2d426f" d="M147.71,158.7c3.24,1.72,6.42,5.24,9,9.58a1.83,1.83,0,0,1-.09,1.86l-1.14,1.67a.77.77,0,0,1-1.38,0,17,17,0,0,0-5.64-5.85c-1.93-1.07-3.55-1-4.71-.07-.34.26-.75.07-1-.41l-2.29-4.53a2,2,0,0,1,.23-2.14C142.46,157.38,144.83,157.19,147.71,158.7Z"/><path fill="#2d426f" d="M144.73,131.89c7.68,3.36,15.32,11.75,21.37,22.46a2.36,2.36,0,0,1-.23,2.32l-1.51,2.22c-.51.74-1.28.79-1.67.12-4.84-8.3-10.85-14.85-16.91-17.71-5.71-2.68-10.19-1.47-13,2.37-.33.45-.78.38-1.08-.22l-2.62-5.2a3,3,0,0,1,0-2.54C132.34,130.67,137.73,128.82,144.73,131.89Z"/><path fill="#2d426f" d="M146.3,146.06c5.34,2.59,10.61,8.36,14.86,15.64a2.06,2.06,0,0,1-.14,2.07l-1.35,2c-.45.65-1.14.66-1.51,0-3.17-5.24-7-9.49-10.94-11.5-3.72-1.91-6.7-1.4-8.74.74-.36.37-.81.28-1.09-.28l-2.5-5a2.43,2.43,0,0,1,.08-2.28C137.54,144.49,141.43,143.69,146.3,146.06Z"/><g style="isolation:isolate"><path fill="#fff" d="M203.77,16.37a2.33,2.33,0,0,1,1.88.85,4.63,4.63,0,0,1,.37.46A8.17,8.17,0,0,1,207,24h0a5.86,5.86,0,0,1-.32.86,2.54,2.54,0,0,1-1.93,1.69L152.1,39.05A2.54,2.54,0,0,0,154,37.37a6.41,6.41,0,0,0,.31-.87,8.09,8.09,0,0,0-1-6.36,3.54,3.54,0,0,0-.37-.46,2.3,2.3,0,0,0-1.88-.85Z"/><path fill="#2d426f" d="M152.14,39.4l-.12-.69.44-.1a2.53,2.53,0,0,0,1.26-1.39,4.08,4.08,0,0,0,.29-.81,7.75,7.75,0,0,0-.95-6.07,3,3,0,0,0-.34-.42,1.94,1.94,0,0,0-1.59-.74l-.12-.69L203.73,16a2.67,2.67,0,0,1,2.17,1,4.17,4.17,0,0,1,.4.5,8.41,8.41,0,0,1,1.06,6.65,5.85,5.85,0,0,1-.33.92,2.91,2.91,0,0,1-2.22,1.89L152.67,39.27A2,2,0,0,1,152.14,39.4Zm.37-10.55a3.23,3.23,0,0,1,.71.59,4.21,4.21,0,0,1,.41.5,8.41,8.41,0,0,1,1.05,6.65,5.55,5.55,0,0,1-.32.92,4.49,4.49,0,0,1-.44.75l50.78-12a2.24,2.24,0,0,0,1.7-1.49,5.92,5.92,0,0,0,.29-.81,7.79,7.79,0,0,0-.95-6.07,3.84,3.84,0,0,0-.35-.43,2,2,0,0,0-1.57-.74Z"/><path fill="#263367" d="M153.34,30.14a8,8,0,0,1,.7,7.23c-1,2.1-2.84,2.27-4.19.37a8,8,0,0,1-.69-7.22C150.12,28.42,152,28.25,153.34,30.14Z"/></g><path fill="#f1f3ff" d="M137.29,9.55A31.25,31.25,0,1,0,168.54,40.8,31.25,31.25,0,0,0,137.29,9.55Z"/><path fill="#2d426f" d="M137.29,72.39A31.59,31.59,0,1,1,168.88,40.8,31.62,31.62,0,0,1,137.29,72.39Zm0-62.49a30.9,30.9,0,1,0,30.9,30.9A30.93,30.93,0,0,0,137.29,9.9Z"/><path fill="#2d426f" d="M116.09,39c0,.06,0,.13,0,.19a5,5,0,0,1,1.79.33,29.64,29.64,0,0,1,9.23,6.26l.72.7A25.59,25.59,0,0,1,153.11,23a23,23,0,0,1,11.67,2.88l1.19-.52s-18.82-13.76-23-13.76C128.13,11.55,116.09,23.85,116.09,39Z"/><path fill="#2d426f" d="M122.79,34.65A11.73,11.73,0,0,0,117,32.91c-4.61,0-7.59,3.69-7.61,9.39,0,7.72,5.43,17.16,12.14,21a11.66,11.66,0,0,0,5.8,1.74c4.6,0,7.58-3.68,7.6-9.38C135,48,129.51,38.53,122.79,34.65Z"/><path fill="#fff" d="M154.06,12.85a27.48,27.48,0,0,0-39.34,24.79v.2a4.94,4.94,0,0,1,1.83.33A29.94,29.94,0,0,1,126,44.43c.25.22.49.46.73.69A25.94,25.94,0,0,1,166,25.31,32.77,32.77,0,0,0,154.06,12.85Z"/><path fill="#2d426f" d="M127,45.89l-.52-.52-.73-.69a30.08,30.08,0,0,0-9.31-6.19,4.85,4.85,0,0,0-1.71-.31h-.34v-.54A27.85,27.85,0,0,1,142.19,9.82a27.53,27.53,0,0,1,12,2.72h0a33,33,0,0,1,12,12.6l.61,1.12-1.09-.66a25.58,25.58,0,0,0-38.73,19.55ZM115.06,37.5a5.15,5.15,0,0,1,1.62.35,30.69,30.69,0,0,1,9.53,6.32l.23.21a26.29,26.29,0,0,1,38.6-20A32.34,32.34,0,0,0,153.9,13.16a26.86,26.86,0,0,0-11.71-2.65A27.16,27.16,0,0,0,115.06,37.5Z"/><path fill="#fff" d="M121.87,35.58a11.68,11.68,0,0,0-5.79-1.75c-4.6,0-7.59,3.69-7.6,9.4,0,7.72,5.42,17.15,12.14,21A11.68,11.68,0,0,0,126.41,66C131,66,134,62.33,134,56.63,134,48.9,128.59,39.46,121.87,35.58Z"/><path fill="#2d426f" d="M126.41,66.35a12,12,0,0,1-6-1.79c-6.82-3.93-12.34-13.5-12.32-21.33,0-5.92,3.14-9.74,8-9.74a12,12,0,0,1,6,1.79c6.82,3.93,12.35,13.51,12.32,21.35C134.35,62.54,131.23,66.35,126.41,66.35ZM116.08,34.18c-4.39,0-7.24,3.55-7.25,9,0,7.61,5.34,16.91,12,20.73a11.34,11.34,0,0,0,5.62,1.7c4.4,0,7.24-3.55,7.26-9,0-7.62-5.35-16.93-12-20.75h0A11.28,11.28,0,0,0,116.08,34.18Z"/><path fill="#2d426f" d="M121.28,36.59c-6.4-3.7-11.61-.72-11.63,6.64s5.15,16.32,11.55,20,11.62.74,11.64-6.62S127.68,40.29,121.28,36.59Z"/><path fill="#022f5b" d="M121.27,41.68c-4-2.28-7.18-.44-7.19,4.11a15.72,15.72,0,0,0,7.14,12.36c4,2.29,7.18.46,7.19-4.09A15.73,15.73,0,0,0,121.27,41.68Z"/><path fill="#fff" d="M122.15,42.86c-2.84-1.64-5.14-.32-5.15,2.94a11.28,11.28,0,0,0,5.12,8.88c2.84,1.64,5.16.33,5.16-2.93A11.28,11.28,0,0,0,122.15,42.86Z"/><path fill="#f96266" d="M122.15,45.63c-1.51-.87-2.74-.17-2.74,1.56a6,6,0,0,0,2.72,4.72c1.51.88,2.74.18,2.75-1.56A6,6,0,0,0,122.15,45.63Z"/><path fill="#2d426f" d="M123.36,52.64a2.73,2.73,0,0,1-1.4-.43,6.28,6.28,0,0,1-2.9-5,2,2,0,0,1,3.26-1.86h0a6.36,6.36,0,0,1,2.9,5,2.24,2.24,0,0,1-1,2.06A1.82,1.82,0,0,1,123.36,52.64Zm-2.44-7a1,1,0,0,0-.54.14,1.59,1.59,0,0,0-.63,1.45,5.63,5.63,0,0,0,2.55,4.42,1.63,1.63,0,0,0,1.6.2,1.59,1.59,0,0,0,.63-1.46A5.64,5.64,0,0,0,122,45.93h0A2.16,2.16,0,0,0,120.92,45.6Z"/><g style="isolation:isolate"><path fill="#f96266" d="M143.7,65.29a6,6,0,0,0-5.44.45c-1.43,1-1.3,2.4.28,3.15a6,6,0,0,0,5.44-.45C145.41,67.45,145.28,66,143.7,65.29Z"/><path fill="#2d426f" d="M140.78,69.69a5.68,5.68,0,0,1-2.39-.49,2,2,0,0,1-.33-3.75,6.41,6.41,0,0,1,5.79-.47h0a2,2,0,0,1,.33,3.75A6.13,6.13,0,0,1,140.78,69.69Zm.69-4.51a5.42,5.42,0,0,0-3,.84,1.6,1.6,0,0,0-.84,1.35,1.63,1.63,0,0,0,1.07,1.21,5.65,5.65,0,0,0,5.09-.42,1.6,1.6,0,0,0,.84-1.35,1.63,1.63,0,0,0-1.06-1.21h0A5.07,5.07,0,0,0,141.47,65.18Z"/><path fill="#2d426f" d="M142.72,66a3.75,3.75,0,0,0-3.37.27,1,1,0,0,0,.17,2,3.72,3.72,0,0,0,3.37-.28A1,1,0,0,0,142.72,66Z"/><path fill="#fff" d="M142.37,66a2.69,2.69,0,0,0-2.42.2.74.74,0,0,0,.13,1.4,2.67,2.67,0,0,0,2.41-.2A.74.74,0,0,0,142.37,66Z"/></g></svg>