<svg xmlns="http://www.w3.org/2000/svg" xmlns:xlink="http://www.w3.org/1999/xlink" enable-background="new 0 0 5000 5000" viewBox="0 0 5000 5000"><path fill="#a0a4a8" d="m4740.168 3012.146-.699 246.821c-.936 329.9-217.777 659.297-650.913 911.008-871.841 506.658-2289.924 506.738-3167.597.014-441.559-254.934-662.075-589.561-661.127-923.682l.7-246.821c-.947 334.121 219.568 668.747 661.127 923.682 877.673 506.725 2295.756 506.644 3167.597-.015 433.135-251.712 649.976-581.108 650.912-911.007z"/><path fill="#dadfe6" d="M4078.928 2088.362c877.674 506.725 882.168 1328.132 10.328 1834.79-871.841 506.658-2289.924 506.739-3167.597.015-877.544-506.65-882.04-1328.058-10.199-1834.716s2289.924-506.739 3167.468-.089z"/><defs><path id="a" d="m1900.535 3371.511 951.483-552.942 656.773 379.188-951.483 552.941z" enable-background="new"/></defs><clipPath id="b"><use overflow="visible" xlink:href="#a"/></clipPath><g clip-path="url(#b)"><path fill="#d2466f" d="m2951.765 3080.416-88.077 8.334c23.059 79.916-21.699 161.617-119.652 218.541-98.208 57.072-239.239 83.34-377.28 70.244l-14.229 51.12c166.446 15.848 336.479-15.926 454.918-84.755 118.182-68.68 172.224-167.125 144.32-263.484z"/><path fill="#d2466f" d="m3267.914 3058.687-88.339 7.591c36.102 137.582-40.471 272.859-209.871 371.304s-402.69 143.24-640.33 122.778l-12.943 51.269c262.06 22.545 529.869-28.873 716.683-137.438 186.685-108.49 274.577-263.784 234.8-415.504zM2584.623 3080.566l-208.411 14.511-23.727 120.989 88.673 6.102 15.99-80.511 138.427-9.674-10.952-51.417z"/></g><path fill="#d2466f" d="M4302.271 2996.733a20.16 20.16 0 0 1-10.092-2.7l-1269.967-733.218-720.759 396.513c-9.758 5.411-22.029 1.834-27.411-7.954-5.381-9.768-1.813-22.039 7.954-27.41l730.724-402.003c6.17-3.42 13.69-3.332 19.821.197l1249.544 721.429v-1728.9c0-11.147 9.039-20.186 20.186-20.186 11.148 0 20.187 9.039 20.187 20.186v1763.86a20.185 20.185 0 0 1-10.093 17.486 20.161 20.161 0 0 1-10.094 2.7z"/><path fill="#766ab8" d="m2399.775 2598.444-.202 65.806c0 9.488-6.258 18.975-18.975 26.443l-583.776 339.123c-25.232 14.736-66.209 14.736-91.845 0l-267.261-154.422c-12.717-7.266-19.177-16.956-19.177-26.645l.202-65.604c0 9.486 6.459 19.177 19.177 26.443l267.261 154.423c25.635 14.735 66.613 14.735 91.845 0l583.776-339.124c12.718-7.266 18.975-16.955 18.975-26.443z"/><path fill="#a399ff" d="M2399.775 2598.444c0 9.487-6.258 19.177-18.975 26.443l-583.776 339.124c-25.232 14.735-66.21 14.735-91.845 0l-267.261-154.423c-12.717-7.267-19.177-16.957-19.177-26.443 0-9.688 6.459-19.379 18.975-26.646l270.087-157.046 80.946-47.033 232.541-135.044c2.826-1.615 5.855-3.028 8.882-4.239 25.435-10.295 60.558-8.882 82.964 4.037l267.463 154.423c12.716 7.469 19.176 17.158 19.176 26.847z"/><path fill="#8e86db" d="m2030.154 2412.033-.7 246.822-241.36 140.263.7-246.821z"/><path fill="#766ab8" d="m1788.794 2552.297-.7 246.821-80.678-46.58.699-246.821z"/><path fill="#4d4d4d" d="m2030.154 2412.033-241.36 140.264-80.679-46.58 241.361-140.263z"/><path fill="#a399ff" d="m807.31 1346.918 497.179 1511.52c1.01 2.826 2.02 5.45 3.23 7.873 2.422 5.046 5.249 9.286 8.275 12.919 3.433 4.037 7.268 7.267 11.304 9.486a22.285 22.285 0 0 0 6.258 3.029s.202 0 .404.201c1.817.605 3.633 1.211 5.451 1.614.605.202 1.211.202 1.816.202 1.211.202 2.625.404 3.835.404l-115.867-4.845c-17.359-.606-33.307-13.929-40.574-35.729l-497.178-1511.52c-10.093-30.481 1.01-66.411 24.627-80.138L1892.1 582.88c6.862-3.835 13.727-5.451 20.589-5.249l114.253 4.844c-6.258 0-12.717 1.615-18.975 5.249l-1176.03 679.054c-23.617 13.729-34.72 49.661-24.627 80.14z"/><path fill="#766ab8" d="m2541.683 2210.067-1176.03 678.852c-8.075 4.643-16.351 6.056-24.426 4.845-.604 0-1.211 0-1.816-.202-1.817-.403-3.633-1.009-5.451-1.614-.202-.201-.404-.201-.404-.201-2.22-.808-4.238-1.818-6.258-3.029-4.036-2.22-7.872-5.449-11.304-9.486-3.027-3.633-5.854-7.873-8.275-12.919-1.211-2.423-2.22-5.047-3.23-7.873L807.31 1346.918c-10.093-30.479 1.01-66.411 24.627-80.137l1176.03-679.054c6.258-3.633 12.717-5.249 18.975-5.249h.403c17.764.202 34.316 13.525 41.785 35.932l497.179 1511.52c10.092 30.481-1.009 66.411-24.626 80.137z"/><path fill="#422561" d="m2015.436 683.958 477.581 1451.888-1129.505 652.12L885.93 1336.078z"/><defs><path id="c" d="m2883.414 2237.562 138.542-80.512 139.448 80.511-138.542 80.511z" enable-background="new"/></defs><clipPath id="d"><use overflow="visible" xlink:href="#c"/></clipPath><g clip-path="url(#d)"><path fill="#d2466f" d="M3091.68 2197.305c-38.406-22.174-100.838-22.173-138.994.001-38.285 22.249-37.954 58.336.452 80.511 38.536 22.249 100.711 22.248 138.995 0 38.156-22.175 38.082-58.263-.453-80.512z"/></g><defs><path id="e" d="m1460.655 2598.425-403.797-1227.577 861.434-497.349 403.798 1227.577z" enable-background="new"/></defs><clipPath id="f"><use overflow="visible" xlink:href="#e"/></clipPath><g clip-path="url(#f)"><path fill="#fff" d="m1204.043 1500.345-80.421 46.431 285.219 867.09 80.422-46.431-4.251-12.922-70.368 40.628-276.719-841.247 70.369-40.627-4.251-12.922zM1970.106 1058.058l-80.55 46.505 4.251 12.922 70.498-40.702 276.717 841.247-70.497 40.702 4.25 12.922 80.55-46.506-285.219-867.09zM1745.657 1906.763c-73.333 42.339-158.052.179-189.059-94.085-31.007-94.263 3.36-205.178 76.693-247.517 73.204-42.264 158.051-.178 189.059 94.085 31.006 94.264-3.489 205.252-76.693 247.517zm-116.616-354.524c-78.875 45.538-115.845 164.855-82.495 266.242 33.295 101.221 124.487 146.741 203.361 101.203 78.746-45.464 115.79-165.021 82.494-266.242-33.35-101.386-124.615-146.666-203.36-101.203z"/><path fill="#d2466f" d="m1205.844 1284.831-122.178 70.54c-14.822 8.557-21.739 30.884-15.473 49.935 6.267 19.052 23.32 27.539 38.142 18.981l122.178-70.539c14.95-8.632 21.868-30.958 15.601-50.01-6.267-19.051-23.32-27.538-38.27-18.907z"/><path fill="#a399ff" d="m1918.292 873.499-42.272 24.406 22.669 68.917 42.273-24.407-22.67-68.916zM1851.403 912.117l-42.143 24.332 22.669 68.916 42.144-24.331-22.67-68.917zM1784.515 950.735l-42.144 24.332 22.669 68.916 42.144-24.331-22.669-68.917z"/><path fill="#fff" d="m1613.907 2427.94-175.921 101.569 22.669 68.916 175.921-101.568-22.669-68.917zM2299.421 2032.159l-175.922 101.569 22.669 68.916 175.922-101.568-22.669-68.917z"/></g><g><path fill="#999" d="m3722.687 1455.536 25.327 14.719c-14.698-8.542-35.047-7.349-57.486 5.606l-25.326-14.718c22.439-12.955 42.786-14.148 57.485-5.607zM3633.505 1667.067l-25.327-14.718c-14.473-8.411-23.449-26.279-23.521-51.697-.145-51.24 35.952-113.763 80.545-139.509l25.326 14.718c-44.593 25.746-80.689 88.269-80.545 139.509.072 25.419 9.048 43.287 23.522 51.697z"/><path fill="#333" d="M3690.527 1475.861c44.593-25.745 80.926-5.04 81.071 46.2s-35.952 113.615-80.545 139.361-80.926 5.188-81.071-46.052c-.144-51.24 35.953-113.763 80.545-139.509z"/></g><g><path fill="#333" d="m4216.105 1150.896 32.475-18.872c18.828-10.942 44.9-9.389 73.646 7.208l-32.475 18.872c-28.745-16.596-54.817-18.149-73.646-7.208zM4395.281 1384.436l-32.475 18.872c18.602-10.81 30.137-33.794 30.229-66.459.187-65.753-46.06-145.706-103.283-178.744l32.475-18.872c57.224 33.038 103.47 112.99 103.283 178.743-.093 32.666-11.627 55.65-30.229 66.46z"/><path fill="#b3b3b3" d="M4289.752 1158.105c57.224 33.038 103.47 112.991 103.283 178.744-.186 65.753-46.734 92.28-103.957 59.242-57.094-32.963-103.34-113.063-103.152-178.817.185-65.754 46.732-92.132 103.826-59.169z"/></g><g><path fill="gray" d="m3689.711 1569.406 569.076-330.711c7.625-4.431 18.172-3.826 29.781 2.877l-569.077 330.711c-11.608-6.702-22.156-7.307-29.78-2.877zM4318.252 1340.794l-569.078 330.712c7.506-4.362 12.158-13.629 12.195-26.835.075-26.509-18.68-58.994-41.878-72.388l569.077-330.711c23.199 13.394 41.953 45.878 41.879 72.387-.038 13.206-4.689 22.474-12.195 26.835z"/><path fill="#b3b3b3" d="M3719.491 1572.283c23.198 13.394 41.953 45.879 41.878 72.388-.075 26.656-18.952 37.267-42.15 23.873-23.07-13.319-41.825-45.656-41.75-72.313.075-26.509 18.953-37.267 42.022-23.948z"/></g><g><path fill="gray" d="m3794.676 959.884-1.912 674.646c-.024 8.687-5.756 17.361-17.207 24.015-23.047 13.394-60.301 13.395-83.499.001-11.673-6.74-17.503-15.552-17.479-24.351l1.913-674.646c-.025 8.799 5.805 17.611 17.479 24.351 23.197 13.394 60.451 13.394 83.499 0 11.45-6.655 17.181-15.329 17.206-24.016z"/><path fill="#b3b3b3" d="M3777.197 935.533c23.199 13.394 23.32 34.972.272 48.366-23.048 13.394-60.302 13.394-83.499 0-23.199-13.394-23.32-34.972-.272-48.366 23.048-13.393 60.302-13.393 83.499 0z"/></g><g><path fill="#333" d="m3462.636 1296.429 853.616-496.067-.612 216.068-853.617 496.067zM3141.534 958.752l853.616-496.067c34.187-19.867 81.535-17.058 133.807 13.121l-853.615 496.067c-52.273-30.179-99.621-32.988-133.808-13.121z"/><path fill="#333" d="m3275.342 971.873 853.615-496.067c103.748 59.899 187.633 205.193 187.295 324.556l-853.616 496.067c.339-119.363-83.546-264.657-187.294-324.556z"/><path fill="#666" d="M3275.342 971.873c103.748 59.899 187.633 205.193 187.294 324.556l-.612 216.068-375.943-217.051.613-216.068c.337-119.362 84.77-167.479 188.648-107.505z"/></g><g><path fill="#666" d="m3213.67 870.936-179.653 104.563c0-5.046.201-10.093.604-14.937a133.6 133.6 0 0 1 1.212-12.919c.606-4.037 1.211-7.873 2.018-11.708.404-2.22.809-4.44 1.413-6.662 2.423-9.689 5.451-18.571 9.286-26.444 1.009-2.422 2.22-4.642 3.432-6.66 2.222-4.038 4.441-7.873 7.268-11.304 7.469-10.295 16.351-18.572 26.443-24.627 32.701-19.783 77.916-17.563 127.977 10.698z"/><path fill="gray" d="m3979.119 861.649-569.04 330.847c.202-119.097-80.542-263.627-182.48-329.434-4.037-2.625-8.074-5.047-12.11-7.469-27.252-15.746-53.292-24.224-76.908-26.242-3.634-.202-7.066-.404-10.498-.404-4.037 0-7.872.202-11.506.605h-.202c-3.835.404-7.671 1.01-11.304 1.817-3.229.606-6.46 1.413-9.486 2.625-6.662 1.816-12.92 4.642-18.773 8.075l569.041-330.645c35.525-20.59 84.578-17.764 138.677 13.524 107.588 61.972 194.791 213.164 194.589 336.701z"/><path fill="#b3b3b3" d="m3410.079 1192.497-14.331-8.277c.201-114.656-80.744-254.746-180.26-312.275-.606-.404-1.212-.606-1.818-1.009-50.061-28.261-95.276-30.481-127.978-10.699-10.093 6.056-18.975 14.333-26.443 24.627-2.826 3.431-5.046 7.267-7.268 11.304-1.212 2.018-2.423 4.44-3.432 6.66-3.835 7.873-6.863 16.755-9.286 26.444-.604 2.221-1.009 4.441-1.413 6.662-.807 3.835-1.411 7.671-2.018 11.708a133.947 133.947 0 0 0-1.212 12.919 181.383 181.383 0 0 0-.604 14.937l-14.332-8.277c.202-61.566 22.002-104.765 57.126-125.151 5.854-3.433 12.111-6.259 18.773-8.075 3.026-1.211 6.257-2.018 9.486-2.625 3.633-.807 7.469-1.413 11.304-1.817h.202c3.634-.403 7.469-.605 11.506-.605 3.432 0 6.864.202 10.498.404 23.616 2.018 49.656 10.496 76.908 26.242 4.036 2.422 8.073 4.844 12.11 7.469 101.94 65.806 182.684 210.336 182.482 329.434z"/></g><g><path fill="#999" d="m3805.016 1504.005 25.326 14.718c-14.699-8.543-35.061-7.32-57.516 5.645l-25.327-14.718c22.456-12.964 42.816-14.187 57.517-5.645z"/><path fill="#999" d="m3715.803 1715.574-25.326-14.718c-14.473-8.411-23.45-26.279-23.521-51.697-.146-51.389 35.951-113.764 80.544-139.509l25.327 14.718c-44.594 25.746-80.69 88.121-80.545 139.509.072 25.418 9.048 43.287 23.521 51.697z"/><path fill="#333" d="M3772.826 1524.368c44.592-25.745 80.925-5.188 81.07 46.2.146 51.24-35.953 113.615-80.545 139.36-44.593 25.746-80.925 5.188-81.07-46.052-.145-51.387 35.951-113.762 80.545-139.508z"/><path fill="#b3b3b3" d="M3737.039 1680.654c-.848 0-1.223-.108-1.223-.108-.414-.591-3.114-5.647-3.154-16.775-.118-37.021 28.091-85.81 60.342-104.438 8.89-5.125 14.232-5.687 16.104-5.687 1.656.709 4.377 5.805 4.416 17.032.099 36.932-28.11 85.662-60.36 104.291-8.891 5.134-14.232 5.685-16.125 5.685z"/></g><g><path fill="#ae3a5c" d="m3352.869 1345.799 22.218-12.911c5.308-3.084 12.661-2.655 20.816 2.054l-22.218 12.912c-8.155-4.709-15.508-5.139-20.816-2.055z"/><path fill="#ae3a5c" d="m3416.384 1404.183-22.218 12.912c5.264-3.059 8.525-9.575 8.551-18.808.053-18.512-12.921-41.132-29.031-50.434l22.218-12.912c16.11 9.301 29.084 31.922 29.031 50.434-.027 9.233-3.289 15.75-8.551 18.808z"/><path fill="#ff6694" d="M3373.686 1347.853c16.11 9.301 29.084 31.922 29.031 50.434-.052 18.511-13.111 26.102-29.222 16.801-16.239-9.376-29.214-31.997-29.161-50.508s13.112-26.103 29.352-16.727z"/></g><g><defs><path id="g" d="m3589.098 1317.697-.171-60.274 606.252-350.02.171 60.275z" enable-background="new"/></defs><clipPath id="h"><use overflow="visible" xlink:href="#g"/></clipPath><g clip-path="url(#h)"><path fill="#766ab8" d="m4168.887 922.583-553.668 319.661c-14.564 8.408-26.254 28.656-26.207 45.242.048 16.734 11.814 23.44 26.378 15.031l553.669-319.661c14.434-8.334 26.253-28.656 26.205-45.391-.047-16.585-11.942-23.215-26.377-14.882z"/></g></g><circle cx="3234.664" cy="1204.81" r="109.26" fill="#766ab8"/><g><path fill="gray" d="m3257.878 1322.897-.808.606c-1.009.605-2.02 1.211-3.23 1.615 1.414-.606 2.826-1.413 4.038-2.221zM3195.705 1104.688c-.201 0-.201 0-.201.202-.404-.403-.809-.605-1.413-1.009.402.404 1.009.605 1.614.807zM3134.34 1133.15c-3.028 3.229-5.652 7.064-8.074 11.304 2.22-4.441 4.845-8.277 8.074-11.304z"/><path fill="#333" d="M3372.131 1243.971c-.202 32.096-11.507 54.905-29.877 65.604l-65.604 37.748c.809-.605 1.615-1.211 2.22-1.817 2.222-1.614 4.038-3.431 5.854-5.651.403-.202.403-.202.403-.404 3.635-4.037 6.662-8.68 9.084-14.13 2.624-5.45 4.644-11.707 6.056-18.571.605-2.826 1.212-5.853 1.413-9.083.202-1.412.404-2.825.404-4.238.202-1.615.202-3.433.202-5.046.201-1.413.201-2.625.201-4.038 0-64.999-45.822-144.33-102.342-177.031-.809-.403-1.615-.807-2.221-1.211-.808-.403-1.615-.807-2.221-1.413-.605-.201-1.212-.403-1.614-.807-2.222-1.009-4.441-2.018-6.864-3.028v-.201c-1.815-.606-3.431-1.413-5.046-2.02-12.313-4.44-23.819-6.056-34.316-5.046-1.009 0-2.019.202-3.229.404-1.413.202-3.028.605-4.441 1.009-.201 0-.604 0-.807.202-2.019.404-4.24 1.211-6.056 2.018-.809.202-1.413.606-2.22.808l65.805-38.354c18.572-10.9 44.409-9.286 72.872 7.064 56.723 32.701 102.544 112.232 102.344 177.232z"/><path fill="gray" d="M3133.331 1097.219c-1.009.404-2.02.808-2.826 1.211.202-.202.403-.202.606-.403.807-.202 1.411-.606 2.22-.808zM3294.212 1325.319c-2.422 5.45-5.449 10.093-9.084 14.13 3.433-4.037 6.662-8.679 9.084-14.13z"/><path fill="gray" d="M3285.128 1339.449c3.635-4.037 6.662-8.68 9.084-14.13-2.422 5.451-5.651 10.093-9.084 14.13zm-31.288-14.331c1.211-.404 2.222-1.01 3.23-1.615l.808-.606c-1.212.808-2.624 1.615-4.038 2.221zm-122.729-227.091c-.203.201-.404.201-.606.403.807-.403 1.817-.807 2.826-1.211-.809.202-1.413.606-2.22.808zm-4.845 46.427c2.422-4.239 5.046-8.075 8.074-11.304-3.229 3.027-5.854 6.863-8.074 11.304z"/><path fill="#b3b3b3" d="M3200.146 1107.312c-.809-.403-1.615-.807-2.221-1.211l-2.422-1.211c-.404-.403-.809-.605-1.413-1.009-2.222-1.009-4.441-2.018-6.864-3.028-1.615-.807-3.431-1.412-5.046-2.22-12.313-4.44-23.819-6.056-34.316-5.046-1.009 0-2.019.202-3.229.404-1.413.202-3.028.605-4.441 1.009-.201 0-.604 0-.807.202-2.019.404-4.24 1.211-6.056 2.018-1.009.404-2.02.808-2.826 1.211-1.009.404-1.817 1.01-2.827 1.615-18.772 10.497-30.278 33.307-30.48 65.806-.201 64.998 45.62 144.329 102.343 177.031 28.463 16.351 54.3 17.965 72.872 7.064.605-.202 1.412-.606 2.018-1.211.808-.404 1.615-.807 2.221-1.413.809-.605 1.615-1.211 2.22-1.817 2.02-1.816 4.038-3.633 5.854-5.651.403-.202.403-.202.403-.404 3.433-4.037 6.662-8.68 9.084-14.13 2.624-5.45 4.644-11.707 6.056-18.571.605-2.826 1.212-5.853 1.413-9.083.202-1.412.404-2.825.404-4.238.202-1.615.202-3.433.202-5.046.201-1.413.201-2.625.201-4.038-.001-65.002-45.823-144.332-102.343-177.033zm79.936 175.415c-2.221 19.177-10.294 32.903-22.204 40.17l-.808.606c-1.009.605-2.02 1.211-3.23 1.615-1.211.605-2.624 1.211-4.037 1.614-3.027 1.01-6.056 1.615-9.285 2.019-6.863.807-14.332 0-22.205-2.422-6.055-1.817-12.313-4.644-18.772-8.277-44.61-25.837-80.743-88.414-80.542-139.484 0-3.633.202-7.267.606-10.497l.605-4.239c.606-3.432 1.211-6.661 2.22-9.487.606-1.817 1.211-3.633 1.817-5.249s1.413-3.229 2.019-4.643c2.221-4.441 4.846-8.277 8.074-11.304 2.221-2.422 4.845-4.24 7.469-5.855 12.516-7.872 29.068-8.276 47.639-.403 3.433 1.413 7.066 3.229 10.699 5.249 44.609 25.837 80.541 88.415 80.541 139.686 0 3.837-.203 7.47-.606 10.901z"/><path fill="#333" d="M3280.082 1282.727c-2.221 19.177-10.294 32.903-22.204 40.17-1.212.808-2.624 1.615-4.038 2.221-1.211.605-2.624 1.211-4.037 1.614-3.027 1.01-6.056 1.615-9.285 2.019-6.863.807-14.332 0-22.205-2.422-6.055-1.817-12.313-4.644-18.772-8.277-44.61-25.837-80.743-88.414-80.542-139.484 0-3.633.202-7.267.606-10.497l.605-4.239c.606-3.432 1.211-6.661 2.22-9.487.606-1.817 1.211-3.633 1.817-5.249s1.413-3.229 2.019-4.643c2.422-4.239 5.046-8.075 8.074-11.304 2.221-2.422 4.845-4.24 7.469-5.855 12.516-7.872 29.068-8.276 47.639-.403-.605 3.431-.807 7.267-.807 11.102 0 51.07 35.93 113.849 80.541 139.484 3.633 2.021 7.266 3.837 10.9 5.25z"/></g></svg>