<svg xmlns="http://www.w3.org/2000/svg" enable-background="new 0 0 110 110" viewBox="0 0 110 110"><path d="M54.0726967,47.6349144c0.0077515-0.0122681,0.013916-0.026123,0.0214844-0.0384521l7.2675781,3.0136108
		c0.7799683,0.3300171,1.6900024-0.0100098,2.0700073-0.7700195c0.4099731-0.8399658,0.0299683-1.8499756-0.8300171-2.2099609
		l-7.6655273-3.1786499c0.0453758-3.153553-2.0271645-5.8968086-4.9968872-6.3134766l-0.9075928-7.0578613
		c-0.1099854-0.8200073-0.7999878-1.4000244-1.5900269-1.4000244c-1.0328217,0-1.7315102,0.8818226-1.6099854,1.8099976
		l0.9268799,7.192627c-2.4392281,1.2465973-3.9028511,4.195015-3.1141357,7.3699341l-6.7927246,4.4574585
		c-0.4700317,0.3099976-0.7200317,0.8200073-0.7200317,1.3399658c0,1.302475,1.4298439,2.0567131,2.4900513,1.3599854
		l6.5603027-4.3218384C47.8190727,51.6681786,52.1735497,51.0315132,54.0726967,47.6349144z M46.7162514,49.4737816
		c-3.7551041-2.1731339-3.7356873-8.2312241,0.1923828-10.3129883c3.4920235-1.8495483,7.5332031,0.9239273,7.5332031,5.1791992
		v0.0102539C54.4418373,48.5758934,50.289978,51.5235062,46.7162514,49.4737816z"/><path d="M50.6586342,40.6998558c-3.6652069-0.6136246-5.5689201,1.5914688-5.0332031,3.9428711
		c0.2412109,1.0537109,0.9169922,1.9321289,1.8085938,2.3491211c0.9870415,0.462513,2.1897621,0.2949409,2.9287109-0.4047852
		c1.4096756-1.3331718,0.4922752-4.0320435-1.2949219-3.2675781c-1.4061089,0.6050529-1.1484108,1.9652328-0.3798828,2.2041016
		c0.1298828,0.0415039,0.2714844-0.0327148,0.3134766-0.1645508c0.0400391-0.1318359-0.0332031-0.2719727-0.1650391-0.3129883
		c-0.1113281-0.034668-0.1777344-0.125-0.2128906-0.1943359c-0.2287025-0.444519,0.1657448-0.8673439,0.6416016-1.0732422
		c0.4280434-0.1833191,0.7019615-0.1391945,0.9775391,0.2060547c0.4902344,0.6162109,0.3857422,1.6630859-0.2236328,2.2392578
		c-0.5839844,0.5537109-1.5830078,0.6875-2.3720703,0.3154297c-1.3104935-0.6128082-1.9066505-2.3257675-1.4746094-3.546875
		c0.4320488-1.2169342,1.907135-2.2171364,4.4042969-1.7993164c2.2936096,0.3851433,2.8860016,1.6386452,2.0820313,3.7514648
		c-0.0498047,0.1289063,0.015625,0.2734375,0.1445313,0.3227539c0.1298828,0.0483398,0.2734375-0.0166016,0.3222656-0.1450195
		C54.0883179,42.5918388,53.1391182,41.1154785,50.6586342,40.6998558z"/><path d="M37.4369545,62.5802269c-0.1367188,0.019043-0.2314453,0.1455078-0.2128906,0.2822266l2.0087891,14.3320274
		c0.04562,0.3244171,0.5409317,0.2610397,0.4960938-0.0693359l-2.0087891-14.3320274
		C37.7006264,62.6563988,37.5824623,62.5611839,37.4369545,62.5802269z"/><path d="M41.8803139,67.9679184l0.5478516,4.8383789c0.0136719,0.1274414,0.1220703,0.2216797,0.2480469,0.2216797
		c0.0087891,0,0.0185547-0.0004883,0.0283203-0.0014648c0.1367188-0.015625,0.2353516-0.1396484,0.2197266-0.2768555
		l-0.5478516-4.8383789C42.3406792,67.5777893,41.843071,67.6408768,41.8803139,67.9679184z"/><path d="M28.3275814,20.7193871c0.1005573,0,11.3134937-0.1985207,11.4150372-0.2138672
		c0.3106232-0.0055084,0.3459167-0.474596-0.0097656-0.5l-11.4101543,0.2138672
		c-0.1376953,0.0024414-0.2480469,0.1166992-0.2451172,0.2548828
		C28.0805111,20.6105003,28.1918392,20.7193871,28.3275814,20.7193871z"/><path d="M32.1752357,75.5270004l-1.5790997-10.9765625c-0.0195313-0.1362305-0.1503906-0.2314453-0.2822266-0.2119141
		c-0.1367188,0.0195313-0.2324219,0.1464844-0.2119141,0.2832031l1.5791016,10.9765625
		C31.727993,75.930481,32.2240791,75.852623,32.1752357,75.5270004z"/><path d="M16.3317318,82.5700912c0.2000122,1.039978,0.8800049,1.9299927,1.8400269,2.3800049l13.7991333,6.5765991
		c0.0253811,0.1008835,0.0094471,0.093071,0.0695782,0.2385864c0.1937294,0.4720612,0.7103767,0.7085571,1.1923828,0.5644531
		c0.1617165-0.0483475,41.5440102-12.4378738,41.7090492-12.4873047c0.069519,0.8023071,0.3443298,1.5003967,0.7538452,2.1416016
		c-0.7734985,0.6305695-1.0031204,2.535675,0.296875,4.0493164c1.1256104,1.3111877,3.4587708,2.1641693,5.024292,1.918335
		c0.7404861,3.9154129,2.8880539,5.8102036,6.4835205,6.572876c3.6124573,0.764801,7.3768005,0.0921097,10.3203125-1.8662109
		c3.0537109-2.0258789,5.0810547-5.4677734,5.2910156-8.9848633c0.1035156-1.9887695-0.3125-3.9228516-0.7783203-5.7158203
		c-2.0497513-7.9512863-4.3233109-10.1738663-11.5097656-14.4854698c1.4318085-1.1649857,2.4906387-2.6832657,2.8427734-4.4627686
		c0.5732422-2.8540039-0.921875-5.8378906-3.4033203-6.7919922c-1.484375-0.5913086-3.3320313-0.449707-4.9375,0.3813477
		c-2.2867661,1.2033806-4.4530945,4.0831451-4.7290039,7.1068115c-0.8624878-0.125-1.8074341-0.2229004-2.8842773-0.2943115
		c-1.0858841-0.0888176-1.9464493-0.0954247-2.8925781,0.3011475l-3.6591797-41.6722412
		c-0.0400391-0.5048828-0.4541016-0.8964844-0.9658203-0.9101563c-1.7690125-0.0231819-52.110466-0.6833382-50.3427734-0.6601563
		c-0.6287937,0-1.0927391,0.5543003-0.9863281,1.1630859c0,0.000061,0.000061,0.0001221,0.000061,0.0001831
		c0,0.0001221-0.000061,0.0001831-0.000061,0.0003052l0.0362549,0.2045898L7.6717577,31.1100731
		c-0.6600342,0.7700195-0.9299927,1.7999878-0.7399902,2.7999878L16.3317318,82.5700912z M76.3715286,85.7071762
		c-1.0083694-1.1749496-0.9591064-2.6286087-0.4615479-3.2259521c0.5232697,0.9766083,1.5657806,1.2726593,2.6588135,1.4012451
		c0.0097656,0.0009766,0.0195313,0.0014648,0.0292969,0.0014648c0.3122101,0,0.3395538-0.4625854,0.0292969-0.4980469
		c-0.9572296-0.1127319-1.9927292-0.3762817-2.3455811-1.2822266c0.0008545-0.00354,0.0050659-0.005188,0.0057373-0.0087891
		c0.0354538-0.1994171-0.0877075-0.1480637-0.4599609-0.8925781c-0.9398117-1.9659653,0.0179291-3.7421875,0.6044922-3.7421875
		c0.015625,0,0.0294189-0.0076904,0.0444946-0.0105591c0.4338989,0.5070801,0.937561,0.942627,1.5082397,1.2835083
		c0.1170807,0.0699692,0.2713547,0.0328674,0.3427734-0.0869141c0.0703125-0.1186523,0.0322266-0.2719727-0.0869141-0.3427734
		c-0.5537109-0.3300781-1.0439453-0.7509766-1.4570313-1.2514648c-0.0230713-0.0285034-0.0586548-0.0325317-0.0894775-0.0477295
		c-0.6702271-1.6751556-1.3862839-4.686058-0.098938-5.9342041c1.3203964,2.2520828,2.4569397,3.1534805,2.703064,3.4824219
		c2.4656601,3.3005295,1.0441818,8.9533997,1.6322632,12.9102173
		C79.5586014,87.6502457,77.4281616,86.9366074,76.3715286,85.7071762z M71.0629349,73.0299301
		c0.0800781,0.9951172-0.5537109,1.9116211-1.5097656,2.1796875L39.0043373,83.899559
		c-1.2133827,0.3402405-2.4417839-0.4542007-2.6357422-1.6791992L27.4184017,26.569973
		c-0.2065639-1.2700577,0.7711067-2.4199219,2.0537109-2.4199219h1.7730103
		c0.0060425,0.1331787,0.1120605,0.2402344,0.246521,0.2402344c15.2597027-0.0858593,9.388731-0.0528259,24.6464825-0.1386719
		c0.0800171-0.0005493,0.1425171-0.043335,0.1879883-0.1015625h8.6557655c1.0957031,0,1.9902344,0.8212891,2.0810547,1.9116211
		l0.3236694,3.7750244c-1.3577652-0.2065144-2.3119659,1.2062263-2.1915283,2.6920166l0.4310913,5.3197632
		c0.1138916,1.4058228,1.1109009,2.4721069,2.2268677,2.3817139c0.1410522-0.0114136,0.2770996-0.0412598,0.4072266-0.086731
		c0.6880264,7.9633598,1.3957367,16.5909119,1.4526367,16.7385864c-0.8433228,0.3547363-1.4121704,1.3911743-1.3111572,2.5780029
		l0.2900391,3.5742798l-10.5885658,0.3578491c0.2733765-0.4398804,0.4833984-0.9153442,0.6185303-1.4221191
		c0.0100098-0.0100098,0.0100098-0.0299683,0.0100098-0.0599976c0.8725319-3.4904442-1.9557495-6.9113617-5.4200439-6.2399902
		c-3.2838593,0.6516876-5.1393433,4.7687035-2.9694824,8.0234985c-0.1234741,0.0836182-0.1446838,0.2476463-0.0576172,0.3597984
		c0.5185547,0.668457,1.1669922,1.1923828,1.8828125,1.5224609c0.1814003,6.8327026,0.0529366,6.6230545,0.2246094,6.7661133
		c0.0449829,0.0377808,0.1046143,0.045105,0.1638794,0.0454102l0.0358276,2.0627441l7.4899902-1.460022l-1.697937-5.2369995
		l12.1886024-0.4605713L71.0629349,73.0299301z M67.7269974,37.2394066c0.0097656,0.1376953-0.09375,0.2573242-0.2324219,0.2666016
		c-0.0048828,0.0004883-0.0107422,0.0004883-0.0166016,0.0004883c-0.1308594,0-0.2402344-0.1010742-0.2490234-0.2329102
		l-0.3466797-5.0678711c-0.0097656-0.1376953,0.09375-0.2573242,0.2324219-0.2666016
		c0.1142578-0.0019531,0.2558594,0.0947266,0.265625,0.2324219L67.7269974,37.2394066z M70.3517532,59.7100487
		c-0.0450668-0.315052,0.4506607-0.4049225,0.5-0.0599976l0.418396,3.3004761
		c-0.0202255,0.0001373-0.470932,0.0102463-0.4911499,0.0107422L70.3517532,59.7100487z M54.0394936,67.5006332
		c-0.0458984,0.0551758-0.0654297,0.1264648-0.0546875,0.1967773c0.487381,2.9909973,0.3127823,2.6226807,0.5908203,3.3007813
		c0.0771484,0.1889648,0.1621094,0.3974609,0.1660156,0.5522461l-1.9453125,0.3076172
		c-0.0026207-0.1289368-0.1277351-6.361557-0.1357422-6.4663086c-0.0068359-0.09375-0.0654297-0.1757813-0.1523438-0.2119141
		c-0.5498047-0.2304688-1.0605469-0.5883789-1.4980469-1.0478516c0.1001358-0.0033798,25.9802818-0.8789787,24.335453-0.8166466
		c-1.02211,0.8592873-0.8669281,2.0373421-0.553833,3.3170128C52.8921928,67.4927902,54.1746178,67.3361359,54.0394936,67.5006332z
		 M76.3487625,70.6288681c-0.199707,0.1699829-0.3792114,0.3909912-0.5233154,0.6491089l-0.1744385-1.9968872
		C75.8606567,69.7247391,76.1114502,70.1947021,76.3487625,70.6288681z M93.9447708,66.059227
		c4.8932724,3.2051849,6.4677582,6.4379349,7.9042969,12.0239258c0.4560547,1.7543945,0.8632813,3.6430664,0.7626953,5.5625
		c-0.2001953,3.3613281-2.1425781,6.6552734-5.0683594,8.5961914c-4.811142,3.1988373-11.2629776,2.3437653-13.8330078-0.0161133
		c-1.6494141-1.5097656-2.1933594-3.78125-2.359375-5.4208984c-0.4018631-3.9260788,0.8561554-8.6341324-1.4443359-12.3442383
		c-0.0117188-0.0249023-0.0283203-0.0478516-0.0478516-0.0673828c-0.0914307-0.0912476-0.1826172-0.1860352-0.2738647-0.2781372
		c-0.892807-1.1586075-1.7302475-1.938942-2.416748-3.0556641c-0.8173523-1.3453369-1.4226379-2.8749161-1.47052-3.1251831
		c-0.0518265-0.2643967-0.1084137-0.6935425-0.3264771-1.0410156c-0.4799881-1.7048111-0.323143-2.3444595-0.0875854-2.7631836
		c0.2299194-0.4072227,0.6745605-0.7123375,1.2015381-0.8525352c0.2269745-0.0111847,0.9283295-0.0349693,1.1818237-0.0437622
		c2.900322,0.3838234,5.0069656,2.8806953,6.7445679,5.1731529c1.4366455,1.8956299,3.8621216,6.3021851,4.7616577,8.449646
		c-0.5078125,0.0289917-1.0126343,0.1186523-1.4833374,0.3223267c-0.1269531,0.0546875-0.1855469,0.2016602-0.1308594,0.3286133
		s0.2021484,0.1850586,0.328125,0.1303711c1.0537109-0.453125,2.3369141-0.40625,3.3515625,0.1259766
		c0.0371094,0.019043,0.0771484,0.0283203,0.1162109,0.0283203c0.2619095,0,0.3450775-0.3508301,0.1162109-0.4716797
		c-0.5549316-0.2902832-1.1681519-0.4454956-1.7874146-0.4811401c-0.0027466-0.0204468,0.0084229-0.039856,0.0003052-0.0598755
		c-0.0866089-0.2116699-0.1934814-0.4532471-0.3099976-0.7084351c1.9677124-0.1262817,3.7318726-1.4030762,4.3041382-3.1304321
		c0.5341797-1.5649414,0.1054688-3.5205078-1.1181641-5.1030273c-1-1.3027344-2.3808594-2.2802734-3.65625-3.1362305
		c0.5335693-0.2578735,1.0317993-0.5647583,1.4983521-0.9023399C91.6078796,64.5141296,92.7765579,65.2922211,93.9447708,66.059227z
		 M85.5570755,53.042141c1.4765625-0.7641602,3.1669922-0.8979492,4.5244141-0.3588867
		c2.2626953,0.8701172,3.6220703,3.6054688,3.0947266,6.2285156c-0.495224,2.500206-2.5410156,4.5114594-4.8828125,5.5190392
		c-0.1826477,0.0785828-0.2041168,0.3281174-0.0400391,0.4375c1.4072266,0.9379883,2.8613281,1.9082031,3.9101563,3.2744141
		c1.1230469,1.4516602,1.5224609,3.2285156,1.0410156,4.6386719c-0.5166016,1.5585938-2.1308594,2.7094727-3.9257813,2.7993164
		c-0.0435181,0.0021362-0.074585,0.0303345-0.109314,0.0517578c-0.3050537-0.6414185-0.6738281-1.3685303-1.0780029-2.1262207
		c2.0716858-0.3856735,2.9238663-2.7862701,1.9503174-4.4361572c-1.1114883-1.9178238-5.7442245-4.2011261-6.4336548-2.4781494
		c-1.2118912-1.4394302-2.5333023-2.7007103-4.2579346-3.4075279c0.8945694-0.0174484,1.9778214,0.1286087,2.0906982-0.8595581
		c0.0351563-0.3540039-0.0810547-0.6762695-0.1933594-0.987793C80.445137,59.1390266,82.3133011,54.7491608,85.5570755,53.042141z
		 M75.5600052,59.9830589c0.6748047-0.1611328,1.4150391-0.1303711,2.1152344-0.0732422
		c1.0831909,0.0720215,2.0283203,0.1699219,2.8878174,0.2958984c-0.006485,0.6597023,0.0465164,0.8391876,0.2137451,1.3012695
		c0.3759842,1.0433617,0.157196,1.1953659-0.9677734,1.1748047c-0.9535446-0.0230713-7.1488495,0.2214317-6.916687,0.2138062
		C73.1324234,61.3014488,74.294899,60.2830086,75.5600052,59.9830589z M70.6625443,18.08218l3.6771851,41.8789063
		c-0.8567047,0.5021133-1.3656845,1.1440468-1.6818848,1.883728l-0.2161255-2.7147217
		c-0.1199951-1.3500366-1.0299683-2.3900146-2.0999756-2.3900146c-0.039978,0-0.0900269,0.0100098-0.1300049,0.0100098
		c-0.0112305,0.0009155-0.0213013,0.0056763-0.0324707,0.0068359l-1.428833-16.7484741
		c-0.0036621-0.0427246-0.0301514-0.0714111-0.0502319-0.1043091c0.6464233-0.4650879,1.0491943-1.3704834,0.9671021-2.3831177
		l-0.4310913-5.3197632c-0.0836792-1.0332031-0.6462402-1.87854-1.3805542-2.22052
		c0.0790863-0.1858883,0.0405197,0.2800884-0.2946777-3.9610596c-0.1123047-1.3510742-1.2207031-2.3696289-2.5791016-2.3696289
		H29.4721127c-1.5936794,0-2.8011284,1.4277725-2.5478516,2.9995117l8.9501934,55.6494102
		c0.2443657,1.5288239,1.7749596,2.5029602,3.265625,2.081543l30.5488319-8.6899414
		c1.1845703-0.3320313,1.9716797-1.4677734,1.8720703-2.7021484l-0.4884644-5.7147827l3.8474731-0.1453857
		c0.1287537,0.4636154-0.0528412-0.6957397,0.5117188,5.4076538c-0.1433411,1.0158539,0.0266647,2.0452576,0.2802124,3.0357666
		l-0.0093384,0.0012207l0.147522,1.6117554c-0.5723114,0.4345016-0.8859177,1.352005-0.9193115,2.1398926L33.1820717,91.8228989
		l-0.7089844-0.3344727C17.7337704,8.390173,19.6584435,19.2412148,19.3784237,17.6625023l0.5880127-0.6911621l50.2185669,0.6586914
		C70.4369583,17.6368675,70.6420364,17.8302269,70.6625443,18.08218z M19.1019955,69.0079575
		c-0.1191406,0-0.2246094-0.0849609-0.2460938-0.2060547l-5.118165-28.5649376
		c-0.0244141-0.1357422,0.0664063-0.265625,0.2021484-0.2900391c0.1337891-0.0253906,0.265625,0.065918,0.2900391,0.2021484
		l5.118165,28.5649376C19.3756599,68.8673172,19.256937,69.0079575,19.1019955,69.0079575z M8.937932,33.1065941
		l6.4628906-5.1699219c0.1074219-0.0854492,0.2646484-0.0678711,0.3515625,0.0390625
		c0.0859375,0.1079102,0.0683594,0.2651367-0.0390625,0.3515625c-6.8402424,5.4441071-6.4510889,5.2246094-6.6191406,5.2246094
		C8.8587847,33.5519066,8.7539368,33.2546272,8.937932,33.1065941z"/><path d="M79.2709427,64.7682114c-1.8990479-0.1991119-3.0532455,1.4414444-2.4482422,2.9306641
		c0.2285156,0.5620117,1.1582031,1.9702148,1.6289063,2.3974609c0.2246933,0.20298,0.5640106,0.2027206,0.8359375,0.0444336
		c0.9189453-0.5356445,1.6826172-1.2382813,2.3339844-2.1474609c0.1679688-0.234375,0.203125-0.5224609,0.0898438-0.7519531
		C81.4125443,66.6349106,80.3236771,64.8790512,79.2709427,64.7682114z M81.2152786,67.7018051v0.0004883
		c-0.609375,0.8505859-1.3222656,1.5068359-2.1796875,2.0068359c-0.1015625,0.0595703-0.2060547,0.0537109-0.2480469,0.0166016
		c-0.4111328-0.3730469-1.2978516-1.7138672-1.5019531-2.215332c-0.2099609-0.5175781-0.1425781-1.3007813,0.3945313-1.796875
		c0.4134216-0.3824387,0.9958344-0.5033112,1.5380859-0.4482422c0.6630859,0.0698242,1.6132813,1.3208008,2.0439453,2.1967773
		C81.2865677,67.5118637,81.2826614,67.6080551,81.2152786,67.7018051z"/><path d="M85.2722855,63.0912132c0.3622437,0.0996704,0.75,0.0432739,1.1109619-0.0608521
		c1.6330872-0.4711266,3.8602066-2.7286873,4.2886963-3.4856567c1.350914-2.3867912-0.0089035-4.7224426-2.0919189-4.644165
		c-2.1420822,0.0805283-3.8318863,2.6613274-4.227356,4.9902954C84.2080154,60.8734398,83.9894485,62.7381248,85.2722855,63.0912132
		z"/><path d="M64.5277786,65.9225082h-5.1777382c-0.1376953,0-0.25,0.1118164-0.25,0.25s0.1123047,0.25,0.25,0.25h5.1777382
		c0.1376953,0,0.25-0.1118164,0.25-0.25S64.6654739,65.9225082,64.5277786,65.9225082z"/><path d="M81.6166458,44.1832542c0.0351563,0.0170898,0.0722656,0.0249023,0.109375,0.0249023
		c0.0927734,0,0.1816406-0.0517578,0.2246094-0.140625c1.8085938-3.7231445,1.2617188-8.3764648-1.3603516-11.5786133
		c-0.0878906-0.1074219-0.2460938-0.1220703-0.3515625-0.0351563c-0.1074219,0.0874023-0.1230469,0.2451172-0.0351563,0.3515625
		c2.4619141,3.0068359,2.9951172,7.5483398,1.2978516,11.043457C81.4408646,43.9732933,81.4926224,44.1227074,81.6166458,44.1832542
		z"/><path d="M89.5307083,36.2701683c-0.1259766-0.0507813-0.2734375,0.0112305-0.3251953,0.1391602
		c-0.6679688,1.6748047-1.4189453,3.3398438-2.2294922,4.949707c-0.0615234,0.1230469-0.0117188,0.2734375,0.1113281,0.3354492
		c0.1264725,0.0632362,0.275238,0.0098801,0.3359375-0.1108398c0.8164063-1.6225586,1.5732422-3.3007813,2.2470703-4.9887695
		C89.721138,36.4664574,89.658638,36.3209496,89.5307083,36.2701683z"/><path d="M90.1078568,44.9723167c0.4023438-0.8554688,0.8173828-1.7402344,1.4462891-2.4492188
		c0.671875-0.7578125,1.5166016-1.1904297,2.3222656-1.1904297c0.0078125,0,0.015625,0,0.0224609,0
		c0.3659363-0.036129,0.3050842-0.4968185,0.0058594-0.5c-0.1002579,0.0252991-1.4233627-0.1081886-2.7255859,1.3588867
		c-0.6757813,0.7626953-1.1064453,1.6806641-1.5244141,2.5678711
		C89.5146484,45.0582657,89.9654312,45.2717323,90.1078568,44.9723167z"/><path d="M26.4242611,97.7340317c-0.5888672-0.5004883-0.9355469-1.2685547-1.2421875-1.9458008
		c-0.0566406-0.1254883-0.2041016-0.1806641-0.3300781-0.125c-0.1259766,0.0571289-0.1826172,0.2050781-0.125,0.3310547
		c0.328125,0.7250977,0.6992188,1.5473633,1.3730469,2.1206055c0.7896118,0.6722717,2.0219116,0.8603287,2.7783203,0.0932617
		c0.5546875,0.5351563,1.359375,0.9536133,2.1796875,0.7172852c0.6220703-0.1801758,1.0527325-0.690918,1.3408184-1.0834961
		c0.5378113-0.7349091,0.714325-0.6741257,1.3427734-0.1210938c0.9091797,0.7998047,2.0732422,1.3037109,3.2783203,1.4204102
		c2.0811958,0.2007294,4.0743523-0.725975,5.9433594-1.6367188c0.1240234-0.0605469,0.1757813-0.2099609,0.1152344-0.3339844
		c-0.0605469-0.1245117-0.2109375-0.1757813-0.3339844-0.1152344c-1.6308594,0.7944336-3.6728516,1.7822266-5.6757813,1.5878906
		c-1.1015625-0.105957-2.1660156-0.5668945-3.0419922-1.3369141c-0.2734375-0.2421875-0.6240234-0.5390625-1.0556641-0.5024414
		c-0.4628906,0.0424805-0.7470703,0.4306641-0.9921856,0.7661133c-0.3613281,0.4921875-0.6982422,0.7700195-1.0595703,0.875
		c-0.6435547,0.1865234-1.2900391-0.1860352-1.7392578-0.6401367c0.7851315-1.3815308-0.2382526-3.1903381-1.1240234-2.8081055
		c-0.8922119,0.3877869-0.1078663,2.0677185,0.4863281,2.8383789c-0.0546875,0.0585938-0.1142578,0.1108398-0.1767578,0.1552734
		C27.7846127,98.402977,26.9320736,98.165184,26.4242611,97.7340317z M28.187933,95.9957504
		c-0.0576172-0.2226563-0.0537109-0.487793,0.0673828-0.5400391c0.2631454-0.1140289,0.9876137,0.8132248,0.5751953,1.9267578
		C28.5355892,96.9645004,28.3148861,96.4889145,28.187933,95.9957504z"/><path d="M7.8891039,23.6124535c2.6220703-2.5454102,5.0332031-5.3354492,7.1689453-8.2924814
		c0.0800781-0.1123047,0.0546875-0.2685547-0.0566406-0.3491211s-0.2685547-0.0551758-0.3496094,0.0561523
		c-2.1171875,2.9335947-4.5097656,5.7016611-7.1103516,8.2270517c-0.0996094,0.0961914-0.1015625,0.2543945-0.0058594,0.3535156
		C7.6360178,23.7089844,7.7942438,23.7063446,7.8891039,23.6124535z"/><path d="M9.0863695,17.3531761c1.6142578-2.1000986,3.3476563-4.1533213,5.1542969-6.10254
		c0.09375-0.1010742,0.0878906-0.2592773-0.0136719-0.3535156c-0.1005859-0.0932617-0.2587891-0.0869141-0.3535156,0.0136719
		c-1.8164063,1.9604492-3.5605469,4.0253906-5.1835938,6.1376963c-0.0839844,0.109375-0.0634766,0.2666016,0.0458984,0.3505859
		C8.8495941,17.4850368,9.0048561,17.4599571,9.0863695,17.3531761z"/></svg>