<svg xmlns="http://www.w3.org/2000/svg" enable-background="new 0 0 110 110" viewBox="0 0 110 110"><path d="M56.3756371,95.2983017c0.3180046-0.0549088,0.2563438-0.536438-0.0820313-0.4941406
		c-1.5046196,0.2509384-5.6786156,0.5460587-6.8720703-0.3525391c-0.2641945-0.2005081-0.5647964,0.1998367-0.3007813,0.3984375
		C50.4806099,95.876564,54.6757202,95.5803223,56.3756371,95.2983017z"/><path d="M58.648098,96.0873642c-0.1845703,0.4082031-0.3925781,0.8720703-0.3330078,1.359375
		c0.0683594,0.5537109,0.5068359,1.0322266,1.1748047,1.2792969c0.307682,0.1167068,0.4854622-0.3539429,0.1738281-0.46875
		c-0.4960938-0.1835938-0.8066406-0.5019531-0.8525391-0.8710938c-0.0429688-0.3496094,0.1279297-0.7275391,0.2919922-1.09375
		C59.2388382,95.9907074,58.7794647,95.7824097,58.648098,96.0873642z"/><path d="M55.5367699,97.5443954c0.6035156-0.4316406,1.2402344-0.8388672,1.890625-1.2128906
		c0.2885056-0.1641922,0.0358582-0.6001892-0.2480469-0.4335938c-0.6660156,0.3818359-1.3164063,0.7988281-1.9335938,1.2402344
		C54.9758797,97.330574,55.2711868,97.739151,55.5367699,97.5443954z"/><path d="M85.7711487,86.6938095c-3.5667953-2.812233-3.6770401-3.6964569-4.0566406-3.328125
		c-0.0986328,0.0966797-0.1005859,0.2548828-0.0039063,0.3535156c1.1699219,1.1953125,2.4326172,2.328125,3.75,3.3671875
		C85.7173233,87.2884903,86.032402,86.9009247,85.7711487,86.6938095z"/><path d="M78.2281799,94.0404892c1.3837891,1.0322266,2.828125,2.0048828,4.2929688,2.890625
		c0.2830429,0.1725845,0.539444-0.2578278,0.2578125-0.4277344c-1.4501953-0.8769531-2.8808594-1.8408203-4.2519531-2.8632813
		C78.2601776,93.4441071,77.9635849,93.8437958,78.2281799,94.0404892z"/><path d="M100.7252502,25.9482002h-2.6376953c-0.3391113-0.1601563-0.7102051-0.2495117-1.0996094-0.2495117H71.5563049
		c-0.8127441,0-1.5847168,0.3908691-2.1514893,1.0344238c-0.3597412-0.6303711-0.9813232-1.0344238-1.6971436-1.0344238
		c-44.9064713,0.1285629-42.8387375-0.3155594-43.7666016,0.3535156H8.7545443
		c-1.1798081,0-1.9987264,1.0501003-1.8652344,2.2744141l4.6152344,45.0166054
		c0.1035156,1.0205078,1.0263672,1.8505859,2.0576172,1.8505859h3.8608408l-0.8300781,2.7141113
		c-0.2971191,0.9715576,0.5285645,2.0157471,1.588623,2.0157471c0.6088867,0,1.1269531-0.3583984,1.3132324-0.9093018
		l1.291748-3.8205566h6.9611816l-0.8962402,2.7141113c-0.3208008,0.9715576,0.479248,2.0157471,1.5395508,2.0157471
		c0.6087646,0,1.135498-0.3583984,1.3352051-0.9093018l1.3850098-3.8205566h19.6061993l1.6464844,3.8205566
		c0.2374268,0.5509033,0.7888184,0.9093018,1.3977051,0.9093018c1.0600586,0,1.7888184-1.0441895,1.4013672-2.0157471
		l-1.0819092-2.7141113h6.7403564l0.4897461,1.1955566c-0.3666916,0.2187347-2.1523666,0.9047775-3.4990234,2.7175293
		c-3.678257,4.9199371-1.3836937,13.5595932,4.7216797,16.3652344c3.872776,1.776947,8.6398048,0.8289261,11.588871-2.3398438
		c2.4296875-2.5957031,3.4892578-6.7138672,2.6357422-10.2480469c-0.432373-1.7907715-1.9812012-3.7486572-3.6556396-5.1572266
		c0.0006104-0.0128174,0.0115967-0.0220947,0.0101318-0.0351563c-0.0146484-0.1367188-0.1494141-0.2324219-0.2753906-0.2207031
		c-0.0112305,0.0012207-0.0216064,0.0053711-0.0327148,0.0065918c-0.6818848-0.5415039-1.3735352-0.9934082-2.0131836-1.2868652
		c-1.7131348-0.782959-3.7285156-1.0466309-5.8535156-0.7858887c-0.155426-0.0359573-0.3018951-0.133522-0.4353027,0.0585938
		c-0.1010056,0.0156631-0.0565109,0.0033646-0.2058105,0.0305176l-0.1115723-0.300293h2.2497559
		c0.6364746,0,1.2106934-0.3240967,1.5678711-0.8310547c0.4852295,0.5231934,1.1479492,0.8310547,1.887207,0.8310547
		c23.6819611-0.0942307,22.8456192,0.2251358,23.9139404-0.2502441h2.2244873c1.3232422,0,2.5148926-1.0706787,2.6462402-2.3937988
		l0.6671143-6.526123c1.6830215-0.7600784,2.335022-6.394001,0.7340088-7.2973671l0.4975586-4.8391113
		c1.6919403-0.7928772,2.4183426-6.6705055,0.7753906-7.6799316l1.7597656-17.3198242
		C103.2704163,27.2713203,102.1998596,25.9482002,100.7252502,25.9482002z M60.3514671,93.4291611
		c1.1999512,0.5605469,2.4833984,0.8803711,3.77808,0.9626465c0.097168,0.3896484,0.2568359,0.7692871,0.4833984,1.1008301
		c0.0478516,0.0712891,0.1269531,0.109375,0.2060547,0.109375c0.1975479,0,0.3208923-0.2241058,0.2060547-0.390625
		c-0.1623535-0.2387695-0.2770996-0.5085449-0.3632813-0.7851563c0.7699738,0.0083694,1.4524841-0.0438156,2.4022217-0.2600098
		c-0.0178146,0.1919403-0.0526276-0.0765381,0.5782471,1.4387207c0.1310883,0.3027573,0.5908813,0.1046219,0.4589844-0.1992188
		c-0.2602463-0.5844193-0.5172348-1.2090759-0.5986328-1.3406982c1.5428848-0.4259949,2.3511658-0.9777908,3.0290527-1.4788818
		c0.0505447,0.1863403-0.0379181,0.0005951,1.6726074,1.5391846C68.7967529,96.4782791,63.910965,96.6180496,60.3514671,93.4291611z
		 M73.7574768,92.7914658c0,0,0,0,0,0.0009766c-0.3522949,0.3781738-0.7321777,0.7229004-1.1342773,1.0339355l-1.6987305-1.4880371
		c-0.0075684-0.0067139-0.0183105-0.00354-0.0263672-0.0090332c0.8149414-0.6674805,1.4880371-1.4794922,2.0286865-2.3666992
		c1.7410736,1.0414505,1.7327652,1.0915527,1.8687744,1.0915527c0.2511749,0,0.3457794-0.3318329,0.1298828-0.4638672
		l-1.7502441-1.0622559c0.6105957-1.1333008,0.9776611-2.3754883,1.0671387-3.6430664
		c2.020546,0.4093323,2.0571823,0.6049347,2.2543945,0.3984375C76.3045959,88.7047958,75.3487854,91.0915146,73.7574768,92.7914658z
		 M76.5207825,85.9753036c-0.1128922-0.1553726-0.0881958-0.0603256-2.2390137-0.5944824
		c0.0113144-1.0926056-0.1589813-2.1650467-0.7200928-3.4592285c1.9892807-0.3434525,1.9742432-0.2533875,2.1018066-0.3989258
		C76.1609268,82.4424515,76.642952,83.6127472,76.5207825,85.9753036z M75.4496155,81.1187363
		c-0.3821106,0.0600281-2.2275772,0.349968-2.1055908,0.3308105c-0.5446777-1.086792-1.3132324-2.0931396-2.2674561-2.96521
		c0.5079346-0.2299805,1.0415039-0.3900146,1.597168-0.4726563C73.7331848,78.8796005,74.7501526,79.9749374,75.4496155,81.1187363z
		 M72.162262,77.6081161c-0.5222168,0.1140137-1.0310059,0.2719727-1.510498,0.5097656
		c-1.192749-0.9831543-2.6398926-1.7698975-4.2648926-2.3112793C68.9274826,75.7883224,70.6643829,76.5057907,72.162262,77.6081161z
		 M64.914093,75.9162216c5.9716721,1.4219818,8.9562225,5.5929108,8.8592529,9.5769043
		c-0.0030518,0.0085449-0.0126953,0.0119629-0.0148926,0.0209961c-0.0046387,0.0195313,0.0087891,0.0356445,0.0087891,0.0549316
		c-0.0964355,2.8270264-1.6933594,5.6066895-4.2324219,7.1081543c-2.8876953,1.7060547-6.7099648,1.6777344-9.7382851-0.0771484
		c-0.0831299-0.0480957-0.1745605-0.0267334-0.2512207,0.022583C54.7535172,87.3131943,55.0612373,77.1875534,64.914093,75.9162216z
		 M69.6100159,32.7279854l-0.1113281,3.5146484c-0.0166016,0.5566406-0.4433594,1.0097656-0.9521484,1.0097656
		c-0.483017,0-0.8905792-0.4255981-0.8808594-0.9951172l0.0908203-3.5146484
		c0.015625-0.5732422,0.4472656-1.0400391,0.9619141-1.0400391C69.2096252,31.7025948,69.6100159,32.1479073,69.6100159,32.7279854z
		 M12.0025911,73.2924423L7.3863802,28.2738838c-0.1024141-0.9310398,0.4903445-1.7216797,1.3681641-1.7216797H23.469389
		c-0.2716064,0.4022217-0.4135742,0.901001-0.3798828,1.4228516l0.234375,3.4390869
		c-0.0522461,0.0494385-0.0875244,0.1142578-0.0820313,0.1917725c1.7337093,25.0172195,2.3731861,35.2734108,2.9384766,41.7285194
		c0.0358887,0.5380859,0.3041992,1.0195313,0.6982422,1.359375H13.5621614
		C12.7799349,74.6938095,12.0807161,74.0649033,12.0025911,73.2924423z M66.4352112,74.6938095H28.1871624
		c-0.7802734,0-1.4570313-0.625-1.5087891-1.3925781L23.587553,27.9428291
		c-0.0599861-0.95788,0.5746841-1.7441406,1.4482422-1.7441406h42.671875c0.59375,0,1.1191406,0.3662109,1.3662109,0.9423828
		c-0.7955017,1.2578144-0.4655533,2.5503044-0.5996094,4.0839844c-0.8171005,0.2497807-1.1985779,0.8204041-1.2177734,1.5039063
		l-0.0908203,3.5175781c-0.0127411,0.7897568,0.5228653,1.361721,1.1240234,1.4804688
		c-0.4620438,15.9726067-0.3400726,11.7559357-0.3706055,12.8116455c-0.0043945,0.0008545-0.0078125,0.0037842-0.012085,0.0046387
		c-0.6592941,0.1320839-1.1246262,0.7404976-1.1456299,1.3868408l-0.0810547,3.2402344
		c-0.021431,0.6981163,0.4522781,1.2608833,1.0742188,1.3847656c-0.0029297,0.1006889-0.1587906,5.4613991-0.1489258,5.1221924
		c-0.0030518,0.0006104-0.0053711,0.0025635-0.0085449,0.0031738c-0.6115417,0.1179695-1.1075287,0.6841431-1.1188965,1.338501
		l-0.0800781,3.0781288c-0.0215607,0.6629181,0.433548,1.2048111,1.0429688,1.3251953l-0.1445313,5.1230469
		c-0.0088577,0.472908,0.1333313,1.022316,0.3847656,1.4257813C67.4293518,74.4145126,66.9547424,74.6938095,66.4352112,74.6938095z
		 M69.0133362,51.9281807l-0.1005859,3.2421875c-0.0373077,1.196167-1.7695541,1.1924553-1.7324219,0.0136719l0.0810547-3.2402344
		c0.0166016-0.5136719,0.4140625-0.921875,0.9111328-0.9296875C68.6363831,51.0141182,69.0133362,51.409626,69.0133362,51.9281807z
		 M68.6705627,63.0180244l-0.1015625,3.0800819c-0.0370407,1.1272354-1.7088013,1.1090393-1.6708984,0.0146484l0.0800781-3.0830116
		c0.0087891-0.4824219,0.3994141-0.875,0.8710938-0.875C68.3023987,62.1547432,68.6705627,62.5365791,68.6705627,63.0180244z
		 M67.7965393,72.5570908l0.1450195-5.1320801c0.5752945-0.1012344,1.1057663-0.6408234,1.1274414-1.3112793
		c0.0033493-0.1026382,0.1080475-3.3069077,0.1015625-3.1084023c0-0.6413727-0.5086365-1.2122345-1.0644531-1.3251953
		c0.0032272-0.1110611,0.1585007-5.4527016,0.1489258-5.123291c0.003418-0.0007324,0.0061035-0.0029297,0.0095215-0.0036621
		c0.6451187-0.1248283,1.127533-0.7317352,1.1481934-1.3671875c0.0031357-0.1026382,0.1071396-3.5056229,0.1005859-3.2910156
		c0-0.5907059-0.3265839-1.1164513-1.09375-1.3564453c0.163353-5.6458778,0.2802048-9.6843987,0.3706055-12.8088379
		c0.0043945-0.0008545,0.0080566-0.0039063,0.0125732-0.0048828c0.6490707-0.1263733,1.1749725-0.7563515,1.1959229-1.4665527
		c0.0032043-0.1026344,0.1180267-3.77808,0.1113281-3.5634766c0-0.6368637-0.3379135-1.2119732-1.1352539-1.4666748
		l0.0639648-2.3331299c0.0481033-1.4659958,1.1773987-2.6960773,2.517334-2.6962891
		c39.246315,0.0015068,19.8077621,0.000761,25.4279785,0.0009766c0.0009766,0,0.0014648-0.0009766,0.0024414-0.0009766h0.0014648
		c1.3464355,0,2.2900009,1.2204475,2.1552734,2.6650391c-3.2124634,34.287796-3.4926758,37.2796364-4.0908203,43.6640663
		c-0.109375,1.1938477-1.1751709,2.1652832-2.3758545,2.1657715c-0.1238251,0.0000458-22.9392395-0.0004883-22.7926025-0.0004883
		C68.6884689,74.6892853,67.774147,73.7336273,67.7965393,72.5570908z M99.2330627,65.5238876
		c-0.2001953,0.1337891-0.3564453,0.1181641-0.5146484-0.0556641c-0.3466797-0.3808594-0.6308594-1.4736366-0.4814453-3.0546913
		c0.1875-1.8876953,0.9238281-3.2988281,1.4580078-3.2988281c0.0751953,0,0.1298828,0.0205078,0.2001953,0.078125
		C100.9743576,60.0267487,100.5013504,64.6582642,99.2330627,65.5238876z M100.4625549,53.3861885
		c-0.2128906,0.1455078-0.3623047,0.1289063-0.5234375-0.0498047c-0.3525391-0.3867188-0.6591797-1.5703125-0.5-3.2548828
		c0.2138672-2.1689453,1.0283203-3.5009766,1.5185547-3.5009766c0.0439453,0,0.1113281,0.0087891,0.2099609,0.0986328
		C102.2303543,47.5060005,101.8134613,52.4260406,100.4625549,53.3861885z"/><path d="M91.6354065,66.4106064l2.3291016-27.9775429c0.0273361-0.3212662-0.468956-0.3828621-0.4980469-0.0410156
		l-2.3291016,27.9775429C91.1093521,66.6986237,91.608017,66.7442322,91.6354065,66.4106064z"/><path d="M88.6637268,60.9350166l0.5517578-7.3134766c0.0245285-0.314415-0.4729996-0.3902893-0.4980469-0.0371094
		l-0.5517578,7.3134766C88.1399689,61.227459,88.6390076,61.2686653,88.6637268,60.9350166z"/><path d="M12.7730989,50.0844307l1.3154297,13.9218788c0.0323124,0.330574,0.528677,0.285347,0.4980469-0.0468788
		l-1.3154297-13.921875C13.2367134,49.6907692,12.7438602,49.7672997,12.7730989,50.0844307z"/><path d="M15.891263,55.7738838l0.2685556,3.0273438c0.029768,0.3299332,0.5264168,0.2884254,0.4980469-0.0449219
		l-0.2685547-3.0273438C16.3573608,55.3824463,15.8642282,55.4562263,15.891263,55.7738838z"/><path d="M51.5670433,85.1674423l-2.3710938-3.2255859c-0.1927071-0.2646866-0.6001625,0.0284042-0.4023438,0.296875
		l2.3710938,3.2255859C51.3600464,85.7299881,51.7641182,85.4348984,51.5670433,85.1674423z"/><path d="M68.2848206,16.8041573c-0.210228,0.1008224-0.1774673,0.4142284,0.0537109,0.46875
		c1.3955078,0.3183594,2.5839844,1.6835938,2.8242188,3.2451172c0.0437317,0.287735,0.4634018,0.2801456,0.4951172-0.0097656
		c0.2099609-1.8203125,1.1494141-3.5791016,2.4511719-4.5898438c0.1497803-0.1160269,0.1191788-0.3485546-0.0498047-0.4248047
		c-1.5088425-0.6891346-2.8715134-1.4173422-3.2089844-3.0595703c0.0107422-0.3173828,0.0009766-0.6357422-0.0283203-0.9521484
		c-0.0274887-0.2954617-0.4545135-0.3037815-0.4960938-0.0126953c-0.0488281,0.3339844-0.0400391,0.6748047,0.0224609,1.0117188
		c-0.0332031,0.8115234-0.2041016,1.6181641-0.5058594,2.3740234C69.424469,15.9047432,69.1666565,16.3744698,68.2848206,16.8041573
		z M70.7320862,13.5492744c0.6074295,1.1062708,1.6235352,1.7024355,2.7597656,2.2333984
		c-1.0107422,0.9023438-1.7666016,2.1865234-2.1328125,3.6074219c-0.4589844-1.0947266-1.328125-2.0009766-2.3515625-2.4257813
		c0.6503906-0.4472656,0.9335938-1.0058594,1.2998047-1.9238281C70.4986877,14.5590401,70.6412659,14.0590401,70.7320862,13.5492744
		z"/><path d="M74.4693909,20.4350166c0.6992188-0.8632813,1.3876953-1.7529297,2.046875-2.6445313
		c0.1965256-0.2667217-0.2062149-0.5630493-0.4023438-0.296875c-0.6542969,0.8857422-1.3388672,1.7695313-2.0332031,2.6269531
		C73.8712234,20.3794899,74.2648087,20.6877308,74.4693909,20.4350166z"/><path d="M67.1217346,20.3871651l1.7724609,1.2177734c0.2718353,0.1853428,0.5553055-0.2244511,0.2832031-0.4121094
		l-1.7724609-1.2177734C67.1296387,19.7907276,66.8506546,20.2002163,67.1217346,20.3871651z"/><path d="M38.2901878,55.8625069l0.534668,0.116333l0.1433105-0.5506592
		c-0.1586914-0.0354004-0.3026123-0.097168-0.4526367-0.1494141C38.4330101,55.4694405,38.3519554,55.6617012,38.2901878,55.8625069
		z"/><path d="M41.6566429,53.5514717c0.3425255-0.9751625-0.1118507-2.3239441-1.2192383-2.973877
		c-0.4455261-0.2595482-1.9300346-0.5739632-1.7526855-1.5651855c0.1292877-0.7320976,1.0967102-0.7877045,0.9963379-0.7546387
		c0.4403687,0.0028992,1.0614891,0.3875084,1.6274414,0.7436523c0.1044922-0.2918701,0.1882324-0.5908203,0.2504883-0.8945313
		c-0.7201729-0.3018646-1.4319992-0.6207352-2.192627-0.5366211c-1.4424782,0.1521759-2.0719948,1.5241776-1.4016113,2.3444824
		c0.4961395,0.6074257,1.4536819,0.7309685,2.1264648,1.3178711c1.76437,1.5387688-0.0031128,3.3509865-1.8670654,2.1442871
		c-0.258419,0.6497459-0.1568146,0.5192947-0.3679199,1.0789795c0.369873,0.1953125,0.7911377,0.3875732,1.2359619,0.4842529
		C40.2411156,55.1927071,41.2738304,54.633503,41.6566429,53.5514717z"/><path d="M40.8063011,46.5396309l-0.3244629-0.043335l-0.1394043,0.6501465
		c0.0982666,0.0224609,0.1967773,0.0437012,0.2929688,0.0727539C40.681057,46.9919014,40.7357445,46.7639961,40.8063011,46.5396309z
		"/><path d="M63.1568871,89.6134872c-0.1138916,0.2619629-0.2229004,0.5267334-0.3029785,0.7982178l0.7574463,0.1646729
		l0.2015381-0.7751465C63.5730782,89.7542038,63.3870697,89.6958084,63.1568871,89.6134872z"/><path d="M65.0751038,84.7865829c2.1665955,1.8836899-0.0754395,3.9487534-2.2587929,2.482666
		c-0.3320999,0.8170929-0.2122536,0.69384-0.4881592,1.418335c0.4615479,0.2456055,0.9923096,0.4931641,1.5565186,0.6164551
		c2.3904381,0.5176239,4.0791817-1.797554,2.9589882-4.0321045c-0.28125-0.5622559-0.7368164-1.0484619-1.2852783-1.3690186
		c-0.5709991-0.3335571-2.3114738-0.6811523-2.1029091-1.8444824c0.1511192-0.8425598,1.2721748-0.910141,1.1560097-0.8719482
		c0.347168,0.0019531,0.6540527,0.1519775,0.9379883,0.3059082c0.3630371,0.196167,0.7210693,0.40625,1.0682373,0.6252441
		c0.1430664-0.390625,0.2554932-0.7929688,0.3372803-1.2023926c-0.8898773-0.3726349-1.7988205-0.7785645-2.7301025-0.673584
		c-1.8015366,0.1903687-2.5775833,1.9140778-1.739872,2.9382324C63.1100159,83.9425354,64.2500381,84.0689697,65.0751038,84.7865829
		z"/><path d="M66.0495911,78.9988632l-0.506958-0.0670166l-0.1923828,0.8962402
		c0.1544189,0.0334473,0.3081055,0.0681152,0.4584961,0.114502C65.8705139,79.6249619,65.95047,79.3089218,66.0495911,78.9988632z"/><path d="M57.7798119,85.5653915c0.283123,4.331543,3.4118156,6.7797165,6.7078896,6.8615723
		c5.127449,0.1273346,8.8692703-5.2569046,6.7615967-10.3154297C68.1222382,74.6038666,57.1970024,76.661293,57.7798119,85.5653915z
		 M64.8524475,79.7428818l0.2294922-1.0725098c0.0376816-0.1799622,0.1763992-0.2872162,0.3708496-0.260376
		c0.8843918,0.1458282,1.0450592,0.0700226,1.1520996,0.2496338c0.1199799,0.1970139-0.0965347,0.3062973-0.3066406,1.4005127
		c-0.0029297,0.0152588-0.0168457,0.0231934-0.0219727,0.0372314c0.2341309,0.0880127,0.4655762,0.1827393,0.6945801,0.2783203
		c0.1577835,0.090889,0.5707397,0.1342697,0.5187988,0.4282227c-0.1064453,0.6134033-0.2801514,1.2150879-0.5148926,1.7890625
		c-0.0621185,0.1523743-0.2443008,0.1987-0.3728027,0.1154785c-1.6233673-1.0679321-2.0954132-1.0644531-1.9953613-1.0168457
		c-0.2593994,0-0.6086464,0.2021484-0.6539345,0.4555664c-0.1214905,0.6766968,1.2981377,0.9914856,1.8602333,1.3198242
		c0.6322021,0.369873,1.1589355,0.9310303,1.4824219,1.5791016c1.2102814,2.4144363-0.4144669,4.9669724-2.9744873,4.8110352
		l-0.2813721,1.0812988c-0.034935,0.1329269-0.1703949,0.21138-0.2978554,0.182373
		c-1.2353096-0.2928848-1.3180046-0.2273331-1.4173584-0.385498c-0.0355225-0.0593262-0.0463867-0.1292725-0.0296631-0.1953125
		c0.0970459-0.3808594,0.2322998-0.7531738,0.3896484-1.116333c-1.3506546-0.6063156-0.9063683-0.4203415-0.6036377-1.6051025
		c0.0296631-0.1192627,0.3018799-1.1795654,0.6451416-1.1795654c0.2063599,0,0.6184578,0.5382233,1.3985634,0.6174316
		c1.0772476,0.1359177,2.0228424-0.865799,0.6193848-2.0889893c-0.3244629-0.2822266-0.7160645-0.4626465-1.1312294-0.6540527
		c-0.5424805-0.2495117-1.1037598-0.5079346-1.5180664-1.013916C60.8514061,81.9821854,62.260807,79.5036469,64.8524475,79.7428818z
		"/><path d="M62.2872581,54.303669c1.0101318,0.8632813,1.9526405,2.0136719,2.3707314,3.1264648l0.5452881-25.8056641
		c0.0202637-0.8483887-0.5958252-1.5351563-1.3734169-1.5351563H29.075346c-0.7775879,0-1.3734131,0.6867676-1.322998,1.5351563
		l1.8334961,30.847168c-0.1618481,0.0156631-0.2453518,0.1386337-0.2385254,0.2631836l0.4482422,7.557621
		c0.0488281,0.8359375,0.7695313,1.515625,1.6064453,1.515625h31.685545c0.8398438,0,1.5390663-0.6835938,1.557621-1.5253906
		l0.1328125-6.3632851c0.0029297-0.1376953-0.1064453-0.2519531-0.2451172-0.2548828c-0.0009766,0-0.0029297,0-0.0048828,0
		c-0.1357422,0-0.2470703,0.1083984-0.25,0.2451172l-0.0852051,4.0773964
		c-0.0212402-0.0437012-0.0528564-0.0870361-0.119873-0.1174316c-0.0878944-0.9453125-0.6494179-2.0898438-1.604496-2.5498047
		c-0.4077148-0.1975098-0.8544922-0.2893066-1.3037109-0.3168945c-0.1074219-0.1002197-0.2124023-0.1960449-0.3208008-0.2902832
		c0.5499268-0.463623,1.0126953-1.0146523,1.3883057-1.6179237l1.2030029,0.7299805
		c0.2864647,0.170517,0.5407982-0.2581863,0.2597656-0.4277344l-1.2145996-0.7370605
		c0.4169922-0.7922363,0.6710205-1.6550293,0.7456055-2.536377c0.9469566,0.2213287,1.3458824,0.3339844,1.4475136,0.3339844
		c0.2970047,0,0.3435211-0.426384,0.0576172-0.4931641l-1.4654579-0.3449707
		c0.0023499-0.7943535-0.134964-1.5382347-0.5021973-2.404541l1.3377724-0.2124023
		c0.3212662-0.0504837,0.2572556-0.5410957-0.078125-0.4941406l-1.4797401,0.2348633
		c-0.3857422-0.7495117-0.9144287-1.4504395-1.5566406-2.0554199c0.3845215-0.1625977,0.7839355-0.2839355,1.2033691-0.3308105
		C62.2298851,54.3524971,62.255764,54.3238106,62.2872581,54.303669z M61.8149681,53.9254951
		c-0.4342041,0.0772705-0.8551025,0.203125-1.2513428,0.3956299c-0.9592285-0.7845459-2.1208496-1.3742676-3.4541016-1.7712402
		C59.1186333,52.4522362,60.578228,52.997139,61.8149681,53.9254951z M46.1209984,45.2663155
		c-0.5065918,0.0871582-0.9985352,0.2337646-1.4628906,0.4609375c-1.1047363-0.9116211-2.4838867-1.602417-4.0308838-2.0422363
		C42.9794235,43.5444946,44.6942787,44.1853371,46.1209984,45.2663155z M39.5393333,43.8100166
		c0.03479,0.0701904,0.0894775,0.1279297,0.1722412,0.1416016l0.0703125,0.015625
		c7.8619881,1.8620491,7.4500847,8.078434,7.3847656,7.8886719c-0.001709,0.0070801,0.0043945,0.0129395,0.0032959,0.0201416
		c-0.0775146,2.1556396-1.230835,4.3067627-3.0640869,5.5721436c-0.3845215-0.3309326-0.8112793-0.6103516-1.2790527-0.8295898
		c2.6972466-1.7152748,3.3917427-4.9660072,2.3178711-7.5513916c-1.9924736-4.7644577-8.0975227-4.9301071-10.3121338-0.9595947
		c-1.8174629,3.2093048-0.7071457,8.1675377,3.5130615,9.2565918c-0.1013184,0.1931152-0.1745605,0.3942871-0.2092285,0.5981445
		c-1.235199-1.4045982-2.3623199-1.4883194-3.4370117-0.9384766C31.2152576,52.2052917,32.3120308,44.9799309,39.5393333,43.8100166
		z M44.5738792,57.8178291l0.7402344,0.6582031c-0.0679588,0.0991096-0.0562248,0.0525055-0.1298828,0.2080078
		c-0.1973877-0.31604-0.4420166-0.611084-0.7099609-0.890625c0.0219727-0.0157471,0.0424805-0.0334473,0.0643311-0.0493164
		C44.5519066,57.7685127,44.5519066,57.7980537,44.5738792,57.8178291z M37.5533714,53.751667
		c0.1087837-0.4379654,0.3724594-1.2289848,0.7290039-0.9517822c1.6661301,1.2937813,3.320385-0.4489746,0.5562744-1.7181396
		c-0.4508057-0.208252-0.9173584-0.4232178-1.2645264-0.8474121c-1.0420227-1.2727394,0.1166916-3.3340073,2.2695313-3.1672363
		c0.1667366-0.6850433,0.1236458-1.1524162,0.5424805-1.0926514l0.7910156,0.1046143
		c0.1631584,0.0230484,0.2578011,0.1870995,0.2043457,0.3372803c-0.1160889,0.3155518-0.2053223,0.6398926-0.2675781,0.9643555
		c0.1970825,0.0759354,0.3607559,0.144474,0.8256836,0.3375244c0.1105957,0.0444336,0.1745605,0.1599121,0.1539307,0.2772217
		c-0.0877686,0.506958-0.230835,1.0059814-0.4261475,1.4814453c-0.0285645,0.0700684-0.0866699,0.123291-0.1586914,0.1459961
		c-0.2148857,0.0578537-0.1926079-0.0813637-1.2744141-0.6638184c-0.4421692-0.2368774-0.458744-0.1705933-0.5592041-0.196167
		c-0.1953125,0-0.4605713,0.1547852-0.4931641,0.3381348c-0.0920372,0.514431,1.0651512,0.7785034,1.5111084,1.0406494
		c1.3073921,0.7664337,1.8666382,2.3693657,1.4389648,3.5775146c-0.3731003,1.0571976-1.3321953,1.8341942-2.6572266,1.7679443
		l-0.2219238,0.8526611c-0.0345688,0.1328468-0.1686401,0.212677-0.2978516,0.1834717
		c-1.3137779-0.3164749-1.5025558-0.0267143-0.9082031-1.4165039C36.9366264,54.6025429,37.2993355,54.7500916,37.5533714,53.751667
		z M60.4649925,65.0319443c-0.0231934,0.0031738-0.0461426,0.0053711-0.0692139,0.0090332
		c0.0180664-0.0128174,0.0362549-0.0251465,0.0543213-0.038208C60.4566917,65.0119247,60.4569359,65.0235214,60.4649925,65.0319443z
		 M62.7568626,59.737751c-0.0020752,0.0064697-0.0095215,0.0087891-0.0111084,0.015625
		c-0.00354,0.0146484,0.0074463,0.0268555,0.0065918,0.0415039c-0.0802727,2.4229393-1.6768265,4.8550453-4.3631592,5.6904335
		c-0.4868622-0.4542389-1.0107803-0.6672745-1.5712891-0.7390137c1.5057373-0.1948242,2.918335-1.0764198,3.7432861-2.3571815
		c2.230793-3.4637489-0.1444359-8.291687-4.2128906-8.411377c-2.9506111-0.0869293-5.3772354,2.2129135-5.1411133,5.8288574
		c0.2035408,3.1046791,2.3761711,4.845089,4.7416992,4.9707069c-0.5917664,0.1076813-1.0752144,0.3289413-1.4663086,0.7922363
		c-0.5527382-0.1359177-0.8995361-0.2914124-1.0041504-0.3299561c-1.9520378-1.4510651-4.5460434-0.8875885-5.717041,1.0889893
		c-0.168045,0.2847366,0.2573433,0.5376663,0.4296875,0.2558594c1.3454208-2.2702637,4.6609688-2.1755905,5.9541016,0.1240234
		c0.1281815,0.232048,0.4915695,0.1247406,0.4667969-0.1455078c-0.0761604-0.8073044,1.2369041-1.6531296,2.5517578-1.2363281
		c0.5976563,0.1904297,1.1191406,0.640625,1.3955078,1.2050781c0.1125412,0.2272415,0.4589958,0.1620483,0.4746094-0.0966797
		c0.0317307-0.5972977,1.694397-1.4045639,3.2177734-0.6650391c0.8164063,0.3935547,1.2949219,1.4570313,1.3310547,2.2597656
		c0.0039063,0.0634766,0.0302734,0.1992188,0.1982422,0.2705078c0.1069069,0.1069031,0.3108253,0.1066513,0.4072304-0.0866699
		l-0.0429688,2.0583496c-0.0126953,0.5712891-0.4873085,1.0361328-1.057621,1.0361328h-31.685545
		c-0.5771484,0-1.0732422-0.46875-1.1064453-1.0449219l-0.4443359-7.4882851
		c0.0222168-0.0820313-0.0021973-0.1711426-0.0675049-0.2382813c0.666626-0.6867676,1.5411377-1.1872559,2.4809551-1.3883057
		c0.0223389,0.6248779,0.2183838,1.2115479,0.5631104,1.6568604c0.1961708,0.255024,0.6000633-0.0420494,0.3945313-0.3066406
		c-0.3518143-0.4552231-0.5515327-1.1239777-0.4150391-1.9677734c0.1813812-1.1025162,1.1618614-2.577343,2.15625-3.0839844
		c1.3023682-0.7191658,2.3980331,0.241333,3.2724609,1.4443359c0.1696472,0.2307205,0.531002,0.0413094,0.4384766-0.2294922
		c-0.1872749-0.535511,0.0614052-1.1962967,0.4951172-1.5498047c0.9821663-0.775486,3.1540337-0.6666565,4.7626953,0.8330078
		c0.7591934,0.7181931,0.9926033,1.2915916,1.2285156,1.8027344c0.1364746,0.2941246,0.5723839,0.101635,0.4599609-0.1943359
		c-0.0857582-0.2286949-0.1101456-0.4433365,0.0546875-0.7294922c0.5344391-0.937664,1.7363358-0.5162582,2.3056641,0.4423828
		c0.3701172,0.6132813,0.4931641,1.3671875,0.6025391,2.0322266c0.0537605,0.324894,0.548214,0.2467117,0.4941406-0.0800781
		c-0.1171875-0.7099609-0.2490234-1.5146484-0.6679688-2.2089844c-0.5953522-1.0032082-1.8342628-1.6105614-2.7540283-0.8989258
		l-0.7390137-0.6557617c0.6376953-0.5330811,1.1859131-1.164917,1.6187744-1.869873l1.3977051,0.8483887
		c0.285965,0.1702156,0.540596-0.2559891,0.2597656-0.4277344l-1.4194336-0.8615723
		c0.4841309-0.9133301,0.7839355-1.9086914,0.8692627-2.9199219c1.2967911,0.303318,1.5769882,0.3879395,1.677124,0.3879395
		c0.2956429,0,0.3450432-0.4262886,0.0566406-0.4931641l-1.6964111-0.3989258
		c0.0105209-0.889225-0.1170654-1.7143097-0.5687256-2.7769775l1.5541992-0.2469482
		c0.3203468-0.0503387,0.2582512-0.5395966-0.078125-0.4941406l-1.6938477,0.269043
		c-0.44104-0.8703613-1.0545654-1.6762695-1.8120117-2.3771973c0.4538574-0.1976318,0.9260254-0.3425293,1.4189453-0.3967285
		c0.0345459-0.0036621,0.0557861-0.0301514,0.0842285-0.0460205c1.3187256,1.1174316,2.5466309,2.661377,2.8928223,4.0932617
		c0.5957031,2.4844971,0.0402832,5.2923584-1.4140625,7.362915c0.8079834,0.4443359,1.5351563,1.0705566,2.0805664,1.828125
		c0.1399803-3.0699577,1.8338737-5.1984787,4.8681641-6.0499268L55.002346,31.6244698
		c0-0.1414795,0.111084-0.2524414,0.2525635-0.2524414c0.1412354,0,0.2525635,0.1109619,0.2525635,0.2524414l0.0100098,21.1394043
		c0.1853371-0.0532265,0.3383865-0.0687561,0.4909668-0.0941162c0.0323486,0.0654297,0.0844727,0.1190186,0.1611328,0.1363525
		C60.6429863,53.8097572,62.8228188,56.8925171,62.7568626,59.737751z M54.2638206,61.4253731
		c0.1025162-0.4250412,0.3480873-1.1229439,0.6904297-0.8551025c1.4074554,1.1079674,2.882309-0.3447418,0.4587402-1.4648438
		c-0.4003906-0.1843262-0.8156738-0.3757324-1.1264648-0.7553711c-0.9214325-1.1265564,0.0772057-2.9809685,2.001709-2.8397217
		c0.137764-0.566925,0.1255798-0.7872353,0.2491455-0.8985596c0.1987267-0.1474648,0.2743759-0.0339165,0.9556885,0.0236816
		c0.1639366,0.0231552,0.2580338,0.18993,0.2032471,0.3372803c-0.0968018,0.2663574-0.1719971,0.5435791-0.2281494,0.8238525
		c0.149292,0.0571289,0.2971191,0.1174316,0.4431152,0.1782227c0.1172676,0.0721588,0.465416,0.1020622,0.4152832,0.3857422
		c-0.0778809,0.4516602-0.2050781,0.8935547-0.3776855,1.3137207c-0.0285645,0.0700684-0.0869141,0.123291-0.1588135,0.1459961
		c-0.2096939,0.0532875-0.1913376-0.0735474-1.1470947-0.5888672c-0.1638184-0.088623-0.3244629-0.1685791-0.477417-0.1696777
		c-0.0009766,0-0.0009766,0-0.0019531,0c-0.1726074,0-0.3817139,0.1411133-0.4053955,0.274292
		c-0.0512695,0.2850342,0.3708496,0.4813232,0.8847656,0.6904297c2.8396568,1.147644,2.1884499,5.087822-0.6330566,4.9710693
		c-0.1675072,0.4775543-0.1220512,0.992012-0.4874268,0.911377c-1.1918831-0.2910652-1.3432655-0.0451469-0.8321533-1.2646484
		C53.7230835,62.1983109,54.0369453,62.3125763,54.2638206,61.4253731z"/><path d="M57.8836937,61.2477608c0.2988129-0.8468513-0.0994797-2.0254631-1.0622559-2.5891113
		c-0.4010429-0.23283-1.7219353-0.5088882-1.5603027-1.411377c0.0749512-0.4143066,0.5275879-0.6904297,0.9044189-0.6904297
		c0.1536942,0.0530548,0.1588173-0.1442909,1.4241943,0.6411133c0.0819092-0.2368164,0.1499023-0.4793701,0.2012939-0.7259521
		c-0.6267929-0.2636337-1.2363472-0.5333519-1.895752-0.4625244c-1.2618942,0.1340256-1.7848854,1.3262749-1.2181396,2.0209961
		c0.4314232,0.5242195,1.2889328,0.6481514,1.8730469,1.1589355c1.6253014,1.4130058-0.0278702,2.9732819-1.6520996,1.9587402
		c-0.2261276,0.57798-0.1125908,0.384037-0.3017578,0.8927002c0.3186035,0.166626,0.6795654,0.3294678,1.0593262,0.413208
		C56.6606712,62.6720772,57.5523949,62.1877022,57.8836937,61.2477608z"/><path d="M54.9800072,63.2747383l0.4122314,0.0897217l0.1123047-0.4313965
		c-0.121582-0.0283203-0.2319336-0.0754395-0.3474121-0.1149902C55.0931664,62.9689522,55.0282249,63.1198311,54.9800072,63.2747383
		z"/><path d="M57.1231956,55.0960274l-0.2248535-0.0306396l-0.111084,0.5220947
		c0.0673828,0.0157471,0.1352539,0.0294189,0.2016602,0.048584C57.0263939,55.4539375,57.068264,55.2726631,57.1231956,55.0960274z"/><path d="M46.819973,69.1928329c-0.0721245,0.3210754,0.414608,0.434967,0.4882813,0.109375
		c0.1328125-0.5976563,0.6943359-1.078125,1.3066406-1.1171875c0.5996094-0.0195313,1.2509766,0.3671875,1.4785156,0.9462891
		c0.1027031,0.2543106,0.4314003,0.1816635,0.4775391-0.0410156c0.1357422-0.6572266,0.9423828-0.9931641,1.578125-0.8896484
		c0.6083984,0.1025391,1.2011719,0.4990234,1.8125,1.2109375c0.2117615,0.2498703,0.5953674-0.0720673,0.3789063-0.3261719
		c-0.6894531-0.8037109-1.3798828-1.2548828-2.1083984-1.3769531c-0.7041016-0.1181641-1.5351563,0.1669922-1.9394531,0.7734375
		c-0.4003906-0.5185547-1.0605469-0.8417969-1.7099609-0.7949219C47.7438011,67.7397079,47.0025902,68.373497,46.819973,69.1928329z
		"/><path d="M40.5826683,61.9818916c-1.2537804-0.902256-3.603363,0.6113586-3.3183594,2.7851601
		c0.0433235,0.3287506,0.5382347,0.263298,0.4960938-0.0644531c-0.2723389-2.065094,2.2353554-3.1619911,2.7675781-2.0341835
		c0.0136719,0.0693359,0.0351563,0.1376953,0.0615234,0.203125c0.1086273,0.260704,0.6400108,0.2223587,0.4208984-0.3457031
		c-0.1749229-1.2604828,2.4324379-1.7112045,3.859375-0.0761719c0.2192726,0.2472649,0.5945244-0.0797539,0.3769531-0.3300781
		C43.6815948,60.331707,41.048172,60.6743813,40.5826683,61.9818916z"/></svg>