<svg xmlns="http://www.w3.org/2000/svg" enable-background="new 0 0 3000 3000" viewBox="0 0 3000 3000"><switch><g><polygon points="2050.273 2098.181 1066.89 1526.059 150 2055.414 1133.383 2627.557" opacity=".07"/><polygon fill="#465152" points="2814.979 2557.813 2846.65 2539.408 2850 1357.705 2818.329 1376.11"/><polygon fill="#465152" points="2818.329 1376.11 2850 1357.705 2016.626 876.557 1984.956 894.962"/><polygon fill="#c78a1f" points="1984.956 894.962 1981.605 2076.665 2814.979 2557.813 2818.329 1376.11"/><polygon fill="#dcdcdc" points="1136.585 2558.802 1970.031 2077.612 1152.344 1602.424 236.943 2035.336"/><polygon fill="#c5c5c5" points="1970.031 2077.612 1966.681 895.909 1067.039 372.443 1070.389 1554.146"/><polygon fill="#4a5057" points="1255.175 2322.019 1850.714 1978.184 1250.602 1629.183 655.063 1973.017"/><polygon fill="#303338" points="1850.714 1978.184 1848.32 1133.798 1240.891 780.607 1243.285 1624.994"/><polygon fill="#b3b3b3" points="753.741 1913.274 1252.33 2058.94 1433.638 1603.893 1435.416 1353.262 1209.67 1468.801"/><g><polygon fill="#ffc660" points="1966.681 895.909 1067.039 372.443 233.593 853.633 1133.235 1377.098"/></g><g><polygon fill="#c78a1f" points="1133.235 1377.098 233.593 853.633 236.943 2035.336 1136.585 2558.802"/></g><path fill="#95a2b3" d="M1966.681,895.983l3.35,1181.703l-833.445,481.189l-3.35-1181.702L1966.681,895.983z
					 M1255.06,2321.54l595.539-343.834l-2.394-844.387l-595.539,343.834L1255.06,2321.54z"/><path fill="#414c4d" d="M1973.596,1264.891L1973.596,1264.891c16.984,0,30.752-13.768,30.752-30.752v-151.393
					c0-16.984-13.768-30.752-30.752-30.752l0,0c-16.984,0-30.752,13.768-30.752,30.752v151.393
					C1942.844,1251.124,1956.612,1264.891,1973.596,1264.891z"/><path fill="#414c4d" d="M1973.596,1961.398L1973.596,1961.398c16.984,0,30.752-13.768,30.752-30.752v-151.393
					c0-16.984-13.768-30.751-30.752-30.751l0,0c-16.984,0-30.752,13.768-30.752,30.751v151.393
					C1942.844,1947.63,1956.612,1961.398,1973.596,1961.398z"/><path fill="#ccc" d="M1193.638,2428.279l-2.796-986.701l718.781-414.987l2.801,986.69L1193.638,2428.279z
					 M1201.963,1447.98l2.723,961.1l696.617-402.202l-2.728-961.093L1201.963,1447.98z"/><g><polygon fill="#465152" points="2645.828 2398.313 2724.955 2352.33 2727.467 1466.101 2648.341 1512.085"/><polygon fill="#ffc660" points="2648.341 1512.085 2727.467 1466.101 2102.417 1105.229 2023.291 1151.212"/><polygon fill="#ddb979" points="2023.291 1151.212 2020.778 2037.441 2645.828 2398.313 2648.341 1512.085"/><g><path fill="#636363" d="M2677.9,1865.839c3.797,0,7.751-1.168,11.749-3.48c12.679-7.322,22.577-24.477,22.535-39.048
							c-0.037-13.691-8.458-19.82-16.788-19.82c-3.801,0-7.763,1.177-11.773,3.489c-12.667,7.322-22.552,24.469-22.511,39.04
							C2661.149,1859.71,2669.57,1865.839,2677.9,1865.839z"/><path fill="#636363" d="M2677.9,1954.302c3.797,0,7.751-1.168,11.749-3.48c12.679-7.322,22.577-24.477,22.535-39.048
							c-0.037-13.691-8.458-19.82-16.788-19.82c-3.801,0-7.763,1.177-11.773,3.489c-12.667,7.323-22.552,24.469-22.511,39.04
							C2661.149,1948.172,2669.57,1954.302,2677.9,1954.302z"/><path fill="#636363" d="M2677.9,2042.764c3.797,0,7.751-1.168,11.749-3.48c12.679-7.323,22.577-24.477,22.535-39.048
							c-0.037-13.691-8.458-19.82-16.788-19.82c-3.801,0-7.763,1.177-11.773,3.489c-12.667,7.322-22.552,24.469-22.511,39.04
							C2661.149,2036.635,2669.57,2042.764,2677.9,2042.764z"/><path fill="#d9d9d9" d="M2686.571,1812.092c-10.847,6.262-19.596,21.447-19.561,33.911
							c0.035,12.463,8.842,17.512,19.688,11.25c10.873-6.278,19.623-21.463,19.587-33.926
							C2706.25,1810.863,2697.444,1805.814,2686.571,1812.092z"/><path fill="#d9d9d9" d="M2686.571,1900.554c-10.847,6.262-19.596,21.448-19.561,33.911
							c0.035,12.464,8.842,17.513,19.688,11.25c10.873-6.278,19.623-21.463,19.587-33.926
							C2706.25,1899.326,2697.444,1894.276,2686.571,1900.554z"/><path fill="#d9d9d9" d="M2686.571,1989.017c-10.847,6.262-19.596,21.448-19.561,33.911
							c0.035,12.464,8.842,17.513,19.688,11.25c10.873-6.278,19.623-21.463,19.587-33.926
							C2706.25,1987.788,2697.444,1982.739,2686.571,1989.017z"/></g></g></g></switch></svg>