<svg width="185" height="36" viewBox="0 0 185 36" fill="none" xmlns="http://www.w3.org/2000/svg">
<g filter="url(#filter0_i_53_168)">
<mask id="mask0_53_168" style="mask-type:luminance" maskUnits="userSpaceOnUse" x="3" y="2" width="32" height="18">
<path d="M3 2H35V19.3883H3V2Z" fill="white"/>
</mask>
<g mask="url(#mask0_53_168)">
<path d="M6.44597 14.9259C6.0122 13.5077 5.67905 12.0287 5.45401 10.5239C6.51299 10.3698 7.73673 10.0396 9.09904 9.53996C10.5819 8.99593 12.2529 8.24575 14.066 7.30951C16.2266 6.19387 18.0988 5.06318 18.9953 4.50616C18.9969 4.50717 18.9985 4.50818 19 4.50919C19.0015 4.50818 19.0031 4.50717 19.0047 4.50616C19.9012 5.06318 21.7734 6.19387 23.934 7.30951C25.7471 8.24575 27.4182 8.99593 28.901 9.53996C30.2633 10.0396 31.487 10.3698 32.546 10.5239C32.3209 12.0287 31.9878 13.5077 31.5541 14.9259C31.0868 16.4542 30.4909 17.9508 29.7825 19.3777C33.8472 15.0522 35 8.5782 35 8.5782L33.7903 8.56416C31.8721 8.54222 28.8345 7.48606 25.0057 5.51C22.0411 3.97998 19.6557 2.43312 19.632 2.41752L19.0047 2.00952L19 2.0126L18.9953 2.00952L18.368 2.41752C18.3443 2.43312 15.959 3.97998 12.9943 5.51C9.16554 7.48606 6.12787 8.54222 4.20971 8.56416L3 8.5782C3 8.5782 4.15283 15.0522 8.21752 19.3777C7.50911 17.9508 6.91344 16.4542 6.44597 14.9259Z" fill="#3E66F3"/>
</g>
<path d="M19.0045 31.448C19.0029 31.447 19.0013 31.446 18.9998 31.445C18.9983 31.446 18.9967 31.447 18.9951 31.448C12.0614 27.0853 6.14376 18.3282 5.01074 16.6517C5.39792 17.736 5.83791 18.7987 6.32646 19.8289C7.67236 22.6664 9.40675 25.3108 11.4813 27.6888C13.3286 29.806 15.111 31.3174 16.2815 32.2128C17.5692 33.198 18.4213 33.6785 18.4572 33.6984L18.9951 34L18.9998 33.9972L19.0045 34L19.5424 33.6984C19.5783 33.6785 20.4304 33.198 21.7181 32.2128C22.8886 31.3174 24.6711 29.806 26.5183 27.6888C28.5929 25.3108 30.3272 22.6664 31.6732 19.8289C32.1617 18.7987 32.6017 17.736 32.9889 16.6517C31.8559 18.3282 25.9382 27.0853 19.0045 31.448Z" fill="#3E66F3"/>
</g>
<mask id="mask1_53_168" style="mask-type:luminance" maskUnits="userSpaceOnUse" x="108" y="16" width="8" height="8">
<path d="M108.251 16.9865H115.244V23.948H108.251V16.9865Z" fill="white"/>
</mask>
<g mask="url(#mask1_53_168)">
<mask id="mask2_53_168" style="mask-type:luminance" maskUnits="userSpaceOnUse" x="108" y="16" width="8" height="8">
<path d="M108.251 20.4673C108.251 18.5449 109.812 16.9865 111.738 16.9865C113.664 16.9865 115.225 18.5449 115.225 20.4673C115.225 22.3897 113.664 23.948 111.738 23.948C109.812 23.948 108.251 22.3897 108.251 20.4673Z" fill="white"/>
</mask>
<g mask="url(#mask2_53_168)">
<path d="M108.251 23.948V16.9865H115.216V23.948H108.251Z" fill="#FF3131"/>
</g>
</g>
<path d="M54.0479 10.9215C55.7512 12.4466 56.6029 14.879 56.6029 18.2189C56.6029 21.025 55.8484 23.2223 54.3395 24.811C53.1553 26.0761 51.33 26.7085 48.8634 26.7085H42V9.29263H48.7902C50.0239 9.29263 51.0464 9.41827 51.8577 9.66926C52.669 9.92054 53.3989 10.3379 54.0479 10.9215ZM52.9762 18.0246C52.9762 16.3543 52.7773 15.1015 52.3797 14.2667C51.9828 13.4313 51.4113 12.8838 50.6648 12.6247C49.9183 12.365 48.8961 12.2349 47.5985 12.2349H45.5043V23.7651H48.4254C49.5127 23.7651 50.3768 23.6232 51.0176 23.3393C51.6585 23.0556 52.1448 22.5003 52.477 21.6733C52.8097 20.8465 52.9762 19.6303 52.9762 18.0246Z" fill="black"/>
<path d="M75.6393 12.0406L66.0985 23.7651H76.0042V26.7085H61.8633V23.5468L71.0141 12.2349H62.8858V9.29266H75.6393V12.0406Z" fill="black"/>
<path d="M90.2407 9C94.1027 9 96.4717 10.7194 97.3478 14.1576L95.2788 14.7405C95.2626 14.6919 95.2098 14.5135 95.1204 14.2056C95.0315 13.8979 94.8935 13.5696 94.7063 13.2208C94.5197 12.8724 94.3049 12.5845 94.0619 12.3572C93.0721 11.4331 91.8146 10.9707 90.2899 10.9707C88.2617 10.9707 86.6875 11.5914 85.5675 12.8322C84.4481 14.0724 83.8885 15.7789 83.8885 17.9514C83.8885 20.2385 84.4805 21.974 85.6647 23.1582C86.8495 24.3417 88.4804 24.9334 90.5575 24.9334C91.3688 24.9334 92.2527 24.7427 93.2098 24.3612C94.1675 23.9798 94.8974 23.5705 95.4 23.133V19.8729H90.2407V17.8303H97.6154V24.2761C96.4633 25.1846 95.2986 25.8659 94.1219 26.3199C92.9458 26.7733 91.7006 27 90.3871 27C88.635 27 87.085 26.6315 85.7379 25.8941C84.3914 25.1562 83.3488 24.1141 82.6104 22.7684C81.8726 21.422 81.5039 19.857 81.5039 18.0738C81.5039 16.3058 81.8525 14.7369 82.5504 13.3672C83.248 11.9968 84.2537 10.9263 85.5675 10.1563C86.8819 9.38562 88.4396 9 90.2407 9Z" fill="#050505"/>
<path d="M107.184 19.5815C107.184 21.0736 107.346 22.1519 107.67 22.8164C107.978 23.4491 108.457 23.96 109.106 24.3492C109.755 24.7388 110.591 24.9334 111.613 24.9334C113.025 24.9334 114.071 24.6536 114.753 24.0938C115.434 23.5342 115.856 22.8937 116.018 22.1723C116.18 21.4502 116.261 20.5947 116.261 19.6055V9.29266H118.574V19.5575C118.574 20.4331 118.521 21.2805 118.416 22.0991C118.31 22.918 118.005 23.6925 117.502 24.4224C116.951 25.2164 116.221 25.8446 115.312 26.3067C114.404 26.7688 113.211 27 111.735 27C110.306 27 109.15 26.7892 108.266 26.3679C107.382 25.9466 106.648 25.3628 106.064 24.6167C105.545 23.9684 105.216 23.2062 105.078 22.3306C104.94 21.4544 104.871 20.538 104.871 19.5815V9.29266H107.184V19.5815Z" fill="#050505"/>
<path d="M140.575 26.7085H137.947L135.903 21.4058H128.626L126.727 26.7085H124.27L130.963 9.29263H133.444L140.575 26.7085ZM131.206 14.449L129.308 19.5574H135.197L133.056 13.8169C132.795 13.1356 132.495 12.2358 132.154 11.117C132.154 11.1979 132.057 11.6073 131.863 12.3452C131.668 13.0826 131.449 13.7839 131.206 14.449Z" fill="#050505"/>
<path d="M158.464 10.3386C159.064 10.8088 159.503 11.3722 159.779 12.0286C160.055 12.6853 160.193 13.3621 160.193 14.0592C160.193 15.3243 159.787 16.3667 158.976 17.1862C158.164 18.0051 156.931 18.5361 155.276 18.779C155.908 19.0711 156.476 19.4645 156.98 19.9593C157.483 20.4535 158.018 21.1383 158.586 22.0139L161.604 26.7085H158.708L156.469 23.2062C155.69 21.9899 155.07 21.1021 154.607 20.5422C154.145 19.9827 153.67 19.5851 153.183 19.35C152.696 19.1149 152.08 18.9973 151.333 18.9973H148.559V26.7085H146.246V9.29266H154.254C155.276 9.29266 156.107 9.37003 156.748 9.52416C157.389 9.67768 157.961 9.94936 158.464 10.3386ZM156.785 16.2002C157.142 15.9244 157.401 15.5963 157.563 15.2155C157.725 14.8341 157.807 14.4488 157.807 14.0592C157.807 13.0382 157.441 12.309 156.711 11.8715C155.981 11.4334 155.13 11.2142 154.156 11.2142H148.559V16.9547H153.767C154.578 16.9547 155.199 16.8941 155.629 16.7724C156.059 16.6509 156.445 16.4602 156.785 16.2002Z" fill="#050505"/>
<path d="M178.399 10.1922C179.583 10.8735 180.479 11.8792 181.087 13.2088C181.696 14.5387 182 16.0953 182 17.8782C182 19.3544 181.781 20.7329 181.343 22.0139C180.905 23.2949 180.24 24.3084 179.348 25.0545C178.682 25.6056 177.944 26.0188 177.133 26.2947C176.321 26.5706 175.307 26.7085 174.09 26.7085H167.592V9.29263H173.92C174.942 9.29263 175.79 9.3535 176.463 9.47495C177.137 9.59669 177.782 9.83568 178.399 10.1922ZM179.616 17.8542C179.616 16.0872 179.34 14.721 178.788 13.7558C178.236 12.7908 177.579 12.1461 176.816 11.8223C176.053 11.4978 175.096 11.3353 173.944 11.3353H169.904V24.6647H173.726C174.861 24.6647 175.815 24.5312 176.585 24.264C177.356 23.9963 178.053 23.3597 178.678 22.3545C179.303 21.3494 179.616 19.8495 179.616 17.8542Z" fill="#050505"/>
<defs>
<filter id="filter0_i_53_168" x="3" y="2.00952" width="32" height="31.9905" filterUnits="userSpaceOnUse" color-interpolation-filters="sRGB">
<feFlood flood-opacity="0" result="BackgroundImageFix"/>
<feBlend mode="normal" in="SourceGraphic" in2="BackgroundImageFix" result="shape"/>
<feColorMatrix in="SourceAlpha" type="matrix" values="0 0 0 0 0 0 0 0 0 0 0 0 0 0 0 0 0 0 127 0" result="hardAlpha"/>
<feOffset dy="-1"/>
<feComposite in2="hardAlpha" operator="arithmetic" k2="-1" k3="1"/>
<feColorMatrix type="matrix" values="0 0 0 0 0 0 0 0 0 0 0 0 0 0 0 0 0 0 0.1 0"/>
<feBlend mode="normal" in2="shape" result="effect1_innerShadow_53_168"/>
</filter>
</defs>
</svg>
