<svg width="50" height="50" viewBox="0 0 50 50" fill="none" xmlns="http://www.w3.org/2000/svg">
<mask id="mask0_56_970" style="mask-type:luminance" maskUnits="userSpaceOnUse" x="0" y="0" width="50" height="28">
<path d="M0 0H50V27.1693H0V0Z" fill="white"/>
</mask>
<g mask="url(#mask0_56_970)">
<path d="M5.38433 20.1972C4.70656 17.9812 4.18602 15.6703 3.83439 13.3191C5.48905 13.0783 7.40113 12.5623 9.52975 11.7816C11.8467 10.9316 14.4576 9.75942 17.2906 8.29654C20.6666 6.55336 23.5918 4.78665 24.9927 3.91632C24.9951 3.91789 24.9976 3.91947 25 3.92105C25.0024 3.91947 25.0049 3.91789 25.0073 3.91632C26.4082 4.78665 29.3334 6.55336 32.7094 8.29654C35.5424 9.75942 38.1534 10.9316 40.4703 11.7816C42.5989 12.5623 44.5109 13.0783 46.1656 13.3191C45.814 15.6703 45.2934 17.9812 44.6157 20.1972C43.8856 22.5851 42.9545 24.9235 41.8476 27.1531C48.1988 20.3946 50 10.2789 50 10.2789L48.1098 10.2569C45.1127 10.2227 40.3663 8.57241 34.3839 5.48482C29.7517 3.09417 26.0245 0.677198 25.9876 0.652817L25.0073 0.0153198L25 0.0201244L24.9927 0.0153198L24.0124 0.652817C23.9755 0.677198 20.2484 3.09417 15.6161 5.48482C9.63366 8.57241 4.8873 10.2227 1.89018 10.2569L0 10.2789C0 10.2789 1.8013 20.3946 8.15237 27.1531C7.04549 24.9235 6.11475 22.5851 5.38433 20.1972Z" fill="#3E66F3"/>
</g>
<path d="M25.0068 46.0125C25.0044 46.0109 25.0019 46.0093 24.9995 46.0077C24.9971 46.0093 24.9946 46.0109 24.9922 46.0125C14.1583 39.1957 4.91194 25.5129 3.1416 22.8933C3.74656 24.5874 4.43405 26.248 5.1974 27.8576C7.30038 32.2913 10.0104 36.4231 13.2519 40.1387C16.1382 43.4468 18.9233 45.8084 20.7522 47.2074C22.7642 48.7469 24.0957 49.4976 24.1517 49.5287L24.9922 50L24.9995 49.9956L25.0068 50L25.8474 49.5287C25.9034 49.4976 27.2348 48.7469 29.2469 47.2074C31.0757 45.8084 33.8608 43.4468 36.7471 40.1387C39.9887 36.4231 42.6986 32.2913 44.8016 27.8576C45.565 26.248 46.2525 24.5874 46.8574 22.8933C45.0871 25.5129 35.8408 39.1957 25.0068 46.0125Z" fill="#3E66F3"/>
</svg>
